<svg width="375" height="812" viewBox="0 0 375 812" fill="none" xmlns="http://www.w3.org/2000/svg">
<path fill-rule="evenodd" clip-rule="evenodd" d="M375 0H0V812H28V397C28 363.863 54.8629 337 88 337H130V322.068C93.0748 301.641 68 262.308 68 217C68 150.58 121.888 97 188 97C254.112 97 308 150.58 308 217C308 260.652 284.724 298.758 250 319.753V337H288C321.137 337 348 363.863 348 397V812H375V0Z" fill="black" fill-opacity="0.8"/>
<mask id="path-2-inside-1_1468_5851" fill="white">
<path fill-rule="evenodd" clip-rule="evenodd" d="M250 319.753C284.724 298.758 308 260.652 308 217C308 150.58 254.112 97 188 97C121.888 97 68 150.58 68 217C68 262.308 93.0748 301.641 130 322.068V337H88C54.8629 337 28 363.863 28 397V812H348V397C348 363.863 321.137 337 288 337H250V319.753Z"/>
</mask>
<path d="M250 319.753L248.965 318.042L248 318.625V319.753H250ZM130 322.068H132V320.889L130.968 320.318L130 322.068ZM130 337V339H132V337H130ZM28 812H26V814H28V812ZM348 812V814H350V812H348ZM250 337H248V339H250V337ZM251.035 321.465C286.332 300.123 310 261.382 310 217H306C306 259.922 283.116 297.393 248.965 318.042L251.035 321.465ZM310 217C310 149.472 255.213 95 188 95V99C253.011 99 306 151.688 306 217H310ZM188 95C120.787 95 66 149.472 66 217H70C70 151.688 122.989 99 188 99V95ZM66 217C66 263.066 91.497 303.053 129.032 323.818L130.968 320.318C94.6527 300.228 70 261.55 70 217H66ZM132 337V322.068H128V337H132ZM88 339H130V335H88V339ZM30 397C30 364.967 55.9675 339 88 339V335C53.7583 335 26 362.758 26 397H30ZM30 812V397H26V812H30ZM348 810H28V814H348V810ZM346 397V812H350V397H346ZM288 339C320.033 339 346 364.967 346 397H350C350 362.758 322.242 335 288 335V339ZM250 339H288V335H250V339ZM248 319.753V337H252V319.753H248Z" fill="white" mask="url(#path-2-inside-1_1468_5851)"/>
</svg>
