<svg width="375" height="812" viewBox="0 0 375 812" fill="none" xmlns="http://www.w3.org/2000/svg">
<g clip-path="url(#clip0_1468_5871)">
<path fill-rule="evenodd" clip-rule="evenodd" d="M0 0H375V982.629H0V0ZM165.424 200.297C165.424 208.619 145.209 215.365 120.273 215.365C95.3368 215.365 75.1219 208.619 75.1219 200.297C75.1219 191.974 95.3368 185.228 120.273 185.228C145.209 185.228 165.424 191.974 165.424 200.297ZM255.727 215.365C280.663 215.365 300.878 208.619 300.878 200.297C300.878 191.974 280.663 185.228 255.727 185.228C230.79 185.228 210.575 191.974 210.575 200.297C210.575 208.619 230.79 215.365 255.727 215.365ZM233.151 338.931C233.151 347.253 212.936 354 188 354C163.064 354 142.849 347.253 142.849 338.931C142.849 330.608 163.064 323.862 188 323.862C212.936 323.862 233.151 330.608 233.151 338.931ZM211.461 289.957L188 215.365L164.539 289.957H211.461Z" fill="black" fill-opacity="0.8"/>
</g>
<defs>
<clipPath id="clip0_1468_5871">
<rect width="375" height="812" fill="white"/>
</clipPath>
</defs>
</svg>
