<svg width="375" height="816" viewBox="0 0 375 816" fill="none" xmlns="http://www.w3.org/2000/svg">
<path d="M357 46H18C15.2386 46 13 48.2386 13 51V239C13 241.761 15.2386 244 18 244H357C359.761 244 362 241.761 362 239V51C362 48.2386 359.761 46 357 46Z" stroke="white" stroke-width="2"/>
<path d="M337 82H264C261.239 82 259 84.2386 259 87V175C259 177.761 261.239 180 264 180H337C339.761 180 342 177.761 342 175V87C342 84.2386 339.761 82 337 82Z" fill="url(#paint0_linear_2016_16746)" stroke="white" stroke-width="2"/>
<path d="M49 81H30C28.8954 81 28 81.8954 28 83V87C28 88.1046 28.8954 89 30 89H49C50.1046 89 51 88.1046 51 87V83C51 81.8954 50.1046 81 49 81Z" fill="url(#paint1_linear_2016_16746)"/>
<path d="M105 97H30C28.8954 97 28 97.8954 28 99V103C28 104.105 28.8954 105 30 105H105C106.105 105 107 104.105 107 103V99C107 97.8954 106.105 97 105 97Z" fill="url(#paint2_linear_2016_16746)"/>
<path d="M109 141H30C28.8954 141 28 141.895 28 143V147C28 148.105 28.8954 149 30 149H109C110.105 149 111 148.105 111 147V143C111 141.895 110.105 141 109 141Z" fill="url(#paint3_linear_2016_16746)"/>
<path d="M93 125H30C28.8954 125 28 125.895 28 127V131C28 132.105 28.8954 133 30 133H93C94.1046 133 95 132.105 95 131V127C95 125.895 94.1046 125 93 125Z" fill="url(#paint4_linear_2016_16746)"/>
<path d="M375 288H0V816H375V288Z" fill="#1B1B1B"/>
<mask id="mask0_2016_16746" style="mask-type:luminance" maskUnits="userSpaceOnUse" x="16" y="314" width="16" height="16">
<path d="M32 314H16V330H32V314Z" fill="white"/>
</mask>
<g mask="url(#mask0_2016_16746)">
<path fill-rule="evenodd" clip-rule="evenodd" d="M24 330C19.5817 330 16 326.418 16 322C16 317.582 19.5817 314 24 314C28.4183 314 32 317.582 32 322C32 326.418 28.4183 330 24 330ZM23 322.5C23 321.948 23.4477 321.5 24 321.5C24.5523 321.5 25 321.948 25 322.5V325C25 325.552 24.5523 326 24 326C23.4477 326 23 325.552 23 325V322.5ZM24 318C23.3096 318 22.75 318.56 22.75 319.25C22.75 319.94 23.3096 320.5 24 320.5C24.6904 320.5 25.25 319.94 25.25 319.25C25.25 318.56 24.6904 318 24 318Z" fill="white"/>
</g>
<path d="M41.7925 327V317.416H38.0645V315.64H47.5845V317.416H43.8565V327H41.7925ZM48.7611 317.448V315.64H50.7771V317.448H48.7611ZM48.7611 327V318.84H50.7931V327H48.7611ZM53.0268 330.2V318.84H54.8828V319.432C54.8828 319.736 54.8508 319.992 54.8508 319.992H54.8828C54.8828 319.992 55.5868 318.648 57.5068 318.648C59.7148 318.648 61.1228 320.392 61.1228 322.92C61.1228 325.512 59.5388 327.192 57.3948 327.192C55.7788 327.192 55.0588 326.072 55.0588 326.072H55.0268C55.0268 326.072 55.0588 326.36 55.0588 326.776V330.2H53.0268ZM54.9948 322.968C54.9948 324.232 55.6828 325.48 57.0268 325.48C58.1468 325.48 59.0748 324.568 59.0748 322.952C59.0748 321.4 58.2428 320.392 57.0428 320.392C55.9868 320.392 54.9948 321.16 54.9948 322.968ZM62.12 325.992L63.048 324.568C63.048 324.568 63.944 325.464 65.272 325.464C65.848 325.464 66.344 325.208 66.344 324.728C66.344 323.512 62.376 323.672 62.376 321.048C62.376 319.528 63.736 318.648 65.496 318.648C67.336 318.648 68.232 319.576 68.232 319.576L67.48 321.08C67.48 321.08 66.728 320.376 65.48 320.376C64.952 320.376 64.44 320.6 64.44 321.112C64.44 322.264 68.408 322.12 68.408 324.744C68.408 326.104 67.224 327.192 65.288 327.192C63.256 327.192 62.12 325.992 62.12 325.992ZM74.349 327V320.584H73.341V318.968H74.349V318.6C74.349 315.928 76.541 315.576 77.677 315.576C78.093 315.576 78.365 315.624 78.365 315.624V317.352C78.365 317.352 78.189 317.32 77.949 317.32C77.373 317.32 76.381 317.464 76.381 318.648V318.968H78.125V320.584H76.381V327H74.349ZM78.8719 322.92C78.8719 320.424 80.8719 318.648 83.3519 318.648C85.8479 318.648 87.8479 320.424 87.8479 322.92C87.8479 325.432 85.8479 327.192 83.3679 327.192C80.8719 327.192 78.8719 325.432 78.8719 322.92ZM80.9359 322.92C80.9359 324.44 82.0399 325.464 83.3679 325.464C84.6799 325.464 85.7839 324.44 85.7839 322.92C85.7839 321.416 84.6799 320.376 83.3679 320.376C82.0399 320.376 80.9359 321.416 80.9359 322.92ZM89.4799 327V318.84H91.4319V320.248C91.4319 320.552 91.3999 320.824 91.3999 320.824H91.4319C91.7999 319.656 92.7759 318.728 94.0239 318.728C94.2159 318.728 94.3919 318.76 94.3919 318.76V320.76C94.3919 320.76 94.1839 320.728 93.9119 320.728C93.0479 320.728 92.0719 321.224 91.6879 322.44C91.5599 322.84 91.5119 323.288 91.5119 323.768V327H89.4799ZM102.323 327V317.416H98.5958V315.64H108.115V317.416H104.387V327H102.323ZM107.573 324.648C107.573 322.056 111.077 321.88 112.405 321.88H112.677V321.768C112.677 320.696 112.005 320.328 111.109 320.328C109.941 320.328 108.869 321.112 108.869 321.112L108.101 319.656C108.101 319.656 109.365 318.648 111.301 318.648C113.445 318.648 114.693 319.832 114.693 321.896V327H112.821V326.328C112.821 326.008 112.853 325.752 112.853 325.752H112.821C112.837 325.752 112.197 327.192 110.341 327.192C108.885 327.192 107.573 326.28 107.573 324.648ZM109.621 324.552C109.621 325.096 110.021 325.608 110.853 325.608C111.925 325.608 112.693 324.456 112.693 323.464V323.272H112.341C111.301 323.272 109.621 323.416 109.621 324.552ZM116.808 327V315.64H118.84V321.72H119.848L121.816 318.84H124.072L121.496 322.488V322.52L124.392 327H122.056L119.896 323.432H118.84V327H116.808ZM125.636 317.448V315.64H127.652V317.448H125.636ZM125.636 327V318.84H127.668V327H125.636ZM129.901 327V318.84H131.853V319.784C131.853 320.088 131.821 320.344 131.821 320.344H131.853C132.205 319.656 133.101 318.648 134.749 318.648C136.557 318.648 137.581 319.592 137.581 321.752V327H135.565V322.168C135.565 321.176 135.309 320.504 134.269 320.504C133.181 320.504 132.381 321.192 132.077 322.168C131.965 322.504 131.933 322.872 131.933 323.256V327H129.901ZM140.546 328.104C140.546 328.104 141.57 328.632 142.802 328.632C144.05 328.632 145.106 328.104 145.106 326.648V326.168C145.106 325.976 145.138 325.736 145.138 325.736H145.106C144.626 326.456 143.922 326.84 142.834 326.84C140.498 326.84 139.17 324.952 139.17 322.712C139.17 320.472 140.434 318.648 142.786 318.648C144.562 318.648 145.202 319.688 145.202 319.688H145.25C145.25 319.688 145.234 319.592 145.234 319.464V318.84H147.138V326.504C147.138 329.304 144.962 330.36 142.834 330.36C141.81 330.36 140.722 330.072 139.938 329.656L140.546 328.104ZM143.266 325.128C144.242 325.128 145.154 324.568 145.154 322.728C145.154 320.872 144.242 320.376 143.138 320.376C141.906 320.376 141.218 321.272 141.218 322.648C141.218 324.072 141.954 325.128 143.266 325.128ZM152.797 321.272C152.797 317.976 155.293 315.448 158.637 315.448C161.405 315.448 162.829 317 162.829 317L161.837 318.536C161.837 318.536 160.541 317.336 158.733 317.336C156.333 317.336 154.925 319.128 154.925 321.24C154.925 323.4 156.381 325.304 158.749 325.304C160.717 325.304 162.045 323.864 162.045 323.864L163.133 325.352C163.133 325.352 161.565 327.192 158.669 327.192C155.197 327.192 152.797 324.616 152.797 321.272ZM164.602 324.456V315.64H166.618V324.152C166.618 325.048 166.922 325.272 167.45 325.272C167.61 325.272 167.754 325.256 167.754 325.256V327.032C167.754 327.032 167.45 327.08 167.114 327.08C165.994 327.08 164.602 326.792 164.602 324.456ZM168.685 322.92C168.685 320.408 170.397 318.648 172.829 318.648C175.181 318.648 176.445 320.36 176.445 322.52C176.445 322.76 176.397 323.304 176.397 323.304H170.765C170.893 324.728 171.997 325.464 173.213 325.464C174.525 325.464 175.565 324.568 175.565 324.568L176.349 326.024C176.349 326.024 175.101 327.192 173.069 327.192C170.365 327.192 168.685 325.24 168.685 322.92ZM170.829 321.912H174.397C174.365 320.808 173.677 320.216 172.781 320.216C171.741 320.216 171.021 320.856 170.829 321.912ZM177.432 324.648C177.432 322.056 180.936 321.88 182.264 321.88H182.536V321.768C182.536 320.696 181.864 320.328 180.968 320.328C179.8 320.328 178.728 321.112 178.728 321.112L177.96 319.656C177.96 319.656 179.224 318.648 181.16 318.648C183.304 318.648 184.552 319.832 184.552 321.896V327H182.68V326.328C182.68 326.008 182.712 325.752 182.712 325.752H182.68C182.696 325.752 182.056 327.192 180.2 327.192C178.744 327.192 177.432 326.28 177.432 324.648ZM179.48 324.552C179.48 325.096 179.88 325.608 180.712 325.608C181.784 325.608 182.552 324.456 182.552 323.464V323.272H182.2C181.16 323.272 179.48 323.416 179.48 324.552ZM186.667 327V318.84H188.619V320.248C188.619 320.552 188.587 320.824 188.587 320.824H188.619C188.987 319.656 189.963 318.728 191.211 318.728C191.403 318.728 191.579 318.76 191.579 318.76V320.76C191.579 320.76 191.371 320.728 191.099 320.728C190.235 320.728 189.259 321.224 188.875 322.44C188.747 322.84 188.699 323.288 188.699 323.768V327H186.667ZM197.159 327V315.64H199.223V320.264H200.695L203.367 315.64H205.607L202.391 321.048V321.08L205.799 327H203.479L200.695 322.04H199.223V327H197.159ZM209.87 327V317.416H206.142V315.64H215.662V317.416H211.934V327H209.87ZM217.159 327V315.64H221.543C223.671 315.64 225.159 317.128 225.159 319.336C225.159 321.544 223.671 323.08 221.543 323.08H219.223V327H217.159ZM219.223 321.288H221.159C222.359 321.288 223.063 320.52 223.063 319.336C223.063 318.168 222.359 317.416 221.191 317.416H219.223V321.288ZM230.878 327V315.64H235.262C237.39 315.64 238.878 317.128 238.878 319.336C238.878 321.544 237.39 323.08 235.262 323.08H232.942V327H230.878ZM232.942 321.288H234.878C236.078 321.288 236.782 320.52 236.782 319.336C236.782 318.168 236.078 317.416 234.91 317.416H232.942V321.288ZM240.386 317.448V315.64H242.402V317.448H240.386ZM240.386 327V318.84H242.418V327H240.386ZM244.059 322.92C244.059 320.6 245.787 318.648 248.491 318.648C250.619 318.648 251.627 319.864 251.627 319.864L250.731 321.256C250.731 321.256 249.883 320.376 248.603 320.376C247.099 320.376 246.123 321.512 246.123 322.904C246.123 324.28 247.115 325.464 248.667 325.464C250.043 325.464 251.067 324.424 251.067 324.424L251.851 325.864C251.851 325.864 250.683 327.192 248.491 327.192C245.787 327.192 244.059 325.288 244.059 322.92ZM253.722 324.008V320.584H252.666V318.968H253.77V316.616H255.754V318.968H257.61V320.584H255.754V323.752C255.754 325.096 256.81 325.288 257.37 325.288C257.594 325.288 257.738 325.256 257.738 325.256V327.032C257.738 327.032 257.498 327.08 257.114 327.08C255.978 327.08 253.722 326.744 253.722 324.008ZM259.289 324.088V318.84H261.321V323.672C261.321 324.664 261.577 325.336 262.585 325.336C264.057 325.336 264.873 324.04 264.873 322.584V318.84H266.905V327H264.953V326.072C264.953 325.752 264.985 325.496 264.985 325.496H264.953C264.553 326.344 263.513 327.192 262.121 327.192C260.377 327.192 259.289 326.312 259.289 324.088ZM269.151 327V318.84H271.103V320.248C271.103 320.552 271.071 320.824 271.071 320.824H271.103C271.471 319.656 272.447 318.728 273.695 318.728C273.887 318.728 274.063 318.76 274.063 318.76V320.76C274.063 320.76 273.855 320.728 273.583 320.728C272.719 320.728 271.743 321.224 271.359 322.44C271.231 322.84 271.183 323.288 271.183 323.768V327H269.151ZM274.857 322.92C274.857 320.408 276.569 318.648 279.001 318.648C281.353 318.648 282.617 320.36 282.617 322.52C282.617 322.76 282.569 323.304 282.569 323.304H276.937C277.065 324.728 278.169 325.464 279.385 325.464C280.697 325.464 281.737 324.568 281.737 324.568L282.521 326.024C282.521 326.024 281.273 327.192 279.241 327.192C276.537 327.192 274.857 325.24 274.857 322.92ZM277.001 321.912H280.569C280.537 320.808 279.849 320.216 278.953 320.216C277.913 320.216 277.193 320.856 277.001 321.912ZM283.604 325.992L284.532 324.568C284.532 324.568 285.428 325.464 286.756 325.464C287.332 325.464 287.828 325.208 287.828 324.728C287.828 323.512 283.86 323.672 283.86 321.048C283.86 319.528 285.22 318.648 286.98 318.648C288.82 318.648 289.716 319.576 289.716 319.576L288.964 321.08C288.964 321.08 288.212 320.376 286.964 320.376C286.436 320.376 285.924 320.6 285.924 321.112C285.924 322.264 289.892 322.12 289.892 324.744C289.892 326.104 288.708 327.192 286.772 327.192C284.74 327.192 283.604 325.992 283.604 325.992Z" fill="white"/>
<mask id="mask1_2016_16746" style="mask-type:luminance" maskUnits="userSpaceOnUse" x="17" y="340" width="341" height="40">
<path d="M358 340H17V380H358V340Z" fill="white"/>
</mask>
<g mask="url(#mask1_2016_16746)">
<path d="M19.5 349.5L22 352L26.5 347.5" stroke="white" stroke-width="1.5" stroke-linecap="round" stroke-linejoin="round"/>
<path d="M38.3436 355V345.116H39.7296V349.274H41.1996L43.6916 345.116H45.2176L42.3476 349.806V349.834L45.3996 355H43.8316L41.1996 350.464H39.7296V355H38.3436ZM49.1803 355V346.32H45.7923V345.116H53.9543V346.32H50.5663V355H49.1803ZM55.3651 355V345.116H58.9771C60.7831 345.116 62.0851 346.334 62.0851 348.21C62.0851 350.086 60.7831 351.346 58.9771 351.346H56.7511V355H55.3651ZM56.7511 350.142H58.7531C59.9431 350.142 60.6711 349.4 60.6711 348.21C60.6711 347.02 59.9431 346.32 58.7671 346.32H56.7511V350.142ZM66.6107 354.132L67.2687 353.166C67.2687 353.166 68.0667 353.992 69.2987 353.992C69.8867 353.992 70.4747 353.684 70.4747 353.11C70.4747 351.808 66.8347 352.074 66.8347 349.764C66.8347 348.476 67.9827 347.748 69.3967 347.748C70.9507 347.748 71.6787 348.532 71.6787 348.532L71.1327 349.554C71.1327 349.554 70.5027 348.924 69.3827 348.924C68.7947 348.924 68.2207 349.176 68.2207 349.792C68.2207 351.066 71.8607 350.786 71.8607 353.11C71.8607 354.286 70.8527 355.168 69.2987 355.168C67.5627 355.168 66.6107 354.132 66.6107 354.132ZM73.4601 355V345.116H74.8181V348.742C74.8181 349.078 74.7901 349.33 74.7901 349.33H74.8181C75.1261 348.644 76.0221 347.748 77.4361 347.748C79.1021 347.748 79.8721 348.658 79.8721 350.464V355H78.5141V350.772C78.5141 349.778 78.3041 348.994 77.1701 348.994C76.1061 348.994 75.2241 349.722 74.9301 350.744C74.8461 351.024 74.8181 351.346 74.8181 351.682V355H73.4601ZM81.3776 351.444C81.3776 349.302 83.0856 347.748 85.1996 347.748C87.3136 347.748 89.0216 349.302 89.0216 351.444C89.0216 353.6 87.3136 355.168 85.1996 355.168C83.0856 355.168 81.3776 353.6 81.3776 351.444ZM82.7636 351.444C82.7636 352.928 83.8696 353.992 85.1996 353.992C86.5436 353.992 87.6356 352.928 87.6356 351.444C87.6356 349.974 86.5436 348.924 85.1996 348.924C83.8696 348.924 82.7636 349.974 82.7636 351.444ZM90.534 352.452V347.916H91.892V352.144C91.892 353.124 92.088 353.908 93.222 353.908C94.664 353.908 95.518 352.634 95.518 351.234V347.916H96.876V355H95.56V354.062C95.56 353.768 95.588 353.544 95.588 353.544H95.56C95.266 354.244 94.342 355.168 92.956 355.168C91.36 355.168 90.534 354.328 90.534 352.452ZM98.9151 353.068V345.116H100.274V352.83C100.274 353.684 100.61 353.838 101.03 353.838C101.156 353.838 101.268 353.824 101.268 353.824V355.028C101.268 355.028 101.058 355.056 100.82 355.056C100.05 355.056 98.9151 354.846 98.9151 353.068ZM102.243 351.458C102.243 349.204 103.573 347.748 105.449 347.748C107.087 347.748 107.633 348.868 107.633 348.868H107.661C107.661 348.868 107.633 348.658 107.633 348.392V345.116H108.991V355H107.703V354.328C107.703 354.048 107.717 353.852 107.717 353.852H107.689C107.689 353.852 107.115 355.168 105.365 355.168C103.447 355.168 102.243 353.656 102.243 351.458ZM103.629 351.458C103.629 352.998 104.455 353.992 105.631 353.992C106.681 353.992 107.675 353.25 107.675 351.444C107.675 350.184 107.017 348.924 105.673 348.924C104.553 348.924 103.629 349.848 103.629 351.458ZM114.709 355V347.916H116.025V348.854C116.025 349.134 115.997 349.372 115.997 349.372H116.025C116.305 348.756 117.145 347.748 118.685 347.748C120.351 347.748 121.121 348.658 121.121 350.464V355H119.763V350.772C119.763 349.778 119.553 348.994 118.419 348.994C117.341 348.994 116.473 349.708 116.179 350.73C116.095 351.01 116.067 351.332 116.067 351.682V355H114.709ZM122.626 351.444C122.626 349.302 124.334 347.748 126.448 347.748C128.562 347.748 130.27 349.302 130.27 351.444C130.27 353.6 128.562 355.168 126.448 355.168C124.334 355.168 122.626 353.6 122.626 351.444ZM124.012 351.444C124.012 352.928 125.118 353.992 126.448 353.992C127.792 353.992 128.884 352.928 128.884 351.444C128.884 349.974 127.792 348.924 126.448 348.924C125.118 348.924 124.012 349.974 124.012 351.444ZM132.174 352.41V349.106H131.25V348.014H132.216V345.97H133.532V348.014H135.24V349.106H133.532V352.256C133.532 353.67 134.526 353.852 135.044 353.852C135.24 353.852 135.366 353.824 135.366 353.824V355.028C135.366 355.028 135.17 355.056 134.89 355.056C133.98 355.056 132.174 354.776 132.174 352.41ZM139.99 351.458C139.99 349.358 141.558 347.748 143.784 347.748C145.562 347.748 146.444 348.784 146.444 348.784L145.8 349.736C145.8 349.736 145.044 348.924 143.84 348.924C142.412 348.924 141.376 349.988 141.376 351.444C141.376 352.886 142.412 353.992 143.882 353.992C145.198 353.992 146.066 353.04 146.066 353.04L146.612 354.034C146.612 354.034 145.632 355.168 143.784 355.168C141.558 355.168 139.99 353.586 139.99 351.458ZM148.15 355V347.916H149.466V349.148C149.466 349.442 149.438 349.68 149.438 349.68H149.466C149.788 348.644 150.614 347.832 151.706 347.832C151.888 347.832 152.056 347.86 152.056 347.86V349.204C152.056 349.204 151.874 349.162 151.664 349.162C150.796 349.162 149.998 349.778 149.676 350.828C149.55 351.234 149.508 351.668 149.508 352.102V355H148.15ZM152.841 351.444C152.841 349.302 154.549 347.748 156.663 347.748C158.777 347.748 160.485 349.302 160.485 351.444C160.485 353.6 158.777 355.168 156.663 355.168C154.549 355.168 152.841 353.6 152.841 351.444ZM154.227 351.444C154.227 352.928 155.333 353.992 156.663 353.992C158.007 353.992 159.099 352.928 159.099 351.444C159.099 349.974 158.007 348.924 156.663 348.924C155.333 348.924 154.227 349.974 154.227 351.444ZM162.095 357.8V347.916H163.341V348.518C163.341 348.798 163.313 349.036 163.313 349.036H163.341C163.341 349.036 163.943 347.748 165.721 347.748C167.625 347.748 168.829 349.26 168.829 351.458C168.829 353.712 167.471 355.168 165.623 355.168C164.069 355.168 163.453 354.006 163.453 354.006H163.425C163.425 354.006 163.453 354.258 163.453 354.622V357.8H162.095ZM163.411 351.486C163.411 352.746 164.111 354.006 165.413 354.006C166.533 354.006 167.457 353.082 167.457 351.472C167.457 349.932 166.631 348.938 165.455 348.938C164.391 348.938 163.411 349.68 163.411 351.486ZM170.49 357.8V347.916H171.736V348.518C171.736 348.798 171.708 349.036 171.708 349.036H171.736C171.736 349.036 172.338 347.748 174.116 347.748C176.02 347.748 177.224 349.26 177.224 351.458C177.224 353.712 175.866 355.168 174.018 355.168C172.464 355.168 171.848 354.006 171.848 354.006H171.82C171.82 354.006 171.848 354.258 171.848 354.622V357.8H170.49ZM171.806 351.486C171.806 352.746 172.506 354.006 173.808 354.006C174.928 354.006 175.852 353.082 175.852 351.472C175.852 349.932 175.026 348.938 173.85 348.938C172.786 348.938 171.806 349.68 171.806 351.486ZM178.394 351.458C178.394 349.204 179.92 347.748 181.936 347.748C183.938 347.748 185.002 349.232 185.002 351.066C185.002 351.248 184.96 351.654 184.96 351.654H179.794C179.864 353.208 180.97 353.992 182.23 353.992C183.448 353.992 184.33 353.166 184.33 353.166L184.89 354.16C184.89 354.16 183.84 355.168 182.146 355.168C179.92 355.168 178.394 353.558 178.394 351.458ZM179.836 350.632H183.616C183.574 349.414 182.818 348.826 181.908 348.826C180.872 348.826 180.032 349.47 179.836 350.632ZM186.188 351.458C186.188 349.204 187.518 347.748 189.394 347.748C191.032 347.748 191.578 348.868 191.578 348.868H191.606C191.606 348.868 191.578 348.658 191.578 348.392V345.116H192.936V355H191.648V354.328C191.648 354.048 191.662 353.852 191.662 353.852H191.634C191.634 353.852 191.06 355.168 189.31 355.168C187.392 355.168 186.188 353.656 186.188 351.458ZM187.574 351.458C187.574 352.998 188.4 353.992 189.576 353.992C190.626 353.992 191.62 353.25 191.62 351.444C191.62 350.184 190.962 348.924 189.618 348.924C188.498 348.924 187.574 349.848 187.574 351.458ZM198.136 351.444C198.136 349.302 199.844 347.748 201.958 347.748C204.072 347.748 205.78 349.302 205.78 351.444C205.78 353.6 204.072 355.168 201.958 355.168C199.844 355.168 198.136 353.6 198.136 351.444ZM199.522 351.444C199.522 352.928 200.628 353.992 201.958 353.992C203.302 353.992 204.394 352.928 204.394 351.444C204.394 349.974 203.302 348.924 201.958 348.924C200.628 348.924 199.522 349.974 199.522 351.444ZM207.39 355V347.916H208.706V349.148C208.706 349.442 208.678 349.68 208.678 349.68H208.706C209.028 348.644 209.854 347.832 210.946 347.832C211.128 347.832 211.296 347.86 211.296 347.86V349.204C211.296 349.204 211.114 349.162 210.904 349.162C210.036 349.162 209.238 349.778 208.916 350.828C208.79 351.234 208.748 351.668 208.748 352.102V355H207.39ZM216.53 352.41V349.106H215.606V348.014H216.572V345.97H217.888V348.014H219.596V349.106H217.888V352.256C217.888 353.67 218.882 353.852 219.4 353.852C219.596 353.852 219.722 353.824 219.722 353.824V355.028C219.722 355.028 219.526 355.056 219.246 355.056C218.336 355.056 216.53 354.776 216.53 352.41ZM220.735 351.444C220.735 349.302 222.443 347.748 224.557 347.748C226.671 347.748 228.379 349.302 228.379 351.444C228.379 353.6 226.671 355.168 224.557 355.168C222.443 355.168 220.735 353.6 220.735 351.444ZM222.121 351.444C222.121 352.928 223.227 353.992 224.557 353.992C225.901 353.992 226.993 352.928 226.993 351.444C226.993 349.974 225.901 348.924 224.557 348.924C223.227 348.924 222.121 349.974 222.121 351.444ZM229.472 351.444C229.472 349.302 231.18 347.748 233.294 347.748C235.408 347.748 237.116 349.302 237.116 351.444C237.116 353.6 235.408 355.168 233.294 355.168C231.18 355.168 229.472 353.6 229.472 351.444ZM230.858 351.444C230.858 352.928 231.964 353.992 233.294 353.992C234.638 353.992 235.73 352.928 235.73 351.444C235.73 349.974 234.638 348.924 233.294 348.924C231.964 348.924 230.858 349.974 230.858 351.444ZM242.7 355V349.106H241.818V348.014H242.7V347.678C242.7 345.34 244.464 345.046 245.36 345.046C245.668 345.046 245.878 345.088 245.878 345.088V346.25C245.878 346.25 245.738 346.222 245.528 346.222C245.01 346.222 244.044 346.39 244.044 347.706V348.014H245.724V349.106H244.044V355H242.7ZM246.451 353.012C246.451 350.674 249.531 350.576 250.721 350.576H251.029V350.45C251.029 349.288 250.371 348.896 249.475 348.896C248.383 348.896 247.501 349.582 247.501 349.582L246.941 348.588C246.941 348.588 247.963 347.748 249.587 347.748C251.379 347.748 252.387 348.728 252.387 350.52V355H251.127V354.328C251.127 354.006 251.155 353.768 251.155 353.768H251.127C251.127 353.768 250.553 355.168 248.859 355.168C247.641 355.168 246.451 354.426 246.451 353.012ZM247.823 352.942C247.823 353.516 248.271 354.076 249.153 354.076C250.301 354.076 251.043 352.872 251.043 351.822V351.598H250.693C249.671 351.598 247.823 351.668 247.823 352.942ZM254.421 355V347.916H255.737V349.148C255.737 349.442 255.709 349.68 255.709 349.68H255.737C256.059 348.644 256.885 347.832 257.977 347.832C258.159 347.832 258.327 347.86 258.327 347.86V349.204C258.327 349.204 258.145 349.162 257.935 349.162C257.067 349.162 256.269 349.778 255.947 350.828C255.821 351.234 255.779 351.668 255.779 352.102V355H254.421ZM263.645 355V349.106H262.763V348.014H263.645V347.678C263.645 345.34 265.409 345.046 266.305 345.046C266.613 345.046 266.823 345.088 266.823 345.088V346.25C266.823 346.25 266.683 346.222 266.473 346.222C265.955 346.222 264.989 346.39 264.989 347.706V348.014H266.669V349.106H264.989V355H263.645ZM267.97 355V347.916H269.286V349.148C269.286 349.442 269.258 349.68 269.258 349.68H269.286C269.608 348.644 270.434 347.832 271.526 347.832C271.708 347.832 271.876 347.86 271.876 347.86V349.204C271.876 349.204 271.694 349.162 271.484 349.162C270.616 349.162 269.818 349.778 269.496 350.828C269.37 351.234 269.328 351.668 269.328 352.102V355H267.97ZM272.661 351.444C272.661 349.302 274.369 347.748 276.483 347.748C278.597 347.748 280.305 349.302 280.305 351.444C280.305 353.6 278.597 355.168 276.483 355.168C274.369 355.168 272.661 353.6 272.661 351.444ZM274.047 351.444C274.047 352.928 275.153 353.992 276.483 353.992C277.827 353.992 278.919 352.928 278.919 351.444C278.919 349.974 277.827 348.924 276.483 348.924C275.153 348.924 274.047 349.974 274.047 351.444ZM281.916 355V347.916H283.232V348.854C283.232 349.134 283.204 349.372 283.204 349.372H283.232C283.568 348.546 284.562 347.748 285.668 347.748C286.858 347.748 287.558 348.294 287.796 349.358H287.824C288.216 348.504 289.196 347.748 290.344 347.748C291.94 347.748 292.682 348.658 292.682 350.464V355H291.324V350.758C291.324 349.764 291.128 348.98 290.064 348.98C289.07 348.98 288.328 349.82 288.076 350.786C288.006 351.08 287.978 351.402 287.978 351.766V355H286.62V350.758C286.62 349.834 286.48 348.98 285.388 348.98C284.352 348.98 283.624 349.834 283.358 350.842C283.288 351.122 283.274 351.444 283.274 351.766V355H281.916ZM298.602 352.41V349.106H297.678V348.014H298.644V345.97H299.96V348.014H301.668V349.106H299.96V352.256C299.96 353.67 300.954 353.852 301.472 353.852C301.668 353.852 301.794 353.824 301.794 353.824V355.028C301.794 355.028 301.598 355.056 301.318 355.056C300.408 355.056 298.602 354.776 298.602 352.41ZM303.326 355V345.116H304.684V348.742C304.684 349.078 304.656 349.33 304.656 349.33H304.684C304.992 348.644 305.888 347.748 307.302 347.748C308.968 347.748 309.738 348.658 309.738 350.464V355H308.38V350.772C308.38 349.778 308.17 348.994 307.036 348.994C305.972 348.994 305.09 349.722 304.796 350.744C304.712 351.024 304.684 351.346 304.684 351.682V355H303.326ZM311.271 351.458C311.271 349.204 312.797 347.748 314.813 347.748C316.815 347.748 317.879 349.232 317.879 351.066C317.879 351.248 317.837 351.654 317.837 351.654H312.671C312.741 353.208 313.847 353.992 315.107 353.992C316.325 353.992 317.207 353.166 317.207 353.166L317.767 354.16C317.767 354.16 316.717 355.168 315.023 355.168C312.797 355.168 311.271 353.558 311.271 351.458ZM312.713 350.632H316.493C316.451 349.414 315.695 348.826 314.785 348.826C313.749 348.826 312.909 349.47 312.713 350.632ZM38.4416 375V369.106H37.5596V368.014H38.4416V367.678C38.4416 365.34 40.2056 365.046 41.1016 365.046C41.4096 365.046 41.6196 365.088 41.6196 365.088V366.25C41.6196 366.25 41.4796 366.222 41.2696 366.222C40.7516 366.222 39.7856 366.39 39.7856 367.706V368.014H41.4656V369.106H39.7856V375H38.4416ZM42.7667 375V367.916H44.0827V369.148C44.0827 369.442 44.0547 369.68 44.0547 369.68H44.0827C44.4047 368.644 45.2307 367.832 46.3227 367.832C46.5047 367.832 46.6727 367.86 46.6727 367.86V369.204C46.6727 369.204 46.4907 369.162 46.2807 369.162C45.4127 369.162 44.6147 369.778 44.2927 370.828C44.1667 371.234 44.1247 371.668 44.1247 372.102V375H42.7667ZM47.4427 373.012C47.4427 370.674 50.5227 370.576 51.7127 370.576H52.0207V370.45C52.0207 369.288 51.3627 368.896 50.4667 368.896C49.3747 368.896 48.4927 369.582 48.4927 369.582L47.9327 368.588C47.9327 368.588 48.9547 367.748 50.5787 367.748C52.3707 367.748 53.3787 368.728 53.3787 370.52V375H52.1187V374.328C52.1187 374.006 52.1467 373.768 52.1467 373.768H52.1187C52.1187 373.768 51.5447 375.168 49.8507 375.168C48.6327 375.168 47.4427 374.426 47.4427 373.012ZM48.8147 372.942C48.8147 373.516 49.2627 374.076 50.1447 374.076C51.2927 374.076 52.0347 372.872 52.0347 371.822V371.598H51.6847C50.6627 371.598 48.8147 371.668 48.8147 372.942ZM55.4132 375V367.916H56.7292V368.854C56.7292 369.134 56.7012 369.372 56.7012 369.372H56.7292C57.0652 368.546 58.0592 367.748 59.1652 367.748C60.3552 367.748 61.0552 368.294 61.2932 369.358H61.3212C61.7132 368.504 62.6932 367.748 63.8412 367.748C65.4372 367.748 66.1792 368.658 66.1792 370.464V375H64.8212V370.758C64.8212 369.764 64.6252 368.98 63.5612 368.98C62.5672 368.98 61.8252 369.82 61.5732 370.786C61.5032 371.08 61.4752 371.402 61.4752 371.766V375H60.1172V370.758C60.1172 369.834 59.9772 368.98 58.8852 368.98C57.8492 368.98 57.1212 369.834 56.8552 370.842C56.7852 371.122 56.7712 371.444 56.7712 371.766V375H55.4132ZM67.7201 371.458C67.7201 369.204 69.2461 367.748 71.2621 367.748C73.2641 367.748 74.3281 369.232 74.3281 371.066C74.3281 371.248 74.2861 371.654 74.2861 371.654H69.1201C69.1901 373.208 70.2961 373.992 71.5561 373.992C72.7741 373.992 73.6561 373.166 73.6561 373.166L74.2161 374.16C74.2161 374.16 73.1661 375.168 71.4721 375.168C69.2461 375.168 67.7201 373.558 67.7201 371.458ZM69.1621 370.632H72.9421C72.9001 369.414 72.1441 368.826 71.2341 368.826C70.1981 368.826 69.3581 369.47 69.1621 370.632Z" fill="white"/>
</g>
<mask id="mask2_2016_16746" style="mask-type:luminance" maskUnits="userSpaceOnUse" x="18" y="388" width="339" height="20">
<path d="M357 388H18V408H357V388Z" fill="white"/>
</mask>
<g mask="url(#mask2_2016_16746)">
<path d="M20.5 397.5L23 400L27.5 395.5" stroke="white" stroke-width="1.5" stroke-linecap="round" stroke-linejoin="round"/>
<path d="M45.2383 403L44.2443 400.158H40.5203L39.5403 403H38.1123L41.6683 393.116H43.1243L46.6803 403H45.2383ZM42.4103 394.474H42.3823C42.3823 394.474 42.1583 395.37 41.9903 395.874L40.8843 399.01H43.8803L42.7883 395.874C42.6203 395.37 42.4103 394.474 42.4103 394.474ZM47.7713 401.068V393.116H49.1293V400.83C49.1293 401.684 49.4653 401.838 49.8853 401.838C50.0113 401.838 50.1233 401.824 50.1233 401.824V403.028C50.1233 403.028 49.9133 403.056 49.6753 403.056C48.9053 403.056 47.7713 402.846 47.7713 401.068ZM51.4764 401.068V393.116H52.8344V400.83C52.8344 401.684 53.1704 401.838 53.5904 401.838C53.7164 401.838 53.8284 401.824 53.8284 401.824V403.028C53.8284 403.028 53.6184 403.056 53.3804 403.056C52.6104 403.056 51.4764 402.846 51.4764 401.068ZM59.1552 400.41V397.106H58.2312V396.014H59.1972V393.97H60.5132V396.014H62.2212V397.106H60.5132V400.256C60.5132 401.67 61.5072 401.852 62.0252 401.852C62.2212 401.852 62.3472 401.824 62.3472 401.824V403.028C62.3472 403.028 62.1512 403.056 61.8712 403.056C60.9612 403.056 59.1552 402.776 59.1552 400.41ZM63.3888 399.458C63.3888 397.204 64.9148 395.748 66.9308 395.748C68.9328 395.748 69.9968 397.232 69.9968 399.066C69.9968 399.248 69.9548 399.654 69.9548 399.654H64.7888C64.8588 401.208 65.9648 401.992 67.2248 401.992C68.4428 401.992 69.3248 401.166 69.3248 401.166L69.8848 402.16C69.8848 402.16 68.8348 403.168 67.1408 403.168C64.9148 403.168 63.3888 401.558 63.3888 399.458ZM64.8308 398.632H68.6108C68.5688 397.414 67.8128 396.826 66.9028 396.826C65.8668 396.826 65.0268 397.47 64.8308 398.632ZM74.1504 400.242H74.1224C74.1224 400.242 74.0104 400.466 73.9124 400.634L72.4284 403H70.8884L73.2964 399.36L71.0144 395.916H72.5684L73.8844 398.072C73.9964 398.254 74.1224 398.492 74.1224 398.492H74.1504C74.1504 398.492 74.2764 398.254 74.3884 398.072L75.7044 395.916H77.2584L74.9764 399.36L77.3844 403H75.8444L74.3604 400.634C74.2624 400.466 74.1504 400.242 74.1504 400.242ZM79.0478 400.41V397.106H78.1238V396.014H79.0898V393.97H80.4058V396.014H82.1138V397.106H80.4058V400.256C80.4058 401.67 81.3998 401.852 81.9178 401.852C82.1138 401.852 82.2398 401.824 82.2398 401.824V403.028C82.2398 403.028 82.0438 403.056 81.7638 403.056C80.8538 403.056 79.0478 402.776 79.0478 400.41ZM86.793 402.132L87.451 401.166C87.451 401.166 88.249 401.992 89.481 401.992C90.069 401.992 90.657 401.684 90.657 401.11C90.657 399.808 87.017 400.074 87.017 397.764C87.017 396.476 88.165 395.748 89.579 395.748C91.133 395.748 91.861 396.532 91.861 396.532L91.315 397.554C91.315 397.554 90.685 396.924 89.565 396.924C88.977 396.924 88.403 397.176 88.403 397.792C88.403 399.066 92.043 398.786 92.043 401.11C92.043 402.286 91.035 403.168 89.481 403.168C87.745 403.168 86.793 402.132 86.793 402.132ZM93.6424 403V393.116H95.0004V396.742C95.0004 397.078 94.9724 397.33 94.9724 397.33H95.0004C95.3084 396.644 96.2044 395.748 97.6184 395.748C99.2844 395.748 100.054 396.658 100.054 398.464V403H98.6964V398.772C98.6964 397.778 98.4864 396.994 97.3524 396.994C96.2884 396.994 95.4064 397.722 95.1124 398.744C95.0284 399.024 95.0004 399.346 95.0004 399.682V403H93.6424ZM101.56 399.444C101.56 397.302 103.268 395.748 105.382 395.748C107.496 395.748 109.204 397.302 109.204 399.444C109.204 401.6 107.496 403.168 105.382 403.168C103.268 403.168 101.56 401.6 101.56 399.444ZM102.946 399.444C102.946 400.928 104.052 401.992 105.382 401.992C106.726 401.992 107.818 400.928 107.818 399.444C107.818 397.974 106.726 396.924 105.382 396.924C104.052 396.924 102.946 397.974 102.946 399.444ZM110.716 400.452V395.916H112.074V400.144C112.074 401.124 112.27 401.908 113.404 401.908C114.846 401.908 115.7 400.634 115.7 399.234V395.916H117.058V403H115.742V402.062C115.742 401.768 115.77 401.544 115.77 401.544H115.742C115.448 402.244 114.524 403.168 113.138 403.168C111.542 403.168 110.716 402.328 110.716 400.452ZM119.097 401.068V393.116H120.455V400.83C120.455 401.684 120.791 401.838 121.211 401.838C121.337 401.838 121.449 401.824 121.449 401.824V403.028C121.449 403.028 121.239 403.056 121.001 403.056C120.231 403.056 119.097 402.846 119.097 401.068ZM122.424 399.458C122.424 397.204 123.754 395.748 125.63 395.748C127.268 395.748 127.814 396.868 127.814 396.868H127.842C127.842 396.868 127.814 396.658 127.814 396.392V393.116H129.172V403H127.884V402.328C127.884 402.048 127.898 401.852 127.898 401.852H127.87C127.87 401.852 127.296 403.168 125.546 403.168C123.628 403.168 122.424 401.656 122.424 399.458ZM123.81 399.458C123.81 400.998 124.636 401.992 125.812 401.992C126.862 401.992 127.856 401.25 127.856 399.444C127.856 398.184 127.198 396.924 125.854 396.924C124.734 396.924 123.81 397.848 123.81 399.458ZM134.89 403V393.116H136.248V396.35C136.248 396.7 136.22 396.952 136.22 396.952H136.248C136.248 396.952 136.85 395.748 138.516 395.748C140.42 395.748 141.624 397.26 141.624 399.458C141.624 401.712 140.266 403.168 138.404 403.168C136.822 403.168 136.178 401.95 136.178 401.95H136.15C136.15 401.95 136.178 402.174 136.178 402.482V403H134.89ZM136.206 399.486C136.206 400.746 136.864 402.006 138.208 402.006C139.328 402.006 140.252 401.082 140.252 399.472C140.252 397.932 139.426 396.938 138.25 396.938C137.186 396.938 136.206 397.68 136.206 399.486ZM142.795 399.458C142.795 397.204 144.321 395.748 146.337 395.748C148.339 395.748 149.403 397.232 149.403 399.066C149.403 399.248 149.361 399.654 149.361 399.654H144.195C144.265 401.208 145.371 401.992 146.631 401.992C147.849 401.992 148.731 401.166 148.731 401.166L149.291 402.16C149.291 402.16 148.241 403.168 146.547 403.168C144.321 403.168 142.795 401.558 142.795 399.458ZM144.237 398.632H148.017C147.975 397.414 147.219 396.826 146.309 396.826C145.273 396.826 144.433 397.47 144.237 398.632ZM154.646 403V395.916H155.962V397.148C155.962 397.442 155.934 397.68 155.934 397.68H155.962C156.284 396.644 157.11 395.832 158.202 395.832C158.384 395.832 158.552 395.86 158.552 395.86V397.204C158.552 397.204 158.37 397.162 158.16 397.162C157.292 397.162 156.494 397.778 156.172 398.828C156.046 399.234 156.004 399.668 156.004 400.102V403H154.646ZM159.365 399.458C159.365 397.204 160.891 395.748 162.907 395.748C164.909 395.748 165.973 397.232 165.973 399.066C165.973 399.248 165.931 399.654 165.931 399.654H160.765C160.835 401.208 161.941 401.992 163.201 401.992C164.419 401.992 165.301 401.166 165.301 401.166L165.861 402.16C165.861 402.16 164.811 403.168 163.117 403.168C160.891 403.168 159.365 401.558 159.365 399.458ZM160.807 398.632H164.587C164.545 397.414 163.789 396.826 162.879 396.826C161.843 396.826 161.003 397.47 160.807 398.632ZM167.047 401.012C167.047 398.674 170.127 398.576 171.317 398.576H171.625V398.45C171.625 397.288 170.967 396.896 170.071 396.896C168.979 396.896 168.097 397.582 168.097 397.582L167.537 396.588C167.537 396.588 168.559 395.748 170.183 395.748C171.975 395.748 172.983 396.728 172.983 398.52V403H171.723V402.328C171.723 402.006 171.751 401.768 171.751 401.768H171.723C171.723 401.768 171.149 403.168 169.455 403.168C168.237 403.168 167.047 402.426 167.047 401.012ZM168.419 400.942C168.419 401.516 168.867 402.076 169.749 402.076C170.897 402.076 171.639 400.872 171.639 399.822V399.598H171.289C170.267 399.598 168.419 399.668 168.419 400.942ZM174.555 399.458C174.555 397.204 175.885 395.748 177.761 395.748C179.399 395.748 179.945 396.868 179.945 396.868H179.973C179.973 396.868 179.945 396.658 179.945 396.392V393.116H181.303V403H180.015V402.328C180.015 402.048 180.029 401.852 180.029 401.852H180.001C180.001 401.852 179.427 403.168 177.677 403.168C175.759 403.168 174.555 401.656 174.555 399.458ZM175.941 399.458C175.941 400.998 176.767 401.992 177.943 401.992C178.993 401.992 179.987 401.25 179.987 399.444C179.987 398.184 179.329 396.924 177.985 396.924C176.865 396.924 175.941 397.848 175.941 399.458ZM182.851 401.012C182.851 398.674 185.931 398.576 187.121 398.576H187.429V398.45C187.429 397.288 186.771 396.896 185.875 396.896C184.783 396.896 183.901 397.582 183.901 397.582L183.341 396.588C183.341 396.588 184.363 395.748 185.987 395.748C187.779 395.748 188.787 396.728 188.787 398.52V403H187.527V402.328C187.527 402.006 187.555 401.768 187.555 401.768H187.527C187.527 401.768 186.953 403.168 185.259 403.168C184.041 403.168 182.851 402.426 182.851 401.012ZM184.223 400.942C184.223 401.516 184.671 402.076 185.553 402.076C186.701 402.076 187.443 400.872 187.443 399.822V399.598H187.093C186.071 399.598 184.223 399.668 184.223 400.942ZM190.822 403V393.116H192.18V396.35C192.18 396.7 192.152 396.952 192.152 396.952H192.18C192.18 396.952 192.782 395.748 194.448 395.748C196.352 395.748 197.556 397.26 197.556 399.458C197.556 401.712 196.198 403.168 194.336 403.168C192.754 403.168 192.11 401.95 192.11 401.95H192.082C192.082 401.95 192.11 402.174 192.11 402.482V403H190.822ZM192.138 399.486C192.138 400.746 192.796 402.006 194.14 402.006C195.26 402.006 196.184 401.082 196.184 399.472C196.184 397.932 195.358 396.938 194.182 396.938C193.118 396.938 192.138 397.68 192.138 399.486ZM199.132 401.068V393.116H200.49V400.83C200.49 401.684 200.826 401.838 201.246 401.838C201.372 401.838 201.484 401.824 201.484 401.824V403.028C201.484 403.028 201.274 403.056 201.036 403.056C200.266 403.056 199.132 402.846 199.132 401.068ZM202.431 399.458C202.431 397.204 203.957 395.748 205.973 395.748C207.975 395.748 209.039 397.232 209.039 399.066C209.039 399.248 208.997 399.654 208.997 399.654H203.831C203.901 401.208 205.007 401.992 206.267 401.992C207.485 401.992 208.367 401.166 208.367 401.166L208.927 402.16C208.927 402.16 207.877 403.168 206.183 403.168C203.957 403.168 202.431 401.558 202.431 399.458ZM203.873 398.632H207.653C207.611 397.414 206.855 396.826 205.945 396.826C204.909 396.826 204.069 397.47 203.873 398.632Z" fill="white"/>
</g>
<defs>
<linearGradient id="paint0_linear_2016_16746" x1="258" y1="81" x2="258" y2="181" gradientUnits="userSpaceOnUse">
<stop stop-color="white" stop-opacity="0.1"/>
<stop offset="1" stop-color="white" stop-opacity="0.3"/>
</linearGradient>
<linearGradient id="paint1_linear_2016_16746" x1="51" y1="81" x2="28" y2="81" gradientUnits="userSpaceOnUse">
<stop stop-color="white" stop-opacity="0.1"/>
<stop offset="1" stop-color="white" stop-opacity="0.3"/>
</linearGradient>
<linearGradient id="paint2_linear_2016_16746" x1="107" y1="97" x2="28" y2="97" gradientUnits="userSpaceOnUse">
<stop stop-color="white" stop-opacity="0.1"/>
<stop offset="1" stop-color="white" stop-opacity="0.3"/>
</linearGradient>
<linearGradient id="paint3_linear_2016_16746" x1="111" y1="141" x2="28" y2="141" gradientUnits="userSpaceOnUse">
<stop stop-color="white" stop-opacity="0.1"/>
<stop offset="1" stop-color="white" stop-opacity="0.3"/>
</linearGradient>
<linearGradient id="paint4_linear_2016_16746" x1="95" y1="125" x2="28" y2="125" gradientUnits="userSpaceOnUse">
<stop stop-color="white" stop-opacity="0.1"/>
<stop offset="1" stop-color="white" stop-opacity="0.3"/>
</linearGradient>
</defs>
</svg>
