<svg width="375" height="812" viewBox="0 0 375 812" fill="none" xmlns="http://www.w3.org/2000/svg">
<g clip-path="url(#clip0_1507_5892)">
<path d="M323 237.5C323 330.211 261.927 405 187 405C112.073 405 51 330.211 51 237.5C51 144.789 112.073 70 187 70C261.927 70 323 144.789 323 237.5Z" stroke="white" stroke-width="2"/>
<path fill-rule="evenodd" clip-rule="evenodd" d="M375 0H0V812H375V0ZM324 237.5C324 330.56 262.663 406 187 406C111.337 406 50 330.56 50 237.5C50 144.44 111.337 69 187 69C262.663 69 324 144.44 324 237.5Z" fill="#0B0B0D"/>
</g>
<defs>
<clipPath id="clip0_1507_5892">
<rect width="375" height="812" fill="white"/>
</clipPath>
</defs>
</svg>
