<svg width="375" height="812" viewBox="0 0 375 812" fill="none" xmlns="http://www.w3.org/2000/svg">
<g clip-path="url(#clip0_2206_36861)">
<mask id="mask0_2206_36861" style="mask-type:luminance" maskUnits="userSpaceOnUse" x="0" y="0" width="375" height="812">
<path d="M375 0H0V812H375V0Z" fill="white"/>
</mask>
<g mask="url(#mask0_2206_36861)">
<path d="M323 288.5C323 381.211 261.927 456 187 456C112.073 456 51 381.211 51 288.5C51 195.789 112.073 121 187 121C261.927 121 323 195.789 323 288.5Z" stroke="#8BE200" stroke-width="2"/>
<path fill-rule="evenodd" clip-rule="evenodd" d="M375 0H0V812H375V0ZM324 288.5C324 381.56 262.663 457 187 457C111.337 457 50 381.56 50 288.5C50 195.44 111.337 120 187 120C262.663 120 324 195.44 324 288.5Z" fill="#0B0B0D"/>
</g>
<path d="M47.0391 83.957H44.6514V88H43.4209V77.6289H46.9951C49.1484 77.6289 50.5254 78.8594 50.5254 80.793C50.5254 82.7852 49.2363 83.957 47.0391 83.957ZM49.251 80.7783C49.251 79.4453 48.3721 78.625 46.8926 78.625H44.6514V82.9609H46.7461C48.416 82.9609 49.251 82.2432 49.251 80.7783ZM54.6884 88.1758C53.2821 88.1758 52.286 87.3115 52.286 86.0664C52.286 84.8066 53.3114 83.957 55.245 83.5908L56.1971 83.415C56.7098 83.3125 57.0028 82.9902 57.0028 82.5068C57.0028 81.6865 56.2557 81.0859 55.2157 81.0859C54.1903 81.0859 53.3407 81.6719 53.1503 82.5215L52.0516 82.2871C52.286 81.0273 53.619 80.1191 55.245 80.1191C57.0468 80.1191 58.1747 81.2178 58.1747 82.9463V88H57.12V86.9014C56.578 87.7217 55.7137 88.1758 54.6884 88.1758ZM54.952 87.209C56.1239 87.209 57.0028 86.3887 57.0028 85.3047V84.0596C56.7538 84.2207 56.5194 84.2939 56.0653 84.3818L54.9227 84.6162C53.9999 84.8066 53.4872 85.29 53.4872 85.9785C53.4872 86.7256 54.0585 87.209 54.952 87.209ZM63.2166 88.1758C61.532 88.1758 60.2722 87.3848 59.9793 86.125L61.0339 85.9199C61.3269 86.7695 62.0886 87.209 63.2019 87.209C64.3591 87.209 65.0183 86.7402 65.0183 85.876C65.0183 85.2314 64.6082 84.8359 63.8025 84.7041L62.5427 84.499C61.239 84.2939 60.4773 83.4883 60.4773 82.3457C60.4773 81.0273 61.5906 80.1191 63.1726 80.1191C64.5349 80.1191 65.5603 80.8516 65.8093 82.082L64.7839 82.2578C64.5642 81.4668 64.0076 81.0566 63.158 81.0566C62.1912 81.0566 61.6492 81.4961 61.6492 82.2871C61.6492 83.0049 62.0886 83.3564 63.0115 83.5029L63.905 83.6494C65.4285 83.8984 66.2195 84.6602 66.2195 85.8174C66.2195 87.2676 65.0183 88.1758 63.2166 88.1758ZM70.9245 88.1172C69.5036 88.1172 68.6832 87.2676 68.6832 85.7881V81.3203H67.3356V80.2949H68.6832V78.3027L69.8551 77.8926V80.2949H72.0963V81.3203H69.8551V85.627C69.8551 86.5938 70.2946 87.0918 71.1149 87.0918C71.4811 87.0918 71.6862 87.0625 71.9791 86.96L72.2282 87.8682C71.7155 88.0586 71.4225 88.1172 70.9245 88.1172ZM74.8237 79.0352C74.3111 79.0352 73.9155 78.6396 73.9155 78.127C73.9155 77.6143 74.3111 77.2188 74.8237 77.2188C75.3364 77.2188 75.732 77.6143 75.732 78.127C75.732 78.6396 75.3364 79.0352 74.8237 79.0352ZM74.2378 88V80.2949H75.4097V88H74.2378ZM82.6049 80.2949H84.0111L80.2465 83.8691L84.1137 88H82.6635L79.1918 84.3086V88H78.0199V77.6289H79.1918V83.5322L82.6049 80.2949ZM87.9104 88.1758C86.5042 88.1758 85.5081 87.3115 85.5081 86.0664C85.5081 84.8066 86.5335 83.957 88.4671 83.5908L89.4192 83.415C89.9319 83.3125 90.2249 82.9902 90.2249 82.5068C90.2249 81.6865 89.4778 81.0859 88.4378 81.0859C87.4124 81.0859 86.5628 81.6719 86.3723 82.5215L85.2737 82.2871C85.5081 81.0273 86.8411 80.1191 88.4671 80.1191C90.2688 80.1191 91.3968 81.2178 91.3968 82.9463V88H90.3421V86.9014C89.8001 87.7217 88.9358 88.1758 87.9104 88.1758ZM88.1741 87.209C89.346 87.209 90.2249 86.3887 90.2249 85.3047V84.0596C89.9759 84.2207 89.7415 84.2939 89.2874 84.3818L88.1448 84.6162C87.222 84.8066 86.7093 85.29 86.7093 85.9785C86.7093 86.7256 87.2805 87.209 88.1741 87.209ZM93.9191 88V80.2949H95.0617V81.4521C95.633 80.6025 96.5265 80.1191 97.5373 80.1191C99.0754 80.1191 100.189 81.2471 100.189 82.8145V88H99.0168V83.1221C99.0168 81.8916 98.3429 81.0859 97.2882 81.0859C96.1017 81.0859 95.091 82.1406 95.091 83.3711V88H93.9191ZM106.581 77.6289H109.481C112.821 77.6289 114.799 79.5625 114.799 82.8437C114.799 86.1104 112.851 88 109.481 88H106.581V77.6289ZM109.335 78.6836H107.811V86.9453H109.335C112.045 86.9453 113.51 85.5098 113.51 82.8437C113.51 80.1338 112.045 78.6836 109.335 78.6836ZM119.137 88.1758C117.731 88.1758 116.735 87.3115 116.735 86.0664C116.735 84.8066 117.761 83.957 119.694 83.5908L120.646 83.415C121.159 83.3125 121.452 82.9902 121.452 82.5068C121.452 81.6865 120.705 81.0859 119.665 81.0859C118.639 81.0859 117.79 81.6719 117.599 82.5215L116.501 82.2871C116.735 81.0273 118.068 80.1191 119.694 80.1191C121.496 80.1191 122.624 81.2178 122.624 82.9463V88H121.569V86.9014C121.027 87.7217 120.163 88.1758 119.137 88.1758ZM119.401 87.209C120.573 87.209 121.452 86.3887 121.452 85.3047V84.0596C121.203 84.2207 120.969 84.2939 120.514 84.3818L119.372 84.6162C118.449 84.8066 117.936 85.29 117.936 85.9785C117.936 86.7256 118.508 87.209 119.401 87.209ZM128.12 91.1348C126.186 91.1348 124.78 90.1973 124.399 88.791L125.512 88.5273C125.82 89.4795 126.801 90.0801 128.134 90.0801C129.716 90.0801 130.566 89.3184 130.566 87.8975L130.581 86.2129C130.024 87.1504 129.087 87.707 127.973 87.707C126.084 87.707 124.633 86.0518 124.633 83.9131C124.633 81.7598 126.084 80.1191 127.973 80.1191C129.101 80.1191 130.039 80.6904 130.581 81.6426L130.595 80.2949H131.723V87.8096C131.723 89.8896 130.376 91.1348 128.12 91.1348ZM128.193 86.7402C129.658 86.7402 130.551 85.6562 130.551 83.9131C130.551 82.1699 129.658 81.0859 128.193 81.0859C126.728 81.0859 125.835 82.1699 125.835 83.9131C125.835 85.6562 126.728 86.7402 128.193 86.7402ZM136.897 88.1758C135.374 88.1758 134.246 87.0625 134.246 85.4805V80.2949H135.418V85.1729C135.418 86.4912 136.15 87.209 137.146 87.209C138.333 87.209 139.343 86.1543 139.343 84.9238V80.2949H140.515V88H139.373V86.8428C138.787 87.707 137.893 88.1758 136.897 88.1758ZM142.364 89.6699L142.276 89.2012C143.052 89.1279 143.257 88.6445 143.257 88.1318C142.818 88.1025 142.51 87.7803 142.51 87.3262C142.51 86.8574 142.862 86.5205 143.331 86.5205C143.858 86.5205 144.18 86.9014 144.18 87.5605C144.18 88.6885 143.477 89.6406 142.364 89.6699ZM150.338 77.6289H151.569V83.0342L156.461 77.6289H157.985L154.396 81.54L158.102 88H156.681L153.531 82.4775L151.569 84.6016V88H150.338V77.6289ZM162.704 88.1758C160.551 88.1758 159.042 86.5498 159.042 84.1768C159.042 81.8477 160.419 80.1191 162.675 80.1191C164.667 80.1191 165.868 81.5693 165.868 83.5176C165.868 83.8691 165.854 84.1182 165.78 84.4404H160.229C160.331 86.0957 161.239 87.209 162.748 87.209C163.774 87.209 164.521 86.7402 164.872 85.876L165.985 86.1396C165.502 87.3701 164.345 88.1758 162.704 88.1758ZM162.646 81.0859C161.327 81.0859 160.463 82.0527 160.258 83.4443H164.726C164.74 82.1113 164.096 81.0859 162.646 81.0859ZM167.966 88V80.2949L169.108 80.2949V81.4521C169.68 80.6025 170.573 80.1191 171.584 80.1191C173.122 80.1191 174.235 81.2471 174.235 82.8145V88H173.063V83.1221C173.063 81.8916 172.39 81.0859 171.335 81.0859C170.148 81.0859 169.138 82.1406 169.138 83.3711V88H167.966ZM177.344 79.0352C176.831 79.0352 176.435 78.6396 176.435 78.127C176.435 77.6143 176.831 77.2187 177.344 77.2187C177.856 77.2187 178.252 77.6143 178.252 78.127C178.252 78.6396 177.856 79.0352 177.344 79.0352ZM176.758 88V80.2949H177.93V88H176.758ZM180.54 88V80.2949H181.682V81.4521C182.254 80.6025 183.147 80.1191 184.158 80.1191C185.696 80.1191 186.809 81.2471 186.809 82.8145V88H185.637V83.1221C185.637 81.8916 184.964 81.0859 183.909 81.0859C182.722 81.0859 181.712 82.1406 181.712 83.3711V88H180.54ZM192.305 91.1348C190.372 91.1348 188.965 90.1973 188.585 88.791L189.698 88.5273C190.005 89.4795 190.987 90.0801 192.32 90.0801C193.902 90.0801 194.752 89.3184 194.752 87.8975L194.766 86.2129C194.21 87.1504 193.272 87.707 192.159 87.707C190.269 87.707 188.819 86.0518 188.819 83.9131C188.819 81.7598 190.269 80.1191 192.159 80.1191C193.287 80.1191 194.224 80.6904 194.766 81.6426L194.781 80.2949H195.909V87.8096C195.909 89.8896 194.561 91.1348 192.305 91.1348ZM192.379 86.7402C193.843 86.7402 194.737 85.6562 194.737 83.9131C194.737 82.1699 193.843 81.0859 192.379 81.0859C190.914 81.0859 190.02 82.1699 190.02 83.9131C190.02 85.6562 190.914 86.7402 192.379 86.7402ZM197.743 89.6699L197.655 89.2012C198.431 89.1279 198.636 88.6445 198.636 88.1318C198.197 88.1025 197.889 87.7803 197.889 87.3262C197.889 86.8574 198.241 86.5205 198.709 86.5205C199.237 86.5205 199.559 86.9014 199.559 87.5605C199.559 88.6885 198.856 89.6406 197.743 89.6699ZM208.354 88.1758C206.362 88.1758 204.97 86.5352 204.97 84.1475C204.97 81.7598 206.362 80.1191 208.354 80.1191C209.467 80.1191 210.419 80.6611 210.976 81.5986V77.6289H212.148V88H211.02V86.6377C210.463 87.6191 209.511 88.1758 208.354 88.1758ZM208.573 87.209C210.053 87.209 210.976 86.0371 210.976 84.1475C210.976 82.2725 210.053 81.0859 208.573 81.0859C207.094 81.0859 206.171 82.2725 206.171 84.1475C206.171 86.0371 207.094 87.209 208.573 87.209ZM216.823 88.1758C215.417 88.1758 214.421 87.3115 214.421 86.0664C214.421 84.8066 215.446 83.957 217.38 83.5908L218.332 83.415C218.845 83.3125 219.138 82.9902 219.138 82.5068C219.138 81.6865 218.391 81.0859 217.351 81.0859C216.325 81.0859 215.476 81.6719 215.285 82.5215L214.187 82.2871C214.421 81.0273 215.754 80.1191 217.38 80.1191C219.182 80.1191 220.31 81.2178 220.31 82.9463V88H219.255V86.9014C218.713 87.7217 217.849 88.1758 216.823 88.1758ZM217.087 87.209C218.259 87.209 219.138 86.3887 219.138 85.3047V84.0596C218.889 84.2207 218.654 84.2939 218.2 84.3818L217.058 84.6162C216.135 84.8066 215.622 85.29 215.622 85.9785C215.622 86.7256 216.193 87.209 217.087 87.209ZM222.832 88V80.2949H223.975V81.4521C224.546 80.6025 225.439 80.1191 226.45 80.1191C227.988 80.1191 229.102 81.2471 229.102 82.8145V88H227.93V83.1221C227.93 81.8916 227.256 81.0859 226.201 81.0859C225.015 81.0859 224.004 82.1406 224.004 83.3711V88H222.832ZM237.896 88V78.6836H234.615V77.6289H242.408V78.6836H239.127V88H237.896ZM246.483 88.1758C244.33 88.1758 242.821 86.5498 242.821 84.1768C242.821 81.8477 244.198 80.1191 246.454 80.1191C248.446 80.1191 249.647 81.5693 249.647 83.5176C249.647 83.8691 249.632 84.1182 249.559 84.4404H244.007C244.11 86.0957 245.018 87.209 246.527 87.209C247.552 87.209 248.299 86.7402 248.651 85.876L249.764 86.1396C249.281 87.3701 248.124 88.1758 246.483 88.1758ZM246.424 81.0859C245.106 81.0859 244.242 82.0527 244.037 83.4443H248.505C248.519 82.1113 247.875 81.0859 246.424 81.0859ZM253.634 88.1758C252.36 88.1758 251.715 87.3555 251.715 86.125V77.6289H252.887V85.9785C252.887 86.7842 253.18 87.209 253.766 87.209C253.971 87.209 254.132 87.1797 254.352 87.0918L254.557 88C254.264 88.1172 253.971 88.1758 253.634 88.1758ZM256.83 79.0352C256.318 79.0352 255.922 78.6396 255.922 78.127C255.922 77.6143 256.318 77.2187 256.83 77.2187C257.343 77.2187 257.739 77.6143 257.739 78.127C257.739 78.6396 257.343 79.0352 256.83 79.0352ZM256.245 88V80.2949H257.416V88H256.245ZM260.027 88V80.2949H261.169V81.4521C261.741 80.6025 262.634 80.1191 263.645 80.1191C265.183 80.1191 266.296 81.2471 266.296 82.8145V88H265.124V83.1221C265.124 81.8916 264.45 81.0859 263.396 81.0859C262.209 81.0859 261.199 82.1406 261.199 83.3711V88H260.027ZM271.792 91.1348C269.859 91.1348 268.452 90.1973 268.071 88.791L269.185 88.5273C269.492 89.4795 270.474 90.0801 271.807 90.0801C273.389 90.0801 274.238 89.3184 274.238 87.8975L274.253 86.2129C273.696 87.1504 272.759 87.707 271.646 87.707C269.756 87.707 268.306 86.0518 268.306 83.9131C268.306 81.7598 269.756 80.1191 271.646 80.1191C272.774 80.1191 273.711 80.6904 274.253 81.6426L274.268 80.2949H275.396V87.8096C275.396 89.8896 274.048 91.1348 271.792 91.1348ZM271.865 86.7402C273.33 86.7402 274.224 85.6562 274.224 83.9131C274.224 82.1699 273.33 81.0859 271.865 81.0859C270.401 81.0859 269.507 82.1699 269.507 83.9131C269.507 85.6562 270.401 86.7402 271.865 86.7402ZM280.071 88.1758C278.665 88.1758 277.669 87.3115 277.669 86.0664C277.669 84.8066 278.694 83.957 280.628 83.5908L281.58 83.415C282.093 83.3125 282.386 82.9902 282.386 82.5068C282.386 81.6865 281.639 81.0859 280.599 81.0859C279.573 81.0859 278.724 81.6719 278.533 82.5215L277.435 82.2871C277.669 81.0273 279.002 80.1191 280.628 80.1191C282.43 80.1191 283.558 81.2178 283.558 82.9463V88H282.503V86.9014C281.961 87.7217 281.097 88.1758 280.071 88.1758ZM280.335 87.209C281.507 87.209 282.386 86.3887 282.386 85.3047V84.0596C282.137 84.2207 281.902 84.2939 281.448 84.3818L280.306 84.6162C279.383 84.8066 278.87 85.29 278.87 85.9785C278.87 86.7256 279.441 87.209 280.335 87.209ZM289.774 88V80.2949H290.902V81.4521C291.415 80.6318 292.264 80.1191 293.187 80.1191C294.198 80.1191 295.048 80.7197 295.399 81.6865C295.883 80.749 296.791 80.1191 297.86 80.1191C299.31 80.1191 300.38 81.2031 300.38 82.8437V88H299.208V83.1367C299.208 81.9062 298.549 81.0859 297.64 81.0859C296.571 81.0859 295.663 82.0967 295.663 83.2686V88H294.491V83.1367C294.491 81.9062 293.832 81.0859 292.924 81.0859C291.854 81.0859 290.946 82.0967 290.946 83.2686V88H289.774ZM304.85 88.1758C303.444 88.1758 302.448 87.3115 302.448 86.0664C302.448 84.8066 303.473 83.957 305.407 83.5908L306.359 83.415C306.872 83.3125 307.165 82.9902 307.165 82.5068C307.165 81.6865 306.418 81.0859 305.378 81.0859C304.352 81.0859 303.503 81.6719 303.312 82.5215L302.214 82.2871C302.448 81.0273 303.781 80.1191 305.407 80.1191C307.209 80.1191 308.337 81.2178 308.337 82.9463V88H307.282V86.9014C306.74 87.7217 305.876 88.1758 304.85 88.1758ZM305.114 87.209C306.286 87.209 307.165 86.3887 307.165 85.3047V84.0596C306.916 84.2207 306.681 84.2939 306.227 84.3818L305.085 84.6162C304.162 84.8066 303.649 85.29 303.649 85.9785C303.649 86.7256 304.22 87.209 305.114 87.209ZM313.378 88.1758C311.694 88.1758 310.434 87.3848 310.141 86.125L311.196 85.9199C311.489 86.7695 312.251 87.209 313.364 87.209C314.521 87.209 315.18 86.7402 315.18 85.876C315.18 85.2314 314.77 84.8359 313.964 84.7041L312.705 84.499C311.401 84.2939 310.639 83.4883 310.639 82.3457C310.639 81.0273 311.753 80.1191 313.335 80.1191C314.697 80.1191 315.722 80.8516 315.971 82.082L314.946 82.2578C314.726 81.4668 314.169 81.0566 313.32 81.0566C312.353 81.0566 311.811 81.4961 311.811 82.2871C311.811 83.0049 312.251 83.3564 313.173 83.5029L314.067 83.6494C315.59 83.8984 316.381 84.6602 316.381 85.8174C316.381 87.2676 315.18 88.1758 313.378 88.1758ZM320.925 88.1758C319.402 88.1758 318.274 87.0625 318.274 85.4805V80.2949H319.446V85.1729C319.446 86.4912 320.178 87.209 321.174 87.209C322.361 87.209 323.372 86.1543 323.372 84.9238V80.2949H324.543V88H323.401V86.8428C322.815 87.707 321.921 88.1758 320.925 88.1758ZM331.739 80.2949H333.145L329.38 83.8691L333.247 88H331.797L328.326 84.3086V88H327.154V77.6289H328.326V83.5322L331.739 80.2949Z" fill="#CDD0D1"/>
</g>
<defs>
<clipPath id="clip0_2206_36861">
<rect width="375" height="812" fill="white"/>
</clipPath>
</defs>
</svg>
