<svg width="375" height="812" viewBox="0 0 375 812" fill="none" xmlns="http://www.w3.org/2000/svg">
<g clip-path="url(#clip0_2206_36851)">
<mask id="mask0_2206_36851" style="mask-type:luminance" maskUnits="userSpaceOnUse" x="0" y="0" width="375" height="812">
<path d="M375 0H0V812H375V0Z" fill="white"/>
</mask>
<g mask="url(#mask0_2206_36851)">
<path fill-rule="evenodd" clip-rule="evenodd" d="M375 0H0V812H375V0ZM18 216C14.6863 216 12 218.686 12 222V410C12 413.314 14.6863 416 18 416H357C360.314 416 363 413.314 363 410V222C363 218.686 360.314 216 357 216H18Z" fill="#0B0B0D"/>
<path d="M357 217H18C15.2386 217 13 219.239 13 222V410C13 412.761 15.2386 415 18 415H357C359.761 415 362 412.761 362 410V222C362 219.239 359.761 217 357 217Z" stroke="#8BE200" stroke-width="2"/>
</g>
<rect x="251" y="247" width="88" height="107" rx="7.20912" stroke="#8BE200" stroke-width="2"/>
<rect x="26.3682" y="247.368" width="194.264" height="21.2636" rx="6.84093" stroke="#8BE200" stroke-width="2.73637"/>
<path d="M105.823 190V180.684H102.542V179.629H110.335V180.684H107.054V190H105.823ZM113.414 190.176C112.008 190.176 111.012 189.312 111.012 188.066C111.012 186.807 112.037 185.957 113.971 185.591L114.923 185.415C115.435 185.312 115.728 184.99 115.728 184.507C115.728 183.687 114.981 183.086 113.941 183.086C112.916 183.086 112.066 183.672 111.876 184.521L110.777 184.287C111.012 183.027 112.345 182.119 113.971 182.119C115.772 182.119 116.9 183.218 116.9 184.946V190H115.846V188.901C115.304 189.722 114.439 190.176 113.414 190.176ZM113.678 189.209C114.849 189.209 115.728 188.389 115.728 187.305V186.06C115.479 186.221 115.245 186.294 114.791 186.382L113.648 186.616C112.725 186.807 112.213 187.29 112.213 187.979C112.213 188.726 112.784 189.209 113.678 189.209ZM119.423 190V179.629H120.594V183.672C121.18 182.837 122.059 182.383 123.041 182.383C124.564 182.383 125.692 183.496 125.692 185.078V190H124.52V185.386C124.52 184.126 123.802 183.408 122.792 183.408C121.605 183.408 120.594 184.434 120.594 185.635V190H119.423ZM130.163 190.176C128.756 190.176 127.76 189.312 127.76 188.066C127.76 186.807 128.786 185.957 130.719 185.591L131.672 185.415C132.184 185.312 132.477 184.99 132.477 184.507C132.477 183.687 131.73 183.086 130.69 183.086C129.665 183.086 128.815 183.672 128.625 184.521L127.526 184.287C127.76 183.027 129.093 182.119 130.719 182.119C132.521 182.119 133.649 183.218 133.649 184.946V190H132.594V188.901C132.052 189.722 131.188 190.176 130.163 190.176ZM130.426 189.209C131.598 189.209 132.477 188.389 132.477 187.305V186.06C132.228 186.221 131.994 186.294 131.54 186.382L130.397 186.616C129.474 186.807 128.962 187.29 128.962 187.979C128.962 188.726 129.533 189.209 130.426 189.209ZM136.171 190V182.295H137.314V183.452C137.885 182.603 138.779 182.119 139.79 182.119C141.328 182.119 142.441 183.247 142.441 184.814V190H141.269V185.122C141.269 183.892 140.595 183.086 139.541 183.086C138.354 183.086 137.343 184.141 137.343 185.371V190H136.171ZM148.658 192.959V182.295H149.785V183.657C150.342 182.676 151.294 182.119 152.451 182.119C154.444 182.119 155.835 183.76 155.835 186.147C155.835 188.535 154.444 190.176 152.451 190.176C151.338 190.176 150.386 189.634 149.829 188.696V192.959H148.658ZM152.232 189.209C153.711 189.209 154.634 188.037 154.634 186.147C154.634 184.258 153.711 183.086 152.232 183.086C150.752 183.086 149.829 184.258 149.829 186.147C149.829 188.037 150.752 189.209 152.232 189.209ZM161.155 190.176C158.973 190.176 157.537 188.564 157.537 186.147C157.537 183.73 158.987 182.119 161.155 182.119C163.323 182.119 164.774 183.73 164.774 186.147C164.774 188.564 163.338 190.176 161.155 190.176ZM161.155 189.209C162.679 189.209 163.572 188.081 163.572 186.147C163.572 184.214 162.664 183.086 161.155 183.086C159.647 183.086 158.738 184.214 158.738 186.147C158.738 188.081 159.632 189.209 161.155 189.209ZM166.813 190V182.295H167.955V183.452C168.526 182.603 169.42 182.119 170.431 182.119C171.969 182.119 173.082 183.247 173.082 184.814V190H171.91V185.122C171.91 183.892 171.236 183.086 170.182 183.086C168.995 183.086 167.984 184.141 167.984 185.371V190H166.813ZM178.124 190.176C176.439 190.176 175.18 189.385 174.887 188.125L175.941 187.92C176.234 188.77 176.996 189.209 178.109 189.209C179.267 189.209 179.926 188.74 179.926 187.876C179.926 187.231 179.516 186.836 178.71 186.704L177.45 186.499C176.146 186.294 175.385 185.488 175.385 184.346C175.385 183.027 176.498 182.119 178.08 182.119C179.442 182.119 180.468 182.852 180.717 184.082L179.691 184.258C179.472 183.467 178.915 183.057 178.065 183.057C177.099 183.057 176.557 183.496 176.557 184.287C176.557 185.005 176.996 185.356 177.919 185.503L178.812 185.649C180.336 185.898 181.127 186.66 181.127 187.817C181.127 189.268 179.926 190.176 178.124 190.176ZM186.359 190.176C184.206 190.176 182.697 188.55 182.697 186.177C182.697 183.848 184.074 182.119 186.33 182.119C188.322 182.119 189.523 183.569 189.523 185.518C189.523 185.869 189.509 186.118 189.435 186.44H183.884C183.986 188.096 184.894 189.209 186.403 189.209C187.429 189.209 188.176 188.74 188.527 187.876L189.64 188.14C189.157 189.37 188 190.176 186.359 190.176ZM186.301 183.086C184.982 183.086 184.118 184.053 183.913 185.444H188.381C188.395 184.111 187.751 183.086 186.301 183.086ZM193.51 190.176C192.236 190.176 191.591 189.355 191.591 188.125V179.629H192.763V187.979C192.763 188.784 193.056 189.209 193.642 189.209C193.847 189.209 194.008 189.18 194.228 189.092L194.433 190C194.14 190.117 193.847 190.176 193.51 190.176ZM201.602 190.176C200.196 190.176 199.2 189.312 199.2 188.066C199.2 186.807 200.225 185.957 202.159 185.591L203.111 185.415C203.623 185.312 203.916 184.99 203.916 184.507C203.916 183.687 203.169 183.086 202.129 183.086C201.104 183.086 200.254 183.672 200.064 184.521L198.965 184.287C199.2 183.027 200.533 182.119 202.159 182.119C203.96 182.119 205.088 183.218 205.088 184.946V190H204.034V188.901C203.492 189.722 202.627 190.176 201.602 190.176ZM201.866 189.209C203.038 189.209 203.916 188.389 203.916 187.305V186.06C203.667 186.221 203.433 186.294 202.979 186.382L201.836 186.616C200.914 186.807 200.401 187.29 200.401 187.979C200.401 188.726 200.972 189.209 201.866 189.209ZM210.584 193.135C208.651 193.135 207.244 192.197 206.864 190.791L207.977 190.527C208.284 191.479 209.266 192.08 210.599 192.08C212.181 192.08 213.031 191.318 213.031 189.897L213.045 188.213C212.489 189.15 211.551 189.707 210.438 189.707C208.548 189.707 207.098 188.052 207.098 185.913C207.098 183.76 208.548 182.119 210.438 182.119C211.566 182.119 212.503 182.69 213.045 183.643L213.06 182.295H214.188V189.81C214.188 191.89 212.84 193.135 210.584 193.135ZM210.658 188.74C212.122 188.74 213.016 187.656 213.016 185.913C213.016 184.17 212.122 183.086 210.658 183.086C209.193 183.086 208.299 184.17 208.299 185.913C208.299 187.656 209.193 188.74 210.658 188.74ZM218.863 190.176C217.457 190.176 216.461 189.312 216.461 188.066C216.461 186.807 217.487 185.957 219.42 185.591L220.372 185.415C220.885 185.312 221.178 184.99 221.178 184.507C221.178 183.687 220.431 183.086 219.391 183.086C218.365 183.086 217.516 183.672 217.325 184.521L216.227 184.287C216.461 183.027 217.794 182.119 219.42 182.119C221.222 182.119 222.35 183.218 222.35 184.946V190H221.295V188.901C220.753 189.722 219.889 190.176 218.863 190.176ZM219.127 189.209C220.299 189.209 221.178 188.389 221.178 187.305V186.06C220.929 186.221 220.695 186.294 220.24 186.382L219.098 186.616C218.175 186.807 217.662 187.29 217.662 187.979C217.662 188.726 218.234 189.209 219.127 189.209ZM224.872 190V182.295H226V183.921C226.44 182.793 227.406 182.178 228.798 182.178L228.783 183.291C227.289 183.145 226.044 184.17 226.044 185.752V190H224.872ZM236.64 190.176C234.956 190.176 233.696 189.385 233.403 188.125L234.458 187.92C234.751 188.77 235.513 189.209 236.626 189.209C237.783 189.209 238.442 188.74 238.442 187.876C238.442 187.231 238.032 186.836 237.226 186.704L235.967 186.499C234.663 186.294 233.901 185.488 233.901 184.346C233.901 183.027 235.014 182.119 236.597 182.119C237.959 182.119 238.984 182.852 239.233 184.082L238.208 184.258C237.988 183.467 237.431 183.057 236.582 183.057C235.615 183.057 235.073 183.496 235.073 184.287C235.073 185.005 235.513 185.356 236.435 185.503L237.329 185.649C238.852 185.898 239.643 186.66 239.643 187.817C239.643 189.268 238.442 190.176 236.64 190.176ZM244.348 190.117C242.927 190.117 242.107 189.268 242.107 187.788V183.32H240.759V182.295H242.107V180.303L243.279 179.893V182.295H245.52V183.32H243.279V187.627C243.279 188.594 243.718 189.092 244.539 189.092C244.905 189.092 245.11 189.062 245.403 188.96L245.652 189.868C245.139 190.059 244.846 190.117 244.348 190.117ZM249.727 190.176C248.321 190.176 247.325 189.312 247.325 188.066C247.325 186.807 248.35 185.957 250.284 185.591L251.236 185.415C251.749 185.312 252.042 184.99 252.042 184.507C252.042 183.687 251.295 183.086 250.254 183.086C249.229 183.086 248.379 183.672 248.189 184.521L247.09 184.287C247.325 183.027 248.658 182.119 250.284 182.119C252.086 182.119 253.213 183.218 253.213 184.946V190H252.159V188.901C251.617 189.722 250.753 190.176 249.727 190.176ZM249.991 189.209C251.163 189.209 252.042 188.389 252.042 187.305V186.06C251.793 186.221 251.558 186.294 251.104 186.382L249.962 186.616C249.039 186.807 248.526 187.29 248.526 187.979C248.526 188.726 249.097 189.209 249.991 189.209ZM259.53 190.176C258.373 190.176 257.42 189.619 256.864 188.638V190H255.736V179.629H256.908V183.599C257.464 182.661 258.416 182.119 259.53 182.119C261.522 182.119 262.914 183.76 262.914 186.147C262.914 188.535 261.522 190.176 259.53 190.176ZM259.31 189.209C260.79 189.209 261.712 188.037 261.712 186.147C261.712 184.258 260.79 183.086 259.31 183.086C257.831 183.086 256.908 184.258 256.908 186.147C256.908 188.037 257.831 189.209 259.31 189.209ZM265.538 181.035C265.026 181.035 264.63 180.64 264.63 180.127C264.63 179.614 265.026 179.219 265.538 179.219C266.051 179.219 266.447 179.614 266.447 180.127C266.447 180.64 266.051 181.035 265.538 181.035ZM264.952 190V182.295H266.124V190H264.952ZM270.654 190.176C269.379 190.176 268.735 189.355 268.735 188.125V179.629H269.906V187.979C269.906 188.784 270.199 189.209 270.785 189.209C270.99 189.209 271.152 189.18 271.371 189.092L271.576 190C271.283 190.117 270.99 190.176 270.654 190.176Z" fill="#CDD0D1"/>
</g>
<defs>
<clipPath id="clip0_2206_36851">
<rect width="375" height="812" fill="white"/>
</clipPath>
</defs>
</svg>
