<svg width="376" height="816" viewBox="0 0 376 816" fill="none" xmlns="http://www.w3.org/2000/svg">
<path fill-rule="evenodd" clip-rule="evenodd" d="M376 0L0 0L0 816L376 816L376 0ZM312 108.209C312 103.675 308.325 100 303.791 100L72.2091 100C67.6753 100 64 103.675 64 108.209L64 483.791C64 488.325 67.6753 492 72.2091 492L303.791 492C308.325 492 312 488.325 312 483.791L312 108.209Z" fill="#0B0B0B"/>
<rect x="311" y="101" width="390" height="245" rx="7.20912" transform="rotate(90 311 101)" stroke="#8BE200" stroke-width="2"/>
<rect x="252.192" y="375.486" width="93.949" height="117.971" rx="7.20912" transform="rotate(90 252.192 375.486)" stroke="#8BE200" stroke-width="2"/>
<rect x="261.632" y="113.368" width="229.264" height="21.2636" rx="6.84093" transform="rotate(90 261.632 113.368)" stroke="#8BE200" stroke-width="2.73637"/>
<path d="M335 214.823L344.316 214.823L344.316 211.542L345.371 211.542L345.371 219.335L344.316 219.335L344.316 216.054L335 216.054L335 214.823ZM334.824 222.414C334.824 221.008 335.688 220.012 336.934 220.012C338.193 220.012 339.043 221.037 339.409 222.971L339.585 223.923C339.687 224.435 340.01 224.728 340.493 224.728C341.313 224.728 341.914 223.981 341.914 222.941C341.914 221.916 341.328 221.066 340.479 220.876L340.713 219.777C341.973 220.012 342.881 221.345 342.881 222.971C342.881 224.772 341.782 225.9 340.054 225.9L335 225.9L335 224.846L336.099 224.846C335.278 224.304 334.824 223.439 334.824 222.414ZM335.791 222.678C335.791 223.849 336.611 224.728 337.695 224.728L338.94 224.728C338.779 224.479 338.706 224.245 338.618 223.791L338.384 222.648C338.193 221.725 337.71 221.213 337.021 221.213C336.274 221.213 335.791 221.784 335.791 222.678ZM335 228.423L345.371 228.423L345.371 229.594L341.328 229.594C342.163 230.18 342.617 231.059 342.617 232.041C342.617 233.564 341.504 234.692 339.922 234.692L335 234.692L335 233.52L339.614 233.52C340.874 233.52 341.592 232.802 341.592 231.792C341.592 230.605 340.566 229.594 339.365 229.594L335 229.594L335 228.423ZM334.824 239.163C334.824 237.756 335.688 236.76 336.934 236.76C338.193 236.76 339.043 237.786 339.409 239.719L339.585 240.672C339.687 241.184 340.01 241.477 340.493 241.477C341.313 241.477 341.914 240.73 341.914 239.69C341.914 238.665 341.328 237.815 340.479 237.625L340.713 236.526C341.973 236.76 342.881 238.093 342.881 239.719C342.881 241.521 341.782 242.649 340.054 242.649L335 242.649L335 241.594L336.099 241.594C335.278 241.052 334.824 240.188 334.824 239.163ZM335.791 239.426C335.791 240.598 336.611 241.477 337.695 241.477L338.94 241.477C338.779 241.228 338.706 240.994 338.618 240.54L338.384 239.397C338.193 238.474 337.71 237.962 337.021 237.962C336.274 237.962 335.791 238.533 335.791 239.426ZM335 245.171L342.705 245.171L342.705 246.314L341.548 246.314C342.397 246.885 342.881 247.779 342.881 248.79C342.881 250.328 341.753 251.441 340.186 251.441L335 251.441L335 250.269L339.878 250.269C341.108 250.269 341.914 249.595 341.914 248.541C341.914 247.354 340.859 246.343 339.629 246.343L335 246.343L335 245.171ZM332.041 257.658L342.705 257.658L342.705 258.785L341.343 258.785C342.324 259.342 342.881 260.294 342.881 261.451C342.881 263.444 341.24 264.835 338.853 264.835C336.465 264.835 334.824 263.444 334.824 261.451C334.824 260.338 335.366 259.386 336.304 258.829L332.041 258.829L332.041 257.658ZM335.791 261.232C335.791 262.711 336.963 263.634 338.853 263.634C340.742 263.634 341.914 262.711 341.914 261.232C341.914 259.752 340.742 258.829 338.853 258.829C336.963 258.829 335.791 259.752 335.791 261.232ZM334.824 270.155C334.824 267.973 336.436 266.537 338.853 266.537C341.27 266.537 342.881 267.987 342.881 270.155C342.881 272.323 341.27 273.774 338.853 273.774C336.436 273.774 334.824 272.338 334.824 270.155ZM335.791 270.155C335.791 271.679 336.919 272.572 338.853 272.572C340.786 272.572 341.914 271.664 341.914 270.155C341.914 268.647 340.786 267.738 338.853 267.738C336.919 267.738 335.791 268.632 335.791 270.155ZM335 275.813L342.705 275.813L342.705 276.955L341.548 276.955C342.397 277.526 342.881 278.42 342.881 279.431C342.881 280.969 341.753 282.082 340.186 282.082L335 282.082L335 280.91L339.878 280.91C341.108 280.91 341.914 280.236 341.914 279.182C341.914 277.995 340.859 276.984 339.629 276.984L335 276.984L335 275.813ZM334.824 287.124C334.824 285.439 335.615 284.18 336.875 283.887L337.08 284.941C336.23 285.234 335.791 285.996 335.791 287.109C335.791 288.267 336.26 288.926 337.124 288.926C337.769 288.926 338.164 288.516 338.296 287.71L338.501 286.45C338.706 285.146 339.512 284.385 340.654 284.385C341.973 284.385 342.881 285.498 342.881 287.08C342.881 288.442 342.148 289.468 340.918 289.717L340.742 288.691C341.533 288.472 341.943 287.915 341.943 287.065C341.943 286.099 341.504 285.557 340.713 285.557C339.995 285.557 339.644 285.996 339.497 286.919L339.351 287.812C339.102 289.336 338.34 290.127 337.183 290.127C335.732 290.127 334.824 288.926 334.824 287.124ZM334.824 295.359C334.824 293.206 336.45 291.697 338.823 291.697C341.152 291.697 342.881 293.074 342.881 295.33C342.881 297.322 341.431 298.523 339.482 298.523C339.131 298.523 338.882 298.509 338.56 298.435L338.56 292.884C336.904 292.986 335.791 293.894 335.791 295.403C335.791 296.429 336.26 297.176 337.124 297.527L336.86 298.64C335.63 298.157 334.824 297 334.824 295.359ZM341.914 295.301C341.914 293.982 340.947 293.118 339.556 292.913L339.556 297.381C340.889 297.395 341.914 296.751 341.914 295.301ZM334.824 302.51C334.824 301.236 335.645 300.591 336.875 300.591L345.371 300.591L345.371 301.763L337.021 301.763C336.216 301.763 335.791 302.056 335.791 302.642C335.791 302.847 335.82 303.008 335.908 303.228L335 303.433C334.883 303.14 334.824 302.847 334.824 302.51ZM334.824 310.602C334.824 309.196 335.688 308.2 336.934 308.2C338.193 308.2 339.043 309.225 339.409 311.159L339.585 312.111C339.687 312.623 340.01 312.916 340.493 312.916C341.313 312.916 341.914 312.169 341.914 311.129C341.914 310.104 341.328 309.254 340.479 309.064L340.713 307.965C341.973 308.2 342.881 309.533 342.881 311.159C342.881 312.96 341.782 314.088 340.054 314.088L335 314.088L335 313.034L336.099 313.034C335.278 312.492 334.824 311.627 334.824 310.602ZM335.791 310.866C335.791 312.038 336.611 312.916 337.695 312.916L338.94 312.916C338.779 312.667 338.706 312.433 338.618 311.979L338.384 310.836C338.193 309.914 337.71 309.401 337.021 309.401C336.274 309.401 335.791 309.972 335.791 310.866ZM331.865 319.584C331.865 317.651 332.803 316.244 334.209 315.864L334.473 316.977C333.521 317.284 332.92 318.266 332.92 319.599C332.92 321.181 333.682 322.031 335.103 322.031L336.787 322.045C335.85 321.489 335.293 320.551 335.293 319.438C335.293 317.548 336.948 316.098 339.087 316.098C341.24 316.098 342.881 317.548 342.881 319.438C342.881 320.566 342.31 321.503 341.357 322.045L342.705 322.06L342.705 323.188L335.19 323.188C333.11 323.188 331.865 321.84 331.865 319.584ZM336.26 319.658C336.26 321.122 337.344 322.016 339.087 322.016C340.83 322.016 341.914 321.122 341.914 319.658C341.914 318.193 340.83 317.299 339.087 317.299C337.344 317.299 336.26 318.193 336.26 319.658ZM334.824 327.863C334.824 326.457 335.688 325.461 336.934 325.461C338.193 325.461 339.043 326.487 339.409 328.42L339.585 329.372C339.687 329.885 340.01 330.178 340.493 330.178C341.313 330.178 341.914 329.431 341.914 328.391C341.914 327.365 341.328 326.516 340.479 326.325L340.713 325.227C341.973 325.461 342.881 326.794 342.881 328.42C342.881 330.222 341.782 331.35 340.054 331.35L335 331.35L335 330.295L336.099 330.295C335.278 329.753 334.824 328.889 334.824 327.863ZM335.791 328.127C335.791 329.299 336.611 330.178 337.695 330.178L338.94 330.178C338.779 329.929 338.706 329.695 338.618 329.24L338.384 328.098C338.193 327.175 337.71 326.662 337.021 326.662C336.274 326.662 335.791 327.234 335.791 328.127ZM335 333.872L342.705 333.872L342.705 335L341.079 335C342.207 335.44 342.822 336.406 342.822 337.798L341.709 337.783C341.855 336.289 340.83 335.044 339.248 335.044L335 335.044L335 333.872ZM334.824 345.64C334.824 343.956 335.615 342.696 336.875 342.403L337.08 343.458C336.23 343.751 335.791 344.513 335.791 345.626C335.791 346.783 336.26 347.442 337.124 347.442C337.769 347.442 338.164 347.032 338.296 346.226L338.501 344.967C338.706 343.663 339.512 342.901 340.654 342.901C341.973 342.901 342.881 344.014 342.881 345.597C342.881 346.959 342.148 347.984 340.918 348.233L340.742 347.208C341.533 346.988 341.943 346.431 341.943 345.582C341.943 344.615 341.504 344.073 340.713 344.073C339.995 344.073 339.644 344.513 339.497 345.435L339.351 346.329C339.102 347.852 338.34 348.643 337.183 348.643C335.732 348.643 334.824 347.442 334.824 345.64ZM334.883 353.348C334.883 351.927 335.732 351.107 337.212 351.107L341.68 351.107L341.68 349.759L342.705 349.759L342.705 351.107L344.697 351.107L345.107 352.279L342.705 352.279L342.705 354.52L341.68 354.52L341.68 352.279L337.373 352.279C336.406 352.279 335.908 352.718 335.908 353.539C335.908 353.905 335.937 354.11 336.04 354.403L335.132 354.652C334.941 354.139 334.883 353.846 334.883 353.348ZM334.824 358.727C334.824 357.321 335.688 356.325 336.934 356.325C338.193 356.325 339.043 357.35 339.409 359.284L339.585 360.236C339.687 360.749 340.01 361.042 340.493 361.042C341.313 361.042 341.914 360.295 341.914 359.254C341.914 358.229 341.328 357.379 340.479 357.189L340.713 356.09C341.973 356.325 342.881 357.658 342.881 359.284C342.881 361.086 341.782 362.213 340.054 362.213L335 362.213L335 361.159L336.099 361.159C335.278 360.617 334.824 359.753 334.824 358.727ZM335.791 358.991C335.791 360.163 336.611 361.042 337.695 361.042L338.94 361.042C338.779 360.793 338.706 360.558 338.618 360.104L338.384 358.962C338.193 358.039 337.71 357.526 337.021 357.526C336.274 357.526 335.791 358.097 335.791 358.991ZM334.824 368.53C334.824 367.373 335.381 366.42 336.362 365.864L335 365.864L335 364.736L345.371 364.736L345.371 365.908L341.401 365.908C342.339 366.464 342.881 367.416 342.881 368.53C342.881 370.522 341.24 371.914 338.853 371.914C336.465 371.914 334.824 370.522 334.824 368.53ZM335.791 368.31C335.791 369.79 336.963 370.712 338.853 370.712C340.742 370.712 341.914 369.79 341.914 368.31C341.914 366.831 340.742 365.908 338.853 365.908C336.963 365.908 335.791 366.831 335.791 368.31ZM343.965 374.538C343.965 374.026 344.36 373.63 344.873 373.63C345.386 373.63 345.781 374.026 345.781 374.538C345.781 375.051 345.386 375.447 344.873 375.447C344.36 375.447 343.965 375.051 343.965 374.538ZM335 373.952L342.705 373.952L342.705 375.124L335 375.124L335 373.952ZM334.824 379.654C334.824 378.379 335.645 377.735 336.875 377.735L345.371 377.735L345.371 378.906L337.021 378.906C336.216 378.906 335.791 379.199 335.791 379.785C335.791 379.99 335.82 380.152 335.908 380.371L335 380.576C334.883 380.283 334.824 379.99 334.824 379.654Z" fill="#CDD0D1"/>
</svg>
