<svg width="375" height="812" viewBox="0 0 375 812" fill="none" xmlns="http://www.w3.org/2000/svg">
<g clip-path="url(#clip0_2028_37383)">
<path d="M297.126 278.33C297.126 326.312 286.963 369.592 268.345 400.801C249.751 431.968 222.832 450.97 189.142 450.97C155.437 450.97 127.836 431.952 108.568 400.773C89.2797 369.563 78.449 326.29 78.449 278.33C78.449 240.324 81.1675 211.942 86.2781 190.741C91.3868 169.548 98.8542 155.663 108.258 146.497C117.642 137.349 129.143 132.718 142.691 130.383C156.296 128.038 171.8 128.032 189.142 128.032C206.485 128.032 221.816 128.038 235.163 130.382C248.448 132.714 259.601 137.339 268.646 146.471C277.716 155.63 284.855 169.513 289.715 190.719C294.576 211.928 297.126 240.318 297.126 278.33Z" stroke="#029D24" stroke-width="4.06211"/>
<path d="M296.113 243.802C302.658 233.082 317.507 215.773 324.548 232.292C333.349 252.942 310.669 328.429 294.082 324.367" stroke="#029D24" stroke-width="4.06211"/>
<path d="M79.3986 243.857C72.8541 233.138 58.0048 215.829 50.9638 232.348C42.1626 252.997 64.8427 328.485 81.4297 324.423" stroke="#029D24" stroke-width="4.06211"/>
<path d="M138.705 366.004C166.513 367.679 175.42 357.086 188.399 365.728C188.639 365.888 188.964 365.886 189.201 365.721C201.651 357.056 216.797 366.004 238.904 366.004M138.705 366.004C158.474 385.501 180.342 391.731 188.804 392.408C216.156 392.679 233.601 374.918 238.904 366.004M138.705 366.004C171.879 376.837 202.006 377.514 238.904 366.004" stroke="#8BE200" stroke-width="0.677019" stroke-linecap="round"/>
<path d="M177.633 254.973C177.972 268.287 177.633 296 173.571 300.333C168.493 305.749 139.043 323.69 166.462 335.876C170.863 337.832 173.232 334.861 169.509 333.168C161.317 329.445 157.322 324.367 169.509 330.122C181.695 335.876 184.065 335.538 185.08 338.584" stroke="#8BE200" stroke-width="0.677019" stroke-linecap="round"/>
<path d="M200.652 255.311C200.314 268.626 200.652 296.338 204.714 300.671C209.792 306.087 239.242 324.028 211.823 336.215C207.423 338.171 205.053 335.199 208.777 333.507C216.968 329.783 220.963 324.705 208.777 330.46C196.59 336.215 194.221 335.199 193.205 338.923C192.599 341.144 185.893 341.022 185.081 338.584" stroke="#8BE200" stroke-width="0.677019" stroke-linecap="round"/>
<path d="M104.363 259.195C123.433 296.769 156.493 275.227 171.116 259.295C171.359 259.029 171.335 258.621 171.079 258.368C145.96 233.58 120.568 235.261 104.407 258.495C104.267 258.697 104.251 258.975 104.363 259.195Z" stroke="#8BE200" stroke-width="1.35404" stroke-linecap="round"/>
<path d="M271.895 259.195C252.825 296.769 219.764 275.227 205.142 259.295C204.899 259.029 204.922 258.621 205.179 258.368C230.298 233.58 255.689 235.261 271.851 258.495C271.991 258.697 272.006 258.975 271.895 259.195Z" stroke="#8BE200" stroke-width="1.35404" stroke-linecap="round"/>
</g>
<defs>
<clipPath id="clip0_2028_37383">
<rect width="375" height="812" fill="white"/>
</clipPath>
</defs>
</svg>
