<svg width="375" height="812" viewBox="0 0 375 812" fill="none" xmlns="http://www.w3.org/2000/svg">
<g clip-path="url(#clip0_1559_9608)">
<path fill-rule="evenodd" clip-rule="evenodd" d="M375 0H0V812H375V0ZM18 216C14.6863 216 12 218.686 12 222V410C12 413.314 14.6863 416 18 416H357C360.314 416 363 413.314 363 410V222C363 218.686 360.314 216 357 216H18Z" fill="#0B0B0D"/>
<rect x="13" y="217" width="349" height="198" rx="5" stroke="white" stroke-width="2"/>
<rect x="259" y="253" width="83" height="98" rx="5" fill="url(#paint0_linear_1559_9608)" stroke="white" stroke-width="2"/>
<rect x="28" y="252" width="23" height="8" rx="2" fill="url(#paint1_linear_1559_9608)"/>
<rect x="28" y="268" width="79" height="8" rx="2" fill="url(#paint2_linear_1559_9608)"/>
<rect x="28" y="312" width="83" height="8" rx="2" fill="url(#paint3_linear_1559_9608)"/>
<rect x="28" y="296" width="67" height="8" rx="2" fill="url(#paint4_linear_1559_9608)"/>
</g>
<defs>
<linearGradient id="paint0_linear_1559_9608" x1="258" y1="252" x2="258" y2="352" gradientUnits="userSpaceOnUse">
<stop stop-color="white" stop-opacity="0.1"/>
<stop offset="1" stop-color="white" stop-opacity="0.3"/>
</linearGradient>
<linearGradient id="paint1_linear_1559_9608" x1="51" y1="252" x2="28" y2="252" gradientUnits="userSpaceOnUse">
<stop stop-color="white" stop-opacity="0.1"/>
<stop offset="1" stop-color="white" stop-opacity="0.3"/>
</linearGradient>
<linearGradient id="paint2_linear_1559_9608" x1="107" y1="268" x2="28" y2="268" gradientUnits="userSpaceOnUse">
<stop stop-color="white" stop-opacity="0.1"/>
<stop offset="1" stop-color="white" stop-opacity="0.3"/>
</linearGradient>
<linearGradient id="paint3_linear_1559_9608" x1="111" y1="312" x2="28" y2="312" gradientUnits="userSpaceOnUse">
<stop stop-color="white" stop-opacity="0.1"/>
<stop offset="1" stop-color="white" stop-opacity="0.3"/>
</linearGradient>
<linearGradient id="paint4_linear_1559_9608" x1="95" y1="296" x2="28" y2="296" gradientUnits="userSpaceOnUse">
<stop stop-color="white" stop-opacity="0.1"/>
<stop offset="1" stop-color="white" stop-opacity="0.3"/>
</linearGradient>
<clipPath id="clip0_1559_9608">
<rect width="375" height="812" fill="white"/>
</clipPath>
</defs>
</svg>
