<svg width="375" height="816" viewBox="0 0 375 816" fill="none" xmlns="http://www.w3.org/2000/svg">
<rect y="322" width="375" height="494" fill="#1B1B1B"/>
<g clip-path="url(#clip0_2028_37244)">
<path fill-rule="evenodd" clip-rule="evenodd" d="M24 364C19.5817 364 16 360.418 16 356C16 351.582 19.5817 348 24 348C28.4183 348 32 351.582 32 356C32 360.418 28.4183 364 24 364ZM23 356.5C23 355.948 23.4477 355.5 24 355.5C24.5523 355.5 25 355.948 25 356.5V359C25 359.552 24.5523 360 24 360C23.4477 360 23 359.552 23 359V356.5ZM24 352C23.3096 352 22.75 352.56 22.75 353.25C22.75 353.94 23.3096 354.5 24 354.5C24.6904 354.5 25.25 353.94 25.25 353.25C25.25 352.56 24.6904 352 24 352Z" fill="white"/>
</g>
<path d="M41.792 361V351.416H38.064V349.64H47.584V351.416H43.856V361H41.792ZM48.7606 351.448V349.64H50.7766V351.448H48.7606ZM48.7606 361V352.84H50.7926V361H48.7606ZM53.0263 364.2V352.84H54.8823V353.432C54.8823 353.736 54.8503 353.992 54.8503 353.992H54.8823C54.8823 353.992 55.5863 352.648 57.5063 352.648C59.7143 352.648 61.1223 354.392 61.1223 356.92C61.1223 359.512 59.5383 361.192 57.3943 361.192C55.7783 361.192 55.0583 360.072 55.0583 360.072H55.0263C55.0263 360.072 55.0583 360.36 55.0583 360.776V364.2H53.0263ZM54.9943 356.968C54.9943 358.232 55.6823 359.48 57.0263 359.48C58.1463 359.48 59.0743 358.568 59.0743 356.952C59.0743 355.4 58.2423 354.392 57.0423 354.392C55.9863 354.392 54.9943 355.16 54.9943 356.968ZM62.1195 359.992L63.0475 358.568C63.0475 358.568 63.9435 359.464 65.2715 359.464C65.8475 359.464 66.3435 359.208 66.3435 358.728C66.3435 357.512 62.3755 357.672 62.3755 355.048C62.3755 353.528 63.7355 352.648 65.4955 352.648C67.3355 352.648 68.2315 353.576 68.2315 353.576L67.4795 355.08C67.4795 355.08 66.7275 354.376 65.4795 354.376C64.9515 354.376 64.4395 354.6 64.4395 355.112C64.4395 356.264 68.4075 356.12 68.4075 358.744C68.4075 360.104 67.2235 361.192 65.2875 361.192C63.2555 361.192 62.1195 359.992 62.1195 359.992ZM74.3485 361V354.584H73.3405V352.968H74.3485V352.6C74.3485 349.928 76.5405 349.576 77.6765 349.576C78.0925 349.576 78.3645 349.624 78.3645 349.624V351.352C78.3645 351.352 78.1885 351.32 77.9485 351.32C77.3725 351.32 76.3805 351.464 76.3805 352.648V352.968H78.1245V354.584H76.3805V361H74.3485ZM78.8714 356.92C78.8714 354.424 80.8714 352.648 83.3514 352.648C85.8474 352.648 87.8474 354.424 87.8474 356.92C87.8474 359.432 85.8474 361.192 83.3674 361.192C80.8714 361.192 78.8714 359.432 78.8714 356.92ZM80.9354 356.92C80.9354 358.44 82.0394 359.464 83.3674 359.464C84.6794 359.464 85.7834 358.44 85.7834 356.92C85.7834 355.416 84.6794 354.376 83.3674 354.376C82.0394 354.376 80.9354 355.416 80.9354 356.92ZM89.4794 361V352.84H91.4314V354.248C91.4314 354.552 91.3994 354.824 91.3994 354.824H91.4314C91.7994 353.656 92.7754 352.728 94.0234 352.728C94.2154 352.728 94.3914 352.76 94.3914 352.76V354.76C94.3914 354.76 94.1834 354.728 93.9114 354.728C93.0474 354.728 92.0714 355.224 91.6874 356.44C91.5594 356.84 91.5114 357.288 91.5114 357.768V361H89.4794ZM102.323 361V351.416H98.5953V349.64H108.115V351.416H104.387V361H102.323ZM107.573 358.648C107.573 356.056 111.077 355.88 112.405 355.88H112.677V355.768C112.677 354.696 112.005 354.328 111.109 354.328C109.941 354.328 108.869 355.112 108.869 355.112L108.101 353.656C108.101 353.656 109.365 352.648 111.301 352.648C113.445 352.648 114.693 353.832 114.693 355.896V361H112.821V360.328C112.821 360.008 112.853 359.752 112.853 359.752H112.821C112.837 359.752 112.197 361.192 110.341 361.192C108.885 361.192 107.573 360.28 107.573 358.648ZM109.621 358.552C109.621 359.096 110.021 359.608 110.853 359.608C111.925 359.608 112.693 358.456 112.693 357.464V357.272H112.341C111.301 357.272 109.621 357.416 109.621 358.552ZM116.808 361V349.64H118.84V355.72H119.848L121.816 352.84H124.072L121.496 356.488V356.52L124.392 361H122.056L119.896 357.432H118.84V361H116.808ZM125.636 351.448V349.64H127.652V351.448H125.636ZM125.636 361V352.84H127.668V361H125.636ZM129.901 361V352.84H131.853V353.784C131.853 354.088 131.821 354.344 131.821 354.344H131.853C132.205 353.656 133.101 352.648 134.749 352.648C136.557 352.648 137.581 353.592 137.581 355.752V361H135.565V356.168C135.565 355.176 135.309 354.504 134.269 354.504C133.181 354.504 132.381 355.192 132.077 356.168C131.965 356.504 131.933 356.872 131.933 357.256V361H129.901ZM140.546 362.104C140.546 362.104 141.57 362.632 142.802 362.632C144.05 362.632 145.106 362.104 145.106 360.648V360.168C145.106 359.976 145.138 359.736 145.138 359.736H145.106C144.626 360.456 143.922 360.84 142.834 360.84C140.498 360.84 139.17 358.952 139.17 356.712C139.17 354.472 140.434 352.648 142.786 352.648C144.562 352.648 145.202 353.688 145.202 353.688H145.25C145.25 353.688 145.234 353.592 145.234 353.464V352.84H147.138V360.504C147.138 363.304 144.962 364.36 142.834 364.36C141.81 364.36 140.722 364.072 139.938 363.656L140.546 362.104ZM143.266 359.128C144.242 359.128 145.154 358.568 145.154 356.728C145.154 354.872 144.242 354.376 143.138 354.376C141.906 354.376 141.218 355.272 141.218 356.648C141.218 358.072 141.954 359.128 143.266 359.128ZM152.797 355.272C152.797 351.976 155.293 349.448 158.637 349.448C161.405 349.448 162.829 351 162.829 351L161.837 352.536C161.837 352.536 160.541 351.336 158.733 351.336C156.333 351.336 154.925 353.128 154.925 355.24C154.925 357.4 156.381 359.304 158.749 359.304C160.717 359.304 162.045 357.864 162.045 357.864L163.133 359.352C163.133 359.352 161.565 361.192 158.669 361.192C155.197 361.192 152.797 358.616 152.797 355.272ZM164.602 358.456V349.64H166.618V358.152C166.618 359.048 166.922 359.272 167.45 359.272C167.61 359.272 167.754 359.256 167.754 359.256V361.032C167.754 361.032 167.45 361.08 167.114 361.08C165.994 361.08 164.602 360.792 164.602 358.456ZM168.685 356.92C168.685 354.408 170.397 352.648 172.829 352.648C175.181 352.648 176.445 354.36 176.445 356.52C176.445 356.76 176.397 357.304 176.397 357.304H170.765C170.893 358.728 171.997 359.464 173.213 359.464C174.525 359.464 175.565 358.568 175.565 358.568L176.349 360.024C176.349 360.024 175.101 361.192 173.069 361.192C170.365 361.192 168.685 359.24 168.685 356.92ZM170.829 355.912H174.397C174.365 354.808 173.677 354.216 172.781 354.216C171.741 354.216 171.021 354.856 170.829 355.912ZM177.432 358.648C177.432 356.056 180.936 355.88 182.264 355.88H182.536V355.768C182.536 354.696 181.864 354.328 180.968 354.328C179.8 354.328 178.728 355.112 178.728 355.112L177.96 353.656C177.96 353.656 179.224 352.648 181.16 352.648C183.304 352.648 184.552 353.832 184.552 355.896V361H182.68V360.328C182.68 360.008 182.712 359.752 182.712 359.752H182.68C182.696 359.752 182.056 361.192 180.2 361.192C178.744 361.192 177.432 360.28 177.432 358.648ZM179.48 358.552C179.48 359.096 179.88 359.608 180.712 359.608C181.784 359.608 182.552 358.456 182.552 357.464V357.272H182.2C181.16 357.272 179.48 357.416 179.48 358.552ZM186.667 361V352.84H188.619V354.248C188.619 354.552 188.587 354.824 188.587 354.824H188.619C188.987 353.656 189.963 352.728 191.211 352.728C191.403 352.728 191.579 352.76 191.579 352.76V354.76C191.579 354.76 191.371 354.728 191.099 354.728C190.235 354.728 189.259 355.224 188.875 356.44C188.747 356.84 188.699 357.288 188.699 357.768V361H186.667ZM196.295 359.64L197.415 358.088C197.415 358.088 198.647 359.288 200.247 359.288C201.111 359.288 201.895 358.84 201.895 357.912C201.895 355.88 196.535 356.232 196.535 352.744C196.535 350.856 198.167 349.448 200.343 349.448C202.583 349.448 203.735 350.664 203.735 350.664L202.839 352.344C202.839 352.344 201.751 351.352 200.327 351.352C199.367 351.352 198.615 351.912 198.615 352.712C198.615 354.728 203.959 354.232 203.959 357.864C203.959 359.672 202.583 361.192 200.215 361.192C197.687 361.192 196.295 359.64 196.295 359.64ZM205.122 356.92C205.122 354.408 206.834 352.648 209.266 352.648C211.618 352.648 212.882 354.36 212.882 356.52C212.882 356.76 212.834 357.304 212.834 357.304H207.202C207.33 358.728 208.434 359.464 209.65 359.464C210.962 359.464 212.002 358.568 212.002 358.568L212.786 360.024C212.786 360.024 211.538 361.192 209.506 361.192C206.802 361.192 205.122 359.24 205.122 356.92ZM207.266 355.912H210.834C210.802 354.808 210.114 354.216 209.218 354.216C208.178 354.216 207.458 354.856 207.266 355.912ZM214.446 358.456V349.64H216.462V358.152C216.462 359.048 216.766 359.272 217.294 359.272C217.454 359.272 217.598 359.256 217.598 359.256V361.032C217.598 361.032 217.294 361.08 216.958 361.08C215.838 361.08 214.446 360.792 214.446 358.456ZM219.52 361V354.584H218.512V352.968H219.52V352.6C219.52 349.928 221.712 349.576 222.848 349.576C223.264 349.576 223.536 349.624 223.536 349.624V351.352C223.536 351.352 223.36 351.32 223.12 351.32C222.544 351.32 221.552 351.464 221.552 352.648V352.968H223.296V354.584H221.552V361H219.52ZM224.651 351.448V349.64H226.667V351.448H224.651ZM224.651 361V352.84H226.683V361H224.651ZM228.341 356.92C228.341 354.408 230.053 352.648 232.485 352.648C234.837 352.648 236.101 354.36 236.101 356.52C236.101 356.76 236.053 357.304 236.053 357.304H230.421C230.549 358.728 231.653 359.464 232.869 359.464C234.181 359.464 235.221 358.568 235.221 358.568L236.005 360.024C236.005 360.024 234.757 361.192 232.725 361.192C230.021 361.192 228.341 359.24 228.341 356.92ZM230.485 355.912H234.053C234.021 354.808 233.333 354.216 232.437 354.216C231.397 354.216 230.677 354.856 230.485 355.912ZM237.088 359.992L238.016 358.568C238.016 358.568 238.912 359.464 240.24 359.464C240.816 359.464 241.312 359.208 241.312 358.728C241.312 357.512 237.344 357.672 237.344 355.048C237.344 353.528 238.704 352.648 240.464 352.648C242.304 352.648 243.2 353.576 243.2 353.576L242.448 355.08C242.448 355.08 241.696 354.376 240.448 354.376C239.92 354.376 239.408 354.6 239.408 355.112C239.408 356.264 243.376 356.12 243.376 358.744C243.376 360.104 242.192 361.192 240.256 361.192C238.224 361.192 237.088 359.992 237.088 359.992Z" fill="white"/>
<g clip-path="url(#clip1_2028_37244)">
<path d="M19.5 383.5L22 386L26.5 381.5" stroke="white" stroke-width="1.5" stroke-linecap="round" stroke-linejoin="round"/>
<path d="M40.458 389V380.32H37.07V379.116H45.232V380.32H41.844V389H40.458ZM45.0503 389V381.916H46.3663V383.148C46.3663 383.442 46.3383 383.68 46.3383 383.68H46.3663C46.6883 382.644 47.5143 381.832 48.6063 381.832C48.7883 381.832 48.9563 381.86 48.9563 381.86V383.204C48.9563 383.204 48.7743 383.162 48.5643 383.162C47.6963 383.162 46.8983 383.778 46.5763 384.828C46.4503 385.234 46.4083 385.668 46.4083 386.102V389H45.0503ZM49.402 391.506L49.878 390.47C49.878 390.47 50.27 390.764 50.704 390.764C51.25 390.764 51.712 390.372 51.978 389.728L52.328 388.916L49.36 381.916H50.886L52.664 386.55C52.804 386.914 52.93 387.404 52.93 387.404H52.958C52.958 387.404 53.07 386.928 53.196 386.564L54.918 381.916H56.388L53.07 390.274C52.636 391.366 51.768 391.94 50.774 391.94C49.976 391.94 49.402 391.506 49.402 391.506ZM61.4225 386.41V383.106H60.4985V382.014H61.4645V379.97H62.7805V382.014H64.4885V383.106H62.7805V386.256C62.7805 387.67 63.7745 387.852 64.2925 387.852C64.4885 387.852 64.6145 387.824 64.6145 387.824V389.028C64.6145 389.028 64.4185 389.056 64.1385 389.056C63.2285 389.056 61.4225 388.776 61.4225 386.41ZM65.628 385.444C65.628 383.302 67.336 381.748 69.45 381.748C71.564 381.748 73.272 383.302 73.272 385.444C73.272 387.6 71.564 389.168 69.45 389.168C67.336 389.168 65.628 387.6 65.628 385.444ZM67.014 385.444C67.014 386.928 68.12 387.992 69.45 387.992C70.794 387.992 71.886 386.928 71.886 385.444C71.886 383.974 70.794 382.924 69.45 382.924C68.12 382.924 67.014 383.974 67.014 385.444ZM78.8561 389V383.106H77.9741V382.014H78.8561V381.678C78.8561 379.34 80.6201 379.046 81.5161 379.046C81.8241 379.046 82.0341 379.088 82.0341 379.088V380.25C82.0341 380.25 81.8941 380.222 81.6841 380.222C81.1661 380.222 80.2001 380.39 80.2001 381.706V382.014H81.8801V383.106H80.2001V389H78.8561ZM83.1672 380.502V379.116H84.5392V380.502H83.1672ZM83.1812 389V381.916H84.5392V389H83.1812ZM86.9615 386.41V383.106H86.0375V382.014H87.0035V379.97H88.3195V382.014H90.0275V383.106H88.3195V386.256C88.3195 387.67 89.3135 387.852 89.8315 387.852C90.0275 387.852 90.1535 387.824 90.1535 387.824V389.028C90.1535 389.028 89.9575 389.056 89.6775 389.056C88.7675 389.056 86.9615 388.776 86.9615 386.41ZM94.2868 391.506L94.7628 390.47C94.7628 390.47 95.1548 390.764 95.5888 390.764C96.1348 390.764 96.5968 390.372 96.8628 389.728L97.2128 388.916L94.2448 381.916H95.7708L97.5488 386.55C97.6888 386.914 97.8148 387.404 97.8148 387.404H97.8428C97.8428 387.404 97.9548 386.928 98.0808 386.564L99.8028 381.916H101.273L97.9548 390.274C97.5208 391.366 96.6528 391.94 95.6588 391.94C94.8608 391.94 94.2868 391.506 94.2868 391.506ZM101.9 385.444C101.9 383.302 103.608 381.748 105.722 381.748C107.836 381.748 109.544 383.302 109.544 385.444C109.544 387.6 107.836 389.168 105.722 389.168C103.608 389.168 101.9 387.6 101.9 385.444ZM103.286 385.444C103.286 386.928 104.392 387.992 105.722 387.992C107.066 387.992 108.158 386.928 108.158 385.444C108.158 383.974 107.066 382.924 105.722 382.924C104.392 382.924 103.286 383.974 103.286 385.444ZM111.056 386.452V381.916H112.414V386.144C112.414 387.124 112.61 387.908 113.744 387.908C115.186 387.908 116.04 386.634 116.04 385.234V381.916H117.398V389H116.082V388.062C116.082 387.768 116.11 387.544 116.11 387.544H116.082C115.788 388.244 114.864 389.168 113.478 389.168C111.882 389.168 111.056 388.328 111.056 386.452ZM123.495 389V383.106H122.613V382.014H123.495V381.678C123.495 379.34 125.259 379.046 126.155 379.046C126.463 379.046 126.673 379.088 126.673 379.088V380.25C126.673 380.25 126.533 380.222 126.323 380.222C125.805 380.222 124.839 380.39 124.839 381.706V382.014H126.519V383.106H124.839V389H123.495ZM127.246 387.012C127.246 384.674 130.326 384.576 131.516 384.576H131.824V384.45C131.824 383.288 131.166 382.896 130.27 382.896C129.178 382.896 128.296 383.582 128.296 383.582L127.736 382.588C127.736 382.588 128.758 381.748 130.382 381.748C132.174 381.748 133.182 382.728 133.182 384.52V389H131.922V388.328C131.922 388.006 131.95 387.768 131.95 387.768H131.922C131.922 387.768 131.348 389.168 129.654 389.168C128.436 389.168 127.246 388.426 127.246 387.012ZM128.618 386.942C128.618 387.516 129.066 388.076 129.948 388.076C131.096 388.076 131.838 386.872 131.838 385.822V385.598H131.488C130.466 385.598 128.618 385.668 128.618 386.942ZM134.712 385.458C134.712 383.358 136.28 381.748 138.506 381.748C140.284 381.748 141.166 382.784 141.166 382.784L140.522 383.736C140.522 383.736 139.766 382.924 138.562 382.924C137.134 382.924 136.098 383.988 136.098 385.444C136.098 386.886 137.134 387.992 138.604 387.992C139.92 387.992 140.788 387.04 140.788 387.04L141.334 388.034C141.334 388.034 140.354 389.168 138.506 389.168C136.28 389.168 134.712 387.586 134.712 385.458ZM142.383 385.458C142.383 383.204 143.909 381.748 145.925 381.748C147.927 381.748 148.991 383.232 148.991 385.066C148.991 385.248 148.949 385.654 148.949 385.654H143.783C143.853 387.208 144.959 387.992 146.219 387.992C147.437 387.992 148.319 387.166 148.319 387.166L148.879 388.16C148.879 388.16 147.829 389.168 146.135 389.168C143.909 389.168 142.383 387.558 142.383 385.458ZM143.825 384.632H147.605C147.563 383.414 146.807 382.826 145.897 382.826C144.861 382.826 144.021 383.47 143.825 384.632ZM154.22 380.502V379.116H155.592V380.502H154.22ZM154.234 389V381.916H155.592V389H154.234ZM157.72 389V381.916H159.036V382.854C159.036 383.134 159.008 383.372 159.008 383.372H159.036C159.316 382.756 160.156 381.748 161.696 381.748C163.362 381.748 164.132 382.658 164.132 384.464V389H162.774V384.772C162.774 383.778 162.564 382.994 161.43 382.994C160.352 382.994 159.484 383.708 159.19 384.73C159.106 385.01 159.078 385.332 159.078 385.682V389H157.72ZM170.046 386.41V383.106H169.122V382.014H170.088V379.97H171.404V382.014H173.112V383.106H171.404V386.256C171.404 387.67 172.398 387.852 172.916 387.852C173.112 387.852 173.238 387.824 173.238 387.824V389.028C173.238 389.028 173.042 389.056 172.762 389.056C171.852 389.056 170.046 388.776 170.046 386.41ZM174.769 389V379.116H176.127V382.742C176.127 383.078 176.099 383.33 176.099 383.33H176.127C176.435 382.644 177.331 381.748 178.745 381.748C180.411 381.748 181.181 382.658 181.181 384.464V389H179.823V384.772C179.823 383.778 179.613 382.994 178.479 382.994C177.415 382.994 176.533 383.722 176.239 384.744C176.155 385.024 176.127 385.346 176.127 385.682V389H174.769ZM182.715 385.458C182.715 383.204 184.241 381.748 186.257 381.748C188.259 381.748 189.323 383.232 189.323 385.066C189.323 385.248 189.281 385.654 189.281 385.654H184.115C184.185 387.208 185.291 387.992 186.551 387.992C187.769 387.992 188.651 387.166 188.651 387.166L189.211 388.16C189.211 388.16 188.161 389.168 186.467 389.168C184.241 389.168 182.715 387.558 182.715 385.458ZM184.157 384.632H187.937C187.895 383.414 187.139 382.826 186.229 382.826C185.193 382.826 184.353 383.47 184.157 384.632ZM194.062 385.458C194.062 383.358 195.63 381.748 197.856 381.748C199.634 381.748 200.516 382.784 200.516 382.784L199.872 383.736C199.872 383.736 199.116 382.924 197.912 382.924C196.484 382.924 195.448 383.988 195.448 385.444C195.448 386.886 196.484 387.992 197.954 387.992C199.27 387.992 200.138 387.04 200.138 387.04L200.684 388.034C200.684 388.034 199.704 389.168 197.856 389.168C195.63 389.168 194.062 387.586 194.062 385.458ZM201.732 385.458C201.732 383.204 203.258 381.748 205.274 381.748C207.276 381.748 208.34 383.232 208.34 385.066C208.34 385.248 208.298 385.654 208.298 385.654H203.132C203.202 387.208 204.308 387.992 205.568 387.992C206.786 387.992 207.668 387.166 207.668 387.166L208.228 388.16C208.228 388.16 207.178 389.168 205.484 389.168C203.258 389.168 201.732 387.558 201.732 385.458ZM203.174 384.632H206.954C206.912 383.414 206.156 382.826 205.246 382.826C204.21 382.826 203.37 383.47 203.174 384.632ZM209.988 389V381.916H211.304V382.854C211.304 383.134 211.276 383.372 211.276 383.372H211.304C211.584 382.756 212.424 381.748 213.964 381.748C215.63 381.748 216.4 382.658 216.4 384.464V389H215.042V384.772C215.042 383.778 214.832 382.994 213.698 382.994C212.62 382.994 211.752 383.708 211.458 384.73C211.374 385.01 211.346 385.332 211.346 385.682V389H209.988ZM218.717 386.41V383.106H217.793V382.014H218.759V379.97H220.075V382.014H221.783V383.106H220.075V386.256C220.075 387.67 221.069 387.852 221.587 387.852C221.783 387.852 221.909 387.824 221.909 387.824V389.028C221.909 389.028 221.713 389.056 221.433 389.056C220.523 389.056 218.717 388.776 218.717 386.41ZM222.951 385.458C222.951 383.204 224.477 381.748 226.493 381.748C228.495 381.748 229.559 383.232 229.559 385.066C229.559 385.248 229.517 385.654 229.517 385.654H224.351C224.421 387.208 225.527 387.992 226.787 387.992C228.005 387.992 228.887 387.166 228.887 387.166L229.447 388.16C229.447 388.16 228.397 389.168 226.703 389.168C224.477 389.168 222.951 387.558 222.951 385.458ZM224.393 384.632H228.173C228.131 383.414 227.375 382.826 226.465 382.826C225.429 382.826 224.589 383.47 224.393 384.632ZM231.207 389V381.916H232.523V383.148C232.523 383.442 232.495 383.68 232.495 383.68H232.523C232.845 382.644 233.671 381.832 234.763 381.832C234.945 381.832 235.113 381.86 235.113 381.86V383.204C235.113 383.204 234.931 383.162 234.721 383.162C233.853 383.162 233.055 383.778 232.733 384.828C232.607 385.234 232.565 385.668 232.565 386.102V389H231.207Z" fill="white"/>
</g>
<g clip-path="url(#clip2_2028_37244)">
<path d="M20.5 411.5L23 414L27.5 409.5" stroke="white" stroke-width="1.5" stroke-linecap="round" stroke-linejoin="round"/>
<path d="M41.43 417V412.814L38.112 407.116H39.68L41.514 410.364C41.822 410.91 42.116 411.61 42.116 411.61H42.144C42.144 411.61 42.438 410.924 42.746 410.364L44.552 407.116H46.12L42.816 412.814V417H41.43ZM45.9972 413.444C45.9972 411.302 47.7052 409.748 49.8192 409.748C51.9332 409.748 53.6412 411.302 53.6412 413.444C53.6412 415.6 51.9332 417.168 49.8192 417.168C47.7052 417.168 45.9972 415.6 45.9972 413.444ZM47.3832 413.444C47.3832 414.928 48.4892 415.992 49.8192 415.992C51.1632 415.992 52.2552 414.928 52.2552 413.444C52.2552 411.974 51.1632 410.924 49.8192 410.924C48.4892 410.924 47.3832 411.974 47.3832 413.444ZM55.1535 414.452V409.916H56.5115V414.144C56.5115 415.124 56.7075 415.908 57.8415 415.908C59.2835 415.908 60.1375 414.634 60.1375 413.234V409.916H61.4955V417H60.1795V416.062C60.1795 415.768 60.2075 415.544 60.2075 415.544H60.1795C59.8855 416.244 58.9615 417.168 57.5755 417.168C55.9795 417.168 55.1535 416.328 55.1535 414.452ZM67.1304 415.068V407.116H68.4884V414.83C68.4884 415.684 68.8244 415.838 69.2444 415.838C69.3704 415.838 69.4824 415.824 69.4824 415.824V417.028C69.4824 417.028 69.2724 417.056 69.0344 417.056C68.2644 417.056 67.1304 416.846 67.1304 415.068ZM70.4015 413.444C70.4015 411.302 72.1095 409.748 74.2235 409.748C76.3375 409.748 78.0455 411.302 78.0455 413.444C78.0455 415.6 76.3375 417.168 74.2235 417.168C72.1095 417.168 70.4015 415.6 70.4015 413.444ZM71.7875 413.444C71.7875 414.928 72.8935 415.992 74.2235 415.992C75.5675 415.992 76.6595 414.928 76.6595 413.444C76.6595 411.974 75.5675 410.924 74.2235 410.924C72.8935 410.924 71.7875 411.974 71.7875 413.444ZM79.1378 413.444C79.1378 411.302 80.8458 409.748 82.9598 409.748C85.0738 409.748 86.7818 411.302 86.7818 413.444C86.7818 415.6 85.0738 417.168 82.9598 417.168C80.8458 417.168 79.1378 415.6 79.1378 413.444ZM80.5238 413.444C80.5238 414.928 81.6298 415.992 82.9598 415.992C84.3038 415.992 85.3958 414.928 85.3958 413.444C85.3958 411.974 84.3038 410.924 82.9598 410.924C81.6298 410.924 80.5238 411.974 80.5238 413.444ZM88.3921 417V407.116H89.7501V412.52H90.7441L92.6761 409.916H94.2161L91.8641 413.038V413.066L94.4821 417H92.9001L90.7721 413.668H89.7501V417H88.3921ZM95.1873 416.132L95.8453 415.166C95.8453 415.166 96.6433 415.992 97.8753 415.992C98.4633 415.992 99.0513 415.684 99.0513 415.11C99.0513 413.808 95.4113 414.074 95.4113 411.764C95.4113 410.476 96.5593 409.748 97.9733 409.748C99.5273 409.748 100.255 410.532 100.255 410.532L99.7093 411.554C99.7093 411.554 99.0793 410.924 97.9593 410.924C97.3713 410.924 96.7973 411.176 96.7973 411.792C96.7973 413.066 100.437 412.786 100.437 415.11C100.437 416.286 99.4293 417.168 97.8753 417.168C96.1393 417.168 95.1873 416.132 95.1873 416.132ZM106.262 418.288C106.262 418.288 107.144 418.764 108.208 418.764C109.44 418.764 110.448 418.218 110.448 416.776V416.258C110.448 416.034 110.462 415.81 110.462 415.81H110.434C110.014 416.51 109.356 416.916 108.334 416.916C106.36 416.916 105.17 415.334 105.17 413.29C105.17 411.26 106.304 409.748 108.264 409.748C109.972 409.748 110.49 410.798 110.49 410.798H110.518C110.518 410.798 110.504 410.7 110.504 410.574V409.916H111.806V416.706C111.806 419.044 110.028 419.94 108.236 419.94C107.382 419.94 106.5 419.702 105.814 419.352L106.262 418.288ZM108.6 415.74C109.58 415.74 110.476 415.152 110.476 413.304C110.476 411.456 109.58 410.924 108.474 410.924C107.242 410.924 106.542 411.82 106.542 413.262C106.542 414.732 107.326 415.74 108.6 415.74ZM113.413 413.444C113.413 411.302 115.121 409.748 117.235 409.748C119.349 409.748 121.057 411.302 121.057 413.444C121.057 415.6 119.349 417.168 117.235 417.168C115.121 417.168 113.413 415.6 113.413 413.444ZM114.799 413.444C114.799 414.928 115.905 415.992 117.235 415.992C118.579 415.992 119.671 414.928 119.671 413.444C119.671 411.974 118.579 410.924 117.235 410.924C115.905 410.924 114.799 411.974 114.799 413.444ZM122.15 413.444C122.15 411.302 123.858 409.748 125.972 409.748C128.086 409.748 129.794 411.302 129.794 413.444C129.794 415.6 128.086 417.168 125.972 417.168C123.858 417.168 122.15 415.6 122.15 413.444ZM123.536 413.444C123.536 414.928 124.642 415.992 125.972 415.992C127.316 415.992 128.408 414.928 128.408 413.444C128.408 411.974 127.316 410.924 125.972 410.924C124.642 410.924 123.536 411.974 123.536 413.444ZM130.942 413.458C130.942 411.204 132.272 409.748 134.148 409.748C135.786 409.748 136.332 410.868 136.332 410.868H136.36C136.36 410.868 136.332 410.658 136.332 410.392V407.116H137.69V417H136.402V416.328C136.402 416.048 136.416 415.852 136.416 415.852H136.388C136.388 415.852 135.814 417.168 134.064 417.168C132.146 417.168 130.942 415.656 130.942 413.458ZM132.328 413.458C132.328 414.998 133.154 415.992 134.33 415.992C135.38 415.992 136.374 415.25 136.374 413.444C136.374 412.184 135.716 410.924 134.372 410.924C133.252 410.924 132.328 411.848 132.328 413.458ZM140.372 414.284L140.274 407.116H141.674L141.59 414.284H140.372ZM140.288 417V415.642H141.674V417H140.288ZM148.145 417V407.116H151.421C154.445 407.116 156.433 408.922 156.433 412.044C156.433 415.18 154.445 417 151.421 417H148.145ZM149.531 415.796H151.323C153.549 415.796 155.005 414.48 155.005 412.044C155.005 409.622 153.535 408.32 151.323 408.32H149.531V415.796ZM157.71 413.444C157.71 411.302 159.418 409.748 161.532 409.748C163.646 409.748 165.354 411.302 165.354 413.444C165.354 415.6 163.646 417.168 161.532 417.168C159.418 417.168 157.71 415.6 157.71 413.444ZM159.096 413.444C159.096 414.928 160.202 415.992 161.532 415.992C162.876 415.992 163.968 414.928 163.968 413.444C163.968 411.974 162.876 410.924 161.532 410.924C160.202 410.924 159.096 411.974 159.096 413.444ZM166.964 417V409.916H168.28V410.854C168.28 411.134 168.252 411.372 168.252 411.372H168.28C168.56 410.756 169.4 409.748 170.94 409.748C172.606 409.748 173.376 410.658 173.376 412.464V417H172.018V412.772C172.018 411.778 171.808 410.994 170.674 410.994C169.596 410.994 168.728 411.708 168.434 412.73C168.35 413.01 168.322 413.332 168.322 413.682V417H166.964ZM175.05 409.678L175.652 406.948H176.968L176.058 409.678H175.05ZM178.756 414.41V411.106H177.832V410.014H178.798V407.97H180.114V410.014H181.822V411.106H180.114V414.256C180.114 415.67 181.108 415.852 181.626 415.852C181.822 415.852 181.948 415.824 181.948 415.824V417.028C181.948 417.028 181.752 417.056 181.472 417.056C180.562 417.056 178.756 416.776 178.756 414.41ZM188.532 417L186.25 409.916H187.692L189.162 414.886C189.274 415.25 189.33 415.642 189.344 415.642H189.372C189.372 415.642 189.442 415.25 189.554 414.886L191.094 409.93H192.34L193.866 414.886C193.978 415.25 194.062 415.642 194.062 415.642H194.09C194.09 415.642 194.146 415.25 194.258 414.886L195.742 409.916H197.17L194.888 417H193.39L191.92 412.45C191.808 412.086 191.724 411.68 191.724 411.68H191.696C191.696 411.68 191.612 412.086 191.5 412.45L190.044 417H188.532ZM197.96 413.444C197.96 411.302 199.668 409.748 201.782 409.748C203.896 409.748 205.604 411.302 205.604 413.444C205.604 415.6 203.896 417.168 201.782 417.168C199.668 417.168 197.96 415.6 197.96 413.444ZM199.346 413.444C199.346 414.928 200.452 415.992 201.782 415.992C203.126 415.992 204.218 414.928 204.218 413.444C204.218 411.974 203.126 410.924 201.782 410.924C200.452 410.924 199.346 411.974 199.346 413.444ZM207.214 417V409.916H208.53V411.148C208.53 411.442 208.502 411.68 208.502 411.68H208.53C208.852 410.644 209.678 409.832 210.77 409.832C210.952 409.832 211.12 409.86 211.12 409.86V411.204C211.12 411.204 210.938 411.162 210.728 411.162C209.86 411.162 209.062 411.778 208.74 412.828C208.614 413.234 208.572 413.668 208.572 414.102V417H207.214ZM212.464 417V409.916H213.78V411.148C213.78 411.442 213.752 411.68 213.752 411.68H213.78C214.102 410.644 214.928 409.832 216.02 409.832C216.202 409.832 216.37 409.86 216.37 409.86V411.204C216.37 411.204 216.188 411.162 215.978 411.162C215.11 411.162 214.312 411.778 213.99 412.828C213.864 413.234 213.822 413.668 213.822 414.102V417H212.464ZM216.816 419.506L217.292 418.47C217.292 418.47 217.684 418.764 218.118 418.764C218.664 418.764 219.126 418.372 219.392 417.728L219.742 416.916L216.774 409.916H218.3L220.078 414.55C220.218 414.914 220.344 415.404 220.344 415.404H220.372C220.372 415.404 220.484 414.928 220.61 414.564L222.332 409.916H223.802L220.484 418.274C220.05 419.366 219.182 419.94 218.188 419.94C217.39 419.94 216.816 419.506 216.816 419.506ZM228.837 414.41V411.106H227.913V410.014H228.879V407.97H230.195V410.014H231.903V411.106H230.195V414.256C230.195 415.67 231.189 415.852 231.707 415.852C231.903 415.852 232.029 415.824 232.029 415.824V417.028C232.029 417.028 231.833 417.056 231.553 417.056C230.643 417.056 228.837 416.776 228.837 414.41ZM233.56 417V407.116H234.918V410.742C234.918 411.078 234.89 411.33 234.89 411.33H234.918C235.226 410.644 236.122 409.748 237.536 409.748C239.202 409.748 239.972 410.658 239.972 412.464V417H238.614V412.772C238.614 411.778 238.404 410.994 237.27 410.994C236.206 410.994 235.324 411.722 235.03 412.744C234.946 413.024 234.918 413.346 234.918 413.682V417H233.56ZM241.982 408.502V407.116H243.354V408.502H241.982ZM241.996 417V409.916H243.354V417H241.996ZM244.908 416.132L245.566 415.166C245.566 415.166 246.364 415.992 247.596 415.992C248.184 415.992 248.772 415.684 248.772 415.11C248.772 413.808 245.132 414.074 245.132 411.764C245.132 410.476 246.28 409.748 247.694 409.748C249.248 409.748 249.976 410.532 249.976 410.532L249.43 411.554C249.43 411.554 248.8 410.924 247.68 410.924C247.092 410.924 246.518 411.176 246.518 411.792C246.518 413.066 250.158 412.786 250.158 415.11C250.158 416.286 249.15 417.168 247.596 417.168C245.86 417.168 244.908 416.132 244.908 416.132ZM254.779 416.132L255.437 415.166C255.437 415.166 256.235 415.992 257.467 415.992C258.055 415.992 258.643 415.684 258.643 415.11C258.643 413.808 255.003 414.074 255.003 411.764C255.003 410.476 256.151 409.748 257.565 409.748C259.119 409.748 259.847 410.532 259.847 410.532L259.301 411.554C259.301 411.554 258.671 410.924 257.551 410.924C256.963 410.924 256.389 411.176 256.389 411.792C256.389 413.066 260.029 412.786 260.029 415.11C260.029 416.286 259.021 417.168 257.467 417.168C255.731 417.168 254.779 416.132 254.779 416.132ZM261.138 413.458C261.138 411.204 262.664 409.748 264.68 409.748C266.682 409.748 267.746 411.232 267.746 413.066C267.746 413.248 267.704 413.654 267.704 413.654H262.538C262.608 415.208 263.714 415.992 264.974 415.992C266.192 415.992 267.074 415.166 267.074 415.166L267.634 416.16C267.634 416.16 266.584 417.168 264.89 417.168C262.664 417.168 261.138 415.558 261.138 413.458ZM262.58 412.632H266.36C266.318 411.414 265.562 410.826 264.652 410.826C263.616 410.826 262.776 411.47 262.58 412.632ZM269.31 415.068V407.116H270.668V414.83C270.668 415.684 271.004 415.838 271.424 415.838C271.55 415.838 271.662 415.824 271.662 415.824V417.028C271.662 417.028 271.452 417.056 271.214 417.056C270.444 417.056 269.31 416.846 269.31 415.068ZM273.477 417V411.106H272.595V410.014H273.477V409.678C273.477 407.34 275.241 407.046 276.137 407.046C276.445 407.046 276.655 407.088 276.655 407.088V408.25C276.655 408.25 276.515 408.222 276.305 408.222C275.787 408.222 274.821 408.39 274.821 409.706V410.014H276.501V411.106H274.821V417H273.477ZM277.788 408.502V407.116H279.16V408.502H277.788ZM277.802 417V409.916H279.16V417H277.802ZM280.799 413.458C280.799 411.204 282.325 409.748 284.341 409.748C286.343 409.748 287.407 411.232 287.407 413.066C287.407 413.248 287.365 413.654 287.365 413.654H282.199C282.269 415.208 283.375 415.992 284.635 415.992C285.853 415.992 286.735 415.166 286.735 415.166L287.295 416.16C287.295 416.16 286.245 417.168 284.551 417.168C282.325 417.168 280.799 415.558 280.799 413.458ZM282.241 412.632H286.021C285.979 411.414 285.223 410.826 284.313 410.826C283.277 410.826 282.437 411.47 282.241 412.632ZM292.636 408.502V407.116H294.008V408.502H292.636ZM292.65 417V409.916H294.008V417H292.65ZM295.562 416.132L296.22 415.166C296.22 415.166 297.018 415.992 298.25 415.992C298.838 415.992 299.426 415.684 299.426 415.11C299.426 413.808 295.786 414.074 295.786 411.764C295.786 410.476 296.934 409.748 298.348 409.748C299.902 409.748 300.63 410.532 300.63 410.532L300.084 411.554C300.084 411.554 299.454 410.924 298.334 410.924C297.746 410.924 297.172 411.176 297.172 411.792C297.172 413.066 300.812 412.786 300.812 415.11C300.812 416.286 299.804 417.168 298.25 417.168C296.514 417.168 295.562 416.132 295.562 416.132ZM305.489 413.444C305.489 411.302 307.197 409.748 309.311 409.748C311.425 409.748 313.133 411.302 313.133 413.444C313.133 415.6 311.425 417.168 309.311 417.168C307.197 417.168 305.489 415.6 305.489 413.444ZM306.875 413.444C306.875 414.928 307.981 415.992 309.311 415.992C310.655 415.992 311.747 414.928 311.747 413.444C311.747 411.974 310.655 410.924 309.311 410.924C307.981 410.924 306.875 411.974 306.875 413.444ZM314.744 417V409.916H316.06V410.854C316.06 411.134 316.032 411.372 316.032 411.372H316.06C316.34 410.756 317.18 409.748 318.72 409.748C320.386 409.748 321.156 410.658 321.156 412.464V417H319.798V412.772C319.798 411.778 319.588 410.994 318.454 410.994C317.376 410.994 316.508 411.708 316.214 412.73C316.13 413.01 316.102 413.332 316.102 413.682V417H314.744ZM323.095 415.068V407.116H324.453V414.83C324.453 415.684 324.789 415.838 325.209 415.838C325.335 415.838 325.447 415.824 325.447 415.824V417.028C325.447 417.028 325.237 417.056 324.999 417.056C324.229 417.056 323.095 416.846 323.095 415.068ZM325.89 419.506L326.366 418.47C326.366 418.47 326.758 418.764 327.192 418.764C327.738 418.764 328.2 418.372 328.466 417.728L328.816 416.916L325.848 409.916H327.374L329.152 414.55C329.292 414.914 329.418 415.404 329.418 415.404H329.446C329.446 415.404 329.558 414.928 329.684 414.564L331.406 409.916H332.876L329.558 418.274C329.124 419.366 328.256 419.94 327.262 419.94C326.464 419.94 325.89 419.506 325.89 419.506ZM39.064 437V427.116H40.422V430.35C40.422 430.7 40.394 430.952 40.394 430.952H40.422C40.422 430.952 41.024 429.748 42.69 429.748C44.594 429.748 45.798 431.26 45.798 433.458C45.798 435.712 44.44 437.168 42.578 437.168C40.996 437.168 40.352 435.95 40.352 435.95H40.324C40.324 435.95 40.352 436.174 40.352 436.482V437H39.064ZM40.38 433.486C40.38 434.746 41.038 436.006 42.382 436.006C43.502 436.006 44.426 435.082 44.426 433.472C44.426 431.932 43.6 430.938 42.424 430.938C41.36 430.938 40.38 431.68 40.38 433.486ZM46.9685 433.458C46.9685 431.204 48.4945 429.748 50.5105 429.748C52.5125 429.748 53.5765 431.232 53.5765 433.066C53.5765 433.248 53.5345 433.654 53.5345 433.654H48.3685C48.4385 435.208 49.5445 435.992 50.8045 435.992C52.0225 435.992 52.9045 435.166 52.9045 435.166L53.4645 436.16C53.4645 436.16 52.4145 437.168 50.7205 437.168C48.4945 437.168 46.9685 435.558 46.9685 433.458ZM48.4105 432.632H52.1905C52.1485 431.414 51.3925 430.826 50.4825 430.826C49.4465 430.826 48.6065 431.47 48.4105 432.632ZM55.2102 428.502V427.116H56.5822V428.502H55.2102ZM55.2242 437V429.916H56.5822V437H55.2242ZM58.7105 437V429.916H60.0265V430.854C60.0265 431.134 59.9985 431.372 59.9985 431.372H60.0265C60.3065 430.756 61.1465 429.748 62.6865 429.748C64.3525 429.748 65.1225 430.658 65.1225 432.464V437H63.7645V432.772C63.7645 431.778 63.5545 430.994 62.4205 430.994C61.3425 430.994 60.4745 431.708 60.1805 432.73C60.0965 433.01 60.0685 433.332 60.0685 433.682V437H58.7105ZM67.776 438.288C67.776 438.288 68.658 438.764 69.722 438.764C70.954 438.764 71.962 438.218 71.962 436.776V436.258C71.962 436.034 71.976 435.81 71.976 435.81H71.948C71.528 436.51 70.87 436.916 69.848 436.916C67.874 436.916 66.684 435.334 66.684 433.29C66.684 431.26 67.818 429.748 69.778 429.748C71.486 429.748 72.004 430.798 72.004 430.798H72.032C72.032 430.798 72.018 430.7 72.018 430.574V429.916H73.32V436.706C73.32 439.044 71.542 439.94 69.75 439.94C68.896 439.94 68.014 439.702 67.328 439.352L67.776 438.288ZM70.114 435.74C71.094 435.74 71.99 435.152 71.99 433.304C71.99 431.456 71.094 430.924 69.988 430.924C68.756 430.924 68.056 431.82 68.056 433.262C68.056 434.732 68.84 435.74 70.114 435.74ZM78.9426 434.452V429.916H80.3006V434.144C80.3006 435.124 80.4966 435.908 81.6306 435.908C83.0726 435.908 83.9266 434.634 83.9266 433.234V429.916H85.2846V437H83.9686V436.062C83.9686 435.768 83.9966 435.544 83.9966 435.544H83.9686C83.6746 436.244 82.7506 437.168 81.3646 437.168C79.7686 437.168 78.9426 436.328 78.9426 434.452ZM86.8338 436.132L87.4918 435.166C87.4918 435.166 88.2898 435.992 89.5218 435.992C90.1098 435.992 90.6978 435.684 90.6978 435.11C90.6978 433.808 87.0578 434.074 87.0578 431.764C87.0578 430.476 88.2058 429.748 89.6198 429.748C91.1738 429.748 91.9018 430.532 91.9018 430.532L91.3558 431.554C91.3558 431.554 90.7258 430.924 89.6058 430.924C89.0178 430.924 88.4438 431.176 88.4438 431.792C88.4438 433.066 92.0838 432.786 92.0838 435.11C92.0838 436.286 91.0758 437.168 89.5218 437.168C87.7858 437.168 86.8338 436.132 86.8338 436.132ZM93.1931 433.458C93.1931 431.204 94.7191 429.748 96.7351 429.748C98.7371 429.748 99.8011 431.232 99.8011 433.066C99.8011 433.248 99.7591 433.654 99.7591 433.654H94.5931C94.6631 435.208 95.7691 435.992 97.0291 435.992C98.2471 435.992 99.1291 435.166 99.1291 435.166L99.6891 436.16C99.6891 436.16 98.6391 437.168 96.9451 437.168C94.7191 437.168 93.1931 435.558 93.1931 433.458ZM94.6351 432.632H98.4151C98.3731 431.414 97.6171 430.826 96.7071 430.826C95.6711 430.826 94.8311 431.47 94.6351 432.632ZM100.987 433.458C100.987 431.204 102.317 429.748 104.193 429.748C105.831 429.748 106.377 430.868 106.377 430.868H106.405C106.405 430.868 106.377 430.658 106.377 430.392V427.116H107.735V437H106.447V436.328C106.447 436.048 106.461 435.852 106.461 435.852H106.433C106.433 435.852 105.859 437.168 104.109 437.168C102.191 437.168 100.987 435.656 100.987 433.458ZM102.373 433.458C102.373 434.998 103.199 435.992 104.375 435.992C105.425 435.992 106.419 435.25 106.419 433.444C106.419 432.184 105.761 430.924 104.417 430.924C103.297 430.924 102.373 431.848 102.373 433.458ZM113.747 434.41V431.106H112.823V430.014H113.789V427.97H115.105V430.014H116.813V431.106H115.105V434.256C115.105 435.67 116.099 435.852 116.617 435.852C116.813 435.852 116.939 435.824 116.939 435.824V437.028C116.939 437.028 116.743 437.056 116.463 437.056C115.553 437.056 113.747 436.776 113.747 434.41ZM117.952 433.444C117.952 431.302 119.66 429.748 121.774 429.748C123.888 429.748 125.596 431.302 125.596 433.444C125.596 435.6 123.888 437.168 121.774 437.168C119.66 437.168 117.952 435.6 117.952 433.444ZM119.338 433.444C119.338 434.928 120.444 435.992 121.774 435.992C123.118 435.992 124.21 434.928 124.21 433.444C124.21 431.974 123.118 430.924 121.774 430.924C120.444 430.924 119.338 431.974 119.338 433.444ZM132.482 437L129.836 429.916H131.278L133 434.704C133.14 435.096 133.224 435.67 133.238 435.67H133.266C133.28 435.67 133.378 435.096 133.518 434.704L135.24 429.916H136.668L134.05 437H132.482ZM137.34 433.458C137.34 431.204 138.866 429.748 140.882 429.748C142.884 429.748 143.948 431.232 143.948 433.066C143.948 433.248 143.906 433.654 143.906 433.654H138.74C138.81 435.208 139.916 435.992 141.176 435.992C142.394 435.992 143.276 435.166 143.276 435.166L143.836 436.16C143.836 436.16 142.786 437.168 141.092 437.168C138.866 437.168 137.34 435.558 137.34 433.458ZM138.782 432.632H142.562C142.52 431.414 141.764 430.826 140.854 430.826C139.818 430.826 138.978 431.47 138.782 432.632ZM145.595 437V429.916H146.911V431.148C146.911 431.442 146.883 431.68 146.883 431.68H146.911C147.233 430.644 148.059 429.832 149.151 429.832C149.333 429.832 149.501 429.86 149.501 429.86V431.204C149.501 431.204 149.319 431.162 149.109 431.162C148.241 431.162 147.443 431.778 147.121 432.828C146.995 433.234 146.953 433.668 146.953 434.102V437H145.595ZM150.831 428.502V427.116H152.203V428.502H150.831ZM150.845 437V429.916H152.203V437H150.845ZM154.71 437V431.106H153.828V430.014H154.71V429.678C154.71 427.34 156.474 427.046 157.37 427.046C157.678 427.046 157.888 427.088 157.888 427.088V428.25C157.888 428.25 157.748 428.222 157.538 428.222C157.02 428.222 156.054 428.39 156.054 429.706V430.014H157.734V431.106H156.054V437H154.71ZM158.177 439.506L158.653 438.47C158.653 438.47 159.045 438.764 159.479 438.764C160.025 438.764 160.487 438.372 160.753 437.728L161.103 436.916L158.135 429.916H159.661L161.439 434.55C161.579 434.914 161.705 435.404 161.705 435.404H161.733C161.733 435.404 161.845 434.928 161.971 434.564L163.693 429.916H165.163L161.845 438.274C161.411 439.366 160.543 439.94 159.549 439.94C158.751 439.94 158.177 439.506 158.177 439.506ZM168.91 439.506L169.386 438.47C169.386 438.47 169.778 438.764 170.212 438.764C170.758 438.764 171.22 438.372 171.486 437.728L171.836 436.916L168.868 429.916H170.394L172.172 434.55C172.312 434.914 172.438 435.404 172.438 435.404H172.466C172.466 435.404 172.578 434.928 172.704 434.564L174.426 429.916H175.896L172.578 438.274C172.144 439.366 171.276 439.94 170.282 439.94C169.484 439.94 168.91 439.506 168.91 439.506ZM176.523 433.444C176.523 431.302 178.231 429.748 180.345 429.748C182.459 429.748 184.167 431.302 184.167 433.444C184.167 435.6 182.459 437.168 180.345 437.168C178.231 437.168 176.523 435.6 176.523 433.444ZM177.909 433.444C177.909 434.928 179.015 435.992 180.345 435.992C181.689 435.992 182.781 434.928 182.781 433.444C182.781 431.974 181.689 430.924 180.345 430.924C179.015 430.924 177.909 431.974 177.909 433.444ZM185.679 434.452V429.916H187.037V434.144C187.037 435.124 187.233 435.908 188.367 435.908C189.809 435.908 190.663 434.634 190.663 433.234V429.916H192.021V437H190.705V436.062C190.705 435.768 190.733 435.544 190.733 435.544H190.705C190.411 436.244 189.487 437.168 188.101 437.168C186.505 437.168 185.679 436.328 185.679 434.452ZM194.144 437V429.916H195.46V431.148C195.46 431.442 195.432 431.68 195.432 431.68H195.46C195.782 430.644 196.608 429.832 197.7 429.832C197.882 429.832 198.05 429.86 198.05 429.86V431.204C198.05 431.204 197.868 431.162 197.658 431.162C196.79 431.162 195.992 431.778 195.67 432.828C195.544 433.234 195.502 433.668 195.502 434.102V437H194.144ZM203.27 437V427.116H204.656V431.274H206.126L208.618 427.116H210.144L207.274 431.806V431.834L210.326 437H208.758L206.126 432.464H204.656V437H203.27ZM214.106 437V428.32H210.718V427.116H218.88V428.32H215.492V437H214.106ZM220.291 437V427.116H223.903C225.709 427.116 227.011 428.334 227.011 430.21C227.011 432.086 225.709 433.346 223.903 433.346H221.677V437H220.291ZM221.677 432.142H223.679C224.869 432.142 225.597 431.4 225.597 430.21C225.597 429.02 224.869 428.32 223.693 428.32H221.677V432.142ZM232.097 428.502V427.116H233.469V428.502H232.097ZM232.111 437V429.916H233.469V437H232.111ZM235.023 436.132L235.681 435.166C235.681 435.166 236.479 435.992 237.711 435.992C238.299 435.992 238.887 435.684 238.887 435.11C238.887 433.808 235.247 434.074 235.247 431.764C235.247 430.476 236.395 429.748 237.809 429.748C239.363 429.748 240.091 430.532 240.091 430.532L239.545 431.554C239.545 431.554 238.915 430.924 237.795 430.924C237.207 430.924 236.633 431.176 236.633 431.792C236.633 433.066 240.273 432.786 240.273 435.11C240.273 436.286 239.265 437.168 237.711 437.168C235.975 437.168 235.023 436.132 235.023 436.132ZM244.474 439.506L244.95 438.47C244.95 438.47 245.342 438.764 245.776 438.764C246.322 438.764 246.784 438.372 247.05 437.728L247.4 436.916L244.432 429.916H245.958L247.736 434.55C247.876 434.914 248.002 435.404 248.002 435.404H248.03C248.03 435.404 248.142 434.928 248.268 434.564L249.99 429.916H251.46L248.142 438.274C247.708 439.366 246.84 439.94 245.846 439.94C245.048 439.94 244.474 439.506 244.474 439.506ZM252.087 433.444C252.087 431.302 253.795 429.748 255.909 429.748C258.023 429.748 259.731 431.302 259.731 433.444C259.731 435.6 258.023 437.168 255.909 437.168C253.795 437.168 252.087 435.6 252.087 433.444ZM253.473 433.444C253.473 434.928 254.579 435.992 255.909 435.992C257.253 435.992 258.345 434.928 258.345 433.444C258.345 431.974 257.253 430.924 255.909 430.924C254.579 430.924 253.473 431.974 253.473 433.444ZM261.243 434.452V429.916H262.601V434.144C262.601 435.124 262.797 435.908 263.931 435.908C265.373 435.908 266.227 434.634 266.227 433.234V429.916H267.585V437H266.269V436.062C266.269 435.768 266.297 435.544 266.297 435.544H266.269C265.975 436.244 265.051 437.168 263.665 437.168C262.069 437.168 261.243 436.328 261.243 434.452ZM269.709 437V429.916H271.025V431.148C271.025 431.442 270.997 431.68 270.997 431.68H271.025C271.347 430.644 272.173 429.832 273.265 429.832C273.447 429.832 273.615 429.86 273.615 429.86V431.204C273.615 431.204 273.433 431.162 273.223 431.162C272.355 431.162 271.557 431.778 271.235 432.828C271.109 433.234 271.067 433.668 271.067 434.102V437H269.709ZM274.385 436.132L275.043 435.166C275.043 435.166 275.841 435.992 277.073 435.992C277.661 435.992 278.249 435.684 278.249 435.11C278.249 433.808 274.609 434.074 274.609 431.764C274.609 430.476 275.757 429.748 277.171 429.748C278.725 429.748 279.453 430.532 279.453 430.532L278.907 431.554C278.907 431.554 278.277 430.924 277.157 430.924C276.569 430.924 275.995 431.176 275.995 431.792C275.995 433.066 279.635 432.786 279.635 435.11C279.635 436.286 278.627 437.168 277.073 437.168C275.337 437.168 274.385 436.132 274.385 436.132Z" fill="white"/>
</g>
<path d="M283 152C283 217.942 240.27 271 188 271C135.73 271 93 217.942 93 152C93 86.0583 135.73 33 188 33C240.27 33 283 86.0583 283 152Z" stroke="white" stroke-width="2"/>
<defs>
<clipPath id="clip0_2028_37244">
<rect width="16" height="16" fill="white" transform="translate(16 348)"/>
</clipPath>
<clipPath id="clip1_2028_37244">
<rect width="341" height="20" fill="white" transform="translate(17 374)"/>
</clipPath>
<clipPath id="clip2_2028_37244">
<rect width="339" height="40" fill="white" transform="translate(18 402)"/>
</clipPath>
</defs>
</svg>
