<svg width="375" height="812" viewBox="0 0 375 812" fill="none" xmlns="http://www.w3.org/2000/svg">
<path fill-rule="evenodd" clip-rule="evenodd" d="M375 0H0V534.063C0 534.063 27.3688 525.818 44.2416 518.789C62.9222 511.008 90.5899 495.615 90.5899 495.615C90.5899 495.615 92.6947 474.265 90.5899 460.854C88.1659 445.409 83.094 435.984 76.7687 424.231L76.7676 424.229C74.81 420.591 72.7323 416.73 70.5758 412.399C65.6351 402.475 60.3643 395.205 55.2263 388.118C48.9854 379.51 42.9405 371.172 37.9213 358.677C35.6638 353.057 33.0516 347.788 30.5368 342.715L30.5366 342.715C22.4815 326.467 15.4261 312.236 24.2275 294.948C26.1171 291.237 30.0211 285.994 30.0211 285.994C30.0211 285.994 17.6512 229.603 24.2275 194.351C30.5086 160.682 35.966 138.655 60.0421 114.295C77.7974 96.3306 92.2539 90.5965 115.871 81.6404C142.43 71.5685 187.5 69 187.5 69C187.5 69 232.57 71.5685 259.129 81.6404C282.746 90.5965 297.203 96.3306 314.958 114.295C339.034 138.655 344.491 160.682 350.772 194.351C357.349 229.603 344.979 285.994 344.979 285.994C344.979 285.994 348.883 291.237 350.772 294.948C359.574 312.236 352.519 326.467 344.464 342.715L344.463 342.715C341.949 347.788 339.336 353.057 337.079 358.677C332.06 371.172 326.015 379.51 319.774 388.118L319.774 388.118C314.636 395.205 309.365 402.475 304.424 412.399C302.268 416.731 300.19 420.592 298.232 424.23L298.231 424.231L298.231 424.231C291.906 435.985 286.834 445.409 284.41 460.854C282.305 474.265 284.41 495.615 284.41 495.615C284.41 495.615 312.078 511.008 330.758 518.789C347.631 525.818 375 534.063 375 534.063L375 0ZM375 811.626H0V812H375L375 811.626Z" fill="black"/>
</svg>
