<svg width="376" height="816" viewBox="0 0 376 816" fill="none" xmlns="http://www.w3.org/2000/svg">
<path fill-rule="evenodd" clip-rule="evenodd" d="M376 0L0 0L0 816L376 816L376 0ZM312 108.209C312 103.675 308.325 100 303.791 100L72.2091 100C67.6753 100 64 103.675 64 108.209L64 483.791C64 488.325 67.6753 492 72.2091 492L303.791 492C308.325 492 312 488.325 312 483.791L312 108.209Z" fill="#0B0B0B"/>
<rect x="311" y="101" width="390" height="245" rx="7.20912" transform="rotate(90 311 101)" stroke="#8BE200" stroke-width="2"/>
<rect x="252.191" y="375.486" width="93.949" height="117.971" rx="7.20912" transform="rotate(90 252.191 375.486)" stroke="#8BE200" stroke-width="2"/>
<rect x="261.632" y="113.368" width="229.264" height="21.2636" rx="6.84093" transform="rotate(90 261.632 113.368)" stroke="#8BE200" stroke-width="2.73637"/>
</svg>
