<svg width="375" height="812" viewBox="0 0 375 812" fill="none" xmlns="http://www.w3.org/2000/svg">
<g clip-path="url(#clip0_2019_37037)">
<mask id="mask0_2019_37037" style="mask-type:luminance" maskUnits="userSpaceOnUse" x="0" y="0" width="375" height="812">
<path d="M375 0H0V812H375V0Z" fill="white"/>
</mask>
<g mask="url(#mask0_2019_37037)">
<path fill-rule="evenodd" clip-rule="evenodd" d="M375 0H0V812H375V0ZM18 216C14.6863 216 12 218.686 12 222V410C12 413.314 14.6863 416 18 416H357C360.314 416 363 413.314 363 410V222C363 218.686 360.314 216 357 216H18Z" fill="#0B0B0D"/>
<path d="M357 217H18C15.2386 217 13 219.239 13 222V410C13 412.761 15.2386 415 18 415H357C359.761 415 362 412.761 362 410V222C362 219.239 359.761 217 357 217Z" stroke="#8BE200" stroke-width="2"/>
</g>
<rect x="251" y="247" width="88" height="107" rx="7.20912" stroke="#8BE200" stroke-width="2"/>
<rect x="26.3682" y="247.368" width="194.264" height="21.2636" rx="6.84093" stroke="#8BE200" stroke-width="2.73637"/>
</g>
<defs>
<clipPath id="clip0_2019_37037">
<rect width="375" height="812" fill="white"/>
</clipPath>
</defs>
</svg>
