<svg width="375" height="812" viewBox="0 0 375 812" fill="none" xmlns="http://www.w3.org/2000/svg">
<g clip-path="url(#clip0_1507_5892)">
<path d="M323 288.5C323 381.211 261.927 456 187 456C112.073 456 51 381.211 51 288.5C51 195.789 112.073 121 187 121C261.927 121 323 195.789 323 288.5Z" stroke="white" stroke-width="2"/>
<path fill-rule="evenodd" clip-rule="evenodd" d="M375 0H0V812H375V0ZM324 288.5C324 381.56 262.663 457 187 457C111.337 457 50 381.56 50 288.5C50 195.44 111.337 120 187 120C262.663 120 324 195.44 324 288.5Z" fill="#0B0B0D"/>
</g>
<defs>
<clipPath id="clip0_1507_5892">
<rect width="375" height="812" fill="white"/>
</clipPath>
</defs>
</svg>
