<svg width="375" height="812" viewBox="0 0 375 812" fill="none" xmlns="http://www.w3.org/2000/svg">
<g clip-path="url(#clip0_1468_5871)">
<path fill-rule="evenodd" clip-rule="evenodd" d="M0 0H375V982.629H0V0ZM173 195.24C173 200.77 159.569 205.252 143 205.252C126.431 205.252 113 200.77 113 195.24C113 189.71 126.431 185.228 143 185.228C159.569 185.228 173 189.71 173 195.24ZM233 205.252C249.569 205.252 263 200.77 263 195.24C263 189.71 249.569 185.228 233 185.228C216.431 185.228 203 189.71 203 195.24C203 200.77 216.431 205.252 233 205.252ZM218 287.353C218 292.883 204.569 297.366 188 297.366C171.431 297.366 158 292.883 158 287.353C158 281.824 171.431 277.341 188 277.341C204.569 277.341 218 281.824 218 287.353ZM203.588 254.813L188 205.252L172.412 254.813H203.588Z" fill="black" fill-opacity="0.8"/>
</g>
<defs>
<clipPath id="clip0_1468_5871">
<rect width="375" height="812" fill="white"/>
</clipPath>
</defs>
</svg>
