<svg width="375" height="812" viewBox="0 0 375 812" fill="none" xmlns="http://www.w3.org/2000/svg">
<g clip-path="url(#clip0_2206_36868)">
<path d="M297.126 278.33C297.126 326.313 286.964 369.592 268.345 400.801C249.751 431.968 222.832 450.97 189.142 450.97C155.437 450.97 127.836 431.953 108.568 400.773C89.2798 369.563 78.4491 326.29 78.4491 278.33C78.4491 240.324 81.1677 211.942 86.2782 190.741C91.3869 169.548 98.8543 155.663 108.258 146.497C117.642 137.349 129.143 132.718 142.691 130.383C156.296 128.038 171.8 128.032 189.142 128.032C206.486 128.032 221.816 128.038 235.163 130.382C248.448 132.714 259.602 137.339 268.646 146.471C277.716 155.63 284.855 169.513 289.715 190.719C294.576 211.928 297.126 240.318 297.126 278.33Z" stroke="#029D24" stroke-width="4.06211"/>
<path d="M296.113 243.802C302.658 233.082 317.507 215.773 324.548 232.292C333.349 252.942 310.669 328.429 294.082 324.367" stroke="#029D24" stroke-width="4.06211"/>
<path d="M79.3986 243.857C72.8541 233.138 58.0048 215.829 50.9638 232.348C42.1625 252.997 64.8427 328.485 81.4296 324.423" stroke="#029D24" stroke-width="4.06211"/>
<path d="M138.705 366.003C166.513 367.679 175.42 357.086 188.399 365.728C188.639 365.887 188.964 365.886 189.201 365.721C201.651 357.056 216.797 366.003 238.904 366.003M138.705 366.003C158.474 385.501 180.342 391.73 188.805 392.408C216.156 392.679 233.601 374.918 238.904 366.003M138.705 366.003C171.879 376.837 202.006 377.514 238.904 366.003" stroke="#8BE200" stroke-width="0.677019" stroke-linecap="round"/>
<path d="M177.633 254.973C177.972 268.287 177.633 296 173.571 300.333C168.494 305.749 139.043 323.69 166.462 335.876C170.863 337.832 173.232 334.861 169.509 333.168C161.317 329.445 157.323 324.367 169.509 330.122C181.695 335.876 184.065 335.538 185.08 338.585" stroke="#8BE200" stroke-width="0.677019" stroke-linecap="round"/>
<path d="M200.652 255.311C200.313 268.626 200.652 296.338 204.714 300.671C209.791 306.087 239.242 324.028 211.822 336.215C207.422 338.17 205.052 335.199 208.776 333.507C216.968 329.783 220.962 324.705 208.776 330.46C196.59 336.215 194.22 335.199 193.204 338.923C192.599 341.144 185.893 341.022 185.08 338.584" stroke="#8BE200" stroke-width="0.677019" stroke-linecap="round"/>
<path d="M104.363 259.195C123.433 296.769 156.493 275.228 171.116 259.295C171.359 259.03 171.335 258.621 171.079 258.368C145.96 233.58 120.568 235.261 104.407 258.495C104.266 258.697 104.251 258.975 104.363 259.195Z" stroke="#8BE200" stroke-width="1.35404" stroke-linecap="round"/>
<path d="M271.894 259.195C252.824 296.769 219.763 275.228 205.141 259.295C204.898 259.03 204.921 258.621 205.178 258.368C230.297 233.58 255.688 235.261 271.85 258.495C271.99 258.697 272.005 258.975 271.894 259.195Z" stroke="#8BE200" stroke-width="1.35404" stroke-linecap="round"/>
<path d="M75 88C75 78.0589 83.0589 70 93 70H284C293.941 70 302 78.0589 302 88C302 97.9411 293.941 106 284 106H93C83.0589 106 75 97.9411 75 88Z" fill="white"/>
<path d="M91.0312 88.7656H89.1211V92H88.1367V83.7031H90.9961C92.7188 83.7031 93.8203 84.6875 93.8203 86.2344C93.8203 87.8281 92.7891 88.7656 91.0312 88.7656ZM92.8008 86.2227C92.8008 85.1562 92.0977 84.5 90.9141 84.5H89.1211V87.9688H90.7969C92.1328 87.9688 92.8008 87.3945 92.8008 86.2227ZM97.1747 92.1406C96.0497 92.1406 95.2528 91.4492 95.2528 90.4531C95.2528 89.4453 96.0731 88.7656 97.62 88.4727L98.3817 88.332C98.7919 88.25 99.0262 87.9922 99.0262 87.6055C99.0262 86.9492 98.4286 86.4688 97.5966 86.4688C96.7762 86.4688 96.0966 86.9375 95.9442 87.6172L95.0653 87.4297C95.2528 86.4219 96.3192 85.6953 97.62 85.6953C99.0614 85.6953 99.9637 86.5742 99.9637 87.957V92H99.12V91.1211C98.6864 91.7773 97.995 92.1406 97.1747 92.1406ZM97.3856 91.3672C98.3231 91.3672 99.0262 90.7109 99.0262 89.8438V88.8477C98.827 88.9766 98.6395 89.0352 98.2762 89.1055L97.3622 89.293C96.6239 89.4453 96.2137 89.832 96.2137 90.3828C96.2137 90.9805 96.6708 91.3672 97.3856 91.3672ZM104.021 92.1406C102.674 92.1406 101.666 91.5078 101.431 90.5L102.275 90.3359C102.51 91.0156 103.119 91.3672 104.01 91.3672C104.935 91.3672 105.463 90.9922 105.463 90.3008C105.463 89.7852 105.135 89.4688 104.49 89.3633L103.482 89.1992C102.439 89.0352 101.83 88.3906 101.83 87.4766C101.83 86.4219 102.72 85.6953 103.986 85.6953C105.076 85.6953 105.896 86.2812 106.095 87.2656L105.275 87.4062C105.099 86.7734 104.654 86.4453 103.974 86.4453C103.201 86.4453 102.767 86.7969 102.767 87.4297C102.767 88.0039 103.119 88.2852 103.857 88.4023L104.572 88.5195C105.791 88.7188 106.424 89.3281 106.424 90.2539C106.424 91.4141 105.463 92.1406 104.021 92.1406ZM110.212 92.0938C109.075 92.0938 108.419 91.4141 108.419 90.2305V86.6562H107.34V85.8359H108.419V84.2422L109.356 83.9141V85.8359H111.149V86.6562H109.356V90.1016C109.356 90.875 109.708 91.2734 110.364 91.2734C110.657 91.2734 110.821 91.25 111.055 91.168L111.255 91.8945C110.844 92.0469 110.61 92.0938 110.212 92.0938ZM113.355 84.8281C112.945 84.8281 112.628 84.5117 112.628 84.1016C112.628 83.6914 112.945 83.375 113.355 83.375C113.765 83.375 114.082 83.6914 114.082 84.1016C114.082 84.5117 113.765 84.8281 113.355 84.8281ZM112.886 92V85.8359H113.824V92H112.886ZM119.604 85.8359H120.729L117.717 88.6953L120.811 92H119.651L116.873 89.0469V92H115.936V83.7031H116.873V88.4258L119.604 85.8359ZM123.872 92.1406C122.747 92.1406 121.95 91.4492 121.95 90.4531C121.95 89.4453 122.771 88.7656 124.318 88.4727L125.079 88.332C125.49 88.25 125.724 87.9922 125.724 87.6055C125.724 86.9492 125.126 86.4688 124.294 86.4688C123.474 86.4688 122.794 86.9375 122.642 87.6172L121.763 87.4297C121.95 86.4219 123.017 85.6953 124.318 85.6953C125.759 85.6953 126.661 86.5742 126.661 87.957V92H125.818V91.1211C125.384 91.7773 124.693 92.1406 123.872 92.1406ZM124.083 91.3672C125.021 91.3672 125.724 90.7109 125.724 89.8438V88.8477C125.525 88.9766 125.337 89.0352 124.974 89.1055L124.06 89.293C123.322 89.4453 122.911 89.832 122.911 90.3828C122.911 90.9805 123.368 91.3672 124.083 91.3672ZM128.703 92V85.8359H129.617V86.7617C130.074 86.082 130.789 85.6953 131.598 85.6953C132.828 85.6953 133.719 86.5977 133.719 87.8516V92H132.781V88.0977C132.781 87.1133 132.242 86.4688 131.399 86.4688C130.449 86.4688 129.641 87.3125 129.641 88.2969V92H128.703ZM138.74 92V85.8359H139.643V86.7617C140.053 86.1055 140.732 85.6953 141.471 85.6953C142.279 85.6953 142.959 86.1758 143.24 86.9492C143.627 86.1992 144.353 85.6953 145.209 85.6953C146.369 85.6953 147.225 86.5625 147.225 87.875V92H146.287V88.1094C146.287 87.125 145.76 86.4687 145.033 86.4687C144.178 86.4687 143.451 87.2773 143.451 88.2148V92H142.514V88.1094C142.514 87.125 141.986 86.4687 141.26 86.4687C140.404 86.4687 139.678 87.2773 139.678 88.2148V92H138.74ZM151.27 92.1406C150.052 92.1406 149.149 91.25 149.149 89.9844V85.8359H150.087V89.7383C150.087 90.793 150.673 91.3672 151.47 91.3672C152.419 91.3672 153.227 90.5234 153.227 89.5391V85.8359H154.165V92H153.251V91.0742C152.782 91.7656 152.067 92.1406 151.27 92.1406ZM159.945 85.8359H161.07L158.058 88.6953L161.152 92H159.992L157.215 89.0469V92H156.277V83.7031H157.215V88.4258L159.945 85.8359ZM164.213 92.1406C163.088 92.1406 162.292 91.4492 162.292 90.4531C162.292 89.4453 163.112 88.7656 164.659 88.4727L165.42 88.332C165.831 88.25 166.065 87.9922 166.065 87.6055C166.065 86.9492 165.467 86.4687 164.635 86.4687C163.815 86.4687 163.135 86.9375 162.983 87.6172L162.104 87.4297C162.292 86.4219 163.358 85.6953 164.659 85.6953C166.1 85.6953 167.003 86.5742 167.003 87.957V92H166.159V91.1211C165.725 91.7773 165.034 92.1406 164.213 92.1406ZM164.424 91.3672C165.362 91.3672 166.065 90.7109 166.065 89.8437V88.8477C165.866 88.9766 165.678 89.0352 165.315 89.1055L164.401 89.293C163.663 89.4453 163.253 89.832 163.253 90.3828C163.253 90.9805 163.71 91.3672 164.424 91.3672ZM172.024 92V85.8359H172.926V86.7617C173.336 86.1055 174.016 85.6953 174.754 85.6953C175.563 85.6953 176.243 86.1758 176.524 86.9492C176.91 86.1992 177.637 85.6953 178.493 85.6953C179.653 85.6953 180.508 86.5625 180.508 87.875V92H179.571V88.1094C179.571 87.125 179.043 86.4687 178.317 86.4687C177.461 86.4687 176.735 87.2773 176.735 88.2148V92H175.797V88.1094C175.797 87.125 175.27 86.4687 174.543 86.4687C173.688 86.4687 172.961 87.2773 172.961 88.2148V92H172.024ZM184.109 92.1406C182.984 92.1406 182.187 91.4492 182.187 90.4531C182.187 89.4453 183.007 88.7656 184.554 88.4727L185.316 88.332C185.726 88.25 185.96 87.9922 185.96 87.6055C185.96 86.9492 185.363 86.4687 184.53 86.4687C183.71 86.4687 183.03 86.9375 182.878 87.6172L181.999 87.4297C182.187 86.4219 183.253 85.6953 184.554 85.6953C185.995 85.6953 186.898 86.5742 186.898 87.957V92H186.054V91.1211C185.62 91.7773 184.929 92.1406 184.109 92.1406ZM184.32 91.3672C185.257 91.3672 185.96 90.7109 185.96 89.8437V88.8477C185.761 88.9766 185.573 89.0352 185.21 89.1055L184.296 89.293C183.558 89.4453 183.148 89.832 183.148 90.3828C183.148 90.9805 183.605 91.3672 184.32 91.3672ZM190.955 92.1406C189.607 92.1406 188.6 91.5078 188.365 90.5L189.209 90.3359C189.443 91.0156 190.053 91.3672 190.943 91.3672C191.869 91.3672 192.397 90.9922 192.397 90.3008C192.397 89.7852 192.068 89.4687 191.424 89.3633L190.416 89.1992C189.373 89.0352 188.764 88.3906 188.764 87.4766C188.764 86.4219 189.654 85.6953 190.92 85.6953C192.01 85.6953 192.83 86.2812 193.029 87.2656L192.209 87.4062C192.033 86.7734 191.588 86.4453 190.908 86.4453C190.135 86.4453 189.701 86.7969 189.701 87.4297C189.701 88.0039 190.053 88.2852 190.791 88.4023L191.506 88.5195C192.725 88.7187 193.357 89.3281 193.357 90.2539C193.357 91.4141 192.397 92.1406 190.955 92.1406ZM197.017 92.1406C195.798 92.1406 194.895 91.25 194.895 89.9844V85.8359H195.833V89.7383C195.833 90.793 196.419 91.3672 197.216 91.3672C198.165 91.3672 198.974 90.5234 198.974 89.5391V85.8359H199.911V92H198.997V91.0742C198.528 91.7656 197.813 92.1406 197.017 92.1406ZM205.691 85.8359H206.816L203.805 88.6953L206.898 92H205.738L202.961 89.0469V92H202.023V83.7031H202.961V88.4258L205.691 85.8359ZM213.513 94.5078C211.966 94.5078 210.841 93.7578 210.537 92.6328L211.427 92.4219C211.673 93.1836 212.459 93.6641 213.525 93.6641C214.791 93.6641 215.47 93.0547 215.47 91.918L215.482 90.5703C215.037 91.3203 214.287 91.7656 213.396 91.7656C211.884 91.7656 210.724 90.4414 210.724 88.7305C210.724 87.0078 211.884 85.6953 213.396 85.6953C214.298 85.6953 215.048 86.1523 215.482 86.9141L215.494 85.8359H216.396V91.8477C216.396 93.5117 215.318 94.5078 213.513 94.5078ZM213.572 90.9922C214.744 90.9922 215.459 90.125 215.459 88.7305C215.459 87.3359 214.744 86.4687 213.572 86.4687C212.4 86.4687 211.685 87.3359 211.685 88.7305C211.685 90.125 212.4 90.9922 213.572 90.9922ZM220.161 92.1406C219.036 92.1406 218.239 91.4492 218.239 90.4531C218.239 89.4453 219.059 88.7656 220.606 88.4727L221.368 88.332C221.778 88.25 222.012 87.9922 222.012 87.6055C222.012 86.9492 221.415 86.4687 220.583 86.4687C219.762 86.4687 219.083 86.9375 218.93 87.6172L218.051 87.4297C218.239 86.4219 219.305 85.6953 220.606 85.6953C222.047 85.6953 222.95 86.5742 222.95 87.957V92H222.106V91.1211C221.672 91.7773 220.981 92.1406 220.161 92.1406ZM220.372 91.3672C221.309 91.3672 222.012 90.7109 222.012 89.8437V88.8477C221.813 88.9766 221.625 89.0352 221.262 89.1055L220.348 89.293C219.61 89.4453 219.2 89.832 219.2 90.3828C219.2 90.9805 219.657 91.3672 220.372 91.3672ZM224.992 92V85.8359H225.894V87.1367C226.245 86.2344 227.019 85.7422 228.132 85.7422L228.12 86.6328C226.925 86.5156 225.929 87.3359 225.929 88.6016V92H224.992ZM229.928 84.8281C229.518 84.8281 229.201 84.5117 229.201 84.1016C229.201 83.6914 229.518 83.375 229.928 83.375C230.338 83.375 230.655 83.6914 230.655 84.1016C230.655 84.5117 230.338 84.8281 229.928 84.8281ZM229.459 92V85.8359H230.397V92H229.459ZM234.525 92.1406C233.177 92.1406 232.169 91.5078 231.935 90.5L232.778 90.3359C233.013 91.0156 233.622 91.3672 234.513 91.3672C235.439 91.3672 235.966 90.9922 235.966 90.3008C235.966 89.7852 235.638 89.4687 234.993 89.3633L233.985 89.1992C232.943 89.0352 232.333 88.3906 232.333 87.4766C232.333 86.4219 233.224 85.6953 234.489 85.6953C235.579 85.6953 236.4 86.2812 236.599 87.2656L235.778 87.4062C235.603 86.7734 235.157 86.4453 234.478 86.4453C233.704 86.4453 233.271 86.7969 233.271 87.4297C233.271 88.0039 233.622 88.2852 234.36 88.4023L235.075 88.5195C236.294 88.7187 236.927 89.3281 236.927 90.2539C236.927 91.4141 235.966 92.1406 234.525 92.1406ZM241.515 94.3672V85.8359H242.417V86.9258C242.862 86.1406 243.624 85.6953 244.55 85.6953C246.143 85.6953 247.257 87.0078 247.257 88.918C247.257 90.8281 246.143 92.1406 244.55 92.1406C243.659 92.1406 242.897 91.707 242.452 90.957V94.3672H241.515ZM244.374 91.3672C245.557 91.3672 246.296 90.4297 246.296 88.918C246.296 87.4062 245.557 86.4687 244.374 86.4687C243.19 86.4687 242.452 87.4062 242.452 88.918C242.452 90.4297 243.19 91.3672 244.374 91.3672ZM250.658 92.1406C249.533 92.1406 248.736 91.4492 248.736 90.4531C248.736 89.4453 249.556 88.7656 251.103 88.4727L251.865 88.332C252.275 88.25 252.51 87.9922 252.51 87.6055C252.51 86.9492 251.912 86.4687 251.08 86.4687C250.26 86.4687 249.58 86.9375 249.428 87.6172L248.549 87.4297C248.736 86.4219 249.803 85.6953 251.103 85.6953C252.545 85.6953 253.447 86.5742 253.447 87.957V92H252.603V91.1211C252.17 91.7773 251.478 92.1406 250.658 92.1406ZM250.869 91.3672C251.806 91.3672 252.51 90.7109 252.51 89.8437V88.8477C252.31 88.9766 252.123 89.0352 251.76 89.1055L250.845 89.293C250.107 89.4453 249.697 89.832 249.697 90.3828C249.697 90.9805 250.154 91.3672 250.869 91.3672ZM255.489 92V85.8359H256.403V86.7617C256.86 86.082 257.575 85.6953 258.383 85.6953C259.614 85.6953 260.505 86.5977 260.505 87.8516V92H259.567V88.0977C259.567 87.1133 259.028 86.4687 258.184 86.4687C257.235 86.4687 256.426 87.3125 256.426 88.2969V92H255.489ZM264.796 92.1406C263.203 92.1406 262.089 90.8281 262.089 88.918C262.089 87.0078 263.203 85.6953 264.796 85.6953C265.687 85.6953 266.449 86.1289 266.894 86.8789V83.7031H267.832V92H266.929V90.9102C266.484 91.6953 265.722 92.1406 264.796 92.1406ZM264.972 91.3672C266.156 91.3672 266.894 90.4297 266.894 88.918C266.894 87.418 266.156 86.4687 264.972 86.4687C263.789 86.4687 263.05 87.418 263.05 88.918C263.05 90.4297 263.789 91.3672 264.972 91.3672ZM271.995 92.1406C270.776 92.1406 269.873 91.25 269.873 89.9844V85.8359H270.811V89.7383C270.811 90.793 271.397 91.3672 272.194 91.3672C273.143 91.3672 273.952 90.5234 273.952 89.5391V85.8359H274.889V92H273.975V91.0742C273.506 91.7656 272.791 92.1406 271.995 92.1406ZM278.654 92.1406C277.529 92.1406 276.732 91.4492 276.732 90.4531C276.732 89.4453 277.552 88.7656 279.099 88.4727L279.861 88.332C280.271 88.25 280.505 87.9922 280.505 87.6055C280.505 86.9492 279.908 86.4687 279.075 86.4687C278.255 86.4687 277.575 86.9375 277.423 87.6172L276.544 87.4297C276.732 86.4219 277.798 85.6953 279.099 85.6953C280.54 85.6953 281.443 86.5742 281.443 87.957V92H280.599V91.1211C280.165 91.7773 279.474 92.1406 278.654 92.1406ZM278.865 91.3672C279.802 91.3672 280.505 90.7109 280.505 89.8437V88.8477C280.306 88.9766 280.118 89.0352 279.755 89.1055L278.841 89.293C278.103 89.4453 277.693 89.832 277.693 90.3828C277.693 90.9805 278.15 91.3672 278.865 91.3672ZM283.485 92V85.8359H284.399V86.7617C284.856 86.082 285.57 85.6953 286.379 85.6953C287.61 85.6953 288.5 86.5977 288.5 87.8516V92H287.563V88.0977C287.563 87.1133 287.024 86.4687 286.18 86.4687C285.231 86.4687 284.422 87.3125 284.422 88.2969V92H283.485Z" fill="#0071CE"/>
</g>
<defs>
<clipPath id="clip0_2206_36868">
<rect width="375" height="812" fill="white"/>
</clipPath>
</defs>
</svg>
