<svg width="375" height="671" viewBox="0 0 375 671" fill="none" xmlns="http://www.w3.org/2000/svg">
<g clip-path="url(#clip0_1468_5871)">
<path fill-rule="evenodd" clip-rule="evenodd" d="M0 0H375V671H0V0ZM173 195C173 200.523 159.569 205 143 205C126.431 205 113 200.523 113 195C113 189.477 126.431 185 143 185C159.569 185 173 189.477 173 195ZM233 205C249.569 205 263 200.523 263 195C263 189.477 249.569 185 233 185C216.431 185 203 189.477 203 195C203 200.523 216.431 205 233 205ZM218 287C218 292.523 204.569 297 188 297C171.431 297 158 292.523 158 287C158 281.477 171.431 277 188 277C204.569 277 218 281.477 218 287ZM203.588 254.5L188 205L172.412 254.5H203.588Z" fill="black" fill-opacity="0.8"/>
</g>
<defs>
<clipPath id="clip0_1468_5871">
<rect width="375" height="671" fill="white"/>
</clipPath>
</defs>
</svg>
