<svg width="303" height="96" viewBox="0 0 303 96" fill="none" xmlns="http://www.w3.org/2000/svg">
<path d="M1.13672 81.7031H2.12109V89.1562H6.01172V90H1.13672V81.7031ZM8.13562 82.8281C7.72547 82.8281 7.40906 82.5117 7.40906 82.1016C7.40906 81.6914 7.72547 81.375 8.13562 81.375C8.54578 81.375 8.86219 81.6914 8.86219 82.1016C8.86219 82.5117 8.54578 82.8281 8.13562 82.8281ZM7.66687 90V83.8359H8.60437V90H7.66687ZM10.7166 90V81.7031H11.6541V84.9375C12.1228 84.2695 12.8259 83.9062 13.6111 83.9062C14.8298 83.9062 15.7322 84.7969 15.7322 86.0625V90H14.7947V86.3086C14.7947 85.3008 14.2205 84.7266 13.4119 84.7266C12.4627 84.7266 11.6541 85.5469 11.6541 86.5078V90H10.7166ZM19.3327 90.1406C18.2077 90.1406 17.4108 89.4492 17.4108 88.4531C17.4108 87.4453 18.2311 86.7656 19.778 86.4727L20.5397 86.332C20.9498 86.25 21.1842 85.9922 21.1842 85.6055C21.1842 84.9492 20.5866 84.4688 19.7545 84.4688C18.9342 84.4688 18.2545 84.9375 18.1022 85.6172L17.2233 85.4297C17.4108 84.4219 18.4772 83.6953 19.778 83.6953C21.2194 83.6953 22.1217 84.5742 22.1217 85.957V90H21.278V89.1211C20.8444 89.7773 20.153 90.1406 19.3327 90.1406ZM19.5436 89.3672C20.4811 89.3672 21.1842 88.7109 21.1842 87.8438V86.8477C20.985 86.9766 20.7975 87.0352 20.4342 87.1055L19.5202 87.293C18.7819 87.4453 18.3717 87.832 18.3717 88.3828C18.3717 88.9805 18.8288 89.3672 19.5436 89.3672ZM26.3433 90.0938C25.2066 90.0938 24.5503 89.4141 24.5503 88.2305V84.6562H23.4722V83.8359H24.5503V82.2422L25.4878 81.9141V83.8359H27.2808V84.6562H25.4878V88.1016C25.4878 88.875 25.8394 89.2734 26.4956 89.2734C26.7886 89.2734 26.9527 89.25 27.187 89.168L27.3862 89.8945C26.9761 90.0469 26.7417 90.0938 26.3433 90.0938ZM138.463 82.8281C138.053 82.8281 137.737 82.5117 137.737 82.1016C137.737 81.6914 138.053 81.375 138.463 81.375C138.873 81.375 139.19 81.6914 139.19 82.1016C139.19 82.5117 138.873 82.8281 138.463 82.8281ZM137.28 92.5078C136.94 92.5078 136.682 92.4492 136.237 92.2266L136.483 91.4883C136.717 91.6172 136.975 91.6758 137.197 91.6758C137.748 91.6758 137.994 91.3711 137.994 90.6797V83.8359H138.932V90.8086C138.932 91.8516 138.358 92.5078 137.28 92.5078ZM141.665 82.8281C141.255 82.8281 140.939 82.5117 140.939 82.1016C140.939 81.6914 141.255 81.375 141.665 81.375C142.075 81.375 142.392 81.6914 142.392 82.1016C142.392 82.5117 142.075 82.8281 141.665 82.8281ZM141.196 90V83.8359H142.134V90H141.196ZM147.914 83.8359H149.039L146.027 86.6953L149.121 90H147.961L145.184 87.0469V90H144.246V81.7031H145.184V86.4258L147.914 83.8359ZM152.182 90.1406C151.057 90.1406 150.261 89.4492 150.261 88.4531C150.261 87.4453 151.081 86.7656 152.628 86.4727L153.39 86.332C153.8 86.25 154.034 85.9922 154.034 85.6055C154.034 84.9492 153.436 84.4688 152.604 84.4688C151.784 84.4688 151.104 84.9375 150.952 85.6172L150.073 85.4297C150.261 84.4219 151.327 83.6953 152.628 83.6953C154.069 83.6953 154.972 84.5742 154.972 85.957V90H154.128V89.1211C153.694 89.7773 153.003 90.1406 152.182 90.1406ZM152.393 89.3672C153.331 89.3672 154.034 88.7109 154.034 87.8438V86.8477C153.835 86.9766 153.647 87.0352 153.284 87.1055L152.37 87.293C151.632 87.4453 151.222 87.832 151.222 88.3828C151.222 88.9805 151.679 89.3672 152.393 89.3672ZM160.462 82.8281C160.051 82.8281 159.735 82.5117 159.735 82.1016C159.735 81.6914 160.051 81.375 160.462 81.375C160.872 81.375 161.188 81.6914 161.188 82.1016C161.188 82.5117 160.872 82.8281 160.462 82.8281ZM159.993 90V83.8359H160.93V90H159.993ZM163.042 90V83.8359H163.957V84.7617C164.414 84.082 165.128 83.6953 165.937 83.6953C167.167 83.6953 168.058 84.5977 168.058 85.8516V90H167.121V86.0977C167.121 85.1133 166.582 84.4688 165.738 84.4688C164.789 84.4688 163.98 85.3125 163.98 86.2969V90H163.042ZM172.479 92.5078C170.932 92.5078 169.807 91.7578 169.502 90.6328L170.393 90.4219C170.639 91.1836 171.424 91.6641 172.491 91.6641C173.756 91.6641 174.436 91.0547 174.436 89.918L174.448 88.5703C174.002 89.3203 173.252 89.7656 172.362 89.7656C170.85 89.7656 169.69 88.4414 169.69 86.7305C169.69 85.0078 170.85 83.6953 172.362 83.6953C173.264 83.6953 174.014 84.1523 174.448 84.9141L174.459 83.8359H175.362V89.8477C175.362 91.5117 174.284 92.5078 172.479 92.5078ZM172.538 88.9922C173.709 88.9922 174.424 88.125 174.424 86.7305C174.424 85.3359 173.709 84.4688 172.538 84.4688C171.366 84.4688 170.651 85.3359 170.651 86.7305C170.651 88.125 171.366 88.9922 172.538 88.9922ZM177.943 82.8281C177.533 82.8281 177.216 82.5117 177.216 82.1016C177.216 81.6914 177.533 81.375 177.943 81.375C178.353 81.375 178.669 81.6914 178.669 82.1016C178.669 82.5117 178.353 82.8281 177.943 82.8281ZM177.474 90V83.8359H178.411V90H177.474ZM180.524 90V83.8359H181.438V84.7617C181.895 84.082 182.61 83.6953 183.418 83.6953C184.649 83.6953 185.539 84.5977 185.539 85.8516V90H184.602V86.0977C184.602 85.1133 184.063 84.4688 183.219 84.4688C182.27 84.4688 181.461 85.3125 181.461 86.2969V90H180.524ZM192.119 90.1406C190.994 90.1406 190.197 89.4492 190.197 88.4531C190.197 87.4453 191.018 86.7656 192.564 86.4727L193.326 86.332C193.736 86.25 193.971 85.9922 193.971 85.6055C193.971 84.9492 193.373 84.4688 192.541 84.4688C191.721 84.4688 191.041 84.9375 190.889 85.6172L190.01 85.4297C190.197 84.4219 191.264 83.6953 192.564 83.6953C194.006 83.6953 194.908 84.5742 194.908 85.957V90H194.064V89.1211C193.631 89.7773 192.939 90.1406 192.119 90.1406ZM192.33 89.3672C193.268 89.3672 193.971 88.7109 193.971 87.8438V86.8477C193.771 86.9766 193.584 87.0352 193.221 87.1055L192.307 87.293C191.568 87.4453 191.158 87.832 191.158 88.3828C191.158 88.9805 191.615 89.3672 192.33 89.3672ZM196.95 90V83.8359H197.852V84.7617C198.262 84.1055 198.942 83.6953 199.68 83.6953C200.489 83.6953 201.169 84.1758 201.45 84.9492C201.837 84.1992 202.563 83.6953 203.419 83.6953C204.579 83.6953 205.434 84.5625 205.434 85.875V90H204.497V86.1094C204.497 85.125 203.97 84.4688 203.243 84.4688C202.387 84.4688 201.661 85.2773 201.661 86.2148V90H200.723V86.1094C200.723 85.125 200.196 84.4688 199.47 84.4688C198.614 84.4688 197.887 85.2773 197.887 86.2148V90H196.95ZM210.511 90.1406C209.586 90.1406 208.824 89.6953 208.379 88.9102V90H207.476V81.7031H208.414V84.8789C208.859 84.1289 209.621 83.6953 210.511 83.6953C212.105 83.6953 213.218 85.0078 213.218 86.918C213.218 88.8281 212.105 90.1406 210.511 90.1406ZM210.336 89.3672C211.519 89.3672 212.258 88.4297 212.258 86.918C212.258 85.4062 211.519 84.4688 210.336 84.4688C209.152 84.4688 208.414 85.4062 208.414 86.918C208.414 88.4297 209.152 89.3672 210.336 89.3672ZM215.342 82.8281C214.932 82.8281 214.616 82.5117 214.616 82.1016C214.616 81.6914 214.932 81.375 215.342 81.375C215.753 81.375 216.069 81.6914 216.069 82.1016C216.069 82.5117 215.753 82.8281 215.342 82.8281ZM214.874 90V83.8359H215.811V90H214.874ZM219.458 90.1406C218.439 90.1406 217.923 89.4844 217.923 88.5V81.7031H218.861V88.3828C218.861 89.0273 219.095 89.3672 219.564 89.3672C219.728 89.3672 219.857 89.3438 220.033 89.2734L220.197 90C219.962 90.0938 219.728 90.1406 219.458 90.1406ZM226.472 90.1406C225.253 90.1406 224.351 89.25 224.351 87.9844V83.8359H225.288V87.7383C225.288 88.793 225.874 89.3672 226.671 89.3672C227.62 89.3672 228.429 88.5234 228.429 87.5391V83.8359H229.366V90H228.452V89.0742C227.984 89.7656 227.269 90.1406 226.472 90.1406ZM233.014 90.1406C231.994 90.1406 231.479 89.4844 231.479 88.5V81.7031H232.416V88.3828C232.416 89.0273 232.65 89.3672 233.119 89.3672C233.283 89.3672 233.412 89.3438 233.588 89.2734L233.752 90C233.518 90.0938 233.283 90.1406 233.014 90.1406ZM236.556 90.1406C235.431 90.1406 234.634 89.4492 234.634 88.4531C234.634 87.4453 235.454 86.7656 237.001 86.4727L237.763 86.332C238.173 86.25 238.407 85.9922 238.407 85.6055C238.407 84.9492 237.81 84.4688 236.977 84.4688C236.157 84.4688 235.477 84.9375 235.325 85.6172L234.446 85.4297C234.634 84.4219 235.7 83.6953 237.001 83.6953C238.442 83.6953 239.345 84.5742 239.345 85.957V90H238.501V89.1211C238.067 89.7773 237.376 90.1406 236.556 90.1406ZM236.767 89.3672C237.704 89.3672 238.407 88.7109 238.407 87.8438V86.8477C238.208 86.9766 238.02 87.0352 237.657 87.1055L236.743 87.293C236.005 87.4453 235.595 87.832 235.595 88.3828C235.595 88.9805 236.052 89.3672 236.767 89.3672ZM241.387 90V83.8359H242.301V84.7617C242.758 84.082 243.473 83.6953 244.281 83.6953C245.512 83.6953 246.402 84.5977 246.402 85.8516V90H245.465V86.0977C245.465 85.1133 244.926 84.4688 244.082 84.4688C243.133 84.4688 242.324 85.3125 242.324 86.2969V90H241.387ZM250.823 92.5078C249.276 92.5078 248.151 91.7578 247.846 90.6328L248.737 90.4219C248.983 91.1836 249.768 91.6641 250.835 91.6641C252.1 91.6641 252.78 91.0547 252.78 89.918L252.792 88.5703C252.346 89.3203 251.596 89.7656 250.706 89.7656C249.194 89.7656 248.034 88.4414 248.034 86.7305C248.034 85.0078 249.194 83.6953 250.706 83.6953C251.608 83.6953 252.358 84.1523 252.792 84.9141L252.803 83.8359H253.706V89.8477C253.706 91.5117 252.628 92.5078 250.823 92.5078ZM250.882 88.9922C252.053 88.9922 252.768 88.125 252.768 86.7305C252.768 85.3359 252.053 84.4688 250.882 84.4688C249.71 84.4688 248.995 85.3359 248.995 86.7305C248.995 88.125 249.71 88.9922 250.882 88.9922ZM259.149 90V84.6562H258.059V83.8359H259.149V83.1797C259.149 81.9961 259.875 81.2109 261.012 81.2109C261.387 81.2109 261.727 81.293 262.137 81.5039L261.879 82.2305C261.493 82.0664 261.27 82.0078 261.047 82.0078C260.415 82.0078 260.086 82.3828 260.086 83.168V83.8359H261.844V84.6562H260.086V90H259.149ZM265.585 90.1406C263.839 90.1406 262.691 88.8516 262.691 86.918C262.691 84.9844 263.851 83.6953 265.585 83.6953C267.32 83.6953 268.48 84.9844 268.48 86.918C268.48 88.8516 267.331 90.1406 265.585 90.1406ZM265.585 89.3672C266.804 89.3672 267.519 88.4648 267.519 86.918C267.519 85.3711 266.792 84.4688 265.585 84.4688C264.378 84.4688 263.652 85.3711 263.652 86.918C263.652 88.4648 264.367 89.3672 265.585 89.3672ZM272.315 90.0938C271.178 90.0938 270.522 89.4141 270.522 88.2305V84.6562H269.444V83.8359H270.522V82.2422L271.459 81.9141V83.8359H273.252V84.6562H271.459V88.1016C271.459 88.875 271.811 89.2734 272.467 89.2734C272.76 89.2734 272.924 89.25 273.158 89.168L273.358 89.8945C272.948 90.0469 272.713 90.0938 272.315 90.0938ZM277.146 90.1406C275.4 90.1406 274.251 88.8516 274.251 86.918C274.251 84.9844 275.411 83.6953 277.146 83.6953C278.88 83.6953 280.04 84.9844 280.04 86.918C280.04 88.8516 278.892 90.1406 277.146 90.1406ZM277.146 89.3672C278.364 89.3672 279.079 88.4648 279.079 86.918C279.079 85.3711 278.353 84.4688 277.146 84.4688C275.939 84.4688 275.212 85.3711 275.212 86.918C275.212 88.4648 275.927 89.3672 277.146 89.3672ZM281.754 90.082C281.355 90.082 281.086 89.8125 281.086 89.4141C281.086 89.0156 281.355 88.7461 281.754 88.7461C282.152 88.7461 282.422 89.0156 282.422 89.4141C282.422 89.8125 282.152 90.082 281.754 90.082Z" fill="#707577"/>
<path d="M34.7512 86.7656H32.8411V90H31.8567V81.7031H34.7161C36.4387 81.7031 37.5403 82.6875 37.5403 84.2344C37.5403 85.8281 36.5091 86.7656 34.7512 86.7656ZM36.5208 84.2227C36.5208 83.1562 35.8177 82.5 34.6341 82.5H32.8411V85.9688H34.5169C35.8528 85.9688 36.5208 85.3945 36.5208 84.2227ZM40.8947 90.1406C39.7697 90.1406 38.9728 89.4492 38.9728 88.4531C38.9728 87.4453 39.7931 86.7656 41.34 86.4727L42.1017 86.332C42.5119 86.25 42.7463 85.9922 42.7463 85.6055C42.7463 84.9492 42.1486 84.4688 41.3166 84.4688C40.4963 84.4688 39.8166 84.9375 39.6642 85.6172L38.7853 85.4297C38.9728 84.4219 40.0392 83.6953 41.34 83.6953C42.7814 83.6953 43.6838 84.5742 43.6838 85.957V90H42.84V89.1211C42.4064 89.7773 41.715 90.1406 40.8947 90.1406ZM41.1056 89.3672C42.0431 89.3672 42.7463 88.7109 42.7463 87.8438V86.8477C42.547 86.9766 42.3595 87.0352 41.9963 87.1055L41.0822 87.293C40.3439 87.4453 39.9338 87.832 39.9338 88.3828C39.9338 88.9805 40.3908 89.3672 41.1056 89.3672ZM45.7256 90V83.8359H46.6397V84.7617C47.0967 84.082 47.8116 83.6953 48.6202 83.6953C49.8506 83.6953 50.7412 84.5977 50.7412 85.8516V90H49.8037V86.0977C49.8037 85.1133 49.2647 84.4688 48.4209 84.4688C47.4717 84.4688 46.6631 85.3125 46.6631 86.2969V90H45.7256ZM55.0331 90.1406C53.4394 90.1406 52.3261 88.8281 52.3261 86.918C52.3261 85.0078 53.4394 83.6953 55.0331 83.6953C55.9238 83.6953 56.6855 84.1289 57.1308 84.8789V81.7031H58.0683V90H57.1659V88.9102C56.7206 89.6953 55.9589 90.1406 55.0331 90.1406ZM55.2089 89.3672C56.3925 89.3672 57.1308 88.4297 57.1308 86.918C57.1308 85.418 56.3925 84.4688 55.2089 84.4688C54.0253 84.4688 53.287 85.418 53.287 86.918C53.287 88.4297 54.0253 89.3672 55.2089 89.3672ZM62.2313 90.1406C61.0125 90.1406 60.1102 89.25 60.1102 87.9844V83.8359H61.0477V87.7383C61.0477 88.793 61.6336 89.3672 62.4305 89.3672C63.3797 89.3672 64.1883 88.5234 64.1883 87.5391V83.8359H65.1258V90H64.2117V89.0742C63.743 89.7656 63.0281 90.1406 62.2313 90.1406ZM68.8903 90.1406C67.7653 90.1406 66.9684 89.4492 66.9684 88.4531C66.9684 87.4453 67.7887 86.7656 69.3356 86.4727L70.0973 86.332C70.5075 86.25 70.7419 85.9922 70.7419 85.6055C70.7419 84.9492 70.1442 84.4688 69.3122 84.4688C68.4919 84.4688 67.8122 84.9375 67.6598 85.6172L66.7809 85.4297C66.9684 84.4219 68.0348 83.6953 69.3356 83.6953C70.777 83.6953 71.6794 84.5742 71.6794 85.957V90H70.8356V89.1211C70.402 89.7773 69.7106 90.1406 68.8903 90.1406ZM69.1012 89.3672C70.0387 89.3672 70.7419 88.7109 70.7419 87.8438V86.8477C70.5427 86.9766 70.3552 87.0352 69.9919 87.1055L69.0778 87.293C68.3395 87.4453 67.9294 87.832 67.9294 88.3828C67.9294 88.9805 68.3864 89.3672 69.1012 89.3672ZM73.7213 90V83.8359H74.6353V84.7617C75.0923 84.082 75.8072 83.6953 76.6158 83.6953C77.8463 83.6953 78.7369 84.5977 78.7369 85.8516V90H77.7994V86.0977C77.7994 85.1133 77.2603 84.4688 76.4166 84.4688C75.4673 84.4688 74.6588 85.3125 74.6588 86.2969V90H73.7213ZM83.8988 81.7031H88.8441V82.5H84.8831V85.4766H88.6566V86.2734H84.8831V90H83.8988V81.7031ZM93.0656 90.1406C91.3195 90.1406 90.1711 88.8516 90.1711 86.918C90.1711 84.9844 91.3313 83.6953 93.0656 83.6953C94.8 83.6953 95.9602 84.9844 95.9602 86.918C95.9602 88.8516 94.8117 90.1406 93.0656 90.1406ZM93.0656 89.3672C94.2844 89.3672 94.9992 88.4648 94.9992 86.918C94.9992 85.3711 94.2727 84.4688 93.0656 84.4688C91.8586 84.4688 91.132 85.3711 91.132 86.918C91.132 88.4648 91.8469 89.3672 93.0656 89.3672ZM99.795 90.0938C98.6583 90.0938 98.002 89.4141 98.002 88.2305V84.6562H96.9239V83.8359H98.002V82.2422L98.9395 81.9141V83.8359H100.732V84.6562H98.9395V88.1016C98.9395 88.875 99.2911 89.2734 99.9473 89.2734C100.24 89.2734 100.404 89.25 100.639 89.168L100.838 89.8945C100.428 90.0469 100.193 90.0938 99.795 90.0938ZM104.626 90.1406C102.88 90.1406 101.731 88.8516 101.731 86.918C101.731 84.9844 102.892 83.6953 104.626 83.6953C106.36 83.6953 107.52 84.9844 107.52 86.918C107.52 88.8516 106.372 90.1406 104.626 90.1406ZM104.626 89.3672C105.845 89.3672 106.56 88.4648 106.56 86.918C106.56 85.3711 105.833 84.4688 104.626 84.4688C103.419 84.4688 102.692 85.3711 102.692 86.918C102.692 88.4648 103.407 89.3672 104.626 89.3672ZM112.296 81.7031H113.28V86.0273L117.194 81.7031H118.413L115.542 84.832L118.507 90H117.37L114.85 85.582L113.28 87.2812V90H112.296V81.7031ZM121.99 90V82.5469H119.365V81.7031H125.599V82.5469H122.974V90H121.99ZM130.161 86.7656H128.25V90H127.266V81.7031H130.125C131.848 81.7031 132.95 82.6875 132.95 84.2344C132.95 85.8281 131.918 86.7656 130.161 86.7656ZM131.93 84.2227C131.93 83.1562 131.227 82.5 130.043 82.5H128.25V85.9688H129.926C131.262 85.9688 131.93 85.3945 131.93 84.2227Z" fill="#0071CE"/>
<g opacity="0.9">
<path d="M10.3057 14.223H16.1308C16.692 14.223 17.1461 13.7684 17.1461 13.2077C17.1461 12.647 16.692 12.1924 16.1308 12.1924H10.3057C6.94646 12.1924 4.21387 14.925 4.21387 18.2842V42.6515C4.21387 46.0107 6.94646 48.7433 10.3057 48.7433H16.1308C16.692 48.7433 17.1461 48.2887 17.1461 47.728C17.1461 47.1673 16.692 46.7127 16.1308 46.7127H10.3057C8.06589 46.7127 6.24449 44.8908 6.24449 42.6515V18.2842C6.24444 16.0449 8.06584 14.223 10.3057 14.223ZM34.6729 12.1924H28.8478C28.2867 12.1924 27.8325 12.647 27.8325 13.2077C27.8325 13.7684 28.2866 14.223 28.8478 14.223H34.6729C36.9127 14.223 38.7341 16.0449 38.7341 18.2842V42.6515C38.7341 44.8908 36.9127 46.7127 34.6729 46.7127H28.8478C28.2867 46.7127 27.8325 47.1673 27.8325 47.728C27.8325 48.2887 28.2866 48.7433 28.8478 48.7433H34.6729C38.0322 48.7433 40.7648 46.0107 40.7648 42.6515V18.2842C40.7648 14.925 38.0322 12.1924 34.6729 12.1924Z" fill="#0071CE"/>
<path d="M32.1347 31.9902H11.8286C10.9875 31.9902 10.3057 31.3084 10.3057 30.4673C10.3057 29.6262 10.9875 28.9443 11.8286 28.9443H32.1347C32.9757 28.9443 33.6576 29.6262 33.6576 30.4673C33.6576 31.3084 32.9758 31.9902 32.1347 31.9902Z" fill="#0071CE"/>
<path d="M61.2656 12.9375H68.3438V14.625H63.375V17.6719H68.0625V19.3281H63.375V24H61.2656V12.9375ZM73.8231 24.1875C71.37 24.1875 69.7137 22.4375 69.7137 19.8438C69.7137 17.25 71.3856 15.5 73.8231 15.5C76.2919 15.5 77.9481 17.25 77.9481 19.8438C77.9481 22.4375 76.2919 24.1875 73.8231 24.1875ZM73.8231 22.5312C75.1356 22.5312 75.8856 21.5469 75.8856 19.8438C75.8856 18.1406 75.12 17.1406 73.8231 17.1406C72.5419 17.1406 71.7762 18.1406 71.7762 19.8438C71.7762 21.5469 72.5262 22.5312 73.8231 22.5312ZM83.2712 24.125C81.5212 24.125 80.4275 23.0312 80.4275 21.2188V17.3906H78.99V15.6875H80.4275V13.7188L82.4744 13.0312V15.6875H84.8025V17.3906H82.4744V20.9844C82.4744 21.8438 82.9275 22.3281 83.7244 22.3281C84.0369 22.3281 84.2556 22.2969 84.5681 22.1875L84.99 23.7969C84.3025 24.0469 83.9119 24.125 83.2712 24.125ZM90.0944 24.1875C87.6413 24.1875 85.985 22.4375 85.985 19.8438C85.985 17.25 87.6569 15.5 90.0944 15.5C92.5631 15.5 94.2194 17.25 94.2194 19.8438C94.2194 22.4375 92.5631 24.1875 90.0944 24.1875ZM90.0944 22.5312C91.4069 22.5312 92.1569 21.5469 92.1569 19.8438C92.1569 18.1406 91.3913 17.1406 90.0944 17.1406C88.8131 17.1406 88.0475 18.1406 88.0475 19.8438C88.0475 21.5469 88.7975 22.5312 90.0944 22.5312ZM100.069 12.9375H102.178V17.9844L106.428 12.9375H108.944L105.366 17.1719L109.069 24H106.694L103.912 18.875L102.178 20.875V24H100.069V12.9375ZM113.423 24V14.7031H110.033V12.9375H118.923V14.7031H115.533V24H113.423ZM125.012 20.125H122.887V24H120.778V12.9375H124.965C127.403 12.9375 128.965 14.3594 128.965 16.5781C128.965 18.8125 127.512 20.125 125.012 20.125ZM126.84 16.5312C126.84 15.3438 126.106 14.625 124.809 14.625H122.887V18.4219H124.684C126.137 18.4219 126.84 17.7969 126.84 16.5312ZM138.361 24.125C136.611 24.125 135.518 23.0312 135.518 21.2188V17.3906H134.08V15.6875H135.518V13.7188L137.564 13.0312V15.6875H139.893V17.3906H137.564V20.9844C137.564 21.8438 138.018 22.3281 138.814 22.3281C139.127 22.3281 139.346 22.2969 139.658 22.1875L140.08 23.7969C139.393 24.0469 139.002 24.125 138.361 24.125ZM142.856 14.6406C142.106 14.6406 141.559 14.1094 141.559 13.4062C141.559 12.6719 142.106 12.1562 142.856 12.1562C143.606 12.1562 144.153 12.6719 144.153 13.4062C144.153 14.1094 143.606 14.6406 142.856 14.6406ZM141.825 24V15.6875H143.872V24H141.825ZM149.257 24.1875C147.164 24.1875 145.679 22.4062 145.679 19.8438C145.679 17.2812 147.164 15.5 149.257 15.5C150.336 15.5 151.257 15.9531 151.82 16.7344V12.7656H153.867V24H151.914V22.8125C151.351 23.6719 150.398 24.1875 149.257 24.1875ZM149.773 22.5312C151.039 22.5312 151.82 21.4844 151.82 19.8438C151.82 18.2031 151.039 17.1562 149.773 17.1562C148.523 17.1562 147.742 18.2031 147.742 19.8438C147.742 21.4844 148.523 22.5312 149.773 22.5312ZM158.549 24.1875C156.971 24.1875 155.878 23.25 155.878 21.8594C155.878 20.4375 156.987 19.5469 159.159 19.1719L159.893 19.0312C160.424 18.9375 160.721 18.6562 160.721 18.2344C160.721 17.5781 160.128 17.1094 159.268 17.1094C158.393 17.1094 157.706 17.5938 157.487 18.3438L155.596 17.9375C155.94 16.4688 157.393 15.5 159.253 15.5C161.378 15.5 162.706 16.75 162.706 18.7344V24H161.081L161.034 23C160.503 23.7656 159.628 24.1875 158.549 24.1875ZM159.112 22.7031C160.034 22.7031 160.706 22.0625 160.706 21.2031V20.0938C160.503 20.2031 160.299 20.2656 159.94 20.3438L159.065 20.5156C158.315 20.6562 157.893 21.0625 157.893 21.6406C157.893 22.2812 158.378 22.7031 159.112 22.7031ZM169.951 15.6875H172.326L168.81 19.5312L172.435 24H169.982L166.951 20.2031V24H164.904V12.8281H166.951V18.9844L169.951 15.6875ZM181.191 24.125C179.441 24.125 178.347 23.0312 178.347 21.2188V17.3906H176.909V15.6875H178.347V13.7188L180.394 13.0312V15.6875H182.722V17.3906H180.394V20.9844C180.394 21.8438 180.847 22.3281 181.644 22.3281C181.956 22.3281 182.175 22.2969 182.488 22.1875L182.909 23.7969C182.222 24.0469 181.831 24.125 181.191 24.125ZM188.092 24.1875C185.623 24.1875 183.904 22.4375 183.904 19.8906C183.904 17.375 185.561 15.5 187.982 15.5C190.217 15.5 191.717 17.125 191.717 19.2812C191.717 19.6406 191.701 19.9844 191.623 20.3594H185.967C186.139 21.7031 186.92 22.5469 188.154 22.5469C189.014 22.5469 189.623 22.1875 189.936 21.5L191.842 21.9219C191.326 23.2969 189.951 24.1875 188.092 24.1875ZM187.982 17.0781C186.92 17.0781 186.201 17.8281 185.982 18.9844H189.764C189.701 17.8438 189.123 17.0781 187.982 17.0781ZM193.571 24V15.6875H195.524V17.3281C195.993 16.1562 197.024 15.5469 198.524 15.5469L198.509 17.4688C196.868 17.2969 195.618 18.1406 195.618 19.8438V24H193.571ZM204.551 24.1875C203.426 24.1875 202.457 23.6719 201.894 22.8125V24H199.941V12.8281H201.988V16.7344C202.566 15.9531 203.473 15.5 204.551 15.5C206.644 15.5 208.129 17.2812 208.129 19.8438C208.129 22.4062 206.644 24.1875 204.551 24.1875ZM204.035 22.5312C205.301 22.5312 206.066 21.4844 206.066 19.8438C206.066 18.2031 205.301 17.1562 204.035 17.1562C202.769 17.1562 201.988 18.2031 201.988 19.8438C201.988 21.4844 202.769 22.5312 204.035 22.5312ZM212.405 24.1875C210.827 24.1875 209.733 23.25 209.733 21.8594C209.733 20.4375 210.842 19.5469 213.014 19.1719L213.749 19.0312C214.28 18.9375 214.577 18.6562 214.577 18.2344C214.577 17.5781 213.983 17.1094 213.124 17.1094C212.249 17.1094 211.561 17.5938 211.342 18.3438L209.452 17.9375C209.796 16.4688 211.249 15.5 213.108 15.5C215.233 15.5 216.561 16.75 216.561 18.7344V24H214.936L214.889 23C214.358 23.7656 213.483 24.1875 212.405 24.1875ZM212.967 22.7031C213.889 22.7031 214.561 22.0625 214.561 21.2031V20.0938C214.358 20.2031 214.155 20.2656 213.796 20.3438L212.921 20.5156C212.171 20.6562 211.749 21.0625 211.749 21.6406C211.749 22.2812 212.233 22.7031 212.967 22.7031ZM222.4 24.1875C219.931 24.1875 218.275 22.4844 218.275 19.9375C218.275 17.3125 219.947 15.5 222.416 15.5C224.306 15.5 225.759 16.5312 226.197 18.2031L224.275 18.6094C223.978 17.6562 223.369 17.1406 222.478 17.1406C221.134 17.1406 220.337 18.2188 220.337 19.8594C220.337 21.4375 221.181 22.5312 222.384 22.5312C223.259 22.5312 223.853 22.0156 224.119 21.0156L226.041 21.4219C225.619 23.1875 224.337 24.1875 222.4 24.1875ZM230.458 24.1875C228.879 24.1875 227.786 23.25 227.786 21.8594C227.786 20.4375 228.895 19.5469 231.067 19.1719L231.801 19.0312C232.333 18.9375 232.629 18.6562 232.629 18.2344C232.629 17.5781 232.036 17.1094 231.176 17.1094C230.301 17.1094 229.614 17.5938 229.395 18.3438L227.504 17.9375C227.848 16.4688 229.301 15.5 231.161 15.5C233.286 15.5 234.614 16.75 234.614 18.7344V24H232.989L232.942 23C232.411 23.7656 231.536 24.1875 230.458 24.1875ZM231.02 22.7031C231.942 22.7031 232.614 22.0625 232.614 21.2031V20.0938C232.411 20.2031 232.208 20.2656 231.848 20.3438L230.973 20.5156C230.223 20.6562 229.801 21.0625 229.801 21.6406C229.801 22.2812 230.286 22.7031 231.02 22.7031Z" fill="#D32D55"/>
<path d="M61.1074 47V37.3203H63.6367L65.9883 42.4609L68.3398 37.3203H70.8691V47H69.0234V39.4805L66.6445 44.6758H65.332L62.9531 39.4805V47H61.1074ZM76.2118 47.1641C74.0653 47.1641 72.6161 45.6328 72.6161 43.3633C72.6161 41.0938 74.079 39.5625 76.2118 39.5625C78.372 39.5625 79.8212 41.0938 79.8212 43.3633C79.8212 45.6328 78.372 47.1641 76.2118 47.1641ZM76.2118 45.7148C77.3602 45.7148 78.0165 44.8535 78.0165 43.3633C78.0165 41.873 77.3466 40.998 76.2118 40.998C75.0907 40.998 74.4208 41.873 74.4208 43.3633C74.4208 44.8535 75.077 45.7148 76.2118 45.7148ZM81.4041 47V37.2246H83.1951V40.752C83.7146 40.0684 84.4529 39.6992 85.3005 39.6992C86.7498 39.6992 87.8298 40.793 87.8298 42.2832V47H86.0388V42.7207C86.0388 41.791 85.5466 41.2578 84.8084 41.2578C83.906 41.2578 83.1951 42.0098 83.1951 42.9805V47H81.4041ZM92.9401 47.1641C90.7936 47.1641 89.3444 45.6328 89.3444 43.3633C89.3444 41.0938 90.8073 39.5625 92.9401 39.5625C95.1002 39.5625 96.5495 41.0938 96.5495 43.3633C96.5495 45.6328 95.1002 47.1641 92.9401 47.1641ZM92.9401 45.7148C94.0885 45.7148 94.7448 44.8535 94.7448 43.3633C94.7448 41.873 94.0748 40.998 92.9401 40.998C91.819 40.998 91.1491 41.873 91.1491 43.3633C91.1491 44.8535 91.8053 45.7148 92.9401 45.7148ZM98.1323 47V39.7266H99.855V40.6426C100.375 39.9453 101.113 39.5625 101.974 39.5625C103.478 39.5625 104.558 40.6562 104.558 42.1738V47H102.767V42.625C102.767 41.6953 102.289 41.0938 101.509 41.0938C100.621 41.0938 99.9234 41.8594 99.9234 42.8438V47H98.1323ZM111.949 47.1641C110.568 47.1641 109.611 46.3438 109.611 45.127C109.611 43.8828 110.581 43.1035 112.482 42.7754L113.124 42.6523C113.589 42.5703 113.849 42.3242 113.849 41.9551C113.849 41.3809 113.329 40.9707 112.577 40.9707C111.812 40.9707 111.21 41.3945 111.019 42.0508L109.365 41.6953C109.665 40.4102 110.937 39.5625 112.564 39.5625C114.423 39.5625 115.585 40.6562 115.585 42.3926V47H114.163L114.122 46.125C113.658 46.7949 112.892 47.1641 111.949 47.1641ZM112.441 45.8652C113.247 45.8652 113.835 45.3047 113.835 44.5527V43.582C113.658 43.6777 113.48 43.7324 113.165 43.8008L112.4 43.9512C111.743 44.0742 111.374 44.4297 111.374 44.9355C111.374 45.4961 111.798 45.8652 112.441 45.8652ZM117.524 47V39.7266H119.233V40.6562C119.711 39.9727 120.463 39.5625 121.297 39.5625C122.186 39.5625 122.938 40.0547 123.307 40.9023C123.758 40.0684 124.565 39.5625 125.535 39.5625C126.985 39.5625 128.037 40.6152 128.037 42.1875V47H126.246V42.625C126.246 41.6816 125.795 41.0938 125.125 41.0938C124.319 41.0938 123.676 41.8457 123.676 42.7754V47H121.899V42.625C121.899 41.6953 121.434 41.0938 120.764 41.0938C119.971 41.0938 119.315 41.8594 119.315 42.7891V47H117.524ZM133.995 47.1641C133.011 47.1641 132.163 46.7129 131.671 45.9609V47H129.962V37.2246H131.753V40.6426C132.259 39.959 133.052 39.5625 133.995 39.5625C135.827 39.5625 137.126 41.1211 137.126 43.3633C137.126 45.6055 135.827 47.1641 133.995 47.1641ZM133.544 45.7148C134.651 45.7148 135.321 44.7988 135.321 43.3633C135.321 41.9277 134.651 41.0117 133.544 41.0117C132.437 41.0117 131.753 41.9277 131.753 43.3633C131.753 44.7988 132.437 45.7148 133.544 45.7148ZM139.611 38.8105C138.955 38.8105 138.476 38.3457 138.476 37.7305C138.476 37.0879 138.955 36.6367 139.611 36.6367C140.268 36.6367 140.746 37.0879 140.746 37.7305C140.746 38.3457 140.268 38.8105 139.611 38.8105ZM138.709 47V39.7266H140.5V47H138.709ZM144.735 47.1641C143.272 47.1641 142.52 46.3027 142.52 44.9082V37.2246H144.311V44.6621C144.311 45.332 144.571 45.6875 145.05 45.6875C145.255 45.6875 145.378 45.6738 145.583 45.5918L145.925 46.9316C145.555 47.0957 145.186 47.1641 144.735 47.1641ZM152.823 47.1641C151.346 47.1641 150.239 46.0703 150.239 44.5527V39.7266H152.03V44.1016C152.03 45.0723 152.549 45.6328 153.288 45.6328C154.176 45.6328 154.874 44.8672 154.874 43.8828V39.7266H156.665V47H154.956V46.084C154.436 46.7812 153.684 47.1641 152.823 47.1641ZM160.9 47.1641C159.437 47.1641 158.685 46.3027 158.685 44.9082V37.2246H160.476V44.6621C160.476 45.332 160.736 45.6875 161.214 45.6875C161.419 45.6875 161.542 45.6738 161.747 45.5918L162.089 46.9316C161.72 47.0957 161.351 47.1641 160.9 47.1641ZM165.162 47.1641C163.782 47.1641 162.825 46.3438 162.825 45.127C162.825 43.8828 163.795 43.1035 165.696 42.7754L166.338 42.6523C166.803 42.5703 167.063 42.3242 167.063 41.9551C167.063 41.3809 166.543 40.9707 165.791 40.9707C165.026 40.9707 164.424 41.3945 164.233 42.0508L162.578 41.6953C162.879 40.4102 164.151 39.5625 165.778 39.5625C167.637 39.5625 168.799 40.6562 168.799 42.3926V47H167.377L167.336 46.125C166.871 46.7949 166.106 47.1641 165.162 47.1641ZM165.655 45.8652C166.461 45.8652 167.049 45.3047 167.049 44.5527V43.582C166.871 43.6777 166.694 43.7324 166.379 43.8008L165.614 43.9512C164.957 44.0742 164.588 44.4297 164.588 44.9355C164.588 45.4961 165.012 45.8652 165.655 45.8652ZM170.738 47V39.7266H172.46V40.6426C172.98 39.9453 173.718 39.5625 174.579 39.5625C176.083 39.5625 177.163 40.6562 177.163 42.1738V47H175.372V42.625C175.372 41.6953 174.894 41.0938 174.114 41.0938C173.226 41.0938 172.529 41.8594 172.529 42.8438V47H170.738ZM182.164 49.9258C180.264 49.9258 178.869 49.0645 178.514 47.7656L180.182 47.3555C180.441 48.0391 181.166 48.4355 182.164 48.4355C183.367 48.4355 184.024 47.8613 184.024 46.7949V45.6602C183.559 46.3301 182.779 46.7266 181.877 46.7266C180.072 46.7266 178.732 45.1953 178.732 43.1445C178.732 41.0801 180.072 39.5625 181.877 39.5625C182.834 39.5625 183.627 39.9863 184.092 40.7246L184.106 39.7266H185.801V46.7949C185.801 48.7227 184.379 49.9258 182.164 49.9258ZM182.274 45.3047C183.354 45.3047 184.024 44.4707 184.024 43.1445C184.024 41.8184 183.354 40.9844 182.274 40.9844C181.193 40.9844 180.537 41.832 180.537 43.1445C180.537 44.457 181.193 45.3047 182.274 45.3047ZM191.783 47V41.2168H190.498V39.7266H191.783V39.043C191.783 37.4707 192.836 36.4043 194.408 36.4043C194.941 36.4043 195.474 36.5137 195.953 36.7598L195.529 38.0996C195.119 37.9355 194.873 37.8809 194.613 37.8809C193.902 37.8809 193.574 38.25 193.574 39.0566V39.7266H195.625V41.2168H193.574V47H191.783ZM199.942 47.1641C197.796 47.1641 196.346 45.6328 196.346 43.3633C196.346 41.0938 197.809 39.5625 199.942 39.5625C202.102 39.5625 203.551 41.0938 203.551 43.3633C203.551 45.6328 202.102 47.1641 199.942 47.1641ZM199.942 45.7148C201.091 45.7148 201.747 44.8535 201.747 43.3633C201.747 41.873 201.077 40.998 199.942 40.998C198.821 40.998 198.151 41.873 198.151 43.3633C198.151 44.8535 198.807 45.7148 199.942 45.7148ZM208.224 47.1094C206.693 47.1094 205.736 46.1523 205.736 44.5664V41.2168H204.478V39.7266H205.736V38.0039L207.527 37.4023V39.7266H209.564V41.2168H207.527V44.3613C207.527 45.1133 207.923 45.5371 208.621 45.5371C208.894 45.5371 209.086 45.5098 209.359 45.4141L209.728 46.8223C209.127 47.041 208.785 47.1094 208.224 47.1094ZM214.209 47.1641C212.063 47.1641 210.614 45.6328 210.614 43.3633C210.614 41.0938 212.077 39.5625 214.209 39.5625C216.37 39.5625 217.819 41.0938 217.819 43.3633C217.819 45.6328 216.37 47.1641 214.209 47.1641ZM214.209 45.7148C215.358 45.7148 216.014 44.8535 216.014 43.3633C216.014 41.873 215.344 40.998 214.209 40.998C213.088 40.998 212.418 41.873 212.418 43.3633C212.418 44.8535 213.075 45.7148 214.209 45.7148ZM222.967 37.3203H224.813V41.7363L228.531 37.3203H230.733L227.602 41.0254L230.842 47H228.764L226.33 42.5156L224.813 44.2656V47H222.967V37.3203ZM234.667 47V38.8652H231.7V37.3203H239.48V38.8652H236.513V47H234.667ZM244.822 43.6094H242.963V47H241.117V37.3203H244.781C246.914 37.3203 248.281 38.5645 248.281 40.5059C248.281 42.4609 247.01 43.6094 244.822 43.6094ZM246.422 40.4648C246.422 39.4258 245.779 38.7969 244.645 38.7969H242.963V42.1191H244.535C245.807 42.1191 246.422 41.5723 246.422 40.4648Z" fill="#707577"/>
<path d="M279 30C279 23.3726 284.373 18 291 18C297.627 18 303 23.3726 303 30C303 36.6274 297.627 42 291 42C284.373 42 279 36.6274 279 30Z" fill="#FA9EB4"/>
<path fill-rule="evenodd" clip-rule="evenodd" d="M291.125 32C290.504 32 290 32.5037 290 33.125C290 33.7463 290.504 34.25 291.125 34.25C291.746 34.25 292.25 33.7463 292.25 33.125C292.25 32.5037 291.746 32 291.125 32ZM290.25 30.5084C290.255 30.9226 290.594 31.2546 291.008 31.25C291.423 31.2453 291.755 30.9058 291.75 30.4916L291.747 30.2461L291.75 26.0005L291.75 26L291.75 25C291.75 24.5858 291.414 24.25 291 24.25C290.586 24.25 290.25 24.5858 290.25 25L290.25 25.9998L290.25 26L290.247 30.2495L290.247 30.2495L290.247 30.2584L290.25 30.5084Z" fill="#D32D55"/>
</g>
</svg>
