<svg width="303" height="96" viewBox="0 0 303 96" fill="none" xmlns="http://www.w3.org/2000/svg">
<path d="M1.13672 81.7031H2.12109V89.1562H6.01172V90H1.13672V81.7031ZM8.13562 82.8281C7.72547 82.8281 7.40906 82.5117 7.40906 82.1016C7.40906 81.6914 7.72547 81.375 8.13562 81.375C8.54578 81.375 8.86219 81.6914 8.86219 82.1016C8.86219 82.5117 8.54578 82.8281 8.13562 82.8281ZM7.66687 90V83.8359H8.60437V90H7.66687ZM10.7166 90V81.7031H11.6541V84.9375C12.1228 84.2695 12.8259 83.9062 13.6111 83.9062C14.8298 83.9062 15.7322 84.7969 15.7322 86.0625V90H14.7947V86.3086C14.7947 85.3008 14.2205 84.7266 13.4119 84.7266C12.4627 84.7266 11.6541 85.5469 11.6541 86.5078V90H10.7166ZM19.3327 90.1406C18.2077 90.1406 17.4108 89.4492 17.4108 88.4531C17.4108 87.4453 18.2311 86.7656 19.778 86.4727L20.5397 86.332C20.9498 86.25 21.1842 85.9922 21.1842 85.6055C21.1842 84.9492 20.5866 84.4688 19.7545 84.4688C18.9342 84.4688 18.2545 84.9375 18.1022 85.6172L17.2233 85.4297C17.4108 84.4219 18.4772 83.6953 19.778 83.6953C21.2194 83.6953 22.1217 84.5742 22.1217 85.957V90H21.278V89.1211C20.8444 89.7773 20.153 90.1406 19.3327 90.1406ZM19.5436 89.3672C20.4811 89.3672 21.1842 88.7109 21.1842 87.8438V86.8477C20.985 86.9766 20.7975 87.0352 20.4342 87.1055L19.5202 87.293C18.7819 87.4453 18.3717 87.832 18.3717 88.3828C18.3717 88.9805 18.8288 89.3672 19.5436 89.3672ZM26.3433 90.0938C25.2066 90.0938 24.5503 89.4141 24.5503 88.2305V84.6562H23.4722V83.8359H24.5503V82.2422L25.4878 81.9141V83.8359H27.2808V84.6562H25.4878V88.1016C25.4878 88.875 25.8394 89.2734 26.4956 89.2734C26.7886 89.2734 26.9527 89.25 27.187 89.168L27.3862 89.8945C26.9761 90.0469 26.7417 90.0938 26.3433 90.0938ZM138.463 82.8281C138.053 82.8281 137.737 82.5117 137.737 82.1016C137.737 81.6914 138.053 81.375 138.463 81.375C138.873 81.375 139.19 81.6914 139.19 82.1016C139.19 82.5117 138.873 82.8281 138.463 82.8281ZM137.28 92.5078C136.94 92.5078 136.682 92.4492 136.237 92.2266L136.483 91.4883C136.717 91.6172 136.975 91.6758 137.197 91.6758C137.748 91.6758 137.994 91.3711 137.994 90.6797V83.8359H138.932V90.8086C138.932 91.8516 138.358 92.5078 137.28 92.5078ZM141.665 82.8281C141.255 82.8281 140.939 82.5117 140.939 82.1016C140.939 81.6914 141.255 81.375 141.665 81.375C142.075 81.375 142.392 81.6914 142.392 82.1016C142.392 82.5117 142.075 82.8281 141.665 82.8281ZM141.196 90V83.8359H142.134V90H141.196ZM147.914 83.8359H149.039L146.027 86.6953L149.121 90H147.961L145.184 87.0469V90H144.246V81.7031H145.184V86.4258L147.914 83.8359ZM152.182 90.1406C151.057 90.1406 150.261 89.4492 150.261 88.4531C150.261 87.4453 151.081 86.7656 152.628 86.4727L153.39 86.332C153.8 86.25 154.034 85.9922 154.034 85.6055C154.034 84.9492 153.436 84.4688 152.604 84.4688C151.784 84.4688 151.104 84.9375 150.952 85.6172L150.073 85.4297C150.261 84.4219 151.327 83.6953 152.628 83.6953C154.069 83.6953 154.972 84.5742 154.972 85.957V90H154.128V89.1211C153.694 89.7773 153.003 90.1406 152.182 90.1406ZM152.393 89.3672C153.331 89.3672 154.034 88.7109 154.034 87.8438V86.8477C153.835 86.9766 153.647 87.0352 153.284 87.1055L152.37 87.293C151.632 87.4453 151.222 87.832 151.222 88.3828C151.222 88.9805 151.679 89.3672 152.393 89.3672ZM160.462 82.8281C160.051 82.8281 159.735 82.5117 159.735 82.1016C159.735 81.6914 160.051 81.375 160.462 81.375C160.872 81.375 161.188 81.6914 161.188 82.1016C161.188 82.5117 160.872 82.8281 160.462 82.8281ZM159.993 90V83.8359H160.93V90H159.993ZM163.042 90V83.8359H163.957V84.7617C164.414 84.082 165.128 83.6953 165.937 83.6953C167.167 83.6953 168.058 84.5977 168.058 85.8516V90H167.121V86.0977C167.121 85.1133 166.582 84.4688 165.738 84.4688C164.789 84.4688 163.98 85.3125 163.98 86.2969V90H163.042ZM172.479 92.5078C170.932 92.5078 169.807 91.7578 169.502 90.6328L170.393 90.4219C170.639 91.1836 171.424 91.6641 172.491 91.6641C173.756 91.6641 174.436 91.0547 174.436 89.918L174.448 88.5703C174.002 89.3203 173.252 89.7656 172.362 89.7656C170.85 89.7656 169.69 88.4414 169.69 86.7305C169.69 85.0078 170.85 83.6953 172.362 83.6953C173.264 83.6953 174.014 84.1523 174.448 84.9141L174.459 83.8359H175.362V89.8477C175.362 91.5117 174.284 92.5078 172.479 92.5078ZM172.538 88.9922C173.709 88.9922 174.424 88.125 174.424 86.7305C174.424 85.3359 173.709 84.4688 172.538 84.4688C171.366 84.4688 170.651 85.3359 170.651 86.7305C170.651 88.125 171.366 88.9922 172.538 88.9922ZM177.943 82.8281C177.533 82.8281 177.216 82.5117 177.216 82.1016C177.216 81.6914 177.533 81.375 177.943 81.375C178.353 81.375 178.669 81.6914 178.669 82.1016C178.669 82.5117 178.353 82.8281 177.943 82.8281ZM177.474 90V83.8359H178.411V90H177.474ZM180.524 90V83.8359H181.438V84.7617C181.895 84.082 182.61 83.6953 183.418 83.6953C184.649 83.6953 185.539 84.5977 185.539 85.8516V90H184.602V86.0977C184.602 85.1133 184.063 84.4688 183.219 84.4688C182.27 84.4688 181.461 85.3125 181.461 86.2969V90H180.524ZM192.119 90.1406C190.994 90.1406 190.197 89.4492 190.197 88.4531C190.197 87.4453 191.018 86.7656 192.564 86.4727L193.326 86.332C193.736 86.25 193.971 85.9922 193.971 85.6055C193.971 84.9492 193.373 84.4688 192.541 84.4688C191.721 84.4688 191.041 84.9375 190.889 85.6172L190.01 85.4297C190.197 84.4219 191.264 83.6953 192.564 83.6953C194.006 83.6953 194.908 84.5742 194.908 85.957V90H194.064V89.1211C193.631 89.7773 192.939 90.1406 192.119 90.1406ZM192.33 89.3672C193.268 89.3672 193.971 88.7109 193.971 87.8438V86.8477C193.771 86.9766 193.584 87.0352 193.221 87.1055L192.307 87.293C191.568 87.4453 191.158 87.832 191.158 88.3828C191.158 88.9805 191.615 89.3672 192.33 89.3672ZM196.95 90V83.8359H197.852V84.7617C198.262 84.1055 198.942 83.6953 199.68 83.6953C200.489 83.6953 201.169 84.1758 201.45 84.9492C201.837 84.1992 202.563 83.6953 203.419 83.6953C204.579 83.6953 205.434 84.5625 205.434 85.875V90H204.497V86.1094C204.497 85.125 203.97 84.4688 203.243 84.4688C202.387 84.4688 201.661 85.2773 201.661 86.2148V90H200.723V86.1094C200.723 85.125 200.196 84.4688 199.47 84.4688C198.614 84.4688 197.887 85.2773 197.887 86.2148V90H196.95ZM210.511 90.1406C209.586 90.1406 208.824 89.6953 208.379 88.9102V90H207.476V81.7031H208.414V84.8789C208.859 84.1289 209.621 83.6953 210.511 83.6953C212.105 83.6953 213.218 85.0078 213.218 86.918C213.218 88.8281 212.105 90.1406 210.511 90.1406ZM210.336 89.3672C211.519 89.3672 212.258 88.4297 212.258 86.918C212.258 85.4062 211.519 84.4688 210.336 84.4688C209.152 84.4688 208.414 85.4062 208.414 86.918C208.414 88.4297 209.152 89.3672 210.336 89.3672ZM215.342 82.8281C214.932 82.8281 214.616 82.5117 214.616 82.1016C214.616 81.6914 214.932 81.375 215.342 81.375C215.753 81.375 216.069 81.6914 216.069 82.1016C216.069 82.5117 215.753 82.8281 215.342 82.8281ZM214.874 90V83.8359H215.811V90H214.874ZM219.458 90.1406C218.439 90.1406 217.923 89.4844 217.923 88.5V81.7031H218.861V88.3828C218.861 89.0273 219.095 89.3672 219.564 89.3672C219.728 89.3672 219.857 89.3438 220.033 89.2734L220.197 90C219.962 90.0938 219.728 90.1406 219.458 90.1406ZM226.472 90.1406C225.253 90.1406 224.351 89.25 224.351 87.9844V83.8359H225.288V87.7383C225.288 88.793 225.874 89.3672 226.671 89.3672C227.62 89.3672 228.429 88.5234 228.429 87.5391V83.8359H229.366V90H228.452V89.0742C227.984 89.7656 227.269 90.1406 226.472 90.1406ZM233.014 90.1406C231.994 90.1406 231.479 89.4844 231.479 88.5V81.7031H232.416V88.3828C232.416 89.0273 232.65 89.3672 233.119 89.3672C233.283 89.3672 233.412 89.3438 233.588 89.2734L233.752 90C233.518 90.0938 233.283 90.1406 233.014 90.1406ZM236.556 90.1406C235.431 90.1406 234.634 89.4492 234.634 88.4531C234.634 87.4453 235.454 86.7656 237.001 86.4727L237.763 86.332C238.173 86.25 238.407 85.9922 238.407 85.6055C238.407 84.9492 237.81 84.4688 236.977 84.4688C236.157 84.4688 235.477 84.9375 235.325 85.6172L234.446 85.4297C234.634 84.4219 235.7 83.6953 237.001 83.6953C238.442 83.6953 239.345 84.5742 239.345 85.957V90H238.501V89.1211C238.067 89.7773 237.376 90.1406 236.556 90.1406ZM236.767 89.3672C237.704 89.3672 238.407 88.7109 238.407 87.8438V86.8477C238.208 86.9766 238.02 87.0352 237.657 87.1055L236.743 87.293C236.005 87.4453 235.595 87.832 235.595 88.3828C235.595 88.9805 236.052 89.3672 236.767 89.3672ZM241.387 90V83.8359H242.301V84.7617C242.758 84.082 243.473 83.6953 244.281 83.6953C245.512 83.6953 246.402 84.5977 246.402 85.8516V90H245.465V86.0977C245.465 85.1133 244.926 84.4688 244.082 84.4688C243.133 84.4688 242.324 85.3125 242.324 86.2969V90H241.387ZM250.823 92.5078C249.276 92.5078 248.151 91.7578 247.846 90.6328L248.737 90.4219C248.983 91.1836 249.768 91.6641 250.835 91.6641C252.1 91.6641 252.78 91.0547 252.78 89.918L252.792 88.5703C252.346 89.3203 251.596 89.7656 250.706 89.7656C249.194 89.7656 248.034 88.4414 248.034 86.7305C248.034 85.0078 249.194 83.6953 250.706 83.6953C251.608 83.6953 252.358 84.1523 252.792 84.9141L252.803 83.8359H253.706V89.8477C253.706 91.5117 252.628 92.5078 250.823 92.5078ZM250.882 88.9922C252.053 88.9922 252.768 88.125 252.768 86.7305C252.768 85.3359 252.053 84.4688 250.882 84.4688C249.71 84.4688 248.995 85.3359 248.995 86.7305C248.995 88.125 249.71 88.9922 250.882 88.9922ZM259.149 90V84.6562H258.059V83.8359H259.149V83.1797C259.149 81.9961 259.875 81.2109 261.012 81.2109C261.387 81.2109 261.727 81.293 262.137 81.5039L261.879 82.2305C261.493 82.0664 261.27 82.0078 261.047 82.0078C260.415 82.0078 260.086 82.3828 260.086 83.168V83.8359H261.844V84.6562H260.086V90H259.149ZM265.585 90.1406C263.839 90.1406 262.691 88.8516 262.691 86.918C262.691 84.9844 263.851 83.6953 265.585 83.6953C267.32 83.6953 268.48 84.9844 268.48 86.918C268.48 88.8516 267.331 90.1406 265.585 90.1406ZM265.585 89.3672C266.804 89.3672 267.519 88.4648 267.519 86.918C267.519 85.3711 266.792 84.4688 265.585 84.4688C264.378 84.4688 263.652 85.3711 263.652 86.918C263.652 88.4648 264.367 89.3672 265.585 89.3672ZM272.315 90.0938C271.178 90.0938 270.522 89.4141 270.522 88.2305V84.6562H269.444V83.8359H270.522V82.2422L271.459 81.9141V83.8359H273.252V84.6562H271.459V88.1016C271.459 88.875 271.811 89.2734 272.467 89.2734C272.76 89.2734 272.924 89.25 273.158 89.168L273.358 89.8945C272.948 90.0469 272.713 90.0938 272.315 90.0938ZM277.146 90.1406C275.4 90.1406 274.251 88.8516 274.251 86.918C274.251 84.9844 275.411 83.6953 277.146 83.6953C278.88 83.6953 280.04 84.9844 280.04 86.918C280.04 88.8516 278.892 90.1406 277.146 90.1406ZM277.146 89.3672C278.364 89.3672 279.079 88.4648 279.079 86.918C279.079 85.3711 278.353 84.4688 277.146 84.4688C275.939 84.4688 275.212 85.3711 275.212 86.918C275.212 88.4648 275.927 89.3672 277.146 89.3672ZM281.754 90.082C281.355 90.082 281.086 89.8125 281.086 89.4141C281.086 89.0156 281.355 88.7461 281.754 88.7461C282.152 88.7461 282.422 89.0156 282.422 89.4141C282.422 89.8125 282.152 90.082 281.754 90.082Z" fill="#707577"/>
<path d="M34.7512 86.7656H32.8411V90H31.8567V81.7031H34.7161C36.4387 81.7031 37.5403 82.6875 37.5403 84.2344C37.5403 85.8281 36.5091 86.7656 34.7512 86.7656ZM36.5208 84.2227C36.5208 83.1562 35.8177 82.5 34.6341 82.5H32.8411V85.9688H34.5169C35.8528 85.9688 36.5208 85.3945 36.5208 84.2227ZM40.8947 90.1406C39.7697 90.1406 38.9728 89.4492 38.9728 88.4531C38.9728 87.4453 39.7931 86.7656 41.34 86.4727L42.1017 86.332C42.5119 86.25 42.7463 85.9922 42.7463 85.6055C42.7463 84.9492 42.1486 84.4688 41.3166 84.4688C40.4963 84.4688 39.8166 84.9375 39.6642 85.6172L38.7853 85.4297C38.9728 84.4219 40.0392 83.6953 41.34 83.6953C42.7814 83.6953 43.6838 84.5742 43.6838 85.957V90H42.84V89.1211C42.4064 89.7773 41.715 90.1406 40.8947 90.1406ZM41.1056 89.3672C42.0431 89.3672 42.7463 88.7109 42.7463 87.8438V86.8477C42.547 86.9766 42.3595 87.0352 41.9963 87.1055L41.0822 87.293C40.3439 87.4453 39.9338 87.832 39.9338 88.3828C39.9338 88.9805 40.3908 89.3672 41.1056 89.3672ZM45.7256 90V83.8359H46.6397V84.7617C47.0967 84.082 47.8116 83.6953 48.6202 83.6953C49.8506 83.6953 50.7412 84.5977 50.7412 85.8516V90H49.8037V86.0977C49.8037 85.1133 49.2647 84.4688 48.4209 84.4688C47.4717 84.4688 46.6631 85.3125 46.6631 86.2969V90H45.7256ZM55.0331 90.1406C53.4394 90.1406 52.3261 88.8281 52.3261 86.918C52.3261 85.0078 53.4394 83.6953 55.0331 83.6953C55.9238 83.6953 56.6855 84.1289 57.1308 84.8789V81.7031H58.0683V90H57.1659V88.9102C56.7206 89.6953 55.9589 90.1406 55.0331 90.1406ZM55.2089 89.3672C56.3925 89.3672 57.1308 88.4297 57.1308 86.918C57.1308 85.418 56.3925 84.4688 55.2089 84.4688C54.0253 84.4688 53.287 85.418 53.287 86.918C53.287 88.4297 54.0253 89.3672 55.2089 89.3672ZM62.2313 90.1406C61.0125 90.1406 60.1102 89.25 60.1102 87.9844V83.8359H61.0477V87.7383C61.0477 88.793 61.6336 89.3672 62.4305 89.3672C63.3797 89.3672 64.1883 88.5234 64.1883 87.5391V83.8359H65.1258V90H64.2117V89.0742C63.743 89.7656 63.0281 90.1406 62.2313 90.1406ZM68.8903 90.1406C67.7653 90.1406 66.9684 89.4492 66.9684 88.4531C66.9684 87.4453 67.7887 86.7656 69.3356 86.4727L70.0973 86.332C70.5075 86.25 70.7419 85.9922 70.7419 85.6055C70.7419 84.9492 70.1442 84.4688 69.3122 84.4688C68.4919 84.4688 67.8122 84.9375 67.6598 85.6172L66.7809 85.4297C66.9684 84.4219 68.0348 83.6953 69.3356 83.6953C70.777 83.6953 71.6794 84.5742 71.6794 85.957V90H70.8356V89.1211C70.402 89.7773 69.7106 90.1406 68.8903 90.1406ZM69.1012 89.3672C70.0387 89.3672 70.7419 88.7109 70.7419 87.8438V86.8477C70.5427 86.9766 70.3552 87.0352 69.9919 87.1055L69.0778 87.293C68.3395 87.4453 67.9294 87.832 67.9294 88.3828C67.9294 88.9805 68.3864 89.3672 69.1012 89.3672ZM73.7213 90V83.8359H74.6353V84.7617C75.0923 84.082 75.8072 83.6953 76.6158 83.6953C77.8463 83.6953 78.7369 84.5977 78.7369 85.8516V90H77.7994V86.0977C77.7994 85.1133 77.2603 84.4688 76.4166 84.4688C75.4673 84.4688 74.6588 85.3125 74.6588 86.2969V90H73.7213ZM83.8988 81.7031H88.8441V82.5H84.8831V85.4766H88.6566V86.2734H84.8831V90H83.8988V81.7031ZM93.0656 90.1406C91.3195 90.1406 90.1711 88.8516 90.1711 86.918C90.1711 84.9844 91.3313 83.6953 93.0656 83.6953C94.8 83.6953 95.9602 84.9844 95.9602 86.918C95.9602 88.8516 94.8117 90.1406 93.0656 90.1406ZM93.0656 89.3672C94.2844 89.3672 94.9992 88.4648 94.9992 86.918C94.9992 85.3711 94.2727 84.4688 93.0656 84.4688C91.8586 84.4688 91.132 85.3711 91.132 86.918C91.132 88.4648 91.8469 89.3672 93.0656 89.3672ZM99.795 90.0938C98.6583 90.0938 98.002 89.4141 98.002 88.2305V84.6562H96.9239V83.8359H98.002V82.2422L98.9395 81.9141V83.8359H100.732V84.6562H98.9395V88.1016C98.9395 88.875 99.2911 89.2734 99.9473 89.2734C100.24 89.2734 100.404 89.25 100.639 89.168L100.838 89.8945C100.428 90.0469 100.193 90.0938 99.795 90.0938ZM104.626 90.1406C102.88 90.1406 101.731 88.8516 101.731 86.918C101.731 84.9844 102.892 83.6953 104.626 83.6953C106.36 83.6953 107.52 84.9844 107.52 86.918C107.52 88.8516 106.372 90.1406 104.626 90.1406ZM104.626 89.3672C105.845 89.3672 106.56 88.4648 106.56 86.918C106.56 85.3711 105.833 84.4688 104.626 84.4688C103.419 84.4688 102.692 85.3711 102.692 86.918C102.692 88.4648 103.407 89.3672 104.626 89.3672ZM112.296 81.7031H113.28V86.0273L117.194 81.7031H118.413L115.542 84.832L118.507 90H117.37L114.85 85.582L113.28 87.2812V90H112.296V81.7031ZM121.99 90V82.5469H119.365V81.7031H125.599V82.5469H122.974V90H121.99ZM130.161 86.7656H128.25V90H127.266V81.7031H130.125C131.848 81.7031 132.95 82.6875 132.95 84.2344C132.95 85.8281 131.918 86.7656 130.161 86.7656ZM131.93 84.2227C131.93 83.1562 131.227 82.5 130.043 82.5H128.25V85.9688H129.926C131.262 85.9688 131.93 85.3945 131.93 84.2227Z" fill="#0071CE"/>
<g opacity="0.9">
<path d="M10.3057 14.223H16.1308C16.692 14.223 17.1461 13.7684 17.1461 13.2077C17.1461 12.647 16.692 12.1924 16.1308 12.1924H10.3057C6.94646 12.1924 4.21387 14.925 4.21387 18.2842V42.6515C4.21387 46.0107 6.94646 48.7433 10.3057 48.7433H16.1308C16.692 48.7433 17.1461 48.2887 17.1461 47.728C17.1461 47.1673 16.692 46.7127 16.1308 46.7127H10.3057C8.06589 46.7127 6.24449 44.8908 6.24449 42.6515V18.2842C6.24444 16.0449 8.06584 14.223 10.3057 14.223ZM34.6729 12.1924H28.8478C28.2867 12.1924 27.8325 12.647 27.8325 13.2077C27.8325 13.7684 28.2866 14.223 28.8478 14.223H34.6729C36.9127 14.223 38.7341 16.0449 38.7341 18.2842V42.6515C38.7341 44.8908 36.9127 46.7127 34.6729 46.7127H28.8478C28.2867 46.7127 27.8325 47.1673 27.8325 47.728C27.8325 48.2887 28.2866 48.7433 28.8478 48.7433H34.6729C38.0322 48.7433 40.7648 46.0107 40.7648 42.6515V18.2842C40.7648 14.925 38.0322 12.1924 34.6729 12.1924Z" fill="#0071CE"/>
<path d="M32.1347 31.9902H11.8286C10.9875 31.9902 10.3057 31.3084 10.3057 30.4673C10.3057 29.6262 10.9875 28.9443 11.8286 28.9443H32.1347C32.9757 28.9443 33.6576 29.6262 33.6576 30.4673C33.6576 31.3084 32.9758 31.9902 32.1347 31.9902Z" fill="#0071CE"/>
<path d="M61.2656 12.9375H68.3438V14.625H63.375V17.6719H68.0625V19.3281H63.375V24H61.2656V12.9375ZM73.8231 24.1875C71.37 24.1875 69.7137 22.4375 69.7137 19.8438C69.7137 17.25 71.3856 15.5 73.8231 15.5C76.2919 15.5 77.9481 17.25 77.9481 19.8438C77.9481 22.4375 76.2919 24.1875 73.8231 24.1875ZM73.8231 22.5312C75.1356 22.5312 75.8856 21.5469 75.8856 19.8438C75.8856 18.1406 75.12 17.1406 73.8231 17.1406C72.5419 17.1406 71.7762 18.1406 71.7762 19.8438C71.7762 21.5469 72.5262 22.5312 73.8231 22.5312ZM83.2712 24.125C81.5212 24.125 80.4275 23.0312 80.4275 21.2188V17.3906H78.99V15.6875H80.4275V13.7188L82.4744 13.0312V15.6875H84.8025V17.3906H82.4744V20.9844C82.4744 21.8438 82.9275 22.3281 83.7244 22.3281C84.0369 22.3281 84.2556 22.2969 84.5681 22.1875L84.99 23.7969C84.3025 24.0469 83.9119 24.125 83.2712 24.125ZM90.0944 24.1875C87.6413 24.1875 85.985 22.4375 85.985 19.8438C85.985 17.25 87.6569 15.5 90.0944 15.5C92.5631 15.5 94.2194 17.25 94.2194 19.8438C94.2194 22.4375 92.5631 24.1875 90.0944 24.1875ZM90.0944 22.5312C91.4069 22.5312 92.1569 21.5469 92.1569 19.8438C92.1569 18.1406 91.3913 17.1406 90.0944 17.1406C88.8131 17.1406 88.0475 18.1406 88.0475 19.8438C88.0475 21.5469 88.7975 22.5312 90.0944 22.5312ZM100.069 12.9375H102.178V17.9844L106.428 12.9375H108.944L105.366 17.1719L109.069 24H106.694L103.912 18.875L102.178 20.875V24H100.069V12.9375ZM113.423 24V14.7031H110.033V12.9375H118.923V14.7031H115.533V24H113.423ZM125.012 20.125H122.887V24H120.778V12.9375H124.965C127.403 12.9375 128.965 14.3594 128.965 16.5781C128.965 18.8125 127.512 20.125 125.012 20.125ZM126.84 16.5312C126.84 15.3438 126.106 14.625 124.809 14.625H122.887V18.4219H124.684C126.137 18.4219 126.84 17.7969 126.84 16.5312ZM138.361 24.125C136.611 24.125 135.518 23.0312 135.518 21.2188V17.3906H134.08V15.6875H135.518V13.7188L137.564 13.0312V15.6875H139.893V17.3906H137.564V20.9844C137.564 21.8438 138.018 22.3281 138.814 22.3281C139.127 22.3281 139.346 22.2969 139.658 22.1875L140.08 23.7969C139.393 24.0469 139.002 24.125 138.361 24.125ZM145.262 24.1875C142.794 24.1875 141.075 22.4375 141.075 19.8906C141.075 17.375 142.731 15.5 145.153 15.5C147.387 15.5 148.887 17.125 148.887 19.2812C148.887 19.6406 148.872 19.9844 148.794 20.3594H143.137C143.309 21.7031 144.091 22.5469 145.325 22.5469C146.184 22.5469 146.794 22.1875 147.106 21.5L149.012 21.9219C148.497 23.2969 147.122 24.1875 145.262 24.1875ZM145.153 17.0781C144.091 17.0781 143.372 17.8281 143.153 18.9844H146.934C146.872 17.8438 146.294 17.0781 145.153 17.0781ZM150.742 24V15.6875H152.695V17.3281C153.164 16.1562 154.195 15.5469 155.695 15.5469L155.679 17.4688C154.039 17.2969 152.789 18.1406 152.789 19.8438V24H150.742ZM161.721 24.1875C160.596 24.1875 159.628 23.6719 159.065 22.8125V24H157.112V12.8281H159.159V16.7344C159.737 15.9531 160.643 15.5 161.721 15.5C163.815 15.5 165.299 17.2812 165.299 19.8438C165.299 22.4062 163.815 24.1875 161.721 24.1875ZM161.206 22.5312C162.471 22.5312 163.237 21.4844 163.237 19.8438C163.237 18.2031 162.471 17.1562 161.206 17.1562C159.94 17.1562 159.159 18.2031 159.159 19.8438C159.159 21.4844 159.94 22.5312 161.206 22.5312ZM169.576 24.1875C167.997 24.1875 166.904 23.25 166.904 21.8594C166.904 20.4375 168.013 19.5469 170.185 19.1719L170.919 19.0312C171.451 18.9375 171.747 18.6562 171.747 18.2344C171.747 17.5781 171.154 17.1094 170.294 17.1094C169.419 17.1094 168.732 17.5938 168.513 18.3438L166.622 17.9375C166.966 16.4688 168.419 15.5 170.279 15.5C172.404 15.5 173.732 16.75 173.732 18.7344V24H172.107L172.06 23C171.529 23.7656 170.654 24.1875 169.576 24.1875ZM170.138 22.7031C171.06 22.7031 171.732 22.0625 171.732 21.2031V20.0938C171.529 20.2031 171.326 20.2656 170.966 20.3438L170.091 20.5156C169.341 20.6562 168.919 21.0625 168.919 21.6406C168.919 22.2812 169.404 22.7031 170.138 22.7031ZM179.571 24.1875C177.102 24.1875 175.446 22.4844 175.446 19.9375C175.446 17.3125 177.118 15.5 179.586 15.5C181.477 15.5 182.93 16.5312 183.368 18.2031L181.446 18.6094C181.149 17.6562 180.539 17.1406 179.649 17.1406C178.305 17.1406 177.508 18.2188 177.508 19.8594C177.508 21.4375 178.352 22.5312 179.555 22.5312C180.43 22.5312 181.024 22.0156 181.289 21.0156L183.211 21.4219C182.789 23.1875 181.508 24.1875 179.571 24.1875ZM187.628 24.1875C186.05 24.1875 184.956 23.25 184.956 21.8594C184.956 20.4375 186.066 19.5469 188.238 19.1719L188.972 19.0312C189.503 18.9375 189.8 18.6562 189.8 18.2344C189.8 17.5781 189.206 17.1094 188.347 17.1094C187.472 17.1094 186.784 17.5938 186.566 18.3438L184.675 17.9375C185.019 16.4688 186.472 15.5 188.331 15.5C190.456 15.5 191.784 16.75 191.784 18.7344V24H190.159L190.113 23C189.581 23.7656 188.706 24.1875 187.628 24.1875ZM188.191 22.7031C189.113 22.7031 189.784 22.0625 189.784 21.2031V20.0938C189.581 20.2031 189.378 20.2656 189.019 20.3438L188.144 20.5156C187.394 20.6562 186.972 21.0625 186.972 21.6406C186.972 22.2812 187.456 22.7031 188.191 22.7031ZM194.326 20.5938L194.014 12.9375H196.139L195.811 20.5938H194.326ZM195.076 24.1094C194.389 24.1094 193.873 23.625 193.873 22.9531C193.873 22.2656 194.389 21.7812 195.076 21.7812C195.748 21.7812 196.264 22.2656 196.264 22.9531C196.264 23.625 195.764 24.1094 195.076 24.1094Z" fill="#242628"/>
<path d="M61.1074 37.3203H62.9531V41.7363L66.6719 37.3203H68.873L65.7422 41.0254L68.9824 47H66.9043L64.4707 42.5156L62.9531 44.2656V47H61.1074V37.3203ZM72.3016 47.1641C70.9208 47.1641 69.9637 46.3438 69.9637 45.127C69.9637 43.8828 70.9345 43.1035 72.8348 42.7754L73.4774 42.6523C73.9423 42.5703 74.202 42.3242 74.202 41.9551C74.202 41.3809 73.6825 40.9707 72.9305 40.9707C72.1649 40.9707 71.5634 41.3945 71.372 42.0508L69.7177 41.6953C70.0184 40.4102 71.2899 39.5625 72.9169 39.5625C74.7762 39.5625 75.9384 40.6562 75.9384 42.3926V47H74.5165L74.4755 46.125C74.0106 46.7949 73.245 47.1641 72.3016 47.1641ZM72.7938 45.8652C73.6005 45.8652 74.1884 45.3047 74.1884 44.5527V43.582C74.0106 43.6777 73.8329 43.7324 73.5184 43.8008L72.7528 43.9512C72.0966 44.0742 71.7274 44.4297 71.7274 44.9355C71.7274 45.4961 72.1512 45.8652 72.7938 45.8652ZM77.8767 47V39.7266H79.5857V40.6562C80.0642 39.9727 80.8162 39.5625 81.6502 39.5625C82.5388 39.5625 83.2908 40.0547 83.6599 40.9023C84.1111 40.0684 84.9177 39.5625 85.8884 39.5625C87.3377 39.5625 88.3904 40.6152 88.3904 42.1875V47H86.5994V42.625C86.5994 41.6816 86.1482 41.0938 85.4783 41.0938C84.6716 41.0938 84.0291 41.8457 84.0291 42.7754V47H82.2517V42.625C82.2517 41.6953 81.7869 41.0938 81.117 41.0938C80.324 41.0938 79.6677 41.8594 79.6677 42.7891V47H77.8767ZM92.7897 47.1641C91.3131 47.1641 90.2057 46.0703 90.2057 44.5527V39.7266H91.9967V44.1016C91.9967 45.0723 92.5163 45.6328 93.2545 45.6328C94.1432 45.6328 94.8405 44.8672 94.8405 43.8828V39.7266H96.6315V47H94.9225V46.084C94.403 46.7812 93.651 47.1641 92.7897 47.1641ZM106.086 47.1641C105.102 47.1641 104.254 46.7129 103.762 45.9609V47H102.053V37.2246H103.844V40.6426C104.35 39.959 105.143 39.5625 106.086 39.5625C107.918 39.5625 109.217 41.1211 109.217 43.3633C109.217 45.6055 107.918 47.1641 106.086 47.1641ZM105.635 45.7148C106.743 45.7148 107.412 44.7988 107.412 43.3633C107.412 41.9277 106.743 41.0117 105.635 41.0117C104.528 41.0117 103.844 41.9277 103.844 43.3633C103.844 44.7988 104.528 45.7148 105.635 45.7148ZM111.702 38.8105C111.046 38.8105 110.568 38.3457 110.568 37.7305C110.568 37.0879 111.046 36.6367 111.702 36.6367C112.359 36.6367 112.837 37.0879 112.837 37.7305C112.837 38.3457 112.359 38.8105 111.702 38.8105ZM110.8 47V39.7266H112.591V47H110.8ZM117.278 47.1641C115.61 47.1641 114.338 46.4121 114.051 45.2363L115.582 44.9082C115.828 45.4961 116.416 45.8105 117.223 45.8105C118.043 45.8105 118.522 45.4824 118.522 44.9219C118.522 44.4707 118.207 44.1973 117.606 44.1016L116.58 43.9375C115.281 43.7461 114.502 42.9395 114.502 41.8184C114.502 40.4922 115.664 39.5625 117.305 39.5625C118.604 39.5625 119.67 40.2734 119.93 41.3945L118.44 41.6816C118.276 41.1484 117.879 40.875 117.291 40.875C116.608 40.875 116.211 41.1621 116.211 41.6953C116.211 42.1738 116.526 42.4199 117.236 42.5293L117.988 42.6523C119.492 42.8848 120.326 43.6641 120.326 44.8262C120.326 46.248 119.096 47.1641 117.278 47.1641ZM124.056 47.1641C122.675 47.1641 121.718 46.3438 121.718 45.127C121.718 43.8828 122.689 43.1035 124.589 42.7754L125.231 42.6523C125.696 42.5703 125.956 42.3242 125.956 41.9551C125.956 41.3809 125.437 40.9707 124.685 40.9707C123.919 40.9707 123.317 41.3945 123.126 42.0508L121.472 41.6953C121.772 40.4102 123.044 39.5625 124.671 39.5625C126.53 39.5625 127.692 40.6562 127.692 42.3926V47H126.271L126.23 46.125C125.765 46.7949 124.999 47.1641 124.056 47.1641ZM124.548 45.8652C125.355 45.8652 125.942 45.3047 125.942 44.5527V43.582C125.765 43.6777 125.587 43.7324 125.272 43.8008L124.507 43.9512C123.851 44.0742 123.481 44.4297 123.481 44.9355C123.481 45.4961 123.905 45.8652 124.548 45.8652ZM135.247 47.1641C133.784 47.1641 133.032 46.3027 133.032 44.9082V37.2246H134.823V44.6621C134.823 45.332 135.083 45.6875 135.561 45.6875C135.766 45.6875 135.889 45.6738 136.095 45.5918L136.436 46.9316C136.067 47.0957 135.698 47.1641 135.247 47.1641ZM139.509 47.1641C138.129 47.1641 137.172 46.3438 137.172 45.127C137.172 43.8828 138.142 43.1035 140.043 42.7754L140.685 42.6523C141.15 42.5703 141.41 42.3242 141.41 41.9551C141.41 41.3809 140.89 40.9707 140.138 40.9707C139.373 40.9707 138.771 41.3945 138.58 42.0508L136.925 41.6953C137.226 40.4102 138.498 39.5625 140.125 39.5625C141.984 39.5625 143.146 40.6562 143.146 42.3926V47H141.724L141.683 46.125C141.218 46.7949 140.453 47.1641 139.509 47.1641ZM140.002 45.8652C140.808 45.8652 141.396 45.3047 141.396 44.5527V43.582C141.218 43.6777 141.041 43.7324 140.726 43.8008L139.961 43.9512C139.304 44.0742 138.935 44.4297 138.935 44.9355C138.935 45.4961 139.359 45.8652 140.002 45.8652ZM145.085 47V39.7266H146.807V40.6426C147.327 39.9453 148.065 39.5625 148.926 39.5625C150.43 39.5625 151.51 40.6562 151.51 42.1738V47H149.719V42.625C149.719 41.6953 149.241 41.0938 148.461 41.0938C147.573 41.0938 146.876 41.8594 146.876 42.8438V47H145.085ZM154.652 38.8105C153.996 38.8105 153.517 38.3457 153.517 37.7305C153.517 37.0879 153.996 36.6367 154.652 36.6367C155.308 36.6367 155.787 37.0879 155.787 37.7305C155.787 38.3457 155.308 38.8105 154.652 38.8105ZM153.216 49.9258C152.738 49.9258 152.369 49.8301 151.712 49.502L152.15 48.1484C152.437 48.3262 152.71 48.3945 152.97 48.3945C153.517 48.3945 153.749 48.0938 153.749 47.4102V39.7266H155.54V47.5742C155.54 49.0371 154.706 49.9258 153.216 49.9258ZM160.063 47.1641C158.586 47.1641 157.479 46.0703 157.479 44.5527V39.7266H159.27V44.1016C159.27 45.0723 159.789 45.6328 160.528 45.6328C161.416 45.6328 162.114 44.8672 162.114 43.8828V39.7266H163.905V47H162.196V46.084C161.676 46.7812 160.924 47.1641 160.063 47.1641ZM169.042 47.1094C167.511 47.1094 166.554 46.1523 166.554 44.5664V41.2168H165.296V39.7266H166.554V38.0039L168.345 37.4023V39.7266H170.382V41.2168H168.345V44.3613C168.345 45.1133 168.741 45.5371 169.439 45.5371C169.712 45.5371 169.904 45.5098 170.177 45.4141L170.546 46.8223C169.945 47.041 169.603 47.1094 169.042 47.1094ZM178.442 47.1641C176.282 47.1641 174.833 45.6738 174.833 43.4453C174.833 41.1484 176.296 39.5625 178.456 39.5625C180.11 39.5625 181.382 40.4648 181.765 41.9277L180.083 42.2832C179.823 41.4492 179.29 40.998 178.511 40.998C177.335 40.998 176.638 41.9414 176.638 43.377C176.638 44.7578 177.376 45.7148 178.429 45.7148C179.194 45.7148 179.714 45.2637 179.946 44.3887L181.628 44.7441C181.259 46.2891 180.138 47.1641 178.442 47.1641ZM186.56 47.1641C184.4 47.1641 182.896 45.6328 182.896 43.4043C182.896 41.2031 184.346 39.5625 186.465 39.5625C188.42 39.5625 189.732 40.9844 189.732 42.8711C189.732 43.1855 189.719 43.4863 189.65 43.8145H184.701C184.851 44.9902 185.535 45.7285 186.615 45.7285C187.367 45.7285 187.9 45.4141 188.174 44.8125L189.842 45.1816C189.39 46.3848 188.187 47.1641 186.56 47.1641ZM186.465 40.9434C185.535 40.9434 184.906 41.5996 184.715 42.6113H188.023C187.969 41.6133 187.463 40.9434 186.465 40.9434ZM195.786 39.7266H197.864L194.788 43.0898L197.96 47H195.813L193.161 43.6777V47H191.37V37.2246H193.161V42.6113L195.786 39.7266ZM205.241 47.1641C203.409 47.1641 202.11 45.6055 202.11 43.3633C202.11 41.1211 203.409 39.5625 205.241 39.5625C206.184 39.5625 206.991 39.959 207.483 40.6426V37.1699H209.274V47H207.565V45.9609C207.073 46.7129 206.239 47.1641 205.241 47.1641ZM205.692 45.7148C206.799 45.7148 207.483 44.7988 207.483 43.3633C207.483 41.9277 206.799 41.0117 205.692 41.0117C204.598 41.0117 203.915 41.9277 203.915 43.3633C203.915 44.7988 204.598 45.7148 205.692 45.7148ZM213.386 47.1641C212.005 47.1641 211.048 46.3438 211.048 45.127C211.048 43.8828 212.019 43.1035 213.919 42.7754L214.562 42.6523C215.027 42.5703 215.286 42.3242 215.286 41.9551C215.286 41.3809 214.767 40.9707 214.015 40.9707C213.249 40.9707 212.648 41.3945 212.456 42.0508L210.802 41.6953C211.103 40.4102 212.374 39.5625 214.001 39.5625C215.861 39.5625 217.023 40.6562 217.023 42.3926V47H215.601L215.56 46.125C215.095 46.7949 214.329 47.1641 213.386 47.1641ZM213.878 45.8652C214.685 45.8652 215.273 45.3047 215.273 44.5527V43.582C215.095 43.6777 214.917 43.7324 214.603 43.8008L213.837 43.9512C213.181 44.0742 212.812 44.4297 212.812 44.9355C212.812 45.4961 213.236 45.8652 213.878 45.8652ZM221.996 47.1094C220.465 47.1094 219.508 46.1523 219.508 44.5664V41.2168H218.25V39.7266H219.508V38.0039L221.299 37.4023V39.7266H223.336V41.2168H221.299V44.3613C221.299 45.1133 221.696 45.5371 222.393 45.5371C222.666 45.5371 222.858 45.5098 223.131 45.4141L223.5 46.8223C222.899 47.041 222.557 47.1094 221.996 47.1094ZM227.148 47.1641C225.767 47.1641 224.81 46.3438 224.81 45.127C224.81 43.8828 225.78 43.1035 227.681 42.7754L228.323 42.6523C228.788 42.5703 229.048 42.3242 229.048 41.9551C229.048 41.3809 228.528 40.9707 227.776 40.9707C227.011 40.9707 226.409 41.3945 226.218 42.0508L224.564 41.6953C224.864 40.4102 226.136 39.5625 227.763 39.5625C229.622 39.5625 230.784 40.6562 230.784 42.3926V47H229.362L229.321 46.125C228.857 46.7949 228.091 47.1641 227.148 47.1641ZM227.64 45.8652C228.446 45.8652 229.034 45.3047 229.034 44.5527V43.582C228.857 43.6777 228.679 43.7324 228.364 43.8008L227.599 43.9512C226.943 44.0742 226.573 44.4297 226.573 44.9355C226.573 45.4961 226.997 45.8652 227.64 45.8652ZM236.288 37.3203H238.134V41.7363L241.852 37.3203H244.054L240.923 41.0254L244.163 47H242.085L239.651 42.5156L238.134 44.2656V47H236.288V37.3203ZM247.988 47V38.8652H245.021V37.3203H252.801V38.8652H249.834V47H247.988ZM258.143 43.6094H256.284V47H254.438V37.3203H258.102C260.235 37.3203 261.602 38.5645 261.602 40.5059C261.602 42.4609 260.331 43.6094 258.143 43.6094ZM259.743 40.4648C259.743 39.4258 259.1 38.7969 257.965 38.7969H256.284V42.1191H257.856C259.128 42.1191 259.743 41.5723 259.743 40.4648Z" fill="#707577"/>
<path d="M279 30C279 23.3726 284.373 18 291 18C297.627 18 303 23.3726 303 30C303 36.6274 297.627 42 291 42C284.373 42 279 36.6274 279 30Z" fill="#BAF075"/>
<path fill-rule="evenodd" clip-rule="evenodd" d="M295.177 26.3833C295.517 26.6191 295.602 27.0863 295.367 27.4269L290.867 33.9269C290.729 34.1251 290.505 34.2452 290.264 34.2498C290.023 34.2544 289.795 34.1428 289.65 33.9499L286.65 29.9499C286.401 29.6186 286.469 29.1485 286.8 28.8999C287.131 28.6514 287.601 28.7186 287.85 29.0499L290.226 32.2175L294.133 26.573C294.369 26.2325 294.836 26.1475 295.177 26.3833Z" fill="#062814"/>
</g>
</svg>
