<svg width="303" height="96" viewBox="0 0 303 96" fill="none" xmlns="http://www.w3.org/2000/svg">
<g opacity="0.9">
<path d="M10.3057 14.222H16.1308C16.692 14.222 17.1461 13.7674 17.1461 13.2067C17.1461 12.646 16.692 12.1914 16.1308 12.1914H10.3057C6.94646 12.1914 4.21387 14.924 4.21387 18.2832V42.6505C4.21387 46.0098 6.94646 48.7423 10.3057 48.7423H16.1308C16.692 48.7423 17.1461 48.2877 17.1461 47.727C17.1461 47.1663 16.692 46.7117 16.1308 46.7117H10.3057C8.06589 46.7117 6.24449 44.8898 6.24449 42.6505V18.2832C6.24444 16.0439 8.06584 14.222 10.3057 14.222ZM34.6729 12.1914H28.8478C28.2867 12.1914 27.8325 12.646 27.8325 13.2067C27.8325 13.7674 28.2866 14.222 28.8478 14.222H34.6729C36.9127 14.222 38.7341 16.0439 38.7341 18.2832V42.6505C38.7341 44.8898 36.9127 46.7117 34.6729 46.7117H28.8478C28.2867 46.7117 27.8325 47.1663 27.8325 47.727C27.8325 48.2877 28.2866 48.7423 28.8478 48.7423H34.6729C38.0322 48.7423 40.7648 46.0098 40.7648 42.6505V18.2832C40.7648 14.924 38.0322 12.1914 34.6729 12.1914Z" fill="#0071CE"/>
<path d="M32.1347 31.9892H11.8286C10.9875 31.9892 10.3057 31.3074 10.3057 30.4663C10.3057 29.6252 10.9875 28.9434 11.8286 28.9434H32.1347C32.9757 28.9434 33.6576 29.6252 33.6576 30.4663C33.6576 31.3074 32.9758 31.9892 32.1347 31.9892Z" fill="#0071CE"/>
<path d="M65.5 20.125H63.375V24H61.2656V12.9375H65.4531C67.8906 12.9375 69.4531 14.3594 69.4531 16.5781C69.4531 18.8125 68 20.125 65.5 20.125ZM67.3281 16.5312C67.3281 15.3438 66.5938 14.625 65.2969 14.625H63.375V18.4219H65.1719C66.625 18.4219 67.3281 17.7969 67.3281 16.5312ZM73.6512 24.1875C72.0731 24.1875 70.9794 23.25 70.9794 21.8594C70.9794 20.4375 72.0887 19.5469 74.2606 19.1719L74.995 19.0312C75.5262 18.9375 75.8231 18.6562 75.8231 18.2344C75.8231 17.5781 75.2294 17.1094 74.37 17.1094C73.495 17.1094 72.8075 17.5938 72.5887 18.3438L70.6981 17.9375C71.0419 16.4688 72.495 15.5 74.3544 15.5C76.4794 15.5 77.8075 16.75 77.8075 18.7344V24H76.1825L76.1356 23C75.6044 23.7656 74.7294 24.1875 73.6512 24.1875ZM74.2137 22.7031C75.1356 22.7031 75.8075 22.0625 75.8075 21.2031V20.0938C75.6044 20.2031 75.4012 20.2656 75.0419 20.3438L74.1669 20.5156C73.4169 20.6562 72.995 21.0625 72.995 21.6406C72.995 22.2812 73.4794 22.7031 74.2137 22.7031ZM80.0056 24V15.6875H81.9587V17.3281C82.4275 16.1562 83.4587 15.5469 84.9587 15.5469L84.9431 17.4688C83.3025 17.2969 82.0525 18.1406 82.0525 19.8438V24H80.0056ZM90.3913 24.125C88.6413 24.125 87.5475 23.0312 87.5475 21.2188V17.3906H86.11V15.6875H87.5475V13.7188L89.5944 13.0312V15.6875H91.9225V17.3906H89.5944V20.9844C89.5944 21.8438 90.0475 22.3281 90.8444 22.3281C91.1569 22.3281 91.3756 22.2969 91.6881 22.1875L92.11 23.7969C91.4225 24.0469 91.0319 24.125 90.3913 24.125ZM101.084 24.1875C98.6312 24.1875 96.975 22.4375 96.975 19.8438C96.975 17.25 98.6469 15.5 101.084 15.5C103.553 15.5 105.209 17.25 105.209 19.8438C105.209 22.4375 103.553 24.1875 101.084 24.1875ZM101.084 22.5312C102.397 22.5312 103.147 21.5469 103.147 19.8438C103.147 18.1406 102.381 17.1406 101.084 17.1406C99.8031 17.1406 99.0375 18.1406 99.0375 19.8438C99.0375 21.5469 99.7875 22.5312 101.084 22.5312ZM107.72 24V17.3906H106.251V15.6875H107.72V14.9062C107.72 13.1094 108.923 11.8906 110.72 11.8906C111.329 11.8906 111.939 12.0156 112.486 12.2969L112.001 13.8281C111.533 13.6406 111.251 13.5781 110.954 13.5781C110.142 13.5781 109.767 14 109.767 14.9219V15.6875H112.111V17.3906H109.767V24H107.72ZM118.663 14.6406C117.913 14.6406 117.366 14.1094 117.366 13.4062C117.366 12.6719 117.913 12.1562 118.663 12.1562C119.413 12.1562 119.96 12.6719 119.96 13.4062C119.96 14.1094 119.413 14.6406 118.663 14.6406ZM117.632 24V15.6875H119.679V24H117.632ZM121.971 24V15.6875H123.939V16.7344C124.533 15.9375 125.377 15.5 126.361 15.5C128.08 15.5 129.314 16.75 129.314 18.4844V24H127.268V19C127.268 17.9375 126.721 17.25 125.83 17.25C124.814 17.25 124.018 18.125 124.018 19.25V24H121.971ZM132.262 24V17.3906H130.794V15.6875H132.262V14.9062C132.262 13.1094 133.466 11.8906 135.262 11.8906C135.872 11.8906 136.481 12.0156 137.028 12.2969L136.544 13.8281C136.075 13.6406 135.794 13.5781 135.497 13.5781C134.684 13.5781 134.309 14 134.309 14.9219V15.6875H136.653V17.3906H134.309V24H132.262ZM141.57 24.1875C139.117 24.1875 137.461 22.4375 137.461 19.8438C137.461 17.25 139.132 15.5 141.57 15.5C144.039 15.5 145.695 17.25 145.695 19.8438C145.695 22.4375 144.039 24.1875 141.57 24.1875ZM141.57 22.5312C142.882 22.5312 143.632 21.5469 143.632 19.8438C143.632 18.1406 142.867 17.1406 141.57 17.1406C140.289 17.1406 139.523 18.1406 139.523 19.8438C139.523 21.5469 140.273 22.5312 141.57 22.5312ZM152.388 14.6406C151.638 14.6406 151.091 14.1094 151.091 13.4062C151.091 12.6719 151.638 12.1562 152.388 12.1562C153.138 12.1562 153.685 12.6719 153.685 13.4062C153.685 14.1094 153.138 14.6406 152.388 14.6406ZM151.357 24V15.6875H153.404V24H151.357ZM158.743 24.1875C156.836 24.1875 155.383 23.3281 155.055 21.9844L156.805 21.6094C157.086 22.2812 157.758 22.6406 158.68 22.6406C159.618 22.6406 160.164 22.2656 160.164 21.625C160.164 21.1094 159.805 20.7969 159.118 20.6875L157.946 20.5C156.461 20.2812 155.571 19.3594 155.571 18.0781C155.571 16.5625 156.899 15.5 158.774 15.5C160.258 15.5 161.477 16.3125 161.774 17.5938L160.071 17.9219C159.883 17.3125 159.43 17 158.758 17C157.977 17 157.524 17.3281 157.524 17.9375C157.524 18.4844 157.883 18.7656 158.696 18.8906L159.555 19.0312C161.274 19.2969 162.227 20.1875 162.227 21.5156C162.227 23.1406 160.821 24.1875 158.743 24.1875ZM167.826 24V15.6875H169.779V16.75C170.326 15.9688 171.186 15.5 172.139 15.5C173.154 15.5 174.014 16.0625 174.436 17.0312C174.951 16.0781 175.873 15.5 176.982 15.5C178.639 15.5 179.842 16.7031 179.842 18.5V24H177.795V19C177.795 17.9219 177.279 17.25 176.514 17.25C175.592 17.25 174.857 18.1094 174.857 19.1719V24H172.826V19C172.826 17.9375 172.295 17.25 171.529 17.25C170.623 17.25 169.873 18.125 169.873 19.1875V24H167.826ZM183.056 14.6406C182.306 14.6406 181.759 14.1094 181.759 13.4062C181.759 12.6719 182.306 12.1562 183.056 12.1562C183.806 12.1562 184.353 12.6719 184.353 13.4062C184.353 14.1094 183.806 14.6406 183.056 14.6406ZM182.024 24V15.6875H184.071V24H182.024ZM189.41 24.1875C187.504 24.1875 186.051 23.3281 185.723 21.9844L187.473 21.6094C187.754 22.2812 188.426 22.6406 189.348 22.6406C190.285 22.6406 190.832 22.2656 190.832 21.625C190.832 21.1094 190.473 20.7969 189.785 20.6875L188.613 20.5C187.129 20.2812 186.238 19.3594 186.238 18.0781C186.238 16.5625 187.566 15.5 189.441 15.5C190.926 15.5 192.144 16.3125 192.441 17.5938L190.738 17.9219C190.551 17.3125 190.098 17 189.426 17C188.644 17 188.191 17.3281 188.191 17.9375C188.191 18.4844 188.551 18.7656 189.363 18.8906L190.223 19.0312C191.941 19.2969 192.894 20.1875 192.894 21.5156C192.894 23.1406 191.488 24.1875 189.41 24.1875ZM197.671 24.1875C195.764 24.1875 194.311 23.3281 193.983 21.9844L195.733 21.6094C196.014 22.2812 196.686 22.6406 197.608 22.6406C198.546 22.6406 199.092 22.2656 199.092 21.625C199.092 21.1094 198.733 20.7969 198.046 20.6875L196.874 20.5C195.389 20.2812 194.499 19.3594 194.499 18.0781C194.499 16.5625 195.827 15.5 197.702 15.5C199.186 15.5 200.405 16.3125 200.702 17.5938L198.999 17.9219C198.811 17.3125 198.358 17 197.686 17C196.905 17 196.452 17.3281 196.452 17.9375C196.452 18.4844 196.811 18.7656 197.624 18.8906L198.483 19.0312C200.202 19.2969 201.155 20.1875 201.155 21.5156C201.155 23.1406 199.749 24.1875 197.671 24.1875ZM203.916 14.6406C203.166 14.6406 202.619 14.1094 202.619 13.4062C202.619 12.6719 203.166 12.1562 203.916 12.1562C204.666 12.1562 205.212 12.6719 205.212 13.4062C205.212 14.1094 204.666 14.6406 203.916 14.6406ZM202.884 24V15.6875H204.931V24H202.884ZM207.223 24V15.6875H209.192V16.7344C209.786 15.9375 210.629 15.5 211.614 15.5C213.333 15.5 214.567 16.75 214.567 18.4844V24H212.52V19C212.52 17.9375 211.973 17.25 211.083 17.25C210.067 17.25 209.27 18.125 209.27 19.25V24H207.223ZM220.265 27.3438C218.093 27.3438 216.499 26.3594 216.093 24.875L217.999 24.4062C218.296 25.1875 219.124 25.6406 220.265 25.6406C221.64 25.6406 222.39 24.9844 222.39 23.7656V22.4688C221.859 23.2344 220.968 23.6875 219.937 23.6875C217.874 23.6875 216.343 21.9375 216.343 19.5938C216.343 17.2344 217.874 15.5 219.937 15.5C221.031 15.5 221.937 15.9844 222.468 16.8281L222.484 15.6875H224.421V23.7656C224.421 25.9688 222.796 27.3438 220.265 27.3438ZM220.39 22.0625C221.624 22.0625 222.39 21.1094 222.39 19.5938C222.39 18.0781 221.624 17.125 220.39 17.125C219.156 17.125 218.406 18.0938 218.406 19.5938C218.406 21.0938 219.156 22.0625 220.39 22.0625Z" fill="#D32D55"/>
<path d="M61.1074 37.3203H62.9531V45.4688H67.2598V47H61.1074V37.3203ZM71.9598 47.1641C69.7997 47.1641 68.2958 45.6328 68.2958 43.4043C68.2958 41.2031 69.745 39.5625 71.8641 39.5625C73.8192 39.5625 75.1317 40.9844 75.1317 42.8711C75.1317 43.1855 75.118 43.4863 75.0497 43.8145H70.1005C70.2509 44.9902 70.9345 45.7285 72.0145 45.7285C72.7665 45.7285 73.2997 45.4141 73.5731 44.8125L75.2411 45.1816C74.7899 46.3848 73.5868 47.1641 71.9598 47.1641ZM71.8641 40.9434C70.9345 40.9434 70.3055 41.5996 70.1141 42.6113H73.4227C73.368 41.6133 72.8622 40.9434 71.8641 40.9434ZM79.8318 47.1094C78.3005 47.1094 77.3435 46.1523 77.3435 44.5664V41.2168H76.0857V39.7266H77.3435V38.0039L79.1345 37.4023V39.7266H81.1716V41.2168H79.1345V44.3613C79.1345 45.1133 79.531 45.5371 80.2283 45.5371C80.5017 45.5371 80.6931 45.5098 80.9666 45.4141L81.3357 46.8223C80.7341 47.041 80.3923 47.1094 79.8318 47.1094ZM85.4752 47.1641C83.8073 47.1641 82.5358 46.4121 82.2487 45.2363L83.7799 44.9082C84.026 45.4961 84.6139 45.8105 85.4205 45.8105C86.2409 45.8105 86.7194 45.4824 86.7194 44.9219C86.7194 44.4707 86.4049 44.1973 85.8034 44.1016L84.778 43.9375C83.4791 43.7461 82.6998 42.9395 82.6998 41.8184C82.6998 40.4922 83.862 39.5625 85.5026 39.5625C86.8014 39.5625 87.8678 40.2734 88.1276 41.3945L86.6373 41.6816C86.4733 41.1484 86.0768 40.875 85.4889 40.875C84.8053 40.875 84.4088 41.1621 84.4088 41.6953C84.4088 42.1738 84.7233 42.4199 85.4342 42.5293L86.1862 42.6523C87.6901 42.8848 88.5241 43.6641 88.5241 44.8262C88.5241 46.248 87.2936 47.1641 85.4752 47.1641ZM96.5707 47.1094C95.0395 47.1094 94.0824 46.1523 94.0824 44.5664V41.2168H92.8246V39.7266H94.0824V38.0039L95.8734 37.4023V39.7266H97.9105V41.2168H95.8734V44.3613C95.8734 45.1133 96.2699 45.5371 96.9672 45.5371C97.2406 45.5371 97.432 45.5098 97.7055 45.4141L98.0746 46.8223C97.473 47.041 97.1312 47.1094 96.5707 47.1094ZM101.722 47.1641C100.341 47.1641 99.3841 46.3438 99.3841 45.127C99.3841 43.8828 100.355 43.1035 102.255 42.7754L102.898 42.6523C103.363 42.5703 103.622 42.3242 103.622 41.9551C103.622 41.3809 103.103 40.9707 102.351 40.9707C101.585 40.9707 100.984 41.3945 100.792 42.0508L99.138 41.6953C99.4388 40.4102 100.71 39.5625 102.337 39.5625C104.197 39.5625 105.359 40.6562 105.359 42.3926V47H103.937L103.896 46.125C103.431 46.7949 102.665 47.1641 101.722 47.1641ZM102.214 45.8652C103.021 45.8652 103.609 45.3047 103.609 44.5527V43.582C103.431 43.6777 103.253 43.7324 102.939 43.8008L102.173 43.9512C101.517 44.0742 101.148 44.4297 101.148 44.9355C101.148 45.4961 101.572 45.8652 102.214 45.8652ZM111.713 39.7266H113.791L110.715 43.0898L113.887 47H111.74L109.088 43.6777V47H107.297V37.2246H109.088V42.6113L111.713 39.7266ZM118.108 47.1641C115.948 47.1641 114.444 45.6328 114.444 43.4043C114.444 41.2031 115.894 39.5625 118.013 39.5625C119.968 39.5625 121.28 40.9844 121.28 42.8711C121.28 43.1855 121.267 43.4863 121.198 43.8145H116.249C116.399 44.9902 117.083 45.7285 118.163 45.7285C118.915 45.7285 119.448 45.4141 119.722 44.8125L121.39 45.1816C120.939 46.3848 119.735 47.1641 118.108 47.1641ZM118.013 40.9434C117.083 40.9434 116.454 41.5996 116.263 42.6113H119.571C119.517 41.6133 119.011 40.9434 118.013 40.9434ZM128.37 47.1641C126.989 47.1641 126.032 46.3438 126.032 45.127C126.032 43.8828 127.003 43.1035 128.903 42.7754L129.546 42.6523C130.011 42.5703 130.27 42.3242 130.27 41.9551C130.27 41.3809 129.751 40.9707 128.999 40.9707C128.233 40.9707 127.632 41.3945 127.44 42.0508L125.786 41.6953C126.087 40.4102 127.358 39.5625 128.985 39.5625C130.845 39.5625 132.007 40.6562 132.007 42.3926V47H130.585L130.544 46.125C130.079 46.7949 129.313 47.1641 128.37 47.1641ZM128.862 45.8652C129.669 45.8652 130.257 45.3047 130.257 44.5527V43.582C130.079 43.6777 129.901 43.7324 129.587 43.8008L128.821 43.9512C128.165 44.0742 127.796 44.4297 127.796 44.9355C127.796 45.4961 128.22 45.8652 128.862 45.8652ZM133.945 47V39.7266H135.668V40.6426C136.187 39.9453 136.925 39.5625 137.787 39.5625C139.291 39.5625 140.371 40.6562 140.371 42.1738V47H138.58V42.625C138.58 41.6953 138.101 41.0938 137.322 41.0938C136.433 41.0938 135.736 41.8594 135.736 42.8438V47H133.945ZM145.481 47.1641C143.335 47.1641 141.885 45.6328 141.885 43.3633C141.885 41.0938 143.348 39.5625 145.481 39.5625C147.641 39.5625 149.09 41.0938 149.09 43.3633C149.09 45.6328 147.641 47.1641 145.481 47.1641ZM145.481 45.7148C146.629 45.7148 147.286 44.8535 147.286 43.3633C147.286 41.873 146.616 40.998 145.481 40.998C144.36 40.998 143.69 41.873 143.69 43.3633C143.69 44.8535 144.346 45.7148 145.481 45.7148ZM153.763 47.1094C152.232 47.1094 151.275 46.1523 151.275 44.5664V41.2168H150.017V39.7266H151.275V38.0039L153.066 37.4023V39.7266H155.103V41.2168H153.066V44.3613C153.066 45.1133 153.462 45.5371 154.16 45.5371C154.433 45.5371 154.624 45.5098 154.898 45.4141L155.267 46.8223C154.665 47.041 154.324 47.1094 153.763 47.1094ZM156.809 47V37.2246H158.6V40.752C159.119 40.0684 159.858 39.6992 160.705 39.6992C162.155 39.6992 163.235 40.793 163.235 42.2832V47H161.444V42.7207C161.444 41.791 160.951 41.2578 160.213 41.2578C159.311 41.2578 158.6 42.0098 158.6 42.9805V47H156.809ZM168.413 47.1641C166.253 47.1641 164.749 45.6328 164.749 43.4043C164.749 41.2031 166.198 39.5625 168.318 39.5625C170.273 39.5625 171.585 40.9844 171.585 42.8711C171.585 43.1855 171.571 43.4863 171.503 43.8145H166.554C166.704 44.9902 167.388 45.7285 168.468 45.7285C169.22 45.7285 169.753 45.4141 170.027 44.8125L171.695 45.1816C171.243 46.3848 170.04 47.1641 168.413 47.1641ZM168.318 40.9434C167.388 40.9434 166.759 41.5996 166.568 42.6113H169.876C169.821 41.6133 169.316 40.9434 168.318 40.9434ZM173.223 47V39.7266H174.932V41.1621C175.342 40.1367 176.244 39.6035 177.557 39.6035L177.543 41.2852C176.107 41.1348 175.014 41.873 175.014 43.3633V47H173.223ZM182.213 49.7617V39.7266H183.922V40.752C184.414 40.0137 185.262 39.5625 186.246 39.5625C188.078 39.5625 189.377 41.1211 189.377 43.3633C189.377 45.6055 188.078 47.1641 186.246 47.1641C185.303 47.1641 184.51 46.7539 184.004 46.0703V49.7617H182.213ZM185.795 45.7148C186.902 45.7148 187.572 44.7988 187.572 43.3633C187.572 41.9277 186.902 41.0117 185.795 41.0117C184.687 41.0117 184.004 41.9277 184.004 43.3633C184.004 44.7988 184.687 45.7148 185.795 45.7148ZM191.862 38.8105C191.206 38.8105 190.727 38.3457 190.727 37.7305C190.727 37.0879 191.206 36.6367 191.862 36.6367C192.518 36.6367 192.997 37.0879 192.997 37.7305C192.997 38.3457 192.518 38.8105 191.862 38.8105ZM190.96 47V39.7266H192.751V47H190.96ZM197.957 47.1641C195.796 47.1641 194.347 45.6738 194.347 43.4453C194.347 41.1484 195.81 39.5625 197.97 39.5625C199.625 39.5625 200.896 40.4648 201.279 41.9277L199.597 42.2832C199.337 41.4492 198.804 40.998 198.025 40.998C196.849 40.998 196.152 41.9414 196.152 43.377C196.152 44.7578 196.89 45.7148 197.943 45.7148C198.709 45.7148 199.228 45.2637 199.461 44.3887L201.142 44.7441C200.773 46.2891 199.652 47.1641 197.957 47.1641ZM205.815 47.1094C204.284 47.1094 203.327 46.1523 203.327 44.5664V41.2168H202.069V39.7266H203.327V38.0039L205.118 37.4023V39.7266H207.155V41.2168H205.118V44.3613C205.118 45.1133 205.514 45.5371 206.211 45.5371C206.485 45.5371 206.676 45.5098 206.95 45.4141L207.319 46.8223C206.717 47.041 206.375 47.1094 205.815 47.1094ZM211.185 47.1641C209.708 47.1641 208.601 46.0703 208.601 44.5527V39.7266H210.392V44.1016C210.392 45.0723 210.911 45.6328 211.65 45.6328C212.538 45.6328 213.236 44.8672 213.236 43.8828V39.7266H215.027V47H213.318V46.084C212.798 46.7812 212.046 47.1641 211.185 47.1641ZM217.047 47V39.7266H218.756V41.1621C219.166 40.1367 220.069 39.6035 221.381 39.6035L221.367 41.2852C219.932 41.1348 218.838 41.873 218.838 43.3633V47H217.047ZM225.712 47.1641C223.552 47.1641 222.048 45.6328 222.048 43.4043C222.048 41.2031 223.497 39.5625 225.616 39.5625C227.571 39.5625 228.884 40.9844 228.884 42.8711C228.884 43.1855 228.87 43.4863 228.802 43.8145H223.853C224.003 44.9902 224.687 45.7285 225.767 45.7285C226.519 45.7285 227.052 45.4141 227.325 44.8125L228.993 45.1816C228.542 46.3848 227.339 47.1641 225.712 47.1641ZM225.616 40.9434C224.687 40.9434 224.058 41.5996 223.866 42.6113H227.175C227.12 41.6133 226.614 40.9434 225.616 40.9434Z" fill="#707577"/>
<path d="M279 30C279 23.3726 284.373 18 291 18V18C297.627 18 303 23.3726 303 30V30C303 36.6274 297.627 42 291 42V42C284.373 42 279 36.6274 279 30V30Z" fill="#FA9EB4"/>
<path fill-rule="evenodd" clip-rule="evenodd" d="M290.875 28C291.496 28 292 27.4963 292 26.875C292 26.2537 291.496 25.75 290.875 25.75C290.254 25.75 289.75 26.2537 289.75 26.875C289.75 27.4963 290.254 28 290.875 28ZM290.5 29C290.086 29 289.75 29.3358 289.75 29.75C289.75 30.0429 289.918 30.2966 290.163 30.42L289.756 33.6565C289.721 33.931 289.841 34.2022 290.067 34.3621C290.292 34.522 290.588 34.5446 290.835 34.4208L291.835 33.9208C292.206 33.7356 292.356 33.2851 292.171 32.9146C292.026 32.6241 291.717 32.4691 291.412 32.5049L291.747 29.8435C291.774 29.63 291.708 29.4152 291.565 29.2538C291.423 29.0925 291.218 29 291.003 29H290.5Z" fill="#D32D55"/>
</g>
<g clip-path="url(#clip0_2174_67808)">
<path d="M4.18359 90H3.19922V86.543L0.363281 81.7031H1.45312L3.79688 85.7344H3.59766L5.94141 81.7031H7.03125L4.18359 86.543V90ZM10.2098 90.1406C9.63172 90.1406 9.12391 90.0078 8.68641 89.7422C8.24891 89.4688 7.90906 89.0898 7.66687 88.6055C7.4325 88.1211 7.31531 87.5586 7.31531 86.918C7.31531 86.2695 7.43641 85.707 7.67859 85.2305C7.92078 84.7461 8.25672 84.3711 8.68641 84.1055C9.12391 83.832 9.63172 83.6953 10.2098 83.6953C10.788 83.6953 11.2919 83.832 11.7216 84.1055C12.1591 84.3711 12.4989 84.7461 12.7411 85.2305C12.9833 85.707 13.1044 86.2695 13.1044 86.918C13.1044 87.4023 13.0341 87.8438 12.8934 88.2422C12.7606 88.6328 12.5653 88.9727 12.3075 89.2617C12.0575 89.543 11.7528 89.7617 11.3934 89.918C11.0419 90.0664 10.6473 90.1406 10.2098 90.1406ZM10.2098 89.3672C10.6161 89.3672 10.9637 89.2695 11.2528 89.0742C11.5419 88.8789 11.7606 88.6016 11.9091 88.2422C12.0653 87.875 12.1434 87.4336 12.1434 86.918C12.1434 86.4023 12.0653 85.9648 11.9091 85.6055C11.7528 85.2383 11.5302 84.957 11.2411 84.7617C10.9598 84.5664 10.6161 84.4688 10.2098 84.4688C9.81141 84.4688 9.46766 84.5664 9.17859 84.7617C8.88953 84.957 8.66687 85.2383 8.51062 85.6055C8.35437 85.9648 8.27625 86.4023 8.27625 86.918C8.27625 87.4336 8.35047 87.875 8.49891 88.2422C8.65516 88.6016 8.87781 88.8789 9.16687 89.0742C9.45594 89.2695 9.80359 89.3672 10.2098 89.3672ZM16.8103 90.1406C16.4041 90.1406 16.0408 90.0508 15.7205 89.8711C15.4002 89.6836 15.1462 89.4297 14.9587 89.1094C14.7791 88.7812 14.6892 88.4062 14.6892 87.9844V83.8359H15.6267V87.7383C15.6267 88.0898 15.6853 88.3867 15.8025 88.6289C15.9275 88.8711 16.0916 89.0547 16.2947 89.1797C16.5056 89.3047 16.7439 89.3672 17.0095 89.3672C17.3298 89.3672 17.6228 89.2852 17.8884 89.1211C18.1541 88.9492 18.365 88.7266 18.5212 88.4531C18.6853 88.1719 18.7673 87.8672 18.7673 87.5391V83.8359H19.7048V90H18.7908V88.3242L19.0955 88.5C18.9627 88.8438 18.7791 89.1406 18.5447 89.3906C18.3103 89.6328 18.0447 89.8203 17.7478 89.9531C17.4587 90.0781 17.1462 90.1406 16.8103 90.1406ZM27.2339 90.1406C26.648 90.1406 26.1362 90.0117 25.6987 89.7539C25.2691 89.4961 24.9331 89.1328 24.6909 88.6641C24.4566 88.1875 24.3394 87.6328 24.3394 87C24.3394 86.3516 24.4605 85.7812 24.7027 85.2891C24.9527 84.7891 25.3003 84.3984 25.7456 84.1172C26.1909 83.8359 26.7105 83.6953 27.3042 83.6953C27.7339 83.6953 28.1245 83.7734 28.4761 83.9297C28.8277 84.0781 29.1245 84.2969 29.3667 84.5859C29.6089 84.8672 29.7847 85.2109 29.8941 85.6172L29.0152 85.8047C28.8823 85.3672 28.6792 85.0352 28.4058 84.8086C28.1323 84.582 27.7808 84.4688 27.3511 84.4688C26.9292 84.4688 26.5659 84.5742 26.2612 84.7852C25.9566 84.9883 25.7183 85.2734 25.5464 85.6406C25.3823 86.0078 25.3003 86.4336 25.3003 86.918C25.3003 87.4023 25.3823 87.8281 25.5464 88.1953C25.7105 88.5625 25.9409 88.8516 26.2378 89.0625C26.5347 89.2656 26.8784 89.3672 27.2691 89.3672C27.6831 89.3672 28.0269 89.25 28.3003 89.0156C28.5737 88.7812 28.773 88.4375 28.898 87.9844L29.7769 88.1719C29.6362 88.8047 29.3472 89.293 28.9097 89.6367C28.4722 89.9727 27.9136 90.1406 27.2339 90.1406ZM33.2836 90.1406C32.7211 90.1406 32.2602 89.9844 31.9008 89.6719C31.5414 89.3594 31.3617 88.9531 31.3617 88.4531C31.3617 87.9453 31.5609 87.5273 31.9594 87.1992C32.3656 86.8633 32.9555 86.6211 33.7289 86.4727L34.4906 86.332C34.6547 86.3008 34.7836 86.2617 34.8773 86.2148C34.9711 86.168 35.0375 86.1055 35.0766 86.0273C35.1156 85.9492 35.1352 85.8516 35.1352 85.7344C35.1352 85.4844 35.0727 85.2656 34.9477 85.0781C34.8227 84.8906 34.6508 84.7422 34.432 84.6328C34.2133 84.5234 33.9633 84.4688 33.682 84.4688C33.2758 84.4688 32.9203 84.5781 32.6156 84.7969C32.3188 85.0078 32.1313 85.2812 32.0531 85.6172L31.1742 85.4297C31.2367 85.0938 31.3852 84.7969 31.6195 84.5391C31.8617 84.2812 32.1625 84.0781 32.5219 83.9297C32.8813 83.7734 33.2719 83.6953 33.6938 83.6953C34.1547 83.6953 34.5648 83.7891 34.9242 83.9766C35.2836 84.1641 35.5648 84.4219 35.768 84.75C35.9711 85.0781 36.0727 85.457 36.0727 85.8867V90H35.2289V88.7227L35.4398 88.7344C35.307 89.0312 35.1313 89.2852 34.9125 89.4961C34.7016 89.707 34.4594 89.8672 34.1859 89.9766C33.9125 90.0859 33.6117 90.1406 33.2836 90.1406ZM33.4945 89.3672C33.807 89.3672 34.0844 89.3008 34.3266 89.168C34.5766 89.0352 34.7719 88.8555 34.9125 88.6289C35.0609 88.3945 35.1352 88.1328 35.1352 87.8438V86.5547L35.3344 86.7188C35.1859 86.8281 35.0492 86.9102 34.9242 86.9648C34.7992 87.0117 34.6195 87.0586 34.3852 87.1055L33.4711 87.293C33.1039 87.3711 32.8188 87.5039 32.6156 87.6914C32.4203 87.8789 32.3227 88.1094 32.3227 88.3828C32.3227 88.6797 32.4281 88.918 32.6391 89.0977C32.85 89.2773 33.1352 89.3672 33.4945 89.3672ZM38.1145 90V83.8359H39.0286V85.5117L38.7239 85.3359C38.8567 84.9922 39.0364 84.6992 39.263 84.457C39.4895 84.2148 39.7513 84.0273 40.0481 83.8945C40.3528 83.7617 40.6731 83.6953 41.0091 83.6953C41.4231 83.6953 41.7864 83.7891 42.0989 83.9766C42.4192 84.1562 42.6692 84.4102 42.8489 84.7383C43.0364 85.0586 43.1302 85.4297 43.1302 85.8516V90H42.1927V86.0977C42.1927 85.7695 42.1341 85.4844 42.0169 85.2422C41.9075 84.9922 41.7473 84.8008 41.5364 84.668C41.3333 84.5352 41.0911 84.4688 40.8098 84.4688C40.4973 84.4688 40.2044 84.5547 39.9309 84.7266C39.6653 84.8906 39.4505 85.1133 39.2864 85.3945C39.1302 85.668 39.052 85.9688 39.052 86.2969V90H38.1145ZM49.71 90.1406C49.1475 90.1406 48.6866 89.9844 48.3272 89.6719C47.9678 89.3594 47.7881 88.9531 47.7881 88.4531C47.7881 87.9453 47.9873 87.5273 48.3858 87.1992C48.792 86.8633 49.3819 86.6211 50.1553 86.4727L50.917 86.332C51.0811 86.3008 51.21 86.2617 51.3037 86.2148C51.3975 86.168 51.4639 86.1055 51.503 86.0273C51.542 85.9492 51.5616 85.8516 51.5616 85.7344C51.5616 85.4844 51.4991 85.2656 51.3741 85.0781C51.2491 84.8906 51.0772 84.7422 50.8584 84.6328C50.6397 84.5234 50.3897 84.4688 50.1084 84.4688C49.7022 84.4688 49.3467 84.5781 49.042 84.7969C48.7452 85.0078 48.5577 85.2812 48.4795 85.6172L47.6006 85.4297C47.6631 85.0938 47.8116 84.7969 48.0459 84.5391C48.2881 84.2812 48.5889 84.0781 48.9483 83.9297C49.3077 83.7734 49.6983 83.6953 50.1202 83.6953C50.5811 83.6953 50.9912 83.7891 51.3506 83.9766C51.71 84.1641 51.9912 84.4219 52.1944 84.75C52.3975 85.0781 52.4991 85.457 52.4991 85.8867V90H51.6553V88.7227L51.8662 88.7344C51.7334 89.0312 51.5577 89.2852 51.3389 89.4961C51.128 89.707 50.8858 89.8672 50.6123 89.9766C50.3389 90.0859 50.0381 90.1406 49.71 90.1406ZM49.9209 89.3672C50.2334 89.3672 50.5108 89.3008 50.753 89.168C51.003 89.0352 51.1983 88.8555 51.3389 88.6289C51.4873 88.3945 51.5616 88.1328 51.5616 87.8438V86.5547L51.7608 86.7188C51.6123 86.8281 51.4756 86.9102 51.3506 86.9648C51.2256 87.0117 51.0459 87.0586 50.8116 87.1055L49.8975 87.293C49.5303 87.3711 49.2452 87.5039 49.042 87.6914C48.8467 87.8789 48.7491 88.1094 48.7491 88.3828C48.7491 88.6797 48.8545 88.918 49.0655 89.0977C49.2764 89.2773 49.5616 89.3672 49.9209 89.3672ZM56.0292 90.1406C55.6933 90.1406 55.4081 90.0742 55.1738 89.9414C54.9472 89.8008 54.7753 89.6094 54.6581 89.3672C54.5488 89.1172 54.4941 88.8281 54.4941 88.5V81.7031H55.4316V88.3828C55.4316 88.7031 55.4902 88.9492 55.6073 89.1211C55.7245 89.2852 55.9003 89.3672 56.1347 89.3672C56.2206 89.3672 56.2988 89.3594 56.3691 89.3438C56.4394 89.3281 56.5175 89.3047 56.6034 89.2734L56.7675 90C56.5331 90.0938 56.287 90.1406 56.0292 90.1406ZM60.0281 90.1406C59.5828 90.1406 59.1766 90.0742 58.8094 89.9414C58.45 89.8086 58.1492 89.6211 57.907 89.3789C57.6727 89.1289 57.5164 88.8359 57.4383 88.5L58.282 88.3359C58.3992 88.6719 58.6063 88.9297 58.9031 89.1094C59.2 89.2812 59.5711 89.3672 60.0164 89.3672C60.4773 89.3672 60.8328 89.2773 61.0828 89.0977C61.3406 88.9102 61.4695 88.6445 61.4695 88.3008C61.4695 88.043 61.3875 87.8359 61.2234 87.6797C61.0594 87.5234 60.8172 87.418 60.4969 87.3633L59.4891 87.1992C58.9656 87.1133 58.5594 86.918 58.2703 86.6133C57.9813 86.3086 57.8367 85.9297 57.8367 85.4766C57.8367 85.125 57.9266 84.8164 58.1063 84.5508C58.2938 84.2773 58.5477 84.0664 58.868 83.918C59.1961 83.7695 59.5711 83.6953 59.993 83.6953C60.3602 83.6953 60.6883 83.7578 60.9773 83.8828C61.2742 84.0078 61.5203 84.1875 61.7156 84.4219C61.9109 84.6562 62.0398 84.9375 62.1023 85.2656L61.282 85.4062C61.1961 85.0859 61.0438 84.8477 60.825 84.6914C60.6063 84.5273 60.325 84.4453 59.9813 84.4453C59.5984 84.4453 59.3016 84.5312 59.0906 84.7031C58.8797 84.8672 58.7742 85.1094 58.7742 85.4297C58.7742 85.7188 58.8641 85.9375 59.0438 86.0859C59.2234 86.2344 59.4969 86.3398 59.8641 86.4023L60.5789 86.5195C61.1883 86.6211 61.6492 86.8203 61.9617 87.1172C62.2742 87.4141 62.4305 87.793 62.4305 88.2539C62.4305 88.6367 62.3289 88.9727 62.1258 89.2617C61.9305 89.543 61.6531 89.7617 61.2938 89.918C60.9344 90.0664 60.5125 90.1406 60.0281 90.1406ZM66.6052 90.1406C66.027 90.1406 65.5192 90.0078 65.0817 89.7422C64.6442 89.4688 64.3044 89.0898 64.0622 88.6055C63.8278 88.1211 63.7106 87.5586 63.7106 86.918C63.7106 86.2695 63.8317 85.707 64.0739 85.2305C64.3161 84.7461 64.652 84.3711 65.0817 84.1055C65.5192 83.832 66.027 83.6953 66.6052 83.6953C67.1833 83.6953 67.6872 83.832 68.1169 84.1055C68.5544 84.3711 68.8942 84.7461 69.1364 85.2305C69.3786 85.707 69.4997 86.2695 69.4997 86.918C69.4997 87.4023 69.4294 87.8438 69.2887 88.2422C69.1559 88.6328 68.9606 88.9727 68.7028 89.2617C68.4528 89.543 68.1481 89.7617 67.7887 89.918C67.4372 90.0664 67.0427 90.1406 66.6052 90.1406ZM66.6052 89.3672C67.0114 89.3672 67.3591 89.2695 67.6481 89.0742C67.9372 88.8789 68.1559 88.6016 68.3044 88.2422C68.4606 87.875 68.5387 87.4336 68.5387 86.918C68.5387 86.4023 68.4606 85.9648 68.3044 85.6055C68.1481 85.2383 67.9255 84.957 67.6364 84.7617C67.3552 84.5664 67.0114 84.4688 66.6052 84.4688C66.2067 84.4688 65.863 84.5664 65.5739 84.7617C65.2848 84.957 65.0622 85.2383 64.9059 85.6055C64.7497 85.9648 64.6716 86.4023 64.6716 86.918C64.6716 87.4336 64.7458 87.875 64.8942 88.2422C65.0505 88.6016 65.2731 88.8789 65.5622 89.0742C65.8512 89.2695 66.1989 89.3672 66.6052 89.3672ZM76.5717 90.1406C75.9858 90.1406 75.4741 90.0117 75.0366 89.7539C74.6069 89.4961 74.2709 89.1328 74.0287 88.6641C73.7944 88.1875 73.6772 87.6328 73.6772 87C73.6772 86.3516 73.7983 85.7812 74.0405 85.2891C74.2905 84.7891 74.6381 84.3984 75.0834 84.1172C75.5287 83.8359 76.0483 83.6953 76.642 83.6953C77.0717 83.6953 77.4623 83.7734 77.8139 83.9297C78.1655 84.0781 78.4623 84.2969 78.7045 84.5859C78.9467 84.8672 79.1225 85.2109 79.2319 85.6172L78.353 85.8047C78.2202 85.3672 78.017 85.0352 77.7436 84.8086C77.4702 84.582 77.1186 84.4688 76.6889 84.4688C76.267 84.4688 75.9037 84.5742 75.5991 84.7852C75.2944 84.9883 75.0561 85.2734 74.8842 85.6406C74.7202 86.0078 74.6381 86.4336 74.6381 86.918C74.6381 87.4023 74.7202 87.8281 74.8842 88.1953C75.0483 88.5625 75.2787 88.8516 75.5756 89.0625C75.8725 89.2656 76.2162 89.3672 76.6069 89.3672C77.0209 89.3672 77.3647 89.25 77.6381 89.0156C77.9116 88.7812 78.1108 88.4375 78.2358 87.9844L79.1147 88.1719C78.9741 88.8047 78.685 89.293 78.2475 89.6367C77.81 89.9727 77.2514 90.1406 76.5717 90.1406ZM80.7933 90V81.7031H81.7308V85.7227L81.4027 85.5469C81.5433 85.1953 81.7269 84.8984 81.9534 84.6562C82.1878 84.4141 82.4534 84.2305 82.7503 84.1055C83.0472 83.9727 83.3597 83.9062 83.6878 83.9062C84.0941 83.9062 84.4573 84 84.7777 84.1875C85.098 84.3672 85.348 84.6211 85.5277 84.9492C85.7152 85.2695 85.8089 85.6406 85.8089 86.0625V90H84.8714V86.3086C84.8714 85.9727 84.8128 85.6875 84.6956 85.4531C84.5784 85.2188 84.4144 85.0391 84.2034 84.9141C84.0003 84.7891 83.762 84.7266 83.4886 84.7266C83.1761 84.7266 82.8831 84.8086 82.6097 84.9727C82.3441 85.1367 82.1292 85.3555 81.9652 85.6289C81.8089 85.8945 81.7308 86.1875 81.7308 86.5078V90H80.7933ZM90.3234 90.1406C89.7531 90.1406 89.2453 90.0078 88.8 89.7422C88.3625 89.4688 88.0188 89.0938 87.7688 88.6172C87.5188 88.1328 87.3938 87.5742 87.3938 86.9414C87.3938 86.4727 87.4602 86.043 87.593 85.6523C87.7258 85.2539 87.9172 84.9102 88.1672 84.6211C88.4172 84.3242 88.7219 84.0977 89.0813 83.9414C89.4406 83.7773 89.8469 83.6953 90.3 83.6953C90.8313 83.6953 91.2883 83.8164 91.6711 84.0586C92.0539 84.293 92.3469 84.6133 92.55 85.0195C92.7531 85.4258 92.8547 85.8906 92.8547 86.4141C92.8547 86.5547 92.8508 86.6797 92.843 86.7891C92.8352 86.8984 92.8156 87.0195 92.7844 87.1523H87.7453V86.3555H92.175L91.9289 86.6953C91.968 86.2812 91.9367 85.9062 91.8352 85.5703C91.7336 85.2344 91.5539 84.9688 91.2961 84.7734C91.0383 84.5703 90.6984 84.4688 90.2766 84.4688C89.8703 84.4688 89.5227 84.5742 89.2336 84.7852C88.9445 84.9883 88.7219 85.2734 88.5656 85.6406C88.4094 86 88.3313 86.4141 88.3313 86.8828C88.3313 87.375 88.4094 87.8086 88.5656 88.1836C88.7297 88.5508 88.9602 88.8398 89.257 89.0508C89.5617 89.2617 89.9289 89.3672 90.3586 89.3672C90.7727 89.3672 91.1242 89.2773 91.4133 89.0977C91.7023 88.9102 91.9172 88.6445 92.0578 88.3008L92.9484 88.5117C92.7531 89.0039 92.4289 89.3984 91.9758 89.6953C91.5305 89.9922 90.9797 90.1406 90.3234 90.1406ZM97.1348 90.1406C96.5489 90.1406 96.0372 90.0117 95.5997 89.7539C95.17 89.4961 94.8341 89.1328 94.5919 88.6641C94.3575 88.1875 94.2403 87.6328 94.2403 87C94.2403 86.3516 94.3614 85.7812 94.6036 85.2891C94.8536 84.7891 95.2012 84.3984 95.6466 84.1172C96.0919 83.8359 96.6114 83.6953 97.2052 83.6953C97.6348 83.6953 98.0255 83.7734 98.377 83.9297C98.7286 84.0781 99.0255 84.2969 99.2677 84.5859C99.5098 84.8672 99.6856 85.2109 99.795 85.6172L98.9161 85.8047C98.7833 85.3672 98.5802 85.0352 98.3067 84.8086C98.0333 84.582 97.6817 84.4688 97.252 84.4688C96.8302 84.4688 96.4669 84.5742 96.1622 84.7852C95.8575 84.9883 95.6192 85.2734 95.4473 85.6406C95.2833 86.0078 95.2012 86.4336 95.2012 86.918C95.2012 87.4023 95.2833 87.8281 95.4473 88.1953C95.6114 88.5625 95.8419 88.8516 96.1387 89.0625C96.4356 89.2656 96.7794 89.3672 97.17 89.3672C97.5841 89.3672 97.9278 89.25 98.2012 89.0156C98.4747 88.7812 98.6739 88.4375 98.7989 87.9844L99.6778 88.1719C99.5372 88.8047 99.2481 89.293 98.8106 89.6367C98.3731 89.9727 97.8145 90.1406 97.1348 90.1406ZM101.356 81.7031H102.294V90H101.356V81.7031ZM105.024 83.8359H106.149L103.138 86.6953L106.231 90H105.071L101.989 86.7188L105.024 83.8359ZM110.866 92.4609L112.167 89.3789L109.753 83.8359H110.714L112.928 88.9805L112.307 89.0273L114.487 83.8359H115.448L111.827 92.4609H110.866ZM119.072 90.1406C118.494 90.1406 117.986 90.0078 117.548 89.7422C117.111 89.4688 116.771 89.0898 116.529 88.6055C116.295 88.1211 116.177 87.5586 116.177 86.918C116.177 86.2695 116.298 85.707 116.541 85.2305C116.783 84.7461 117.119 84.3711 117.548 84.1055C117.986 83.832 118.494 83.6953 119.072 83.6953C119.65 83.6953 120.154 83.832 120.584 84.1055C121.021 84.3711 121.361 84.7461 121.603 85.2305C121.845 85.707 121.966 86.2695 121.966 86.918C121.966 87.4023 121.896 87.8438 121.755 88.2422C121.623 88.6328 121.427 88.9727 121.17 89.2617C120.92 89.543 120.615 89.7617 120.255 89.918C119.904 90.0664 119.509 90.1406 119.072 90.1406ZM119.072 89.3672C119.478 89.3672 119.826 89.2695 120.115 89.0742C120.404 88.8789 120.623 88.6016 120.771 88.2422C120.927 87.875 121.005 87.4336 121.005 86.918C121.005 86.4023 120.927 85.9648 120.771 85.6055C120.615 85.2383 120.392 84.957 120.103 84.7617C119.822 84.5664 119.478 84.4688 119.072 84.4688C118.673 84.4688 118.33 84.5664 118.041 84.7617C117.752 84.957 117.529 85.2383 117.373 85.6055C117.216 85.9648 117.138 86.4023 117.138 86.918C117.138 87.4336 117.213 87.875 117.361 88.2422C117.517 88.6016 117.74 88.8789 118.029 89.0742C118.318 89.2695 118.666 89.3672 119.072 89.3672ZM125.672 90.1406C125.266 90.1406 124.903 90.0508 124.582 89.8711C124.262 89.6836 124.008 89.4297 123.821 89.1094C123.641 88.7812 123.551 88.4062 123.551 87.9844V83.8359H124.489V87.7383C124.489 88.0898 124.547 88.3867 124.665 88.6289C124.79 88.8711 124.954 89.0547 125.157 89.1797C125.368 89.3047 125.606 89.3672 125.872 89.3672C126.192 89.3672 126.485 89.2852 126.75 89.1211C127.016 88.9492 127.227 88.7266 127.383 88.4531C127.547 88.1719 127.629 87.8672 127.629 87.5391V83.8359H128.567V90H127.653V88.3242L127.957 88.5C127.825 88.8438 127.641 89.1406 127.407 89.3906C127.172 89.6328 126.907 89.8203 126.61 89.9531C126.321 90.0781 126.008 90.1406 125.672 90.1406ZM130.679 90V83.8359H131.581V85.793L131.429 85.6875C131.538 85.0625 131.796 84.582 132.202 84.2461C132.617 83.9102 133.156 83.7422 133.82 83.7422L133.808 84.6328C133.41 84.5938 133.042 84.6523 132.706 84.8086C132.378 84.9648 132.113 85.1992 131.91 85.5117C131.714 85.8164 131.617 86.1797 131.617 86.6016V90H130.679ZM270.73 90.1406C270.167 90.1406 269.706 89.9844 269.347 89.6719C268.988 89.3594 268.808 88.9531 268.808 88.4531C268.808 87.9453 269.007 87.5273 269.406 87.1992C269.812 86.8633 270.402 86.6211 271.175 86.4727L271.937 86.332C272.101 86.3008 272.23 86.2617 272.324 86.2148C272.417 86.168 272.484 86.1055 272.523 86.0273C272.562 85.9492 272.581 85.8516 272.581 85.7344C272.581 85.4844 272.519 85.2656 272.394 85.0781C272.269 84.8906 272.097 84.7422 271.878 84.6328C271.66 84.5234 271.41 84.4688 271.128 84.4688C270.722 84.4688 270.367 84.5781 270.062 84.7969C269.765 85.0078 269.578 85.2812 269.499 85.6172L268.62 85.4297C268.683 85.0938 268.831 84.7969 269.066 84.5391C269.308 84.2812 269.609 84.0781 269.968 83.9297C270.328 83.7734 270.718 83.6953 271.14 83.6953C271.601 83.6953 272.011 83.7891 272.37 83.9766C272.73 84.1641 273.011 84.4219 273.214 84.75C273.417 85.0781 273.519 85.457 273.519 85.8867V90H272.675V88.7227L272.886 88.7344C272.753 89.0312 272.578 89.2852 272.359 89.4961C272.148 89.707 271.906 89.8672 271.632 89.9766C271.359 90.0859 271.058 90.1406 270.73 90.1406ZM270.941 89.3672C271.253 89.3672 271.531 89.3008 271.773 89.168C272.023 89.0352 272.218 88.8555 272.359 88.6289C272.507 88.3945 272.581 88.1328 272.581 87.8438V86.5547L272.781 86.7188C272.632 86.8281 272.495 86.9102 272.37 86.9648C272.245 87.0117 272.066 87.0586 271.831 87.1055L270.917 87.293C270.55 87.3711 270.265 87.5039 270.062 87.6914C269.867 87.8789 269.769 88.1094 269.769 88.3828C269.769 88.6797 269.874 88.918 270.085 89.0977C270.296 89.2773 270.581 89.3672 270.941 89.3672ZM277.94 92.5078C277.424 92.5078 276.959 92.4297 276.545 92.2734C276.139 92.1172 275.799 91.8984 275.526 91.6172C275.252 91.3359 275.065 91.0078 274.963 90.6328L275.854 90.4219C275.94 90.6719 276.076 90.8906 276.264 91.0781C276.459 91.2656 276.701 91.4102 276.99 91.5117C277.28 91.6133 277.6 91.6641 277.951 91.6641C278.584 91.6641 279.065 91.5156 279.393 91.2188C279.729 90.9219 279.897 90.4883 279.897 89.918L279.908 87.5273L280.213 87.7734C280.119 88.1797 279.955 88.5352 279.721 88.8398C279.494 89.1367 279.217 89.3672 278.889 89.5312C278.569 89.6875 278.213 89.7656 277.823 89.7656C277.323 89.7656 276.869 89.6328 276.463 89.3672C276.057 89.0938 275.737 88.7305 275.502 88.2773C275.268 87.8164 275.151 87.3008 275.151 86.7305C275.151 86.3008 275.217 85.9023 275.35 85.5352C275.49 85.168 275.682 84.8477 275.924 84.5742C276.166 84.293 276.448 84.0781 276.768 83.9297C277.096 83.7734 277.448 83.6953 277.823 83.6953C278.213 83.6953 278.569 83.7773 278.889 83.9414C279.217 84.1055 279.494 84.3359 279.721 84.6328C279.955 84.9297 280.119 85.2812 280.213 85.6875L279.908 85.9336L279.92 83.8359H280.823V89.8477C280.823 90.4023 280.705 90.8789 280.471 91.2773C280.244 91.6758 279.916 91.9805 279.487 92.1914C279.057 92.4023 278.541 92.5078 277.94 92.5078ZM277.998 88.9922C278.389 88.9922 278.725 88.9023 279.006 88.7227C279.287 88.5352 279.502 88.2734 279.651 87.9375C279.807 87.5938 279.885 87.1914 279.885 86.7305C279.885 86.2617 279.807 85.8594 279.651 85.5234C279.502 85.1875 279.287 84.9297 279.006 84.75C278.725 84.5625 278.389 84.4688 277.998 84.4688C277.608 84.4688 277.272 84.5625 276.99 84.75C276.709 84.9297 276.49 85.1875 276.334 85.5234C276.186 85.8594 276.112 86.2617 276.112 86.7305C276.112 87.1914 276.186 87.5938 276.334 87.9375C276.49 88.2734 276.709 88.5352 276.99 88.7227C277.272 88.9023 277.608 88.9922 277.998 88.9922ZM284.587 90.1406C284.025 90.1406 283.564 89.9844 283.204 89.6719C282.845 89.3594 282.665 88.9531 282.665 88.4531C282.665 87.9453 282.864 87.5273 283.263 87.1992C283.669 86.8633 284.259 86.6211 285.032 86.4727L285.794 86.332C285.958 86.3008 286.087 86.2617 286.181 86.2148C286.275 86.168 286.341 86.1055 286.38 86.0273C286.419 85.9492 286.439 85.8516 286.439 85.7344C286.439 85.4844 286.376 85.2656 286.251 85.0781C286.126 84.8906 285.954 84.7422 285.735 84.6328C285.517 84.5234 285.267 84.4688 284.985 84.4688C284.579 84.4688 284.224 84.5781 283.919 84.7969C283.622 85.0078 283.435 85.2812 283.357 85.6172L282.478 85.4297C282.54 85.0938 282.689 84.7969 282.923 84.5391C283.165 84.2812 283.466 84.0781 283.825 83.9297C284.185 83.7734 284.575 83.6953 284.997 83.6953C285.458 83.6953 285.868 83.7891 286.228 83.9766C286.587 84.1641 286.868 84.4219 287.071 84.75C287.275 85.0781 287.376 85.457 287.376 85.8867V90H286.532V88.7227L286.743 88.7344C286.61 89.0312 286.435 89.2852 286.216 89.4961C286.005 89.707 285.763 89.8672 285.489 89.9766C285.216 90.0859 284.915 90.1406 284.587 90.1406ZM284.798 89.3672C285.11 89.3672 285.388 89.3008 285.63 89.168C285.88 89.0352 286.075 88.8555 286.216 88.6289C286.364 88.3945 286.439 88.1328 286.439 87.8438V86.5547L286.638 86.7188C286.489 86.8281 286.353 86.9102 286.228 86.9648C286.103 87.0117 285.923 87.0586 285.689 87.1055L284.775 87.293C284.407 87.3711 284.122 87.5039 283.919 87.6914C283.724 87.8789 283.626 88.1094 283.626 88.3828C283.626 88.6797 283.732 88.918 283.943 89.0977C284.153 89.2773 284.439 89.3672 284.798 89.3672ZM289.418 90V83.8359H290.355V90H289.418ZM289.887 82.8281C289.684 82.8281 289.512 82.7578 289.371 82.6172C289.23 82.4766 289.16 82.3047 289.16 82.1016C289.16 81.8984 289.23 81.7266 289.371 81.5859C289.512 81.4453 289.684 81.375 289.887 81.375C290.09 81.375 290.262 81.4453 290.402 81.5859C290.543 81.7266 290.613 81.8984 290.613 82.1016C290.613 82.3047 290.543 82.4766 290.402 82.6172C290.262 82.7578 290.09 82.8281 289.887 82.8281ZM292.468 90V83.8359H293.382V85.5117L293.077 85.3359C293.21 84.9922 293.39 84.6992 293.616 84.457C293.843 84.2148 294.104 84.0273 294.401 83.8945C294.706 83.7617 295.026 83.6953 295.362 83.6953C295.776 83.6953 296.14 83.7891 296.452 83.9766C296.772 84.1562 297.022 84.4102 297.202 84.7383C297.39 85.0586 297.483 85.4297 297.483 85.8516V90H296.546V86.0977C296.546 85.7695 296.487 85.4844 296.37 85.2422C296.261 84.9922 296.1 84.8008 295.89 84.668C295.686 84.5352 295.444 84.4688 295.163 84.4688C294.85 84.4688 294.557 84.5547 294.284 84.7266C294.018 84.8906 293.804 85.1133 293.64 85.3945C293.483 85.668 293.405 85.9688 293.405 86.2969V90H292.468Z" fill="#707577"/>
<path d="M138.126 92.3672V83.8359H139.028V85.8281L138.735 85.6641C138.845 85.25 139.013 84.8984 139.239 84.6094C139.474 84.3125 139.755 84.0859 140.083 83.9297C140.411 83.7734 140.771 83.6953 141.161 83.6953C141.693 83.6953 142.161 83.832 142.568 84.1055C142.974 84.3789 143.29 84.7578 143.517 85.2422C143.751 85.7188 143.868 86.2773 143.868 86.918C143.868 87.3945 143.802 87.832 143.669 88.2305C143.536 88.6211 143.349 88.9609 143.107 89.25C142.872 89.5312 142.587 89.75 142.251 89.9062C141.923 90.0625 141.56 90.1406 141.161 90.1406C140.771 90.1406 140.411 90.0625 140.083 89.9062C139.755 89.7422 139.474 89.5156 139.239 89.2266C139.013 88.9297 138.845 88.5781 138.735 88.1719L139.064 87.9961V92.3672H138.126ZM140.985 89.3672C141.384 89.3672 141.724 89.2695 142.005 89.0742C142.294 88.8711 142.517 88.5859 142.673 88.2188C142.829 87.8516 142.907 87.418 142.907 86.918C142.907 86.4102 142.829 85.9766 142.673 85.6172C142.517 85.25 142.294 84.9688 142.005 84.7734C141.724 84.5703 141.384 84.4688 140.985 84.4688C140.595 84.4688 140.255 84.5703 139.966 84.7734C139.677 84.9688 139.454 85.25 139.298 85.6172C139.142 85.9766 139.064 86.4102 139.064 86.918C139.064 87.418 139.142 87.8516 139.298 88.2188C139.454 88.5859 139.677 88.8711 139.966 89.0742C140.255 89.2695 140.595 89.3672 140.985 89.3672ZM145.523 90V81.7031H146.461V85.7227L146.133 85.5469C146.273 85.1953 146.457 84.8984 146.684 84.6562C146.918 84.4141 147.184 84.2305 147.48 84.1055C147.777 83.9727 148.09 83.9062 148.418 83.9062C148.824 83.9062 149.188 84 149.508 84.1875C149.828 84.3672 150.078 84.6211 150.258 84.9492C150.445 85.2695 150.539 85.6406 150.539 86.0625V90H149.602V86.3086C149.602 85.9727 149.543 85.6875 149.426 85.4531C149.309 85.2188 149.145 85.0391 148.934 84.9141C148.73 84.7891 148.492 84.7266 148.219 84.7266C147.906 84.7266 147.613 84.8086 147.34 84.9727C147.074 85.1367 146.859 85.3555 146.695 85.6289C146.539 85.8945 146.461 86.1875 146.461 86.5078V90H145.523ZM155.018 90.1406C154.44 90.1406 153.932 90.0078 153.495 89.7422C153.057 89.4688 152.718 89.0898 152.475 88.6055C152.241 88.1211 152.124 87.5586 152.124 86.918C152.124 86.2695 152.245 85.707 152.487 85.2305C152.729 84.7461 153.065 84.3711 153.495 84.1055C153.932 83.832 154.44 83.6953 155.018 83.6953C155.597 83.6953 156.1 83.832 156.53 84.1055C156.968 84.3711 157.307 84.7461 157.55 85.2305C157.792 85.707 157.913 86.2695 157.913 86.918C157.913 87.4023 157.843 87.8438 157.702 88.2422C157.569 88.6328 157.374 88.9727 157.116 89.2617C156.866 89.543 156.561 89.7617 156.202 89.918C155.85 90.0664 155.456 90.1406 155.018 90.1406ZM155.018 89.3672C155.425 89.3672 155.772 89.2695 156.061 89.0742C156.35 88.8789 156.569 88.6016 156.718 88.2422C156.874 87.875 156.952 87.4336 156.952 86.918C156.952 86.4023 156.874 85.9648 156.718 85.6055C156.561 85.2383 156.339 84.957 156.05 84.7617C155.768 84.5664 155.425 84.4688 155.018 84.4688C154.62 84.4688 154.276 84.5664 153.987 84.7617C153.698 84.957 153.475 85.2383 153.319 85.6055C153.163 85.9648 153.085 86.4023 153.085 86.918C153.085 87.4336 153.159 87.875 153.307 88.2422C153.464 88.6016 153.686 88.8789 153.975 89.0742C154.265 89.2695 154.612 89.3672 155.018 89.3672ZM161.748 90.0938C161.373 90.0938 161.049 90.0234 160.775 89.8828C160.51 89.7344 160.306 89.5195 160.166 89.2383C160.025 88.957 159.955 88.6211 159.955 88.2305V82.2422L160.892 81.9141V88.1016C160.892 88.4844 160.978 88.7773 161.15 88.9805C161.322 89.1758 161.572 89.2734 161.9 89.2734C162.049 89.2734 162.17 89.2656 162.263 89.25C162.365 89.2344 162.474 89.207 162.592 89.168L162.791 89.8945C162.588 89.9727 162.412 90.0234 162.263 90.0469C162.123 90.0781 161.951 90.0938 161.748 90.0938ZM158.877 84.6562V83.8359H162.685V84.6562H158.877ZM166.579 90.1406C166.001 90.1406 165.493 90.0078 165.055 89.7422C164.618 89.4688 164.278 89.0898 164.036 88.6055C163.801 88.1211 163.684 87.5586 163.684 86.918C163.684 86.2695 163.805 85.707 164.048 85.2305C164.29 84.7461 164.626 84.3711 165.055 84.1055C165.493 83.832 166.001 83.6953 166.579 83.6953C167.157 83.6953 167.661 83.832 168.09 84.1055C168.528 84.3711 168.868 84.7461 169.11 85.2305C169.352 85.707 169.473 86.2695 169.473 86.918C169.473 87.4023 169.403 87.8438 169.262 88.2422C169.13 88.6328 168.934 88.9727 168.676 89.2617C168.426 89.543 168.122 89.7617 167.762 89.918C167.411 90.0664 167.016 90.1406 166.579 90.1406ZM166.579 89.3672C166.985 89.3672 167.333 89.2695 167.622 89.0742C167.911 88.8789 168.13 88.6016 168.278 88.2422C168.434 87.875 168.512 87.4336 168.512 86.918C168.512 86.4023 168.434 85.9648 168.278 85.6055C168.122 85.2383 167.899 84.957 167.61 84.7617C167.329 84.5664 166.985 84.4688 166.579 84.4688C166.18 84.4688 165.837 84.5664 165.548 84.7617C165.258 84.957 165.036 85.2383 164.88 85.6055C164.723 85.9648 164.645 86.4023 164.645 86.918C164.645 87.4336 164.719 87.875 164.868 88.2422C165.024 88.6016 165.247 88.8789 165.536 89.0742C165.825 89.2695 166.173 89.3672 166.579 89.3672ZM178.455 92.3672V87.9961L178.784 88.1719C178.682 88.5781 178.514 88.9297 178.28 89.2266C178.045 89.5156 177.764 89.7422 177.436 89.9062C177.108 90.0625 176.748 90.1406 176.358 90.1406C175.827 90.1406 175.358 90.0039 174.952 89.7305C174.545 89.457 174.225 89.0781 173.991 88.5938C173.764 88.1094 173.651 87.5508 173.651 86.918C173.651 86.4414 173.717 86.0078 173.85 85.6172C173.983 85.2188 174.166 84.8789 174.401 84.5977C174.643 84.3086 174.928 84.0859 175.256 83.9297C175.592 83.7734 175.959 83.6953 176.358 83.6953C176.756 83.6953 177.116 83.7734 177.436 83.9297C177.764 84.0859 178.045 84.3125 178.28 84.6094C178.514 84.8984 178.682 85.25 178.784 85.6641L178.491 85.8281V83.8359H179.393V92.3672H178.455ZM176.534 89.3672C176.932 89.3672 177.272 89.2695 177.553 89.0742C177.842 88.8711 178.065 88.5859 178.221 88.2188C178.377 87.8516 178.455 87.418 178.455 86.918C178.455 86.4102 178.377 85.9727 178.221 85.6055C178.065 85.2383 177.842 84.957 177.553 84.7617C177.272 84.5664 176.932 84.4688 176.534 84.4688C176.135 84.4688 175.791 84.5664 175.502 84.7617C175.221 84.957 175.002 85.2383 174.846 85.6055C174.69 85.9727 174.612 86.4102 174.612 86.918C174.612 87.418 174.69 87.8516 174.846 88.2188C175.002 88.5859 175.221 88.8711 175.502 89.0742C175.791 89.2695 176.135 89.3672 176.534 89.3672ZM183.556 90.1406C183.15 90.1406 182.786 90.0508 182.466 89.8711C182.146 89.6836 181.892 89.4297 181.704 89.1094C181.525 88.7812 181.435 88.4062 181.435 87.9844V83.8359H182.372V87.7383C182.372 88.0898 182.431 88.3867 182.548 88.6289C182.673 88.8711 182.837 89.0547 183.04 89.1797C183.251 89.3047 183.49 89.3672 183.755 89.3672C184.075 89.3672 184.368 89.2852 184.634 89.1211C184.9 88.9492 185.111 88.7266 185.267 88.4531C185.431 88.1719 185.513 87.8672 185.513 87.5391V83.8359H186.45V90H185.536V88.3242L185.841 88.5C185.708 88.8438 185.525 89.1406 185.29 89.3906C185.056 89.6328 184.79 89.8203 184.493 89.9531C184.204 90.0781 183.892 90.1406 183.556 90.1406ZM190.215 90.1406C189.652 90.1406 189.192 89.9844 188.832 89.6719C188.473 89.3594 188.293 88.9531 188.293 88.4531C188.293 87.9453 188.492 87.5273 188.891 87.1992C189.297 86.8633 189.887 86.6211 190.66 86.4727L191.422 86.332C191.586 86.3008 191.715 86.2617 191.809 86.2148C191.902 86.168 191.969 86.1055 192.008 86.0273C192.047 85.9492 192.067 85.8516 192.067 85.7344C192.067 85.4844 192.004 85.2656 191.879 85.0781C191.754 84.8906 191.582 84.7422 191.363 84.6328C191.145 84.5234 190.895 84.4688 190.613 84.4688C190.207 84.4688 189.852 84.5781 189.547 84.7969C189.25 85.0078 189.063 85.2812 188.985 85.6172L188.106 85.4297C188.168 85.0938 188.317 84.7969 188.551 84.5391C188.793 84.2812 189.094 84.0781 189.453 83.9297C189.813 83.7734 190.203 83.6953 190.625 83.6953C191.086 83.6953 191.496 83.7891 191.856 83.9766C192.215 84.1641 192.496 84.4219 192.699 84.75C192.902 85.0781 193.004 85.457 193.004 85.8867V90H192.16V88.7227L192.371 88.7344C192.238 89.0312 192.063 89.2852 191.844 89.4961C191.633 89.707 191.391 89.8672 191.117 89.9766C190.844 90.0859 190.543 90.1406 190.215 90.1406ZM190.426 89.3672C190.738 89.3672 191.016 89.3008 191.258 89.168C191.508 89.0352 191.703 88.8555 191.844 88.6289C191.992 88.3945 192.067 88.1328 192.067 87.8438V86.5547L192.266 86.7188C192.117 86.8281 191.981 86.9102 191.856 86.9648C191.731 87.0117 191.551 87.0586 191.317 87.1055L190.402 87.293C190.035 87.3711 189.75 87.5039 189.547 87.6914C189.352 87.8789 189.254 88.1094 189.254 88.3828C189.254 88.6797 189.36 88.918 189.57 89.0977C189.781 89.2773 190.067 89.3672 190.426 89.3672ZM196.534 90.1406C196.198 90.1406 195.913 90.0742 195.679 89.9414C195.452 89.8008 195.28 89.6094 195.163 89.3672C195.054 89.1172 194.999 88.8281 194.999 88.5V81.7031H195.937V88.3828C195.937 88.7031 195.995 88.9492 196.112 89.1211C196.23 89.2852 196.405 89.3672 196.64 89.3672C196.726 89.3672 196.804 89.3594 196.874 89.3438C196.944 89.3281 197.023 89.3047 197.108 89.2734L197.273 90C197.038 90.0938 196.792 90.1406 196.534 90.1406ZM198.646 90V83.8359H199.584V90H198.646ZM199.115 82.8281C198.912 82.8281 198.74 82.7578 198.6 82.6172C198.459 82.4766 198.389 82.3047 198.389 82.1016C198.389 81.8984 198.459 81.7266 198.6 81.5859C198.74 81.4453 198.912 81.375 199.115 81.375C199.318 81.375 199.49 81.4453 199.631 81.5859C199.771 81.7266 199.842 81.8984 199.842 82.1016C199.842 82.3047 199.771 82.4766 199.631 82.6172C199.49 82.7578 199.318 82.8281 199.115 82.8281ZM203.934 90.0938C203.559 90.0938 203.235 90.0234 202.962 89.8828C202.696 89.7344 202.493 89.5195 202.352 89.2383C202.212 88.957 202.141 88.6211 202.141 88.2305V82.2422L203.079 81.9141V88.1016C203.079 88.4844 203.165 88.7773 203.337 88.9805C203.509 89.1758 203.759 89.2734 204.087 89.2734C204.235 89.2734 204.356 89.2656 204.45 89.25C204.552 89.2344 204.661 89.207 204.778 89.168L204.977 89.8945C204.774 89.9727 204.598 90.0234 204.45 90.0469C204.309 90.0781 204.137 90.0938 203.934 90.0938ZM201.063 84.6562V83.8359H204.872V84.6562H201.063ZM207.125 92.4609L208.425 89.3789L206.011 83.8359H206.972L209.187 88.9805L208.566 89.0273L210.746 83.8359H211.707L208.086 92.4609H207.125ZM218.099 90.1406C217.654 90.1406 217.247 90.0742 216.88 89.9414C216.521 89.8086 216.22 89.6211 215.978 89.3789C215.744 89.1289 215.587 88.8359 215.509 88.5L216.353 88.3359C216.47 88.6719 216.677 88.9297 216.974 89.1094C217.271 89.2812 217.642 89.3672 218.087 89.3672C218.548 89.3672 218.904 89.2773 219.154 89.0977C219.412 88.9102 219.54 88.6445 219.54 88.3008C219.54 88.043 219.458 87.8359 219.294 87.6797C219.13 87.5234 218.888 87.418 218.568 87.3633L217.56 87.1992C217.037 87.1133 216.63 86.918 216.341 86.6133C216.052 86.3086 215.908 85.9297 215.908 85.4766C215.908 85.125 215.997 84.8164 216.177 84.5508C216.365 84.2773 216.619 84.0664 216.939 83.918C217.267 83.7695 217.642 83.6953 218.064 83.6953C218.431 83.6953 218.759 83.7578 219.048 83.8828C219.345 84.0078 219.591 84.1875 219.787 84.4219C219.982 84.6562 220.111 84.9375 220.173 85.2656L219.353 85.4062C219.267 85.0859 219.115 84.8477 218.896 84.6914C218.677 84.5273 218.396 84.4453 218.052 84.4453C217.669 84.4453 217.372 84.5312 217.162 84.7031C216.951 84.8672 216.845 85.1094 216.845 85.4297C216.845 85.7188 216.935 85.9375 217.115 86.0859C217.294 86.2344 217.568 86.3398 217.935 86.4023L218.65 86.5195C219.259 86.6211 219.72 86.8203 220.033 87.1172C220.345 87.4141 220.501 87.793 220.501 88.2539C220.501 88.6367 220.4 88.9727 220.197 89.2617C220.001 89.543 219.724 89.7617 219.365 89.918C219.005 90.0664 218.583 90.1406 218.099 90.1406ZM224.289 90.0938C223.914 90.0938 223.59 90.0234 223.317 89.8828C223.051 89.7344 222.848 89.5195 222.707 89.2383C222.567 88.957 222.496 88.6211 222.496 88.2305V82.2422L223.434 81.9141V88.1016C223.434 88.4844 223.52 88.7773 223.692 88.9805C223.864 89.1758 224.114 89.2734 224.442 89.2734C224.59 89.2734 224.711 89.2656 224.805 89.25C224.907 89.2344 225.016 89.207 225.133 89.168L225.332 89.8945C225.129 89.9727 224.953 90.0234 224.805 90.0469C224.664 90.0781 224.492 90.0938 224.289 90.0938ZM221.418 84.6562V83.8359H225.227V84.6562H221.418ZM228.616 90.1406C228.054 90.1406 227.593 89.9844 227.234 89.6719C226.874 89.3594 226.695 88.9531 226.695 88.4531C226.695 87.9453 226.894 87.5273 227.292 87.1992C227.698 86.8633 228.288 86.6211 229.062 86.4727L229.823 86.332C229.988 86.3008 230.116 86.2617 230.21 86.2148C230.304 86.168 230.37 86.1055 230.409 86.0273C230.448 85.9492 230.468 85.8516 230.468 85.7344C230.468 85.4844 230.405 85.2656 230.28 85.0781C230.155 84.8906 229.984 84.7422 229.765 84.6328C229.546 84.5234 229.296 84.4688 229.015 84.4688C228.609 84.4688 228.253 84.5781 227.948 84.7969C227.652 85.0078 227.464 85.2812 227.386 85.6172L226.507 85.4297C226.57 85.0938 226.718 84.7969 226.952 84.5391C227.195 84.2812 227.495 84.0781 227.855 83.9297C228.214 83.7734 228.605 83.6953 229.027 83.6953C229.488 83.6953 229.898 83.7891 230.257 83.9766C230.616 84.1641 230.898 84.4219 231.101 84.75C231.304 85.0781 231.405 85.457 231.405 85.8867V90H230.562V88.7227L230.773 88.7344C230.64 89.0312 230.464 89.2852 230.245 89.4961C230.034 89.707 229.792 89.8672 229.519 89.9766C229.245 90.0859 228.945 90.1406 228.616 90.1406ZM228.827 89.3672C229.14 89.3672 229.417 89.3008 229.659 89.168C229.909 89.0352 230.105 88.8555 230.245 88.6289C230.394 88.3945 230.468 88.1328 230.468 87.8438V86.5547L230.667 86.7188C230.519 86.8281 230.382 86.9102 230.257 86.9648C230.132 87.0117 229.952 87.0586 229.718 87.1055L228.804 87.293C228.437 87.3711 228.152 87.5039 227.948 87.6914C227.753 87.8789 227.655 88.1094 227.655 88.3828C227.655 88.6797 227.761 88.918 227.972 89.0977C228.183 89.2773 228.468 89.3672 228.827 89.3672ZM233.447 90V83.8359H234.361V85.5117L234.057 85.3359C234.19 84.9922 234.369 84.6992 234.596 84.457C234.822 84.2148 235.084 84.0273 235.381 83.8945C235.686 83.7617 236.006 83.6953 236.342 83.6953C236.756 83.6953 237.119 83.7891 237.432 83.9766C237.752 84.1562 238.002 84.4102 238.182 84.7383C238.369 85.0586 238.463 85.4297 238.463 85.8516V90H237.525V86.0977C237.525 85.7695 237.467 85.4844 237.35 85.2422C237.24 84.9922 237.08 84.8008 236.869 84.668C236.666 84.5352 236.424 84.4688 236.143 84.4688C235.83 84.4688 235.537 84.5547 235.264 84.7266C234.998 84.8906 234.783 85.1133 234.619 85.3945C234.463 85.668 234.385 85.9688 234.385 86.2969V90H233.447ZM242.755 90.1406C242.224 90.1406 241.755 90.0039 241.349 89.7305C240.942 89.457 240.622 89.0781 240.388 88.5938C240.161 88.1094 240.048 87.5508 240.048 86.918C240.048 86.4414 240.114 86.0078 240.247 85.6172C240.38 85.2188 240.563 84.8789 240.798 84.5977C241.04 84.3086 241.325 84.0859 241.653 83.9297C241.989 83.7734 242.356 83.6953 242.755 83.6953C243.145 83.6953 243.505 83.7773 243.833 83.9414C244.161 84.0977 244.442 84.3242 244.677 84.6211C244.911 84.9102 245.079 85.2578 245.181 85.6641L244.852 85.8398V81.7031H245.79V90H244.888V88.0078L245.181 88.1719C245.079 88.5781 244.911 88.9297 244.677 89.2266C244.442 89.5234 244.161 89.75 243.833 89.9062C243.513 90.0625 243.153 90.1406 242.755 90.1406ZM242.931 89.3672C243.329 89.3672 243.669 89.2695 243.95 89.0742C244.239 88.8711 244.462 88.5859 244.618 88.2188C244.774 87.8516 244.852 87.418 244.852 86.918C244.852 86.418 244.774 85.9844 244.618 85.6172C244.462 85.25 244.239 84.9688 243.95 84.7734C243.669 84.5703 243.329 84.4688 242.931 84.4688C242.532 84.4688 242.188 84.5703 241.899 84.7734C241.618 84.9688 241.399 85.25 241.243 85.6172C241.087 85.9844 241.009 86.418 241.009 86.918C241.009 87.418 241.087 87.8516 241.243 88.2188C241.399 88.5859 241.618 88.8711 241.899 89.0742C242.188 89.2695 242.532 89.3672 242.931 89.3672ZM249.555 90.1406C248.992 90.1406 248.531 89.9844 248.172 89.6719C247.812 89.3594 247.633 88.9531 247.633 88.4531C247.633 87.9453 247.832 87.5273 248.23 87.1992C248.637 86.8633 249.226 86.6211 250 86.4727L250.762 86.332C250.926 86.3008 251.055 86.2617 251.148 86.2148C251.242 86.168 251.308 86.1055 251.348 86.0273C251.387 85.9492 251.406 85.8516 251.406 85.7344C251.406 85.4844 251.344 85.2656 251.219 85.0781C251.094 84.8906 250.922 84.7422 250.703 84.6328C250.484 84.5234 250.234 84.4688 249.953 84.4688C249.547 84.4688 249.191 84.5781 248.887 84.7969C248.59 85.0078 248.402 85.2812 248.324 85.6172L247.445 85.4297C247.508 85.0938 247.656 84.7969 247.89 84.5391C248.133 84.2812 248.433 84.0781 248.793 83.9297C249.152 83.7734 249.543 83.6953 249.965 83.6953C250.426 83.6953 250.836 83.7891 251.195 83.9766C251.555 84.1641 251.836 84.4219 252.039 84.75C252.242 85.0781 252.344 85.457 252.344 85.8867V90H251.5V88.7227L251.711 88.7344C251.578 89.0312 251.402 89.2852 251.183 89.4961C250.973 89.707 250.73 89.8672 250.457 89.9766C250.183 90.0859 249.883 90.1406 249.555 90.1406ZM249.765 89.3672C250.078 89.3672 250.355 89.3008 250.598 89.168C250.848 89.0352 251.043 88.8555 251.183 88.6289C251.332 88.3945 251.406 88.1328 251.406 87.8438V86.5547L251.605 86.7188C251.457 86.8281 251.32 86.9102 251.195 86.9648C251.07 87.0117 250.89 87.0586 250.656 87.1055L249.742 87.293C249.375 87.3711 249.09 87.5039 248.887 87.6914C248.691 87.8789 248.594 88.1094 248.594 88.3828C248.594 88.6797 248.699 88.918 248.91 89.0977C249.121 89.2773 249.406 89.3672 249.765 89.3672ZM254.385 90V83.8359H255.288V85.793L255.135 85.6875C255.245 85.0625 255.503 84.582 255.909 84.2461C256.323 83.9102 256.862 83.7422 257.526 83.7422L257.514 84.6328C257.116 84.5938 256.749 84.6523 256.413 84.8086C256.085 84.9648 255.819 85.1992 255.616 85.5117C255.421 85.8164 255.323 86.1797 255.323 86.6016V90H254.385ZM261.045 90.1406C260.513 90.1406 260.045 90.0039 259.638 89.7305C259.232 89.457 258.912 89.0781 258.677 88.5938C258.451 88.1094 258.337 87.5508 258.337 86.918C258.337 86.4414 258.404 86.0078 258.537 85.6172C258.67 85.2188 258.853 84.8789 259.087 84.5977C259.33 84.3086 259.615 84.0859 259.943 83.9297C260.279 83.7734 260.646 83.6953 261.045 83.6953C261.435 83.6953 261.795 83.7773 262.123 83.9414C262.451 84.0977 262.732 84.3242 262.966 84.6211C263.201 84.9102 263.369 85.2578 263.47 85.6641L263.142 85.8398V81.7031H264.08V90H263.177V88.0078L263.47 88.1719C263.369 88.5781 263.201 88.9297 262.966 89.2266C262.732 89.5234 262.451 89.75 262.123 89.9062C261.802 90.0625 261.443 90.1406 261.045 90.1406ZM261.22 89.3672C261.619 89.3672 261.959 89.2695 262.24 89.0742C262.529 88.8711 262.752 88.5859 262.908 88.2188C263.064 87.8516 263.142 87.418 263.142 86.918C263.142 86.418 263.064 85.9844 262.908 85.6172C262.752 85.25 262.529 84.9688 262.24 84.7734C261.959 84.5703 261.619 84.4688 261.22 84.4688C260.822 84.4688 260.478 84.5703 260.189 84.7734C259.908 84.9688 259.689 85.25 259.533 85.6172C259.377 85.9844 259.298 86.418 259.298 86.918C259.298 87.418 259.377 87.8516 259.533 88.2188C259.689 88.5859 259.908 88.8711 260.189 89.0742C260.478 89.2695 260.822 89.3672 261.22 89.3672Z" fill="#0071CE"/>
</g>
<defs>
<clipPath id="clip0_2174_67808">
<rect width="303" height="20" fill="white" transform="translate(0 76)"/>
</clipPath>
</defs>
</svg>
