<svg width="303" height="96" viewBox="0 0 303 96" fill="none" xmlns="http://www.w3.org/2000/svg">
<g clip-path="url(#clip0_2159_67727)">
<path d="M5.80078 84.2227C5.80078 83.6914 5.63281 83.2734 5.29688 82.9688C4.96875 82.6562 4.50781 82.5 3.91406 82.5H1.59375L2.12109 81.9727V90H1.13672V81.7031H3.99609C4.57422 81.7031 5.07422 81.8086 5.49609 82.0195C5.91797 82.2227 6.24219 82.5156 6.46875 82.8984C6.70312 83.2734 6.82031 83.7188 6.82031 84.2344C6.82031 84.7656 6.70703 85.2227 6.48047 85.6055C6.26172 85.9805 5.94531 86.2695 5.53125 86.4727C5.11719 86.668 4.61719 86.7656 4.03125 86.7656H1.46484V85.9688H3.79688C4.46875 85.9688 4.96875 85.8242 5.29688 85.5352C5.63281 85.2461 5.80078 84.8086 5.80078 84.2227ZM10.0341 90.1406C9.69812 90.1406 9.41297 90.0742 9.17859 89.9414C8.95203 89.8008 8.78016 89.6094 8.66297 89.3672C8.55359 89.1172 8.49891 88.8281 8.49891 88.5V81.7031H9.43641V88.3828C9.43641 88.7031 9.495 88.9492 9.61219 89.1211C9.72937 89.2852 9.90516 89.3672 10.1395 89.3672C10.2255 89.3672 10.3036 89.3594 10.3739 89.3438C10.4442 89.3281 10.5223 89.3047 10.6083 89.2734L10.7723 90C10.538 90.0938 10.2919 90.1406 10.0341 90.1406ZM14.49 90.1406C13.9197 90.1406 13.4119 90.0078 12.9666 89.7422C12.5291 89.4688 12.1853 89.0938 11.9353 88.6172C11.6853 88.1328 11.5603 87.5742 11.5603 86.9414C11.5603 86.4727 11.6267 86.043 11.7595 85.6523C11.8923 85.2539 12.0837 84.9102 12.3337 84.6211C12.5837 84.3242 12.8884 84.0977 13.2478 83.9414C13.6072 83.7773 14.0134 83.6953 14.4666 83.6953C14.9978 83.6953 15.4548 83.8164 15.8377 84.0586C16.2205 84.293 16.5134 84.6133 16.7166 85.0195C16.9197 85.4258 17.0212 85.8906 17.0212 86.4141C17.0212 86.5547 17.0173 86.6797 17.0095 86.7891C17.0017 86.8984 16.9822 87.0195 16.9509 87.1523H11.9119V86.3555H16.3416L16.0955 86.6953C16.1345 86.2812 16.1033 85.9062 16.0017 85.5703C15.9002 85.2344 15.7205 84.9688 15.4627 84.7734C15.2048 84.5703 14.865 84.4688 14.4431 84.4688C14.0369 84.4688 13.6892 84.5742 13.4002 84.7852C13.1111 84.9883 12.8884 85.2734 12.7322 85.6406C12.5759 86 12.4978 86.4141 12.4978 86.8828C12.4978 87.375 12.5759 87.8086 12.7322 88.1836C12.8962 88.5508 13.1267 88.8398 13.4236 89.0508C13.7283 89.2617 14.0955 89.3672 14.5252 89.3672C14.9392 89.3672 15.2908 89.2773 15.5798 89.0977C15.8689 88.9102 16.0837 88.6445 16.2244 88.3008L17.115 88.5117C16.9197 89.0039 16.5955 89.3984 16.1423 89.6953C15.697 89.9922 15.1462 90.1406 14.49 90.1406ZM20.5514 90.1406C19.9889 90.1406 19.528 89.9844 19.1686 89.6719C18.8092 89.3594 18.6295 88.9531 18.6295 88.4531C18.6295 87.9453 18.8288 87.5273 19.2272 87.1992C19.6334 86.8633 20.2233 86.6211 20.9967 86.4727L21.7584 86.332C21.9225 86.3008 22.0514 86.2617 22.1452 86.2148C22.2389 86.168 22.3053 86.1055 22.3444 86.0273C22.3834 85.9492 22.403 85.8516 22.403 85.7344C22.403 85.4844 22.3405 85.2656 22.2155 85.0781C22.0905 84.8906 21.9186 84.7422 21.6998 84.6328C21.4811 84.5234 21.2311 84.4688 20.9498 84.4688C20.5436 84.4688 20.1881 84.5781 19.8834 84.7969C19.5866 85.0078 19.3991 85.2812 19.3209 85.6172L18.442 85.4297C18.5045 85.0938 18.653 84.7969 18.8873 84.5391C19.1295 84.2812 19.4303 84.0781 19.7897 83.9297C20.1491 83.7734 20.5397 83.6953 20.9616 83.6953C21.4225 83.6953 21.8327 83.7891 22.192 83.9766C22.5514 84.1641 22.8327 84.4219 23.0358 84.75C23.2389 85.0781 23.3405 85.457 23.3405 85.8867V90H22.4967V88.7227L22.7077 88.7344C22.5748 89.0312 22.3991 89.2852 22.1803 89.4961C21.9694 89.707 21.7272 89.8672 21.4538 89.9766C21.1803 90.0859 20.8795 90.1406 20.5514 90.1406ZM20.7623 89.3672C21.0748 89.3672 21.3522 89.3008 21.5944 89.168C21.8444 89.0352 22.0397 88.8555 22.1803 88.6289C22.3288 88.3945 22.403 88.1328 22.403 87.8438V86.5547L22.6022 86.7188C22.4538 86.8281 22.317 86.9102 22.192 86.9648C22.067 87.0117 21.8873 87.0586 21.653 87.1055L20.7389 87.293C20.3717 87.3711 20.0866 87.5039 19.8834 87.6914C19.6881 87.8789 19.5905 88.1094 19.5905 88.3828C19.5905 88.6797 19.6959 88.918 19.9069 89.0977C20.1178 89.2773 20.403 89.3672 20.7623 89.3672ZM27.398 90.1406C26.9527 90.1406 26.5464 90.0742 26.1792 89.9414C25.8198 89.8086 25.5191 89.6211 25.2769 89.3789C25.0425 89.1289 24.8862 88.8359 24.8081 88.5L25.6519 88.3359C25.7691 88.6719 25.9761 88.9297 26.273 89.1094C26.5698 89.2812 26.9409 89.3672 27.3862 89.3672C27.8472 89.3672 28.2027 89.2773 28.4527 89.0977C28.7105 88.9102 28.8394 88.6445 28.8394 88.3008C28.8394 88.043 28.7573 87.8359 28.5933 87.6797C28.4292 87.5234 28.187 87.418 27.8667 87.3633L26.8589 87.1992C26.3355 87.1133 25.9292 86.918 25.6402 86.6133C25.3511 86.3086 25.2066 85.9297 25.2066 85.4766C25.2066 85.125 25.2964 84.8164 25.4761 84.5508C25.6636 84.2773 25.9175 84.0664 26.2378 83.918C26.5659 83.7695 26.9409 83.6953 27.3628 83.6953C27.73 83.6953 28.0581 83.7578 28.3472 83.8828C28.6441 84.0078 28.8902 84.1875 29.0855 84.4219C29.2808 84.6562 29.4097 84.9375 29.4722 85.2656L28.6519 85.4062C28.5659 85.0859 28.4136 84.8477 28.1948 84.6914C27.9761 84.5273 27.6948 84.4453 27.3511 84.4453C26.9683 84.4453 26.6714 84.5312 26.4605 84.7031C26.2495 84.8672 26.1441 85.1094 26.1441 85.4297C26.1441 85.7188 26.2339 85.9375 26.4136 86.0859C26.5933 86.2344 26.8667 86.3398 27.2339 86.4023L27.9487 86.5195C28.5581 86.6211 29.0191 86.8203 29.3316 87.1172C29.6441 87.4141 29.8003 87.793 29.8003 88.2539C29.8003 88.6367 29.6987 88.9727 29.4956 89.2617C29.3003 89.543 29.023 89.7617 28.6636 89.918C28.3042 90.0664 27.8823 90.1406 27.398 90.1406ZM34.0102 90.1406C33.4398 90.1406 32.932 90.0078 32.4867 89.7422C32.0492 89.4688 31.7055 89.0938 31.4555 88.6172C31.2055 88.1328 31.0805 87.5742 31.0805 86.9414C31.0805 86.4727 31.1469 86.043 31.2797 85.6523C31.4125 85.2539 31.6039 84.9102 31.8539 84.6211C32.1039 84.3242 32.4086 84.0977 32.768 83.9414C33.1273 83.7773 33.5336 83.6953 33.9867 83.6953C34.518 83.6953 34.975 83.8164 35.3578 84.0586C35.7406 84.293 36.0336 84.6133 36.2367 85.0195C36.4398 85.4258 36.5414 85.8906 36.5414 86.4141C36.5414 86.5547 36.5375 86.6797 36.5297 86.7891C36.5219 86.8984 36.5023 87.0195 36.4711 87.1523H31.432V86.3555H35.8617L35.6156 86.6953C35.6547 86.2812 35.6234 85.9062 35.5219 85.5703C35.4203 85.2344 35.2406 84.9688 34.9828 84.7734C34.725 84.5703 34.3852 84.4688 33.9633 84.4688C33.557 84.4688 33.2094 84.5742 32.9203 84.7852C32.6313 84.9883 32.4086 85.2734 32.2523 85.6406C32.0961 86 32.018 86.4141 32.018 86.8828C32.018 87.375 32.0961 87.8086 32.2523 88.1836C32.4164 88.5508 32.6469 88.8398 32.9438 89.0508C33.2484 89.2617 33.6156 89.3672 34.0453 89.3672C34.4594 89.3672 34.8109 89.2773 35.1 89.0977C35.3891 88.9102 35.6039 88.6445 35.7445 88.3008L36.6352 88.5117C36.4398 89.0039 36.1156 89.3984 35.6625 89.6953C35.2172 89.9922 34.6664 90.1406 34.0102 90.1406ZM43.4728 90.1406C42.9416 90.1406 42.4728 90.0039 42.0666 89.7305C41.6603 89.457 41.34 89.0781 41.1056 88.5938C40.8791 88.1094 40.7658 87.5508 40.7658 86.918C40.7658 86.4414 40.8322 86.0078 40.965 85.6172C41.0978 85.2188 41.2814 84.8789 41.5158 84.5977C41.758 84.3086 42.0431 84.0859 42.3713 83.9297C42.7072 83.7734 43.0744 83.6953 43.4728 83.6953C43.8634 83.6953 44.2228 83.7773 44.5509 83.9414C44.8791 84.0977 45.1603 84.3242 45.3947 84.6211C45.6291 84.9102 45.797 85.2578 45.8986 85.6641L45.5705 85.8398V81.7031H46.508V90H45.6056V88.0078L45.8986 88.1719C45.797 88.5781 45.6291 88.9297 45.3947 89.2266C45.1603 89.5234 44.8791 89.75 44.5509 89.9062C44.2306 90.0625 43.8713 90.1406 43.4728 90.1406ZM43.6486 89.3672C44.047 89.3672 44.3869 89.2695 44.6681 89.0742C44.9572 88.8711 45.1798 88.5859 45.3361 88.2188C45.4923 87.8516 45.5705 87.418 45.5705 86.918C45.5705 86.418 45.4923 85.9844 45.3361 85.6172C45.1798 85.25 44.9572 84.9688 44.6681 84.7734C44.3869 84.5703 44.047 84.4688 43.6486 84.4688C43.2502 84.4688 42.9064 84.5703 42.6173 84.7734C42.3361 84.9688 42.1173 85.25 41.9611 85.6172C41.8048 85.9844 41.7267 86.418 41.7267 86.918C41.7267 87.418 41.8048 87.8516 41.9611 88.2188C42.1173 88.5859 42.3361 88.8711 42.6173 89.0742C42.9064 89.2695 43.2502 89.3672 43.6486 89.3672ZM51.0577 90.1406C50.4795 90.1406 49.9717 90.0078 49.5342 89.7422C49.0967 89.4688 48.7569 89.0898 48.5147 88.6055C48.2803 88.1211 48.1631 87.5586 48.1631 86.918C48.1631 86.2695 48.2842 85.707 48.5264 85.2305C48.7686 84.7461 49.1045 84.3711 49.5342 84.1055C49.9717 83.832 50.4795 83.6953 51.0577 83.6953C51.6358 83.6953 52.1397 83.832 52.5694 84.1055C53.0069 84.3711 53.3467 84.7461 53.5889 85.2305C53.8311 85.707 53.9522 86.2695 53.9522 86.918C53.9522 87.4023 53.8819 87.8438 53.7412 88.2422C53.6084 88.6328 53.4131 88.9727 53.1553 89.2617C52.9053 89.543 52.6006 89.7617 52.2412 89.918C51.8897 90.0664 51.4952 90.1406 51.0577 90.1406ZM51.0577 89.3672C51.4639 89.3672 51.8116 89.2695 52.1006 89.0742C52.3897 88.8789 52.6084 88.6016 52.7569 88.2422C52.9131 87.875 52.9912 87.4336 52.9912 86.918C52.9912 86.4023 52.9131 85.9648 52.7569 85.6055C52.6006 85.2383 52.378 84.957 52.0889 84.7617C51.8077 84.5664 51.4639 84.4688 51.0577 84.4688C50.6592 84.4688 50.3155 84.5664 50.0264 84.7617C49.7373 84.957 49.5147 85.2383 49.3584 85.6055C49.2022 85.9648 49.1241 86.4023 49.1241 86.918C49.1241 87.4336 49.1983 87.875 49.3467 88.2422C49.503 88.6016 49.7256 88.8789 50.0147 89.0742C50.3037 89.2695 50.6514 89.3672 51.0577 89.3672ZM57.6581 90.1406C57.2519 90.1406 56.8886 90.0508 56.5683 89.8711C56.248 89.6836 55.9941 89.4297 55.8066 89.1094C55.6269 88.7812 55.537 88.4062 55.537 87.9844V83.8359H56.4745V87.7383C56.4745 88.0898 56.5331 88.3867 56.6503 88.6289C56.7753 88.8711 56.9394 89.0547 57.1425 89.1797C57.3534 89.3047 57.5917 89.3672 57.8573 89.3672C58.1777 89.3672 58.4706 89.2852 58.7363 89.1211C59.0019 88.9492 59.2128 88.7266 59.3691 88.4531C59.5331 88.1719 59.6152 87.8672 59.6152 87.5391V83.8359H60.5527V90H59.6386V88.3242L59.9433 88.5C59.8105 88.8438 59.6269 89.1406 59.3925 89.3906C59.1581 89.6328 58.8925 89.8203 58.5956 89.9531C58.3066 90.0781 57.9941 90.1406 57.6581 90.1406ZM65.7 90.1406C65.3094 90.1406 64.95 90.0625 64.6219 89.9062C64.2938 89.75 64.0125 89.5234 63.7781 89.2266C63.5516 88.9297 63.3836 88.5781 63.2742 88.1719L63.5672 88.0078V90H62.6648V81.7031H63.6023V85.8398L63.2742 85.6641C63.3836 85.2578 63.5516 84.9102 63.7781 84.6211C64.0125 84.3242 64.2938 84.0977 64.6219 83.9414C64.95 83.7773 65.3094 83.6953 65.7 83.6953C66.2313 83.6953 66.7 83.832 67.1063 84.1055C67.5125 84.3789 67.8289 84.7578 68.0555 85.2422C68.2898 85.7188 68.407 86.2773 68.407 86.918C68.407 87.3945 68.3406 87.832 68.2078 88.2305C68.075 88.6211 67.8875 88.9609 67.6453 89.25C67.4109 89.5312 67.1258 89.75 66.7898 89.9062C66.4617 90.0625 66.0984 90.1406 65.7 90.1406ZM65.5242 89.3672C65.9227 89.3672 66.2625 89.2695 66.5438 89.0742C66.8328 88.8711 67.0555 88.5859 67.2117 88.2188C67.368 87.8516 67.4461 87.418 67.4461 86.918C67.4461 86.4102 67.368 85.9766 67.2117 85.6172C67.0555 85.25 66.8328 84.9688 66.5438 84.7734C66.2625 84.5703 65.9227 84.4688 65.5242 84.4688C65.1336 84.4688 64.7938 84.5703 64.5047 84.7734C64.2156 84.9688 63.993 85.25 63.8367 85.6172C63.6805 85.9766 63.6023 86.4102 63.6023 86.918C63.6023 87.418 63.6805 87.8516 63.8367 88.2188C63.993 88.5859 64.2156 88.8711 64.5047 89.0742C64.7938 89.2695 65.1336 89.3672 65.5242 89.3672ZM71.5973 90.1406C71.2614 90.1406 70.9762 90.0742 70.7419 89.9414C70.5153 89.8008 70.3434 89.6094 70.2262 89.3672C70.1169 89.1172 70.0622 88.8281 70.0622 88.5V81.7031H70.9997V88.3828C70.9997 88.7031 71.0583 88.9492 71.1755 89.1211C71.2927 89.2852 71.4684 89.3672 71.7028 89.3672C71.7887 89.3672 71.8669 89.3594 71.9372 89.3438C72.0075 89.3281 72.0856 89.3047 72.1716 89.2734L72.3356 90C72.1012 90.0938 71.8552 90.1406 71.5973 90.1406ZM76.0533 90.1406C75.483 90.1406 74.9752 90.0078 74.5298 89.7422C74.0923 89.4688 73.7486 89.0938 73.4986 88.6172C73.2486 88.1328 73.1236 87.5742 73.1236 86.9414C73.1236 86.4727 73.19 86.043 73.3228 85.6523C73.4556 85.2539 73.647 84.9102 73.897 84.6211C74.147 84.3242 74.4517 84.0977 74.8111 83.9414C75.1705 83.7773 75.5767 83.6953 76.0298 83.6953C76.5611 83.6953 77.0181 83.8164 77.4009 84.0586C77.7838 84.293 78.0767 84.6133 78.2798 85.0195C78.483 85.4258 78.5845 85.8906 78.5845 86.4141C78.5845 86.5547 78.5806 86.6797 78.5728 86.7891C78.565 86.8984 78.5455 87.0195 78.5142 87.1523H73.4752V86.3555H77.9048L77.6588 86.6953C77.6978 86.2812 77.6666 85.9062 77.565 85.5703C77.4634 85.2344 77.2838 84.9688 77.0259 84.7734C76.7681 84.5703 76.4283 84.4688 76.0064 84.4688C75.6002 84.4688 75.2525 84.5742 74.9634 84.7852C74.6744 84.9883 74.4517 85.2734 74.2955 85.6406C74.1392 86 74.0611 86.4141 74.0611 86.8828C74.0611 87.375 74.1392 87.8086 74.2955 88.1836C74.4595 88.5508 74.69 88.8398 74.9869 89.0508C75.2916 89.2617 75.6588 89.3672 76.0884 89.3672C76.5025 89.3672 76.8541 89.2773 77.1431 89.0977C77.4322 88.9102 77.647 88.6445 77.7877 88.3008L78.6783 88.5117C78.483 89.0039 78.1588 89.3984 77.7056 89.6953C77.2603 89.9922 76.7095 90.1406 76.0533 90.1406ZM85.7034 90.1406C85.1175 90.1406 84.6058 90.0117 84.1683 89.7539C83.7386 89.4961 83.4027 89.1328 83.1605 88.6641C82.9261 88.1875 82.8089 87.6328 82.8089 87C82.8089 86.3516 82.93 85.7812 83.1722 85.2891C83.4222 84.7891 83.7698 84.3984 84.2152 84.1172C84.6605 83.8359 85.18 83.6953 85.7738 83.6953C86.2034 83.6953 86.5941 83.7734 86.9456 83.9297C87.2972 84.0781 87.5941 84.2969 87.8363 84.5859C88.0784 84.8672 88.2542 85.2109 88.3636 85.6172L87.4847 85.8047C87.3519 85.3672 87.1488 85.0352 86.8753 84.8086C86.6019 84.582 86.2503 84.4688 85.8206 84.4688C85.3988 84.4688 85.0355 84.5742 84.7308 84.7852C84.4261 84.9883 84.1878 85.2734 84.0159 85.6406C83.8519 86.0078 83.7698 86.4336 83.7698 86.918C83.7698 87.4023 83.8519 87.8281 84.0159 88.1953C84.18 88.5625 84.4105 88.8516 84.7073 89.0625C85.0042 89.2656 85.348 89.3672 85.7386 89.3672C86.1527 89.3672 86.4964 89.25 86.7698 89.0156C87.0433 88.7812 87.2425 88.4375 87.3675 87.9844L88.2464 88.1719C88.1058 88.8047 87.8167 89.293 87.3792 89.6367C86.9417 89.9727 86.3831 90.1406 85.7034 90.1406ZM89.925 90V81.7031H90.8625V85.7227L90.5344 85.5469C90.675 85.1953 90.8586 84.8984 91.0852 84.6562C91.3195 84.4141 91.5852 84.2305 91.882 84.1055C92.1789 83.9727 92.4914 83.9062 92.8195 83.9062C93.2258 83.9062 93.5891 84 93.9094 84.1875C94.2297 84.3672 94.4797 84.6211 94.6594 84.9492C94.8469 85.2695 94.9406 85.6406 94.9406 86.0625V90H94.0031V86.3086C94.0031 85.9727 93.9445 85.6875 93.8273 85.4531C93.7102 85.2188 93.5461 85.0391 93.3352 84.9141C93.132 84.7891 92.8938 84.7266 92.6203 84.7266C92.3078 84.7266 92.0148 84.8086 91.7414 84.9727C91.4758 85.1367 91.2609 85.3555 91.0969 85.6289C90.9406 85.8945 90.8625 86.1875 90.8625 86.5078V90H89.925ZM99.4552 90.1406C98.8848 90.1406 98.377 90.0078 97.9317 89.7422C97.4942 89.4688 97.1505 89.0938 96.9005 88.6172C96.6505 88.1328 96.5255 87.5742 96.5255 86.9414C96.5255 86.4727 96.5919 86.043 96.7247 85.6523C96.8575 85.2539 97.0489 84.9102 97.2989 84.6211C97.5489 84.3242 97.8536 84.0977 98.213 83.9414C98.5723 83.7773 98.9786 83.6953 99.4317 83.6953C99.963 83.6953 100.42 83.8164 100.803 84.0586C101.186 84.293 101.479 84.6133 101.682 85.0195C101.885 85.4258 101.986 85.8906 101.986 86.4141C101.986 86.5547 101.982 86.6797 101.975 86.7891C101.967 86.8984 101.947 87.0195 101.916 87.1523H96.877V86.3555H101.307L101.061 86.6953C101.1 86.2812 101.068 85.9062 100.967 85.5703C100.865 85.2344 100.686 84.9688 100.428 84.7734C100.17 84.5703 99.8302 84.4688 99.4083 84.4688C99.002 84.4688 98.6544 84.5742 98.3653 84.7852C98.0762 84.9883 97.8536 85.2734 97.6973 85.6406C97.5411 86 97.463 86.4141 97.463 86.8828C97.463 87.375 97.5411 87.8086 97.6973 88.1836C97.8614 88.5508 98.0919 88.8398 98.3887 89.0508C98.6934 89.2617 99.0606 89.3672 99.4903 89.3672C99.9044 89.3672 100.256 89.2773 100.545 89.0977C100.834 88.9102 101.049 88.6445 101.19 88.3008L102.08 88.5117C101.885 89.0039 101.561 89.3984 101.107 89.6953C100.662 89.9922 100.111 90.1406 99.4552 90.1406ZM106.267 90.1406C105.681 90.1406 105.169 90.0117 104.731 89.7539C104.302 89.4961 103.966 89.1328 103.724 88.6641C103.489 88.1875 103.372 87.6328 103.372 87C103.372 86.3516 103.493 85.7812 103.735 85.2891C103.985 84.7891 104.333 84.3984 104.778 84.1172C105.224 83.8359 105.743 83.6953 106.337 83.6953C106.767 83.6953 107.157 83.7734 107.509 83.9297C107.86 84.0781 108.157 84.2969 108.399 84.5859C108.642 84.8672 108.817 85.2109 108.927 85.6172L108.048 85.8047C107.915 85.3672 107.712 85.0352 107.438 84.8086C107.165 84.582 106.813 84.4688 106.384 84.4688C105.962 84.4688 105.599 84.5742 105.294 84.7852C104.989 84.9883 104.751 85.2734 104.579 85.6406C104.415 86.0078 104.333 86.4336 104.333 86.918C104.333 87.4023 104.415 87.8281 104.579 88.1953C104.743 88.5625 104.974 88.8516 105.27 89.0625C105.567 89.2656 105.911 89.3672 106.302 89.3672C106.716 89.3672 107.06 89.25 107.333 89.0156C107.606 88.7812 107.806 88.4375 107.931 87.9844L108.81 88.1719C108.669 88.8047 108.38 89.293 107.942 89.6367C107.505 89.9727 106.946 90.1406 106.267 90.1406ZM110.488 81.7031H111.426V90H110.488V81.7031ZM114.156 83.8359H115.281L112.269 86.6953L115.363 90H114.203L111.121 86.7188L114.156 83.8359ZM119.998 92.4609L121.298 89.3789L118.884 83.8359H119.845L122.06 88.9805L121.439 89.0273L123.619 83.8359H124.58L120.959 92.4609H119.998ZM128.204 90.1406C127.625 90.1406 127.118 90.0078 126.68 89.7422C126.243 89.4688 125.903 89.0898 125.661 88.6055C125.426 88.1211 125.309 87.5586 125.309 86.918C125.309 86.2695 125.43 85.707 125.672 85.2305C125.915 84.7461 126.25 84.3711 126.68 84.1055C127.118 83.832 127.625 83.6953 128.204 83.6953C128.782 83.6953 129.286 83.832 129.715 84.1055C130.153 84.3711 130.493 84.7461 130.735 85.2305C130.977 85.707 131.098 86.2695 131.098 86.918C131.098 87.4023 131.028 87.8438 130.887 88.2422C130.754 88.6328 130.559 88.9727 130.301 89.2617C130.051 89.543 129.747 89.7617 129.387 89.918C129.036 90.0664 128.641 90.1406 128.204 90.1406ZM128.204 89.3672C128.61 89.3672 128.957 89.2695 129.247 89.0742C129.536 88.8789 129.754 88.6016 129.903 88.2422C130.059 87.875 130.137 87.4336 130.137 86.918C130.137 86.4023 130.059 85.9648 129.903 85.6055C129.747 85.2383 129.524 84.957 129.235 84.7617C128.954 84.5664 128.61 84.4688 128.204 84.4688C127.805 84.4688 127.461 84.5664 127.172 84.7617C126.883 84.957 126.661 85.2383 126.504 85.6055C126.348 85.9648 126.27 86.4023 126.27 86.918C126.27 87.4336 126.344 87.875 126.493 88.2422C126.649 88.6016 126.872 88.8789 127.161 89.0742C127.45 89.2695 127.797 89.3672 128.204 89.3672ZM134.804 90.1406C134.398 90.1406 134.035 90.0508 133.714 89.8711C133.394 89.6836 133.14 89.4297 132.952 89.1094C132.773 88.7812 132.683 88.4062 132.683 87.9844V83.8359H133.62V87.7383C133.62 88.0898 133.679 88.3867 133.796 88.6289C133.921 88.8711 134.085 89.0547 134.288 89.1797C134.499 89.3047 134.738 89.3672 135.003 89.3672C135.324 89.3672 135.617 89.2852 135.882 89.1211C136.148 88.9492 136.359 88.7266 136.515 88.4531C136.679 88.1719 136.761 87.8672 136.761 87.5391V83.8359H137.699V90H136.785V88.3242L137.089 88.5C136.956 88.8438 136.773 89.1406 136.538 89.3906C136.304 89.6328 136.038 89.8203 135.742 89.9531C135.452 90.0781 135.14 90.1406 134.804 90.1406ZM139.811 90V83.8359H140.713V85.793L140.561 85.6875C140.67 85.0625 140.928 84.582 141.334 84.2461C141.748 83.9102 142.287 83.7422 142.951 83.7422L142.94 84.6328C142.541 84.5938 142.174 84.6523 141.838 84.8086C141.51 84.9648 141.244 85.1992 141.041 85.5117C140.846 85.8164 140.748 86.1797 140.748 86.6016V90H139.811Z" fill="#707577"/>
<path d="M147.258 92.3672V83.8359H148.16V85.8281L147.867 85.6641C147.977 85.25 148.145 84.8984 148.371 84.6094C148.605 84.3125 148.887 84.0859 149.215 83.9297C149.543 83.7734 149.902 83.6953 150.293 83.6953C150.824 83.6953 151.293 83.832 151.699 84.1055C152.105 84.3789 152.422 84.7578 152.648 85.2422C152.883 85.7188 153 86.2773 153 86.918C153 87.3945 152.934 87.832 152.801 88.2305C152.668 88.6211 152.48 88.9609 152.238 89.25C152.004 89.5312 151.719 89.75 151.383 89.9062C151.055 90.0625 150.691 90.1406 150.293 90.1406C149.902 90.1406 149.543 90.0625 149.215 89.9062C148.887 89.7422 148.605 89.5156 148.371 89.2266C148.145 88.9297 147.977 88.5781 147.867 88.1719L148.195 87.9961V92.3672H147.258ZM150.117 89.3672C150.516 89.3672 150.855 89.2695 151.137 89.0742C151.426 88.8711 151.648 88.5859 151.805 88.2188C151.961 87.8516 152.039 87.418 152.039 86.918C152.039 86.4102 151.961 85.9766 151.805 85.6172C151.648 85.25 151.426 84.9688 151.137 84.7734C150.855 84.5703 150.516 84.4688 150.117 84.4688C149.727 84.4688 149.387 84.5703 149.098 84.7734C148.809 84.9688 148.586 85.25 148.43 85.6172C148.273 85.9766 148.195 86.4102 148.195 86.918C148.195 87.418 148.273 87.8516 148.43 88.2188C148.586 88.5859 148.809 88.8711 149.098 89.0742C149.387 89.2695 149.727 89.3672 150.117 89.3672ZM154.655 90V81.7031H155.593V85.7227L155.265 85.5469C155.405 85.1953 155.589 84.8984 155.815 84.6562C156.05 84.4141 156.315 84.2305 156.612 84.1055C156.909 83.9727 157.222 83.9062 157.55 83.9062C157.956 83.9062 158.319 84 158.64 84.1875C158.96 84.3672 159.21 84.6211 159.39 84.9492C159.577 85.2695 159.671 85.6406 159.671 86.0625V90H158.733V86.3086C158.733 85.9727 158.675 85.6875 158.557 85.4531C158.44 85.2188 158.276 85.0391 158.065 84.9141C157.862 84.7891 157.624 84.7266 157.35 84.7266C157.038 84.7266 156.745 84.8086 156.472 84.9727C156.206 85.1367 155.991 85.3555 155.827 85.6289C155.671 85.8945 155.593 86.1875 155.593 86.5078V90H154.655ZM164.15 90.1406C163.572 90.1406 163.064 90.0078 162.627 89.7422C162.189 89.4688 161.849 89.0898 161.607 88.6055C161.373 88.1211 161.256 87.5586 161.256 86.918C161.256 86.2695 161.377 85.707 161.619 85.2305C161.861 84.7461 162.197 84.3711 162.627 84.1055C163.064 83.832 163.572 83.6953 164.15 83.6953C164.728 83.6953 165.232 83.832 165.662 84.1055C166.099 84.3711 166.439 84.7461 166.681 85.2305C166.924 85.707 167.045 86.2695 167.045 86.918C167.045 87.4023 166.974 87.8438 166.834 88.2422C166.701 88.6328 166.506 88.9727 166.248 89.2617C165.998 89.543 165.693 89.7617 165.334 89.918C164.982 90.0664 164.588 90.1406 164.15 90.1406ZM164.15 89.3672C164.556 89.3672 164.904 89.2695 165.193 89.0742C165.482 88.8789 165.701 88.6016 165.849 88.2422C166.006 87.875 166.084 87.4336 166.084 86.918C166.084 86.4023 166.006 85.9648 165.849 85.6055C165.693 85.2383 165.47 84.957 165.181 84.7617C164.9 84.5664 164.556 84.4688 164.15 84.4688C163.752 84.4688 163.408 84.5664 163.119 84.7617C162.83 84.957 162.607 85.2383 162.451 85.6055C162.295 85.9648 162.217 86.4023 162.217 86.918C162.217 87.4336 162.291 87.875 162.439 88.2422C162.595 88.6016 162.818 88.8789 163.107 89.0742C163.396 89.2695 163.744 89.3672 164.15 89.3672ZM170.88 90.0938C170.505 90.0938 170.18 90.0234 169.907 89.8828C169.641 89.7344 169.438 89.5195 169.298 89.2383C169.157 88.957 169.087 88.6211 169.087 88.2305V82.2422L170.024 81.9141V88.1016C170.024 88.4844 170.11 88.7773 170.282 88.9805C170.454 89.1758 170.704 89.2734 171.032 89.2734C171.18 89.2734 171.301 89.2656 171.395 89.25C171.497 89.2344 171.606 89.207 171.723 89.168L171.923 89.8945C171.719 89.9727 171.544 90.0234 171.395 90.0469C171.255 90.0781 171.083 90.0938 170.88 90.0938ZM168.008 84.6562V83.8359H171.817V84.6562H168.008ZM175.71 90.1406C175.132 90.1406 174.625 90.0078 174.187 89.7422C173.75 89.4688 173.41 89.0898 173.167 88.6055C172.933 88.1211 172.816 87.5586 172.816 86.918C172.816 86.2695 172.937 85.707 173.179 85.2305C173.421 84.7461 173.757 84.3711 174.187 84.1055C174.625 83.832 175.132 83.6953 175.71 83.6953C176.289 83.6953 176.792 83.832 177.222 84.1055C177.66 84.3711 178 84.7461 178.242 85.2305C178.484 85.707 178.605 86.2695 178.605 86.918C178.605 87.4023 178.535 87.8438 178.394 88.2422C178.261 88.6328 178.066 88.9727 177.808 89.2617C177.558 89.543 177.253 89.7617 176.894 89.918C176.542 90.0664 176.148 90.1406 175.71 90.1406ZM175.71 89.3672C176.117 89.3672 176.464 89.2695 176.753 89.0742C177.042 88.8789 177.261 88.6016 177.41 88.2422C177.566 87.875 177.644 87.4336 177.644 86.918C177.644 86.4023 177.566 85.9648 177.41 85.6055C177.253 85.2383 177.031 84.957 176.742 84.7617C176.46 84.5664 176.117 84.4688 175.71 84.4688C175.312 84.4688 174.968 84.5664 174.679 84.7617C174.39 84.957 174.167 85.2383 174.011 85.6055C173.855 85.9648 173.777 86.4023 173.777 86.918C173.777 87.4336 173.851 87.875 174 88.2422C174.156 88.6016 174.378 88.8789 174.667 89.0742C174.957 89.2695 175.304 89.3672 175.71 89.3672ZM187.587 92.3672V87.9961L187.915 88.1719C187.814 88.5781 187.646 88.9297 187.411 89.2266C187.177 89.5156 186.896 89.7422 186.568 89.9062C186.24 90.0625 185.88 90.1406 185.49 90.1406C184.958 90.1406 184.49 90.0039 184.083 89.7305C183.677 89.457 183.357 89.0781 183.122 88.5938C182.896 88.1094 182.783 87.5508 182.783 86.918C182.783 86.4414 182.849 86.0078 182.982 85.6172C183.115 85.2188 183.298 84.8789 183.533 84.5977C183.775 84.3086 184.06 84.0859 184.388 83.9297C184.724 83.7734 185.091 83.6953 185.49 83.6953C185.888 83.6953 186.247 83.7734 186.568 83.9297C186.896 84.0859 187.177 84.3125 187.411 84.6094C187.646 84.8984 187.814 85.25 187.915 85.6641L187.622 85.8281V83.8359H188.525V92.3672H187.587ZM185.665 89.3672C186.064 89.3672 186.404 89.2695 186.685 89.0742C186.974 88.8711 187.197 88.5859 187.353 88.2188C187.509 87.8516 187.587 87.418 187.587 86.918C187.587 86.4102 187.509 85.9727 187.353 85.6055C187.197 85.2383 186.974 84.957 186.685 84.7617C186.404 84.5664 186.064 84.4688 185.665 84.4688C185.267 84.4688 184.923 84.5664 184.634 84.7617C184.353 84.957 184.134 85.2383 183.978 85.6055C183.822 85.9727 183.743 86.4102 183.743 86.918C183.743 87.418 183.822 87.8516 183.978 88.2188C184.134 88.5859 184.353 88.8711 184.634 89.0742C184.923 89.2695 185.267 89.3672 185.665 89.3672ZM192.688 90.1406C192.281 90.1406 191.918 90.0508 191.598 89.8711C191.277 89.6836 191.024 89.4297 190.836 89.1094C190.656 88.7812 190.567 88.4062 190.567 87.9844V83.8359H191.504V87.7383C191.504 88.0898 191.563 88.3867 191.68 88.6289C191.805 88.8711 191.969 89.0547 192.172 89.1797C192.383 89.3047 192.621 89.3672 192.887 89.3672C193.207 89.3672 193.5 89.2852 193.766 89.1211C194.031 88.9492 194.242 88.7266 194.399 88.4531C194.563 88.1719 194.645 87.8672 194.645 87.5391V83.8359H195.582V90H194.668V88.3242L194.973 88.5C194.84 88.8438 194.656 89.1406 194.422 89.3906C194.188 89.6328 193.922 89.8203 193.625 89.9531C193.336 90.0781 193.024 90.1406 192.688 90.1406ZM199.347 90.1406C198.784 90.1406 198.323 89.9844 197.964 89.6719C197.605 89.3594 197.425 88.9531 197.425 88.4531C197.425 87.9453 197.624 87.5273 198.023 87.1992C198.429 86.8633 199.019 86.6211 199.792 86.4727L200.554 86.332C200.718 86.3008 200.847 86.2617 200.94 86.2148C201.034 86.168 201.101 86.1055 201.14 86.0273C201.179 85.9492 201.198 85.8516 201.198 85.7344C201.198 85.4844 201.136 85.2656 201.011 85.0781C200.886 84.8906 200.714 84.7422 200.495 84.6328C200.276 84.5234 200.026 84.4688 199.745 84.4688C199.339 84.4688 198.983 84.5781 198.679 84.7969C198.382 85.0078 198.194 85.2812 198.116 85.6172L197.237 85.4297C197.3 85.0938 197.448 84.7969 197.683 84.5391C197.925 84.2812 198.226 84.0781 198.585 83.9297C198.944 83.7734 199.335 83.6953 199.757 83.6953C200.218 83.6953 200.628 83.7891 200.987 83.9766C201.347 84.1641 201.628 84.4219 201.831 84.75C202.034 85.0781 202.136 85.457 202.136 85.8867V90H201.292V88.7227L201.503 88.7344C201.37 89.0312 201.194 89.2852 200.976 89.4961C200.765 89.707 200.523 89.8672 200.249 89.9766C199.976 90.0859 199.675 90.1406 199.347 90.1406ZM199.558 89.3672C199.87 89.3672 200.148 89.3008 200.39 89.168C200.64 89.0352 200.835 88.8555 200.976 88.6289C201.124 88.3945 201.198 88.1328 201.198 87.8438V86.5547L201.398 86.7188C201.249 86.8281 201.112 86.9102 200.987 86.9648C200.862 87.0117 200.683 87.0586 200.448 87.1055L199.534 87.293C199.167 87.3711 198.882 87.5039 198.679 87.6914C198.483 87.8789 198.386 88.1094 198.386 88.3828C198.386 88.6797 198.491 88.918 198.702 89.0977C198.913 89.2773 199.198 89.3672 199.558 89.3672ZM205.666 90.1406C205.33 90.1406 205.045 90.0742 204.81 89.9414C204.584 89.8008 204.412 89.6094 204.295 89.3672C204.185 89.1172 204.131 88.8281 204.131 88.5V81.7031H205.068V88.3828C205.068 88.7031 205.127 88.9492 205.244 89.1211C205.361 89.2852 205.537 89.3672 205.771 89.3672C205.857 89.3672 205.935 89.3594 206.006 89.3438C206.076 89.3281 206.154 89.3047 206.24 89.2734L206.404 90C206.17 90.0938 205.924 90.1406 205.666 90.1406ZM207.778 90V83.8359H208.716V90H207.778ZM208.247 82.8281C208.044 82.8281 207.872 82.7578 207.731 82.6172C207.591 82.4766 207.52 82.3047 207.52 82.1016C207.52 81.8984 207.591 81.7266 207.731 81.5859C207.872 81.4453 208.044 81.375 208.247 81.375C208.45 81.375 208.622 81.4453 208.762 81.5859C208.903 81.7266 208.973 81.8984 208.973 82.1016C208.973 82.3047 208.903 82.4766 208.762 82.6172C208.622 82.7578 208.45 82.8281 208.247 82.8281ZM213.066 90.0938C212.691 90.0938 212.367 90.0234 212.093 89.8828C211.828 89.7344 211.625 89.5195 211.484 89.2383C211.343 88.957 211.273 88.6211 211.273 88.2305V82.2422L212.211 81.9141V88.1016C212.211 88.4844 212.297 88.7773 212.468 88.9805C212.64 89.1758 212.89 89.2734 213.218 89.2734C213.367 89.2734 213.488 89.2656 213.582 89.25C213.683 89.2344 213.793 89.207 213.91 89.168L214.109 89.8945C213.906 89.9727 213.73 90.0234 213.582 90.0469C213.441 90.0781 213.269 90.0938 213.066 90.0938ZM210.195 84.6562V83.8359H214.004V84.6562H210.195ZM216.256 92.4609L217.557 89.3789L215.143 83.8359H216.104L218.319 88.9805L217.698 89.0273L219.878 83.8359H220.838L217.217 92.4609H216.256ZM227.231 90.1406C226.785 90.1406 226.379 90.0742 226.012 89.9414C225.653 89.8086 225.352 89.6211 225.11 89.3789C224.875 89.1289 224.719 88.8359 224.641 88.5L225.485 88.3359C225.602 88.6719 225.809 88.9297 226.106 89.1094C226.403 89.2812 226.774 89.3672 227.219 89.3672C227.68 89.3672 228.035 89.2773 228.285 89.0977C228.543 88.9102 228.672 88.6445 228.672 88.3008C228.672 88.043 228.59 87.8359 228.426 87.6797C228.262 87.5234 228.02 87.418 227.7 87.3633L226.692 87.1992C226.168 87.1133 225.762 86.918 225.473 86.6133C225.184 86.3086 225.039 85.9297 225.039 85.4766C225.039 85.125 225.129 84.8164 225.309 84.5508C225.496 84.2773 225.75 84.0664 226.071 83.918C226.399 83.7695 226.774 83.6953 227.196 83.6953C227.563 83.6953 227.891 83.7578 228.18 83.8828C228.477 84.0078 228.723 84.1875 228.918 84.4219C229.114 84.6562 229.242 84.9375 229.305 85.2656L228.485 85.4062C228.399 85.0859 228.246 84.8477 228.028 84.6914C227.809 84.5273 227.528 84.4453 227.184 84.4453C226.801 84.4453 226.504 84.5312 226.293 84.7031C226.082 84.8672 225.977 85.1094 225.977 85.4297C225.977 85.7188 226.067 85.9375 226.246 86.0859C226.426 86.2344 226.7 86.3398 227.067 86.4023L227.782 86.5195C228.391 86.6211 228.852 86.8203 229.164 87.1172C229.477 87.4141 229.633 87.793 229.633 88.2539C229.633 88.6367 229.532 88.9727 229.328 89.2617C229.133 89.543 228.856 89.7617 228.496 89.918C228.137 90.0664 227.715 90.1406 227.231 90.1406ZM233.421 90.0938C233.046 90.0938 232.722 90.0234 232.448 89.8828C232.183 89.7344 231.98 89.5195 231.839 89.2383C231.698 88.957 231.628 88.6211 231.628 88.2305V82.2422L232.566 81.9141V88.1016C232.566 88.4844 232.652 88.7773 232.823 88.9805C232.995 89.1758 233.245 89.2734 233.573 89.2734C233.722 89.2734 233.843 89.2656 233.937 89.25C234.038 89.2344 234.148 89.207 234.265 89.168L234.464 89.8945C234.261 89.9727 234.085 90.0234 233.937 90.0469C233.796 90.0781 233.624 90.0938 233.421 90.0938ZM230.55 84.6562V83.8359H234.359V84.6562H230.55ZM237.748 90.1406C237.186 90.1406 236.725 89.9844 236.365 89.6719C236.006 89.3594 235.826 88.9531 235.826 88.4531C235.826 87.9453 236.025 87.5273 236.424 87.1992C236.83 86.8633 237.42 86.6211 238.193 86.4727L238.955 86.332C239.119 86.3008 239.248 86.2617 239.342 86.2148C239.436 86.168 239.502 86.1055 239.541 86.0273C239.58 85.9492 239.6 85.8516 239.6 85.7344C239.6 85.4844 239.537 85.2656 239.412 85.0781C239.287 84.8906 239.115 84.7422 238.897 84.6328C238.678 84.5234 238.428 84.4688 238.147 84.4688C237.74 84.4688 237.385 84.5781 237.08 84.7969C236.783 85.0078 236.596 85.2812 236.518 85.6172L235.639 85.4297C235.701 85.0938 235.85 84.7969 236.084 84.5391C236.326 84.2812 236.627 84.0781 236.986 83.9297C237.346 83.7734 237.736 83.6953 238.158 83.6953C238.619 83.6953 239.029 83.7891 239.389 83.9766C239.748 84.1641 240.029 84.4219 240.232 84.75C240.436 85.0781 240.537 85.457 240.537 85.8867V90H239.693V88.7227L239.904 88.7344C239.772 89.0312 239.596 89.2852 239.377 89.4961C239.166 89.707 238.924 89.8672 238.65 89.9766C238.377 90.0859 238.076 90.1406 237.748 90.1406ZM237.959 89.3672C238.272 89.3672 238.549 89.3008 238.791 89.168C239.041 89.0352 239.236 88.8555 239.377 88.6289C239.525 88.3945 239.6 88.1328 239.6 87.8438V86.5547L239.799 86.7188C239.65 86.8281 239.514 86.9102 239.389 86.9648C239.264 87.0117 239.084 87.0586 238.85 87.1055L237.936 87.293C237.568 87.3711 237.283 87.5039 237.08 87.6914C236.885 87.8789 236.787 88.1094 236.787 88.3828C236.787 88.6797 236.893 88.918 237.104 89.0977C237.315 89.2773 237.6 89.3672 237.959 89.3672ZM242.579 90V83.8359H243.493V85.5117L243.188 85.3359C243.321 84.9922 243.501 84.6992 243.727 84.457C243.954 84.2148 244.216 84.0273 244.513 83.8945C244.817 83.7617 245.138 83.6953 245.474 83.6953C245.888 83.6953 246.251 83.7891 246.563 83.9766C246.884 84.1562 247.134 84.4102 247.313 84.7383C247.501 85.0586 247.595 85.4297 247.595 85.8516V90H246.657V86.0977C246.657 85.7695 246.599 85.4844 246.481 85.2422C246.372 84.9922 246.212 84.8008 246.001 84.668C245.798 84.5352 245.556 84.4688 245.274 84.4688C244.962 84.4688 244.669 84.5547 244.395 84.7266C244.13 84.8906 243.915 85.1133 243.751 85.3945C243.595 85.668 243.517 85.9688 243.517 86.2969V90H242.579ZM251.887 90.1406C251.355 90.1406 250.887 90.0039 250.48 89.7305C250.074 89.457 249.754 89.0781 249.519 88.5938C249.293 88.1094 249.18 87.5508 249.18 86.918C249.18 86.4414 249.246 86.0078 249.379 85.6172C249.512 85.2188 249.695 84.8789 249.93 84.5977C250.172 84.3086 250.457 84.0859 250.785 83.9297C251.121 83.7734 251.488 83.6953 251.887 83.6953C252.277 83.6953 252.637 83.7773 252.965 83.9414C253.293 84.0977 253.574 84.3242 253.808 84.6211C254.043 84.9102 254.211 85.2578 254.312 85.6641L253.984 85.8398V81.7031H254.922V90H254.019V88.0078L254.312 88.1719C254.211 88.5781 254.043 88.9297 253.808 89.2266C253.574 89.5234 253.293 89.75 252.965 89.9062C252.644 90.0625 252.285 90.1406 251.887 90.1406ZM252.062 89.3672C252.461 89.3672 252.801 89.2695 253.082 89.0742C253.371 88.8711 253.594 88.5859 253.75 88.2188C253.906 87.8516 253.984 87.418 253.984 86.918C253.984 86.418 253.906 85.9844 253.75 85.6172C253.594 85.25 253.371 84.9688 253.082 84.7734C252.801 84.5703 252.461 84.4688 252.062 84.4688C251.664 84.4688 251.32 84.5703 251.031 84.7734C250.75 84.9688 250.531 85.25 250.375 85.6172C250.219 85.9844 250.14 86.418 250.14 86.918C250.14 87.418 250.219 87.8516 250.375 88.2188C250.531 88.5859 250.75 88.8711 251.031 89.0742C251.32 89.2695 251.664 89.3672 252.062 89.3672ZM258.686 90.1406C258.124 90.1406 257.663 89.9844 257.303 89.6719C256.944 89.3594 256.764 88.9531 256.764 88.4531C256.764 87.9453 256.964 87.5273 257.362 87.1992C257.768 86.8633 258.358 86.6211 259.132 86.4727L259.893 86.332C260.057 86.3008 260.186 86.2617 260.28 86.2148C260.374 86.168 260.44 86.1055 260.479 86.0273C260.518 85.9492 260.538 85.8516 260.538 85.7344C260.538 85.4844 260.475 85.2656 260.35 85.0781C260.225 84.8906 260.053 84.7422 259.835 84.6328C259.616 84.5234 259.366 84.4688 259.085 84.4688C258.678 84.4688 258.323 84.5781 258.018 84.7969C257.721 85.0078 257.534 85.2812 257.456 85.6172L256.577 85.4297C256.639 85.0938 256.788 84.7969 257.022 84.5391C257.264 84.2812 257.565 84.0781 257.925 83.9297C258.284 83.7734 258.675 83.6953 259.096 83.6953C259.557 83.6953 259.967 83.7891 260.327 83.9766C260.686 84.1641 260.967 84.4219 261.171 84.75C261.374 85.0781 261.475 85.457 261.475 85.8867V90H260.632V88.7227L260.842 88.7344C260.71 89.0312 260.534 89.2852 260.315 89.4961C260.104 89.707 259.862 89.8672 259.589 89.9766C259.315 90.0859 259.014 90.1406 258.686 90.1406ZM258.897 89.3672C259.21 89.3672 259.487 89.3008 259.729 89.168C259.979 89.0352 260.175 88.8555 260.315 88.6289C260.464 88.3945 260.538 88.1328 260.538 87.8438V86.5547L260.737 86.7188C260.589 86.8281 260.452 86.9102 260.327 86.9648C260.202 87.0117 260.022 87.0586 259.788 87.1055L258.874 87.293C258.507 87.3711 258.221 87.5039 258.018 87.6914C257.823 87.8789 257.725 88.1094 257.725 88.3828C257.725 88.6797 257.831 88.918 258.042 89.0977C258.253 89.2773 258.538 89.3672 258.897 89.3672ZM263.517 90V83.8359H264.42V85.793L264.267 85.6875C264.377 85.0625 264.634 84.582 265.041 84.2461C265.455 83.9102 265.994 83.7422 266.658 83.7422L266.646 84.6328C266.248 84.5938 265.88 84.6523 265.545 84.8086C265.216 84.9648 264.951 85.1992 264.748 85.5117C264.552 85.8164 264.455 86.1797 264.455 86.6016V90H263.517ZM270.176 90.1406C269.645 90.1406 269.176 90.0039 268.77 89.7305C268.364 89.457 268.043 89.0781 267.809 88.5938C267.582 88.1094 267.469 87.5508 267.469 86.918C267.469 86.4414 267.536 86.0078 267.668 85.6172C267.801 85.2188 267.985 84.8789 268.219 84.5977C268.461 84.3086 268.747 84.0859 269.075 83.9297C269.411 83.7734 269.778 83.6953 270.176 83.6953C270.567 83.6953 270.926 83.7773 271.254 83.9414C271.582 84.0977 271.864 84.3242 272.098 84.6211C272.332 84.9102 272.5 85.2578 272.602 85.6641L272.274 85.8398V81.7031H273.211V90H272.309V88.0078L272.602 88.1719C272.5 88.5781 272.332 88.9297 272.098 89.2266C271.864 89.5234 271.582 89.75 271.254 89.9062C270.934 90.0625 270.575 90.1406 270.176 90.1406ZM270.352 89.3672C270.75 89.3672 271.09 89.2695 271.372 89.0742C271.661 88.8711 271.883 88.5859 272.04 88.2188C272.196 87.8516 272.274 87.418 272.274 86.918C272.274 86.418 272.196 85.9844 272.04 85.6172C271.883 85.25 271.661 84.9688 271.372 84.7734C271.09 84.5703 270.75 84.4688 270.352 84.4688C269.954 84.4688 269.61 84.5703 269.321 84.7734C269.04 84.9688 268.821 85.25 268.665 85.6172C268.508 85.9844 268.43 86.418 268.43 86.918C268.43 87.418 268.508 87.8516 268.665 88.2188C268.821 88.5859 269.04 88.8711 269.321 89.0742C269.61 89.2695 269.954 89.3672 270.352 89.3672ZM275.734 90.082C275.538 90.082 275.378 90.0195 275.253 89.8945C275.128 89.7695 275.066 89.6094 275.066 89.4141C275.066 89.2109 275.128 89.0508 275.253 88.9336C275.378 88.8086 275.538 88.7461 275.734 88.7461C275.937 88.7461 276.097 88.8086 276.214 88.9336C276.339 89.0508 276.402 89.2109 276.402 89.4141C276.402 89.6094 276.339 89.7695 276.214 89.8945C276.097 90.0195 275.937 90.082 275.734 90.082Z" fill="#0071CE"/>
</g>
<g opacity="0.9">
<path d="M10.3057 14.222H16.1308C16.692 14.222 17.1461 13.7674 17.1461 13.2067C17.1461 12.646 16.692 12.1914 16.1308 12.1914H10.3057C6.94646 12.1914 4.21387 14.924 4.21387 18.2832V42.6505C4.21387 46.0098 6.94646 48.7423 10.3057 48.7423H16.1308C16.692 48.7423 17.1461 48.2877 17.1461 47.727C17.1461 47.1663 16.692 46.7117 16.1308 46.7117H10.3057C8.06589 46.7117 6.24449 44.8898 6.24449 42.6505V18.2832C6.24444 16.0439 8.06584 14.222 10.3057 14.222ZM34.6729 12.1914H28.8478C28.2867 12.1914 27.8325 12.646 27.8325 13.2067C27.8325 13.7674 28.2866 14.222 28.8478 14.222H34.6729C36.9127 14.222 38.7341 16.0439 38.7341 18.2832V42.6505C38.7341 44.8898 36.9127 46.7117 34.6729 46.7117H28.8478C28.2867 46.7117 27.8325 47.1663 27.8325 47.727C27.8325 48.2877 28.2866 48.7423 28.8478 48.7423H34.6729C38.0322 48.7423 40.7648 46.0098 40.7648 42.6505V18.2832C40.7648 14.924 38.0322 12.1914 34.6729 12.1914Z" fill="#0071CE"/>
<path d="M32.1347 31.9892H11.8286C10.9875 31.9892 10.3057 31.3074 10.3057 30.4663C10.3057 29.6252 10.9875 28.9434 11.8286 28.9434H32.1347C32.9757 28.9434 33.6576 29.6252 33.6576 30.4663C33.6576 31.3074 32.9758 31.9892 32.1347 31.9892Z" fill="#0071CE"/>
<path d="M60.1719 24L64.5469 12.9375H66.5312L70.9375 24H68.7656L67.8125 21.4844H63.3125L62.3906 24H60.1719ZM63.9219 19.875H67.2031L65.5469 15.4688L63.9219 19.875ZM74.6981 24.1875C73.0262 24.1875 72.1669 23.2031 72.1669 21.6094V12.8281H74.2137V21.3281C74.2137 22.0938 74.5106 22.5 75.0575 22.5C75.2919 22.5 75.4325 22.4844 75.6669 22.3906L76.0575 23.9219C75.6356 24.1094 75.2137 24.1875 74.6981 24.1875ZM79.7087 24.1875C78.0369 24.1875 77.1775 23.2031 77.1775 21.6094V12.8281H79.2244V21.3281C79.2244 22.0938 79.5212 22.5 80.0681 22.5C80.3025 22.5 80.4431 22.4844 80.6775 22.3906L81.0681 23.9219C80.6462 24.1094 80.2244 24.1875 79.7087 24.1875ZM89.5581 27.3438C87.3862 27.3438 85.7925 26.3594 85.3862 24.875L87.2925 24.4062C87.5894 25.1875 88.4175 25.6406 89.5581 25.6406C90.9331 25.6406 91.6831 24.9844 91.6831 23.7656V22.4688C91.1519 23.2344 90.2612 23.6875 89.23 23.6875C87.1675 23.6875 85.6362 21.9375 85.6362 19.5938C85.6362 17.2344 87.1675 15.5 89.23 15.5C90.3237 15.5 91.23 15.9844 91.7612 16.8281L91.7769 15.6875H93.7144V23.7656C93.7144 25.9688 92.0894 27.3438 89.5581 27.3438ZM89.6831 22.0625C90.9175 22.0625 91.6831 21.1094 91.6831 19.5938C91.6831 18.0781 90.9175 17.125 89.6831 17.125C88.4487 17.125 87.6987 18.0938 87.6987 19.5938C87.6987 21.0938 88.4487 22.0625 89.6831 22.0625ZM99.6156 24.1875C97.1625 24.1875 95.5062 22.4375 95.5062 19.8438C95.5062 17.25 97.1781 15.5 99.6156 15.5C102.084 15.5 103.741 17.25 103.741 19.8438C103.741 22.4375 102.084 24.1875 99.6156 24.1875ZM99.6156 22.5312C100.928 22.5312 101.678 21.5469 101.678 19.8438C101.678 18.1406 100.912 17.1406 99.6156 17.1406C98.3344 17.1406 97.5687 18.1406 97.5687 19.8438C97.5687 21.5469 98.3187 22.5312 99.6156 22.5312ZM109.345 24.1875C106.892 24.1875 105.236 22.4375 105.236 19.8438C105.236 17.25 106.908 15.5 109.345 15.5C111.814 15.5 113.47 17.25 113.47 19.8438C113.47 22.4375 111.814 24.1875 109.345 24.1875ZM109.345 22.5312C110.658 22.5312 111.408 21.5469 111.408 19.8438C111.408 18.1406 110.642 17.1406 109.345 17.1406C108.064 17.1406 107.298 18.1406 107.298 19.8438C107.298 21.5469 108.048 22.5312 109.345 22.5312ZM118.543 24.1875C116.449 24.1875 114.965 22.4062 114.965 19.8438C114.965 17.2812 116.449 15.5 118.543 15.5C119.621 15.5 120.543 15.9531 121.106 16.7344V12.7656H123.153V24H121.199V22.8125C120.637 23.6719 119.684 24.1875 118.543 24.1875ZM119.059 22.5312C120.324 22.5312 121.106 21.4844 121.106 19.8438C121.106 18.2031 120.324 17.1562 119.059 17.1562C117.809 17.1562 117.028 18.2031 117.028 19.8438C117.028 21.4844 117.809 22.5312 119.059 22.5312ZM125.772 20.5938L125.46 12.9375H127.585L127.257 20.5938H125.772ZM126.522 24.1094C125.835 24.1094 125.319 23.625 125.319 22.9531C125.319 22.2656 125.835 21.7812 126.522 21.7812C127.194 21.7812 127.71 22.2656 127.71 22.9531C127.71 23.625 127.21 24.1094 126.522 24.1094Z" fill="#242628"/>
<path d="M65.3867 47H63.541V43.1992L60.3691 37.3203H62.4199L64.4707 41.2441L66.5078 37.3203H68.5859L65.3867 43.1992V47ZM72.2743 47.1641C70.1278 47.1641 68.6786 45.6328 68.6786 43.3633C68.6786 41.0938 70.1415 39.5625 72.2743 39.5625C74.4345 39.5625 75.8837 41.0938 75.8837 43.3633C75.8837 45.6328 74.4345 47.1641 72.2743 47.1641ZM72.2743 45.7148C73.4227 45.7148 74.079 44.8535 74.079 43.3633C74.079 41.873 73.4091 40.998 72.2743 40.998C71.1532 40.998 70.4833 41.873 70.4833 43.3633C70.4833 44.8535 71.1395 45.7148 72.2743 45.7148ZM79.9685 47.1641C78.492 47.1641 77.3845 46.0703 77.3845 44.5527V39.7266H79.1755V44.1016C79.1755 45.0723 79.6951 45.6328 80.4334 45.6328C81.322 45.6328 82.0193 44.8672 82.0193 43.8828V39.7266H83.8103V47H82.1013V46.084C81.5818 46.7812 80.8298 47.1641 79.9685 47.1641ZM85.8307 47V39.7266H87.5397V41.1621C87.9498 40.1367 88.8522 39.6035 90.1647 39.6035L90.151 41.2852C88.7155 41.1348 87.6217 41.873 87.6217 43.3633V47H85.8307ZM94.8207 49.7617V39.7266H96.5297V40.752C97.0219 40.0137 97.8695 39.5625 98.8539 39.5625C100.686 39.5625 101.985 41.1211 101.985 43.3633C101.985 45.6055 100.686 47.1641 98.8539 47.1641C97.9105 47.1641 97.1176 46.7539 96.6117 46.0703V49.7617H94.8207ZM98.4027 45.7148C99.5102 45.7148 100.18 44.7988 100.18 43.3633C100.18 41.9277 99.5102 41.0117 98.4027 41.0117C97.2953 41.0117 96.6117 41.9277 96.6117 43.3633C96.6117 44.7988 97.2953 45.7148 98.4027 45.7148ZM103.568 47V37.2246H105.359V40.752C105.878 40.0684 106.616 39.6992 107.464 39.6992C108.913 39.6992 109.993 40.793 109.993 42.2832V47H108.202V42.7207C108.202 41.791 107.71 41.2578 106.972 41.2578C106.07 41.2578 105.359 42.0098 105.359 42.9805V47H103.568ZM115.104 47.1641C112.957 47.1641 111.508 45.6328 111.508 43.3633C111.508 41.0938 112.971 39.5625 115.104 39.5625C117.264 39.5625 118.713 41.0938 118.713 43.3633C118.713 45.6328 117.264 47.1641 115.104 47.1641ZM115.104 45.7148C116.252 45.7148 116.908 44.8535 116.908 43.3633C116.908 41.873 116.238 40.998 115.104 40.998C113.983 40.998 113.313 41.873 113.313 43.3633C113.313 44.8535 113.969 45.7148 115.104 45.7148ZM123.386 47.1094C121.855 47.1094 120.897 46.1523 120.897 44.5664V41.2168H119.64V39.7266H120.897V38.0039L122.689 37.4023V39.7266H124.726V41.2168H122.689V44.3613C122.689 45.1133 123.085 45.5371 123.782 45.5371C124.056 45.5371 124.247 45.5098 124.521 45.4141L124.89 46.8223C124.288 47.041 123.946 47.1094 123.386 47.1094ZM129.371 47.1641C127.225 47.1641 125.775 45.6328 125.775 43.3633C125.775 41.0938 127.238 39.5625 129.371 39.5625C131.531 39.5625 132.98 41.0938 132.98 43.3633C132.98 45.6328 131.531 47.1641 129.371 47.1641ZM129.371 45.7148C130.519 45.7148 131.176 44.8535 131.176 43.3633C131.176 41.873 130.506 40.998 129.371 40.998C128.25 40.998 127.58 41.873 127.58 43.3633C127.58 44.8535 128.236 45.7148 129.371 45.7148ZM138.867 38.8105C138.211 38.8105 137.732 38.3457 137.732 37.7305C137.732 37.0879 138.211 36.6367 138.867 36.6367C139.523 36.6367 140.002 37.0879 140.002 37.7305C140.002 38.3457 139.523 38.8105 138.867 38.8105ZM137.965 47V39.7266H139.756V47H137.965ZM144.442 47.1641C142.774 47.1641 141.503 46.4121 141.215 45.2363L142.747 44.9082C142.993 45.4961 143.581 45.8105 144.387 45.8105C145.208 45.8105 145.686 45.4824 145.686 44.9219C145.686 44.4707 145.372 44.1973 144.77 44.1016L143.745 43.9375C142.446 43.7461 141.667 42.9395 141.667 41.8184C141.667 40.4922 142.829 39.5625 144.469 39.5625C145.768 39.5625 146.835 40.2734 147.094 41.3945L145.604 41.6816C145.44 41.1484 145.044 40.875 144.456 40.875C143.772 40.875 143.376 41.1621 143.376 41.6953C143.376 42.1738 143.69 42.4199 144.401 42.5293L145.153 42.6523C146.657 42.8848 147.491 43.6641 147.491 44.8262C147.491 46.248 146.26 47.1641 144.442 47.1641ZM155.537 47.1094C154.006 47.1094 153.049 46.1523 153.049 44.5664V41.2168H151.791V39.7266H153.049V38.0039L154.84 37.4023V39.7266H156.877V41.2168H154.84V44.3613C154.84 45.1133 155.237 45.5371 155.934 45.5371C156.207 45.5371 156.399 45.5098 156.672 45.4141L157.041 46.8223C156.44 47.041 156.098 47.1094 155.537 47.1094ZM161.523 47.1641C159.376 47.1641 157.927 45.6328 157.927 43.3633C157.927 41.0938 159.39 39.5625 161.523 39.5625C163.683 39.5625 165.132 41.0938 165.132 43.3633C165.132 45.6328 163.683 47.1641 161.523 47.1641ZM161.523 45.7148C162.671 45.7148 163.327 44.8535 163.327 43.3633C163.327 41.873 162.657 40.998 161.523 40.998C160.402 40.998 159.732 41.873 159.732 43.3633C159.732 44.8535 160.388 45.7148 161.523 45.7148ZM166.715 49.7617V39.7266H168.424V40.752C168.916 40.0137 169.764 39.5625 170.748 39.5625C172.58 39.5625 173.879 41.1211 173.879 43.3633C173.879 45.6055 172.58 47.1641 170.748 47.1641C169.805 47.1641 169.012 46.7539 168.506 46.0703V49.7617H166.715ZM170.297 45.7148C171.404 45.7148 172.074 44.7988 172.074 43.3633C172.074 41.9277 171.404 41.0117 170.297 41.0117C169.19 41.0117 168.506 41.9277 168.506 43.3633C168.506 44.7988 169.19 45.7148 170.297 45.7148ZM178.863 47V39.7266H180.586V40.6426C181.105 39.9453 181.844 39.5625 182.705 39.5625C184.209 39.5625 185.289 40.6562 185.289 42.1738V47H183.498V42.625C183.498 41.6953 183.019 41.0938 182.24 41.0938C181.351 41.0938 180.654 41.8594 180.654 42.8438V47H178.863ZM190.399 47.1641C188.253 47.1641 186.803 45.6328 186.803 43.3633C186.803 41.0938 188.266 39.5625 190.399 39.5625C192.559 39.5625 194.009 41.0938 194.009 43.3633C194.009 45.6328 192.559 47.1641 190.399 47.1641ZM190.399 45.7148C191.548 45.7148 192.204 44.8535 192.204 43.3633C192.204 41.873 191.534 40.998 190.399 40.998C189.278 40.998 188.608 41.873 188.608 43.3633C188.608 44.8535 189.264 45.7148 190.399 45.7148ZM198.681 47.1094C197.15 47.1094 196.193 46.1523 196.193 44.5664V41.2168H194.935V39.7266H196.193V38.0039L197.984 37.4023V39.7266H200.021V41.2168H197.984V44.3613C197.984 45.1133 198.38 45.5371 199.078 45.5371C199.351 45.5371 199.543 45.5098 199.816 45.4141L200.185 46.8223C199.584 47.041 199.242 47.1094 198.681 47.1094ZM204.68 47.1641C202.52 47.1641 201.071 45.6738 201.071 43.4453C201.071 41.1484 202.534 39.5625 204.694 39.5625C206.348 39.5625 207.62 40.4648 208.002 41.9277L206.321 42.2832C206.061 41.4492 205.528 40.998 204.749 40.998C203.573 40.998 202.875 41.9414 202.875 43.377C202.875 44.7578 203.614 45.7148 204.666 45.7148C205.432 45.7148 205.952 45.2637 206.184 44.3887L207.866 44.7441C207.497 46.2891 206.375 47.1641 204.68 47.1641ZM209.462 47V37.2246H211.253V40.752C211.773 40.0684 212.511 39.6992 213.359 39.6992C214.808 39.6992 215.888 40.793 215.888 42.2832V47H214.097V42.7207C214.097 41.791 213.605 41.2578 212.867 41.2578C211.964 41.2578 211.253 42.0098 211.253 42.9805V47H209.462Z" fill="#707577"/>
<path d="M279 30C279 23.3726 284.373 18 291 18V18C297.627 18 303 23.3726 303 30V30C303 36.6274 297.627 42 291 42V42C284.373 42 279 36.6274 279 30V30Z" fill="#BAF075"/>
<path fill-rule="evenodd" clip-rule="evenodd" d="M295.177 26.3834C295.518 26.6192 295.602 27.0864 295.367 27.427L290.867 33.927C290.729 34.1252 290.505 34.2454 290.264 34.2499C290.023 34.2545 289.795 34.1429 289.65 33.9501L286.65 29.9501C286.402 29.6187 286.469 29.1486 286.8 28.9001C287.131 28.6515 287.602 28.7187 287.85 29.0501L290.226 32.2176L294.133 26.5732C294.369 26.2326 294.836 26.1476 295.177 26.3834Z" fill="#062814"/>
</g>
<defs>
<clipPath id="clip0_2159_67727">
<rect width="303" height="20" fill="white" transform="translate(0 76)"/>
</clipPath>
</defs>
</svg>
